%TF.GenerationSoftware,KiCad,Pcbnew,6.0.11+dfsg-1~bpo11+1*%
%TF.CreationDate,2023-04-29T04:06:51+00:00*%
%TF.ProjectId,slcam,736c6361-6d2e-46b6-9963-61645f706362,v0.2*%
%TF.SameCoordinates,Original*%
%TF.FileFunction,Soldermask,Top*%
%TF.FilePolarity,Negative*%
%FSLAX46Y46*%
G04 Gerber Fmt 4.6, Leading zero omitted, Abs format (unit mm)*
G04 Created by KiCad (PCBNEW 6.0.11+dfsg-1~bpo11+1) date 2023-04-29 04:06:51*
%MOMM*%
%LPD*%
G01*
G04 APERTURE LIST*
G04 Aperture macros list*
%AMRoundRect*
0 Rectangle with rounded corners*
0 $1 Rounding radius*
0 $2 $3 $4 $5 $6 $7 $8 $9 X,Y pos of 4 corners*
0 Add a 4 corners polygon primitive as box body*
4,1,4,$2,$3,$4,$5,$6,$7,$8,$9,$2,$3,0*
0 Add four circle primitives for the rounded corners*
1,1,$1+$1,$2,$3*
1,1,$1+$1,$4,$5*
1,1,$1+$1,$6,$7*
1,1,$1+$1,$8,$9*
0 Add four rect primitives between the rounded corners*
20,1,$1+$1,$2,$3,$4,$5,0*
20,1,$1+$1,$4,$5,$6,$7,0*
20,1,$1+$1,$6,$7,$8,$9,0*
20,1,$1+$1,$8,$9,$2,$3,0*%
G04 Aperture macros list end*
%ADD10RoundRect,0.051000X-0.850000X-0.850000X0.850000X-0.850000X0.850000X0.850000X-0.850000X0.850000X0*%
%ADD11O,1.802000X1.802000*%
%ADD12RoundRect,0.201000X0.150000X-0.650000X0.150000X0.650000X-0.150000X0.650000X-0.150000X-0.650000X0*%
%ADD13RoundRect,0.201000X-0.150000X0.825000X-0.150000X-0.825000X0.150000X-0.825000X0.150000X0.825000X0*%
%ADD14RoundRect,0.051000X0.850000X-0.850000X0.850000X0.850000X-0.850000X0.850000X-0.850000X-0.850000X0*%
%ADD15C,6.502000*%
%ADD16RoundRect,0.288500X-0.237500X0.287500X-0.237500X-0.287500X0.237500X-0.287500X0.237500X0.287500X0*%
%ADD17RoundRect,0.288500X0.287500X0.237500X-0.287500X0.237500X-0.287500X-0.237500X0.287500X-0.237500X0*%
%ADD18RoundRect,0.251000X-0.200000X-0.600000X0.200000X-0.600000X0.200000X0.600000X-0.200000X0.600000X0*%
%ADD19RoundRect,0.301001X-0.799999X-1.249999X0.799999X-1.249999X0.799999X1.249999X-0.799999X1.249999X0*%
%ADD20RoundRect,0.251000X0.600000X-0.200000X0.600000X0.200000X-0.600000X0.200000X-0.600000X-0.200000X0*%
%ADD21RoundRect,0.301001X1.249999X-0.799999X1.249999X0.799999X-1.249999X0.799999X-1.249999X-0.799999X0*%
%ADD22RoundRect,0.288500X-0.287500X-0.237500X0.287500X-0.237500X0.287500X0.237500X-0.287500X0.237500X0*%
%ADD23RoundRect,0.251000X0.200000X0.600000X-0.200000X0.600000X-0.200000X-0.600000X0.200000X-0.600000X0*%
%ADD24RoundRect,0.301001X0.799999X1.249999X-0.799999X1.249999X-0.799999X-1.249999X0.799999X-1.249999X0*%
G04 APERTURE END LIST*
D10*
%TO.C,J2*%
X205790000Y-53620000D03*
D11*
X205790000Y-56160000D03*
X205790000Y-58700000D03*
X205790000Y-61240000D03*
X205790000Y-63780000D03*
X205790000Y-66320000D03*
X205790000Y-68860000D03*
X205790000Y-71400000D03*
%TD*%
D12*
%TO.C,U2*%
X224790000Y-70866000D03*
X226060000Y-70866000D03*
X227330000Y-70866000D03*
X228600000Y-70866000D03*
X228600000Y-63666000D03*
X227330000Y-63666000D03*
X226060000Y-63666000D03*
X224790000Y-63666000D03*
%TD*%
D13*
%TO.C,U4*%
X220091000Y-59501000D03*
X218821000Y-59501000D03*
X217551000Y-59501000D03*
X216281000Y-59501000D03*
X215011000Y-59501000D03*
X213741000Y-59501000D03*
X212471000Y-59501000D03*
X211201000Y-59501000D03*
X211201000Y-64451000D03*
X212471000Y-64451000D03*
X213741000Y-64451000D03*
X215011000Y-64451000D03*
X216281000Y-64451000D03*
X217551000Y-64451000D03*
X218821000Y-64451000D03*
X220091000Y-64451000D03*
%TD*%
D14*
%TO.C,J3*%
X211074000Y-53848000D03*
D11*
X213614000Y-53848000D03*
X216154000Y-53848000D03*
X218694000Y-53848000D03*
%TD*%
D15*
%TO.C,H1*%
X200914000Y-53440000D03*
%TD*%
%TO.C,H2*%
X200914000Y-71530000D03*
%TD*%
%TO.C,H3*%
X235360000Y-71530000D03*
%TD*%
%TO.C,H4*%
X235360000Y-53440000D03*
%TD*%
D16*
%TO.C,C1*%
X222961200Y-69240400D03*
X222961200Y-70990400D03*
%TD*%
D17*
%TO.C,D1*%
X201930000Y-61468000D03*
X200180000Y-61468000D03*
%TD*%
D18*
%TO.C,J1*%
X211759000Y-69482000D03*
X213009000Y-69482000D03*
X214259000Y-69482000D03*
X215509000Y-69482000D03*
X216759000Y-69482000D03*
X218009000Y-69482000D03*
D19*
X209209000Y-72382000D03*
X220559000Y-72382000D03*
%TD*%
D20*
%TO.C,J4*%
X233566000Y-63734000D03*
X233566000Y-62484000D03*
X233566000Y-61234000D03*
D21*
X236466000Y-58684000D03*
X236466000Y-66284000D03*
%TD*%
D16*
%TO.C,R1*%
X222656400Y-65356800D03*
X222656400Y-67106800D03*
%TD*%
D17*
%TO.C,R2*%
X201930000Y-59791600D03*
X200180000Y-59791600D03*
%TD*%
D22*
%TO.C,R3*%
X225134200Y-73812400D03*
X226884200Y-73812400D03*
%TD*%
D23*
%TO.C,J5*%
X227564000Y-55486000D03*
X226314000Y-55486000D03*
X225064000Y-55486000D03*
D24*
X230114000Y-52586000D03*
X222514000Y-52586000D03*
%TD*%
D22*
%TO.C,C2*%
X211113400Y-56388000D03*
X212863400Y-56388000D03*
%TD*%
%TO.C,D2*%
X228549200Y-73812400D03*
X230299200Y-73812400D03*
%TD*%
M02*
