%TF.GenerationSoftware,KiCad,Pcbnew,6.0.11+dfsg-1~bpo11+1*%
%TF.CreationDate,2023-04-29T04:06:51+00:00*%
%TF.ProjectId,slcam,736c6361-6d2e-46b6-9963-61645f706362,v0.2*%
%TF.SameCoordinates,Original*%
%TF.FileFunction,Copper,L3,Inr*%
%TF.FilePolarity,Positive*%
%FSLAX46Y46*%
G04 Gerber Fmt 4.6, Leading zero omitted, Abs format (unit mm)*
G04 Created by KiCad (PCBNEW 6.0.11+dfsg-1~bpo11+1) date 2023-04-29 04:06:51*
%MOMM*%
%LPD*%
G01*
G04 APERTURE LIST*
%TA.AperFunction,ComponentPad*%
%ADD10R,1.700000X1.700000*%
%TD*%
%TA.AperFunction,ComponentPad*%
%ADD11O,1.700000X1.700000*%
%TD*%
%TA.AperFunction,ComponentPad*%
%ADD12C,6.400000*%
%TD*%
%TA.AperFunction,ViaPad*%
%ADD13C,0.800000*%
%TD*%
%TA.AperFunction,Conductor*%
%ADD14C,0.250000*%
%TD*%
G04 APERTURE END LIST*
D10*
%TO.N,/SPI_NSS_IMG*%
%TO.C,J2*%
X205790000Y-53620000D03*
D11*
%TO.N,/SPI2_MOSI*%
X205790000Y-56160000D03*
%TO.N,/SPI2_MISO*%
X205790000Y-58700000D03*
%TO.N,/SPI2_SCK*%
X205790000Y-61240000D03*
%TO.N,GND*%
X205790000Y-63780000D03*
%TO.N,/3V3_IMG_SENSOR*%
X205790000Y-66320000D03*
%TO.N,/I2C_SDA*%
X205790000Y-68860000D03*
%TO.N,/I2C_SCL*%
X205790000Y-71400000D03*
%TD*%
D10*
%TO.N,GND*%
%TO.C,J3*%
X211074000Y-53848000D03*
D11*
%TO.N,VCC*%
X213614000Y-53848000D03*
%TO.N,/SWCLK*%
X216154000Y-53848000D03*
%TO.N,/SWDIO*%
X218694000Y-53848000D03*
%TD*%
D12*
%TO.N,N/C*%
%TO.C,H1*%
X200914000Y-53440000D03*
%TD*%
%TO.N,N/C*%
%TO.C,H2*%
X200914000Y-71530000D03*
%TD*%
%TO.N,N/C*%
%TO.C,H3*%
X235360000Y-71530000D03*
%TD*%
%TO.N,N/C*%
%TO.C,H4*%
X235360000Y-53440000D03*
%TD*%
D13*
%TO.N,/SPI2_MOSI*%
X214582609Y-61547033D03*
X228549200Y-61112400D03*
%TO.N,/SPI2_SCK*%
X227736400Y-62077600D03*
X213862716Y-62271533D03*
%TO.N,/SPI_NSS*%
X218176898Y-71275770D03*
X217554942Y-62558914D03*
%TO.N,/OSC_IN2*%
X223926400Y-64603469D03*
X230276400Y-63804800D03*
%TO.N,/OSC_OUT2*%
X231317808Y-63677808D03*
X224831342Y-65338258D03*
%TO.N,/CAN_SHDN*%
X227990400Y-52527200D03*
X219608400Y-56438800D03*
%TO.N,/CAN_S*%
X225704400Y-53594000D03*
X220343492Y-57617248D03*
%TO.N,/FLASH_WP*%
X222453200Y-59232800D03*
X227431600Y-60858400D03*
%TO.N,/FLASH_HR*%
X228549200Y-69291200D03*
X222961200Y-60147200D03*
%TO.N,GND*%
X223874508Y-72301899D03*
X231648000Y-59944000D03*
X209905340Y-66900067D03*
X223418400Y-63144400D03*
X226699310Y-57584114D03*
X216215829Y-61075500D03*
X203259568Y-63424233D03*
X202965109Y-57969203D03*
X219456000Y-61214000D03*
X207684157Y-62861398D03*
X211875998Y-71719462D03*
X227299379Y-59020643D03*
X215544400Y-56337200D03*
X210914757Y-57558174D03*
%TO.N,/RESET*%
X220726000Y-66954400D03*
%TO.N,VCC*%
X216533789Y-55756717D03*
X209539521Y-61117670D03*
X210592701Y-66090510D03*
X227652581Y-67134899D03*
X207826560Y-61320012D03*
X200050400Y-63093600D03*
X214158678Y-72875069D03*
%TO.N,/SPI_SCK*%
X216273572Y-62608328D03*
%TO.N,/SPI_MISO*%
X214376000Y-68072000D03*
%TO.N,/SPI_MOSI*%
X212852000Y-67818000D03*
X216408000Y-71882000D03*
%TO.N,/I2C_SCL*%
X221333733Y-57460547D03*
%TO.N,/I2C_SDA*%
X207877524Y-66895134D03*
X219405200Y-62331600D03*
%TO.N,/3V3_IMG_SENSOR*%
X219151200Y-69138800D03*
X208280000Y-68580000D03*
%TO.N,/SWCLK*%
X218096500Y-56353495D03*
%TO.N,/CAN_N*%
X231394000Y-56896000D03*
X236321600Y-61214000D03*
%TO.N,/CAN_P*%
X236524800Y-62484000D03*
X231394000Y-58166000D03*
%TO.N,/UART_TX*%
X207873600Y-57251600D03*
%TO.N,/UART_RX*%
X208940400Y-57099200D03*
%TO.N,/EN_SWITCH*%
X213050984Y-66523873D03*
%TO.N,/SPI_NSS_FLASH*%
X228319288Y-65247403D03*
X211466546Y-62223783D03*
%TO.N,/HEARTBEAT*%
X230845484Y-69227294D03*
%TD*%
D14*
%TO.N,/SPI2_MOSI*%
X214426800Y-61391224D02*
X214426800Y-56160000D01*
X221742000Y-58420000D02*
X222665014Y-58420000D01*
X222665014Y-58420000D02*
X224378903Y-60133889D01*
X224378903Y-60133889D02*
X227731703Y-60133889D01*
X221488000Y-58674000D02*
X221742000Y-58420000D01*
X214582609Y-61547033D02*
X214426800Y-61391224D01*
X227731703Y-60133889D02*
X228549200Y-60951386D01*
X228549200Y-60951386D02*
X228549200Y-61112400D01*
X214582609Y-61547033D02*
X214582609Y-61261391D01*
X217170000Y-58674000D02*
X221488000Y-58674000D01*
X214582609Y-61261391D02*
X217170000Y-58674000D01*
X214426800Y-56160000D02*
X205790000Y-56160000D01*
%TO.N,/SPI2_SCK*%
X227736400Y-62077600D02*
X227597311Y-61938511D01*
X213862716Y-62271533D02*
X211639268Y-60048085D01*
X217855045Y-61834403D02*
X215424916Y-61834403D01*
X208356200Y-58978800D02*
X208051200Y-58978800D01*
X221423889Y-61938511D02*
X220007120Y-63355280D01*
X208051200Y-58978800D02*
X205790000Y-61240000D01*
X215424916Y-61834403D02*
X214987786Y-62271533D01*
X210503111Y-56831889D02*
X208356200Y-58978800D01*
X211639268Y-57258071D02*
X211213086Y-56831889D01*
X214987786Y-62271533D02*
X213862716Y-62271533D01*
X219375922Y-63355280D02*
X217855045Y-61834403D01*
X220007120Y-63355280D02*
X219375922Y-63355280D01*
X211213086Y-56831889D02*
X210503111Y-56831889D01*
X227597311Y-61938511D02*
X221423889Y-61938511D01*
X211639268Y-60048085D02*
X211639268Y-57258071D01*
%TO.N,/OSC_IN2*%
X224092931Y-64603469D02*
X224891600Y-63804800D01*
X224891600Y-63804800D02*
X230276400Y-63804800D01*
X223926400Y-64603469D02*
X224092931Y-64603469D01*
%TO.N,/OSC_OUT2*%
X230335814Y-64770000D02*
X229362000Y-64770000D01*
X231317808Y-63677808D02*
X231317808Y-63788006D01*
X225653600Y-64516000D02*
X224831342Y-65338258D01*
X229108000Y-64516000D02*
X225653600Y-64516000D01*
X229362000Y-64770000D02*
X229108000Y-64516000D01*
X231317808Y-63788006D02*
X230335814Y-64770000D01*
%TO.N,/CAN_SHDN*%
X224078800Y-56438800D02*
X219608400Y-56438800D01*
X227990400Y-52527200D02*
X224078800Y-56438800D01*
%TO.N,/CAN_S*%
X219720048Y-57617248D02*
X220343492Y-57617248D01*
X225704400Y-53594000D02*
X221284800Y-53594000D01*
X218846400Y-56032400D02*
X218846400Y-56743600D01*
X218846400Y-56743600D02*
X219720048Y-57617248D01*
X221284800Y-53594000D02*
X218846400Y-56032400D01*
%TO.N,GND*%
X211875998Y-71719462D02*
X209004511Y-68847975D01*
X209750830Y-61930975D02*
X210914757Y-60767048D01*
X209004511Y-68847975D02*
X209004511Y-64181752D01*
X229520743Y-59944000D02*
X228597386Y-59020643D01*
X209905340Y-66900067D02*
X209750830Y-66745557D01*
X202965109Y-60471109D02*
X202965109Y-57969203D01*
X211937752Y-71657708D02*
X211875998Y-71719462D01*
X204856511Y-54985489D02*
X209936511Y-54985489D01*
X208815010Y-59657921D02*
X210914757Y-57558174D01*
X214905092Y-71657708D02*
X211937752Y-71657708D01*
X203615335Y-63780000D02*
X205790000Y-63780000D01*
X202965109Y-56876891D02*
X204856511Y-54985489D01*
X215544400Y-56337200D02*
X214579200Y-55372000D01*
X205790000Y-63296000D02*
X202965109Y-60471109D01*
X209004511Y-64181752D02*
X207684157Y-62861398D01*
X226699310Y-57584114D02*
X226699310Y-58420574D01*
X231648000Y-59944000D02*
X229520743Y-59944000D01*
X207684157Y-62861398D02*
X208815010Y-61730545D01*
X205790000Y-63780000D02*
X206765555Y-63780000D01*
X209936511Y-54985489D02*
X211074000Y-53848000D01*
X210914757Y-60767048D02*
X210914757Y-57558174D01*
X228597386Y-59020643D02*
X227299379Y-59020643D01*
X202965109Y-57969203D02*
X202965109Y-56876891D01*
X216215829Y-61075500D02*
X216354329Y-61214000D01*
X209750830Y-66745557D02*
X209750830Y-61930975D01*
X226699310Y-58420574D02*
X227299379Y-59020643D01*
X208815010Y-61730545D02*
X208815010Y-59657921D01*
X206765555Y-63780000D02*
X207684157Y-62861398D01*
X212598000Y-55372000D02*
X211074000Y-53848000D01*
X223418400Y-63144400D02*
X214905092Y-71657708D01*
X203259568Y-63424233D02*
X203615335Y-63780000D01*
X216354329Y-61214000D02*
X219456000Y-61214000D01*
X214579200Y-55372000D02*
X212598000Y-55372000D01*
X205790000Y-63780000D02*
X205790000Y-63296000D01*
%TO.N,/SPI_NSS_FLASH*%
X229939984Y-63116602D02*
X224415216Y-63116602D01*
X230623394Y-65396820D02*
X232257600Y-63762614D01*
X231380689Y-62419889D02*
X230636697Y-62419889D01*
X228468705Y-65396820D02*
X230623394Y-65396820D01*
X224415216Y-63116602D02*
X223718503Y-62419889D01*
X230636697Y-62419889D02*
X229939984Y-63116602D01*
X223118297Y-62419889D02*
X221733386Y-63804800D01*
X232257600Y-63762614D02*
X232257600Y-63296800D01*
X213047563Y-63804800D02*
X211466546Y-62223783D01*
X228319288Y-65247403D02*
X228468705Y-65396820D01*
X223718503Y-62419889D02*
X223118297Y-62419889D01*
X221733386Y-63804800D02*
X213047563Y-63804800D01*
X232257600Y-63296800D02*
X231380689Y-62419889D01*
%TD*%
%TA.AperFunction,Conductor*%
%TO.N,VCC*%
G36*
X233066282Y-50312502D02*
G01*
X233112775Y-50366158D01*
X233122879Y-50436432D01*
X233093385Y-50501012D01*
X233077456Y-50516420D01*
X232875124Y-50680266D01*
X232600266Y-50955124D01*
X232355643Y-51257207D01*
X232353848Y-51259970D01*
X232353848Y-51259971D01*
X232253802Y-51414030D01*
X232143938Y-51583206D01*
X232142443Y-51586140D01*
X232142439Y-51586147D01*
X232064066Y-51739963D01*
X231967468Y-51929547D01*
X231828167Y-52292438D01*
X231727562Y-52667901D01*
X231702104Y-52828635D01*
X231668768Y-53039109D01*
X231666754Y-53051824D01*
X231646411Y-53440000D01*
X231666754Y-53828176D01*
X231667267Y-53831416D01*
X231667268Y-53831424D01*
X231680441Y-53914590D01*
X231727562Y-54212099D01*
X231828167Y-54587562D01*
X231967468Y-54950453D01*
X231968966Y-54953393D01*
X232141442Y-55291895D01*
X232143938Y-55296794D01*
X232145734Y-55299560D01*
X232145736Y-55299563D01*
X232308347Y-55549963D01*
X232355643Y-55622793D01*
X232600266Y-55924876D01*
X232875124Y-56199734D01*
X232877682Y-56201806D01*
X232877686Y-56201809D01*
X232999712Y-56300624D01*
X233177207Y-56444357D01*
X233179970Y-56446152D01*
X233179971Y-56446152D01*
X233329756Y-56543423D01*
X233503205Y-56656062D01*
X233506139Y-56657557D01*
X233506146Y-56657561D01*
X233846607Y-56831034D01*
X233849547Y-56832532D01*
X234014887Y-56896000D01*
X234205032Y-56968990D01*
X234212438Y-56971833D01*
X234587901Y-57072438D01*
X234777009Y-57102390D01*
X234968576Y-57132732D01*
X234968584Y-57132733D01*
X234971824Y-57133246D01*
X235360000Y-57153589D01*
X235748176Y-57133246D01*
X235751416Y-57132733D01*
X235751424Y-57132732D01*
X235942991Y-57102390D01*
X236132099Y-57072438D01*
X236507562Y-56971833D01*
X236514969Y-56968990D01*
X236705113Y-56896000D01*
X236870453Y-56832532D01*
X236873393Y-56831034D01*
X237213854Y-56657561D01*
X237213861Y-56657557D01*
X237216795Y-56656062D01*
X237390245Y-56543423D01*
X237540029Y-56446152D01*
X237540030Y-56446152D01*
X237542793Y-56444357D01*
X237720288Y-56300624D01*
X237842314Y-56201809D01*
X237842318Y-56201806D01*
X237844876Y-56199734D01*
X238119734Y-55924876D01*
X238364357Y-55622793D01*
X238443211Y-55501368D01*
X238527827Y-55371070D01*
X238581704Y-55324833D01*
X238652025Y-55315063D01*
X238716465Y-55344863D01*
X238754564Y-55404771D01*
X238759500Y-55439694D01*
X238759500Y-69530306D01*
X238739498Y-69598427D01*
X238685842Y-69644920D01*
X238615568Y-69655024D01*
X238550988Y-69625530D01*
X238527827Y-69598930D01*
X238366152Y-69349971D01*
X238366152Y-69349970D01*
X238364357Y-69347207D01*
X238195592Y-69138800D01*
X238121809Y-69047686D01*
X238121806Y-69047682D01*
X238119734Y-69045124D01*
X237844876Y-68770266D01*
X237841145Y-68767244D01*
X237662370Y-68622475D01*
X237542793Y-68525643D01*
X237509409Y-68503963D01*
X237219564Y-68315736D01*
X237219561Y-68315734D01*
X237216795Y-68313938D01*
X237213861Y-68312443D01*
X237213854Y-68312439D01*
X236873393Y-68138966D01*
X236870453Y-68137468D01*
X236549345Y-68014206D01*
X236510652Y-67999353D01*
X236510650Y-67999352D01*
X236507562Y-67998167D01*
X236132099Y-67897562D01*
X235913254Y-67862900D01*
X235751424Y-67837268D01*
X235751416Y-67837267D01*
X235748176Y-67836754D01*
X235360000Y-67816411D01*
X234971824Y-67836754D01*
X234968584Y-67837267D01*
X234968576Y-67837268D01*
X234806746Y-67862900D01*
X234587901Y-67897562D01*
X234212438Y-67998167D01*
X234209350Y-67999352D01*
X234209348Y-67999353D01*
X234170655Y-68014206D01*
X233849547Y-68137468D01*
X233846607Y-68138966D01*
X233506147Y-68312439D01*
X233506140Y-68312443D01*
X233503206Y-68313938D01*
X233500440Y-68315734D01*
X233500437Y-68315736D01*
X233216568Y-68500082D01*
X233177207Y-68525643D01*
X233057630Y-68622475D01*
X232878856Y-68767244D01*
X232875124Y-68770266D01*
X232600266Y-69045124D01*
X232598194Y-69047682D01*
X232598191Y-69047686D01*
X232524408Y-69138800D01*
X232355643Y-69347207D01*
X232353848Y-69349970D01*
X232353848Y-69349971D01*
X232152067Y-69660689D01*
X232143938Y-69673206D01*
X232142443Y-69676140D01*
X232142439Y-69676147D01*
X232060358Y-69837240D01*
X231967468Y-70019547D01*
X231828167Y-70382438D01*
X231727562Y-70757901D01*
X231700566Y-70928344D01*
X231674208Y-71094763D01*
X231666754Y-71141824D01*
X231646411Y-71530000D01*
X231666754Y-71918176D01*
X231667267Y-71921416D01*
X231667268Y-71921424D01*
X231677447Y-71985689D01*
X231727562Y-72302099D01*
X231828167Y-72677562D01*
X231829352Y-72680650D01*
X231829353Y-72680652D01*
X231860233Y-72761097D01*
X231967468Y-73040453D01*
X232143938Y-73386794D01*
X232145734Y-73389560D01*
X232145736Y-73389563D01*
X232290173Y-73611977D01*
X232355643Y-73712793D01*
X232600266Y-74014876D01*
X232875124Y-74289734D01*
X232877682Y-74291806D01*
X232877686Y-74291809D01*
X233074986Y-74451580D01*
X233115338Y-74509994D01*
X233117703Y-74580951D01*
X233081330Y-74641923D01*
X233017767Y-74673551D01*
X232995691Y-74675500D01*
X203278309Y-74675500D01*
X203210188Y-74655498D01*
X203163695Y-74601842D01*
X203153591Y-74531568D01*
X203183085Y-74466988D01*
X203199014Y-74451580D01*
X203396314Y-74291809D01*
X203396318Y-74291806D01*
X203398876Y-74289734D01*
X203673734Y-74014876D01*
X203918357Y-73712793D01*
X203983827Y-73611977D01*
X204128264Y-73389563D01*
X204128266Y-73389560D01*
X204130062Y-73386794D01*
X204306532Y-73040453D01*
X204413767Y-72761097D01*
X204444647Y-72680652D01*
X204444648Y-72680650D01*
X204445833Y-72677562D01*
X204538742Y-72330819D01*
X204575694Y-72270197D01*
X204639554Y-72239176D01*
X204710049Y-72247604D01*
X204755686Y-72280933D01*
X204832865Y-72370031D01*
X204832869Y-72370035D01*
X204836250Y-72373938D01*
X205008126Y-72516632D01*
X205201000Y-72629338D01*
X205409692Y-72709030D01*
X205414760Y-72710061D01*
X205414763Y-72710062D01*
X205522017Y-72731883D01*
X205628597Y-72753567D01*
X205633772Y-72753757D01*
X205633774Y-72753757D01*
X205846673Y-72761564D01*
X205846677Y-72761564D01*
X205851837Y-72761753D01*
X205856957Y-72761097D01*
X205856959Y-72761097D01*
X206068288Y-72734025D01*
X206068289Y-72734025D01*
X206073416Y-72733368D01*
X206078366Y-72731883D01*
X206282429Y-72670661D01*
X206282434Y-72670659D01*
X206287384Y-72669174D01*
X206487994Y-72570896D01*
X206669860Y-72441173D01*
X206708959Y-72402211D01*
X206780599Y-72330820D01*
X206828096Y-72283489D01*
X206845044Y-72259904D01*
X206955435Y-72106277D01*
X206958453Y-72102077D01*
X206973354Y-72071928D01*
X207055136Y-71906453D01*
X207055137Y-71906451D01*
X207057430Y-71901811D01*
X207112832Y-71719462D01*
X207120865Y-71693023D01*
X207120865Y-71693021D01*
X207122370Y-71688069D01*
X207151529Y-71466590D01*
X207153156Y-71400000D01*
X207134852Y-71177361D01*
X207080431Y-70960702D01*
X206991354Y-70755840D01*
X206870014Y-70568277D01*
X206719670Y-70403051D01*
X206715619Y-70399852D01*
X206715615Y-70399848D01*
X206548414Y-70267800D01*
X206548410Y-70267798D01*
X206544359Y-70264598D01*
X206503053Y-70241796D01*
X206453084Y-70191364D01*
X206438312Y-70121921D01*
X206463428Y-70055516D01*
X206490780Y-70028909D01*
X206534603Y-69997650D01*
X206669860Y-69901173D01*
X206738220Y-69833052D01*
X206753659Y-69817666D01*
X206828096Y-69743489D01*
X206876776Y-69675744D01*
X206955435Y-69566277D01*
X206958453Y-69562077D01*
X206981187Y-69516079D01*
X207055136Y-69366453D01*
X207055137Y-69366451D01*
X207057430Y-69361811D01*
X207122370Y-69148069D01*
X207151529Y-68926590D01*
X207153156Y-68860000D01*
X207152765Y-68855248D01*
X207152831Y-68854931D01*
X207152784Y-68853304D01*
X207153169Y-68853293D01*
X207167116Y-68785719D01*
X207216780Y-68734985D01*
X207285989Y-68719154D01*
X207352770Y-68743254D01*
X207398174Y-68805986D01*
X207445473Y-68951556D01*
X207540960Y-69116944D01*
X207545378Y-69121851D01*
X207545379Y-69121852D01*
X207664325Y-69253955D01*
X207668747Y-69258866D01*
X207823248Y-69371118D01*
X207829276Y-69373802D01*
X207829278Y-69373803D01*
X207953822Y-69429253D01*
X207997712Y-69448794D01*
X208072539Y-69464699D01*
X208178056Y-69487128D01*
X208178061Y-69487128D01*
X208184513Y-69488500D01*
X208375487Y-69488500D01*
X208381939Y-69487128D01*
X208381944Y-69487128D01*
X208520660Y-69457642D01*
X208562288Y-69448794D01*
X208568321Y-69446108D01*
X208568324Y-69446107D01*
X208576589Y-69442427D01*
X208584987Y-69438688D01*
X208655353Y-69429253D01*
X208719650Y-69459358D01*
X208725331Y-69464699D01*
X209828908Y-70568277D01*
X210928876Y-71668245D01*
X210962902Y-71730557D01*
X210965091Y-71744168D01*
X210982456Y-71909390D01*
X211041471Y-72091018D01*
X211044774Y-72096740D01*
X211044775Y-72096741D01*
X211060040Y-72123180D01*
X211136958Y-72256406D01*
X211141376Y-72261313D01*
X211141377Y-72261314D01*
X211239266Y-72370031D01*
X211264745Y-72398328D01*
X211323716Y-72441173D01*
X211402076Y-72498105D01*
X211419246Y-72510580D01*
X211425274Y-72513264D01*
X211425276Y-72513265D01*
X211587679Y-72585571D01*
X211593710Y-72588256D01*
X211687110Y-72608109D01*
X211774054Y-72626590D01*
X211774059Y-72626590D01*
X211780511Y-72627962D01*
X211971485Y-72627962D01*
X211977937Y-72626590D01*
X211977942Y-72626590D01*
X212064886Y-72608109D01*
X212158286Y-72588256D01*
X212164317Y-72585571D01*
X212326720Y-72513265D01*
X212326722Y-72513264D01*
X212332750Y-72510580D01*
X212349921Y-72498105D01*
X212428280Y-72441173D01*
X212487251Y-72398328D01*
X212546166Y-72332896D01*
X212606609Y-72295658D01*
X212639800Y-72291208D01*
X214826325Y-72291208D01*
X214837508Y-72291735D01*
X214845001Y-72293410D01*
X214852927Y-72293161D01*
X214852928Y-72293161D01*
X214913078Y-72291270D01*
X214917037Y-72291208D01*
X214944948Y-72291208D01*
X214948883Y-72290711D01*
X214948948Y-72290703D01*
X214960785Y-72289770D01*
X214993043Y-72288756D01*
X214997062Y-72288630D01*
X215004981Y-72288381D01*
X215024435Y-72282729D01*
X215043792Y-72278721D01*
X215056022Y-72277176D01*
X215056023Y-72277176D01*
X215063889Y-72276182D01*
X215071260Y-72273263D01*
X215071262Y-72273263D01*
X215105004Y-72259904D01*
X215116234Y-72256059D01*
X215151075Y-72245937D01*
X215151076Y-72245937D01*
X215158685Y-72243726D01*
X215165504Y-72239693D01*
X215165509Y-72239691D01*
X215176120Y-72233415D01*
X215193868Y-72224720D01*
X215212709Y-72217260D01*
X215248479Y-72191272D01*
X215258399Y-72184756D01*
X215289627Y-72166288D01*
X215289630Y-72166286D01*
X215296454Y-72162250D01*
X215310775Y-72147929D01*
X215325809Y-72135088D01*
X215335785Y-72127840D01*
X215342199Y-72123180D01*
X215343938Y-72121078D01*
X215405223Y-72090071D01*
X215475845Y-72097357D01*
X215531317Y-72141668D01*
X215547959Y-72175034D01*
X215573473Y-72253556D01*
X215668960Y-72418944D01*
X215673378Y-72423851D01*
X215673379Y-72423852D01*
X215792325Y-72555955D01*
X215796747Y-72560866D01*
X215887208Y-72626590D01*
X215945820Y-72669174D01*
X215951248Y-72673118D01*
X215957276Y-72675802D01*
X215957278Y-72675803D01*
X216083237Y-72731883D01*
X216125712Y-72750794D01*
X216219113Y-72770647D01*
X216306056Y-72789128D01*
X216306061Y-72789128D01*
X216312513Y-72790500D01*
X216503487Y-72790500D01*
X216509939Y-72789128D01*
X216509944Y-72789128D01*
X216596888Y-72770647D01*
X216690288Y-72750794D01*
X216732763Y-72731883D01*
X216858722Y-72675803D01*
X216858724Y-72675802D01*
X216864752Y-72673118D01*
X216870181Y-72669174D01*
X216928792Y-72626590D01*
X217019253Y-72560866D01*
X217023675Y-72555955D01*
X217142621Y-72423852D01*
X217142622Y-72423851D01*
X217147040Y-72418944D01*
X217214616Y-72301899D01*
X222961004Y-72301899D01*
X222961694Y-72308464D01*
X222973822Y-72423852D01*
X222980966Y-72491827D01*
X223039981Y-72673455D01*
X223135468Y-72838843D01*
X223263255Y-72980765D01*
X223417756Y-73093017D01*
X223423784Y-73095701D01*
X223423786Y-73095702D01*
X223586189Y-73168008D01*
X223592220Y-73170693D01*
X223685621Y-73190546D01*
X223772564Y-73209027D01*
X223772569Y-73209027D01*
X223779021Y-73210399D01*
X223969995Y-73210399D01*
X223976447Y-73209027D01*
X223976452Y-73209027D01*
X224063395Y-73190546D01*
X224156796Y-73170693D01*
X224162827Y-73168008D01*
X224325230Y-73095702D01*
X224325232Y-73095701D01*
X224331260Y-73093017D01*
X224485761Y-72980765D01*
X224613548Y-72838843D01*
X224709035Y-72673455D01*
X224768050Y-72491827D01*
X224775195Y-72423852D01*
X224787322Y-72308464D01*
X224788012Y-72301899D01*
X224773759Y-72166288D01*
X224768740Y-72118534D01*
X224768740Y-72118532D01*
X224768050Y-72111971D01*
X224709035Y-71930343D01*
X224702011Y-71918176D01*
X224616849Y-71770673D01*
X224613548Y-71764955D01*
X224512788Y-71653049D01*
X224490183Y-71627944D01*
X224490182Y-71627943D01*
X224485761Y-71623033D01*
X224331260Y-71510781D01*
X224325232Y-71508097D01*
X224325230Y-71508096D01*
X224162827Y-71435790D01*
X224162826Y-71435790D01*
X224156796Y-71433105D01*
X224063396Y-71413252D01*
X223976452Y-71394771D01*
X223976447Y-71394771D01*
X223969995Y-71393399D01*
X223779021Y-71393399D01*
X223772569Y-71394771D01*
X223772564Y-71394771D01*
X223685620Y-71413252D01*
X223592220Y-71433105D01*
X223586190Y-71435790D01*
X223586189Y-71435790D01*
X223423786Y-71508096D01*
X223423784Y-71508097D01*
X223417756Y-71510781D01*
X223263255Y-71623033D01*
X223258834Y-71627943D01*
X223258833Y-71627944D01*
X223236229Y-71653049D01*
X223135468Y-71764955D01*
X223132167Y-71770673D01*
X223047006Y-71918176D01*
X223039981Y-71930343D01*
X222980966Y-72111971D01*
X222980276Y-72118532D01*
X222980276Y-72118534D01*
X222975257Y-72166288D01*
X222961004Y-72301899D01*
X217214616Y-72301899D01*
X217242527Y-72253556D01*
X217301542Y-72071928D01*
X217305017Y-72038871D01*
X217310606Y-71985689D01*
X217337619Y-71920033D01*
X217395841Y-71879403D01*
X217466786Y-71876700D01*
X217529550Y-71914548D01*
X217565645Y-71954636D01*
X217720146Y-72066888D01*
X217726174Y-72069572D01*
X217726176Y-72069573D01*
X217857047Y-72127840D01*
X217894610Y-72144564D01*
X217977816Y-72162250D01*
X218074954Y-72182898D01*
X218074959Y-72182898D01*
X218081411Y-72184270D01*
X218272385Y-72184270D01*
X218278837Y-72182898D01*
X218278842Y-72182898D01*
X218375980Y-72162250D01*
X218459186Y-72144564D01*
X218496749Y-72127840D01*
X218627620Y-72069573D01*
X218627622Y-72069572D01*
X218633650Y-72066888D01*
X218788151Y-71954636D01*
X218792573Y-71949725D01*
X218911519Y-71817622D01*
X218911520Y-71817621D01*
X218915938Y-71812714D01*
X218974212Y-71711780D01*
X219008121Y-71653049D01*
X219008122Y-71653048D01*
X219011425Y-71647326D01*
X219070440Y-71465698D01*
X219073584Y-71435790D01*
X219089712Y-71282335D01*
X219090402Y-71275770D01*
X219080059Y-71177361D01*
X219071130Y-71092405D01*
X219071130Y-71092403D01*
X219070440Y-71085842D01*
X219011425Y-70904214D01*
X218915938Y-70738826D01*
X218788151Y-70596904D01*
X218633650Y-70484652D01*
X218627622Y-70481968D01*
X218627620Y-70481967D01*
X218465217Y-70409661D01*
X218465216Y-70409661D01*
X218459186Y-70406976D01*
X218352848Y-70384373D01*
X218278842Y-70368642D01*
X218278837Y-70368642D01*
X218272385Y-70367270D01*
X218081411Y-70367270D01*
X218074959Y-70368642D01*
X218074954Y-70368642D01*
X218000948Y-70384373D01*
X217894610Y-70406976D01*
X217888580Y-70409661D01*
X217888579Y-70409661D01*
X217726176Y-70481967D01*
X217726174Y-70481968D01*
X217720146Y-70484652D01*
X217565645Y-70596904D01*
X217437858Y-70738826D01*
X217342371Y-70904214D01*
X217283356Y-71085842D01*
X217282667Y-71092401D01*
X217282666Y-71092404D01*
X217274292Y-71172081D01*
X217247279Y-71237737D01*
X217189057Y-71278367D01*
X217118112Y-71281070D01*
X217055348Y-71243222D01*
X217019253Y-71203134D01*
X216864752Y-71090882D01*
X216858724Y-71088198D01*
X216858722Y-71088197D01*
X216690288Y-71013206D01*
X216691297Y-71010939D01*
X216641946Y-70977211D01*
X216614292Y-70911822D01*
X216626381Y-70841862D01*
X216650372Y-70808332D01*
X218080956Y-69377748D01*
X218143268Y-69343722D01*
X218214083Y-69348787D01*
X218270919Y-69391334D01*
X218289883Y-69427904D01*
X218316673Y-69510356D01*
X218412160Y-69675744D01*
X218539947Y-69817666D01*
X218571908Y-69840887D01*
X218667093Y-69910043D01*
X218694448Y-69929918D01*
X218700476Y-69932602D01*
X218700478Y-69932603D01*
X218805232Y-69979242D01*
X218868912Y-70007594D01*
X218939660Y-70022632D01*
X219049256Y-70045928D01*
X219049261Y-70045928D01*
X219055713Y-70047300D01*
X219246687Y-70047300D01*
X219253139Y-70045928D01*
X219253144Y-70045928D01*
X219362740Y-70022632D01*
X219433488Y-70007594D01*
X219497168Y-69979242D01*
X219601922Y-69932603D01*
X219601924Y-69932602D01*
X219607952Y-69929918D01*
X219635308Y-69910043D01*
X219730492Y-69840887D01*
X219762453Y-69817666D01*
X219890240Y-69675744D01*
X219985727Y-69510356D01*
X220044742Y-69328728D01*
X220048686Y-69291200D01*
X227635696Y-69291200D01*
X227636386Y-69297765D01*
X227652260Y-69448794D01*
X227655658Y-69481128D01*
X227714673Y-69662756D01*
X227717976Y-69668478D01*
X227717977Y-69668479D01*
X227722404Y-69676147D01*
X227810160Y-69828144D01*
X227814578Y-69833051D01*
X227814579Y-69833052D01*
X227904215Y-69932603D01*
X227937947Y-69970066D01*
X228092448Y-70082318D01*
X228098476Y-70085002D01*
X228098478Y-70085003D01*
X228259374Y-70156638D01*
X228266912Y-70159994D01*
X228360313Y-70179847D01*
X228447256Y-70198328D01*
X228447261Y-70198328D01*
X228453713Y-70199700D01*
X228644687Y-70199700D01*
X228651139Y-70198328D01*
X228651144Y-70198328D01*
X228738088Y-70179847D01*
X228831488Y-70159994D01*
X228839026Y-70156638D01*
X228999922Y-70085003D01*
X228999924Y-70085002D01*
X229005952Y-70082318D01*
X229160453Y-69970066D01*
X229194185Y-69932603D01*
X229283821Y-69833052D01*
X229283822Y-69833051D01*
X229288240Y-69828144D01*
X229375996Y-69676147D01*
X229380423Y-69668479D01*
X229380424Y-69668478D01*
X229383727Y-69662756D01*
X229442742Y-69481128D01*
X229446141Y-69448794D01*
X229462014Y-69297765D01*
X229462704Y-69291200D01*
X229455987Y-69227294D01*
X229931980Y-69227294D01*
X229932670Y-69233859D01*
X229947379Y-69373803D01*
X229951942Y-69417222D01*
X230010957Y-69598850D01*
X230106444Y-69764238D01*
X230110862Y-69769145D01*
X230110863Y-69769146D01*
X230229741Y-69901173D01*
X230234231Y-69906160D01*
X230388732Y-70018412D01*
X230394760Y-70021096D01*
X230394762Y-70021097D01*
X230548035Y-70089338D01*
X230563196Y-70096088D01*
X230656597Y-70115941D01*
X230743540Y-70134422D01*
X230743545Y-70134422D01*
X230749997Y-70135794D01*
X230940971Y-70135794D01*
X230947423Y-70134422D01*
X230947428Y-70134422D01*
X231034371Y-70115941D01*
X231127772Y-70096088D01*
X231142933Y-70089338D01*
X231296206Y-70021097D01*
X231296208Y-70021096D01*
X231302236Y-70018412D01*
X231456737Y-69906160D01*
X231461227Y-69901173D01*
X231580105Y-69769146D01*
X231580106Y-69769145D01*
X231584524Y-69764238D01*
X231680011Y-69598850D01*
X231739026Y-69417222D01*
X231743590Y-69373803D01*
X231758298Y-69233859D01*
X231758988Y-69227294D01*
X231740111Y-69047686D01*
X231739716Y-69043929D01*
X231739716Y-69043927D01*
X231739026Y-69037366D01*
X231680011Y-68855738D01*
X231660280Y-68821562D01*
X231639585Y-68785719D01*
X231584524Y-68690350D01*
X231535992Y-68636449D01*
X231461159Y-68553339D01*
X231461158Y-68553338D01*
X231456737Y-68548428D01*
X231334936Y-68459934D01*
X231307578Y-68440057D01*
X231307577Y-68440056D01*
X231302236Y-68436176D01*
X231296208Y-68433492D01*
X231296206Y-68433491D01*
X231133803Y-68361185D01*
X231133802Y-68361185D01*
X231127772Y-68358500D01*
X231034372Y-68338647D01*
X230947428Y-68320166D01*
X230947423Y-68320166D01*
X230940971Y-68318794D01*
X230749997Y-68318794D01*
X230743545Y-68320166D01*
X230743540Y-68320166D01*
X230656597Y-68338647D01*
X230563196Y-68358500D01*
X230557166Y-68361185D01*
X230557165Y-68361185D01*
X230394762Y-68433491D01*
X230394760Y-68433492D01*
X230388732Y-68436176D01*
X230383391Y-68440056D01*
X230383390Y-68440057D01*
X230356032Y-68459934D01*
X230234231Y-68548428D01*
X230229810Y-68553338D01*
X230229809Y-68553339D01*
X230154977Y-68636449D01*
X230106444Y-68690350D01*
X230051383Y-68785719D01*
X230030689Y-68821562D01*
X230010957Y-68855738D01*
X229951942Y-69037366D01*
X229951252Y-69043927D01*
X229951252Y-69043929D01*
X229950857Y-69047686D01*
X229931980Y-69227294D01*
X229455987Y-69227294D01*
X229442742Y-69101272D01*
X229383727Y-68919644D01*
X229288240Y-68754256D01*
X229270889Y-68734985D01*
X229164875Y-68617245D01*
X229164874Y-68617244D01*
X229160453Y-68612334D01*
X229005952Y-68500082D01*
X228999924Y-68497398D01*
X228999922Y-68497397D01*
X228837519Y-68425091D01*
X228837518Y-68425091D01*
X228831488Y-68422406D01*
X228710246Y-68396635D01*
X228651144Y-68384072D01*
X228651139Y-68384072D01*
X228644687Y-68382700D01*
X228453713Y-68382700D01*
X228447261Y-68384072D01*
X228447256Y-68384072D01*
X228388154Y-68396635D01*
X228266912Y-68422406D01*
X228260882Y-68425091D01*
X228260881Y-68425091D01*
X228098478Y-68497397D01*
X228098476Y-68497398D01*
X228092448Y-68500082D01*
X227937947Y-68612334D01*
X227933526Y-68617244D01*
X227933525Y-68617245D01*
X227827512Y-68734985D01*
X227810160Y-68754256D01*
X227714673Y-68919644D01*
X227655658Y-69101272D01*
X227635696Y-69291200D01*
X220048686Y-69291200D01*
X220056886Y-69213189D01*
X220064014Y-69145365D01*
X220064704Y-69138800D01*
X220061806Y-69111226D01*
X220045432Y-68955435D01*
X220045432Y-68955433D01*
X220044742Y-68948872D01*
X219985727Y-68767244D01*
X219978229Y-68754256D01*
X219895983Y-68611803D01*
X219890240Y-68601856D01*
X219852700Y-68560163D01*
X219766875Y-68464845D01*
X219766874Y-68464844D01*
X219762453Y-68459934D01*
X219620953Y-68357128D01*
X219613294Y-68351563D01*
X219613293Y-68351562D01*
X219607952Y-68347682D01*
X219601924Y-68344998D01*
X219601922Y-68344997D01*
X219433488Y-68270006D01*
X219434497Y-68267739D01*
X219385146Y-68234011D01*
X219357492Y-68168622D01*
X219369581Y-68098662D01*
X219393572Y-68065132D01*
X219883787Y-67574917D01*
X219946099Y-67540891D01*
X220016914Y-67545956D01*
X220066518Y-67579702D01*
X220077408Y-67591797D01*
X220104418Y-67621794D01*
X220114747Y-67633266D01*
X220182334Y-67682371D01*
X220237022Y-67722104D01*
X220269248Y-67745518D01*
X220275276Y-67748202D01*
X220275278Y-67748203D01*
X220432046Y-67818000D01*
X220443712Y-67823194D01*
X220525765Y-67840635D01*
X220624056Y-67861528D01*
X220624061Y-67861528D01*
X220630513Y-67862900D01*
X220821487Y-67862900D01*
X220827939Y-67861528D01*
X220827944Y-67861528D01*
X220926235Y-67840635D01*
X221008288Y-67823194D01*
X221019954Y-67818000D01*
X221176722Y-67748203D01*
X221176724Y-67748202D01*
X221182752Y-67745518D01*
X221214979Y-67722104D01*
X221269666Y-67682371D01*
X221337253Y-67633266D01*
X221341930Y-67628072D01*
X221460621Y-67496252D01*
X221460622Y-67496251D01*
X221465040Y-67491344D01*
X221538464Y-67364171D01*
X221557223Y-67331679D01*
X221557224Y-67331678D01*
X221560527Y-67325956D01*
X221619542Y-67144328D01*
X221627804Y-67065725D01*
X221638814Y-66960965D01*
X221639504Y-66954400D01*
X221634483Y-66906632D01*
X221620232Y-66771035D01*
X221620232Y-66771033D01*
X221619542Y-66764472D01*
X221560527Y-66582844D01*
X221465040Y-66417456D01*
X221344255Y-66283310D01*
X221313539Y-66219305D01*
X221322303Y-66148851D01*
X221348797Y-66109907D01*
X222811109Y-64647595D01*
X222873421Y-64613569D01*
X222944236Y-64618634D01*
X223001072Y-64661181D01*
X223025514Y-64723519D01*
X223032858Y-64793397D01*
X223091873Y-64975025D01*
X223187360Y-65140413D01*
X223191778Y-65145320D01*
X223191779Y-65145321D01*
X223206614Y-65161797D01*
X223315147Y-65282335D01*
X223469648Y-65394587D01*
X223475676Y-65397271D01*
X223475678Y-65397272D01*
X223630968Y-65466411D01*
X223644112Y-65472263D01*
X223719452Y-65488277D01*
X223824456Y-65510597D01*
X223824461Y-65510597D01*
X223830913Y-65511969D01*
X223840987Y-65511969D01*
X223842922Y-65512537D01*
X223844082Y-65512659D01*
X223844060Y-65512871D01*
X223909108Y-65531971D01*
X223955601Y-65585627D01*
X223960819Y-65599030D01*
X223996815Y-65709814D01*
X224092302Y-65875202D01*
X224096720Y-65880109D01*
X224096721Y-65880110D01*
X224215667Y-66012213D01*
X224220089Y-66017124D01*
X224280350Y-66060906D01*
X224335990Y-66101331D01*
X224374590Y-66129376D01*
X224380618Y-66132060D01*
X224380620Y-66132061D01*
X224517387Y-66192953D01*
X224549054Y-66207052D01*
X224638724Y-66226112D01*
X224729398Y-66245386D01*
X224729403Y-66245386D01*
X224735855Y-66246758D01*
X224926829Y-66246758D01*
X224933281Y-66245386D01*
X224933286Y-66245386D01*
X225023960Y-66226112D01*
X225113630Y-66207052D01*
X225145297Y-66192953D01*
X225282064Y-66132061D01*
X225282066Y-66132060D01*
X225288094Y-66129376D01*
X225326695Y-66101331D01*
X225382334Y-66060906D01*
X225442595Y-66017124D01*
X225447017Y-66012213D01*
X225565963Y-65880110D01*
X225565964Y-65880109D01*
X225570382Y-65875202D01*
X225665869Y-65709814D01*
X225724884Y-65528186D01*
X225726589Y-65511969D01*
X225738926Y-65394587D01*
X225742249Y-65362964D01*
X225769262Y-65297308D01*
X225778464Y-65287040D01*
X225879099Y-65186405D01*
X225941411Y-65152379D01*
X225968194Y-65149500D01*
X227282043Y-65149500D01*
X227350164Y-65169502D01*
X227396657Y-65223158D01*
X227407353Y-65262329D01*
X227411379Y-65300635D01*
X227420846Y-65390706D01*
X227425746Y-65437331D01*
X227484761Y-65618959D01*
X227580248Y-65784347D01*
X227584666Y-65789254D01*
X227584667Y-65789255D01*
X227685609Y-65901362D01*
X227708035Y-65926269D01*
X227807131Y-65998267D01*
X227852018Y-66030879D01*
X227862536Y-66038521D01*
X227868564Y-66041205D01*
X227868566Y-66041206D01*
X228022872Y-66109907D01*
X228037000Y-66116197D01*
X228111634Y-66132061D01*
X228217344Y-66154531D01*
X228217349Y-66154531D01*
X228223801Y-66155903D01*
X228414775Y-66155903D01*
X228421227Y-66154531D01*
X228421232Y-66154531D01*
X228526942Y-66132061D01*
X228601576Y-66116197D01*
X228620219Y-66107897D01*
X228769994Y-66041213D01*
X228821243Y-66030320D01*
X230544627Y-66030320D01*
X230555810Y-66030847D01*
X230563303Y-66032522D01*
X230571229Y-66032273D01*
X230571230Y-66032273D01*
X230631380Y-66030382D01*
X230635339Y-66030320D01*
X230663250Y-66030320D01*
X230667185Y-66029823D01*
X230667250Y-66029815D01*
X230679087Y-66028882D01*
X230711345Y-66027868D01*
X230715364Y-66027742D01*
X230723283Y-66027493D01*
X230742737Y-66021841D01*
X230762094Y-66017833D01*
X230774324Y-66016288D01*
X230774325Y-66016288D01*
X230782191Y-66015294D01*
X230789562Y-66012375D01*
X230789564Y-66012375D01*
X230823306Y-65999016D01*
X230834536Y-65995171D01*
X230869377Y-65985049D01*
X230869378Y-65985049D01*
X230876987Y-65982838D01*
X230883806Y-65978805D01*
X230883811Y-65978803D01*
X230894422Y-65972527D01*
X230912170Y-65963832D01*
X230931011Y-65956372D01*
X230966781Y-65930384D01*
X230976701Y-65923868D01*
X231007929Y-65905400D01*
X231007932Y-65905398D01*
X231014756Y-65901362D01*
X231029077Y-65887041D01*
X231044111Y-65874200D01*
X231054088Y-65866951D01*
X231060501Y-65862292D01*
X231088692Y-65828215D01*
X231096682Y-65819436D01*
X232649847Y-64266271D01*
X232658137Y-64258727D01*
X232664618Y-64254614D01*
X232711259Y-64204946D01*
X232714013Y-64202105D01*
X232733734Y-64182384D01*
X232736212Y-64179189D01*
X232743918Y-64170167D01*
X232768758Y-64143715D01*
X232774186Y-64137935D01*
X232783946Y-64120182D01*
X232794799Y-64103659D01*
X232802353Y-64093920D01*
X232807213Y-64087655D01*
X232824776Y-64047071D01*
X232829983Y-64036441D01*
X232851295Y-63997674D01*
X232853266Y-63989997D01*
X232853268Y-63989992D01*
X232856332Y-63978056D01*
X232862738Y-63959344D01*
X232864420Y-63955459D01*
X232870781Y-63940759D01*
X232872021Y-63932931D01*
X232872023Y-63932924D01*
X232877699Y-63897090D01*
X232880105Y-63885470D01*
X232889128Y-63850325D01*
X232889128Y-63850324D01*
X232891100Y-63842644D01*
X232891100Y-63822390D01*
X232892651Y-63802679D01*
X232894580Y-63790500D01*
X232895820Y-63782671D01*
X232891659Y-63738652D01*
X232891100Y-63726795D01*
X232891100Y-63375563D01*
X232891627Y-63364379D01*
X232893301Y-63356891D01*
X232891162Y-63288832D01*
X232891100Y-63284875D01*
X232891100Y-63256944D01*
X232890594Y-63252938D01*
X232889661Y-63241092D01*
X232888522Y-63204837D01*
X232888273Y-63196910D01*
X232882622Y-63177458D01*
X232878614Y-63158106D01*
X232877068Y-63145868D01*
X232877067Y-63145866D01*
X232876074Y-63138003D01*
X232859794Y-63096886D01*
X232855959Y-63085685D01*
X232843618Y-63043206D01*
X232839585Y-63036387D01*
X232839583Y-63036382D01*
X232833307Y-63025771D01*
X232824610Y-63008021D01*
X232817152Y-62989183D01*
X232791171Y-62953423D01*
X232784653Y-62943501D01*
X232766178Y-62912260D01*
X232766174Y-62912255D01*
X232762142Y-62905437D01*
X232747818Y-62891113D01*
X232734976Y-62876078D01*
X232723072Y-62859693D01*
X232689006Y-62831511D01*
X232680227Y-62823522D01*
X231884341Y-62027636D01*
X231876801Y-62019350D01*
X231872689Y-62012871D01*
X231849053Y-61990675D01*
X231823038Y-61966246D01*
X231820196Y-61963491D01*
X231800459Y-61943754D01*
X231797262Y-61941274D01*
X231788240Y-61933569D01*
X231774811Y-61920958D01*
X231756010Y-61903303D01*
X231749064Y-61899484D01*
X231749061Y-61899482D01*
X231738255Y-61893541D01*
X231721736Y-61882690D01*
X231717582Y-61879468D01*
X231705730Y-61870275D01*
X231698461Y-61867130D01*
X231698457Y-61867127D01*
X231665152Y-61852715D01*
X231654502Y-61847498D01*
X231615749Y-61826194D01*
X231596126Y-61821156D01*
X231577423Y-61814752D01*
X231566109Y-61809856D01*
X231566108Y-61809856D01*
X231558834Y-61806708D01*
X231551011Y-61805469D01*
X231551001Y-61805466D01*
X231515165Y-61799790D01*
X231503545Y-61797384D01*
X231468400Y-61788361D01*
X231468399Y-61788361D01*
X231460719Y-61786389D01*
X231440465Y-61786389D01*
X231420754Y-61784838D01*
X231408575Y-61782909D01*
X231400746Y-61781669D01*
X231371475Y-61784436D01*
X231356728Y-61785830D01*
X231344870Y-61786389D01*
X230715464Y-61786389D01*
X230704281Y-61785862D01*
X230696788Y-61784187D01*
X230688862Y-61784436D01*
X230688861Y-61784436D01*
X230628698Y-61786327D01*
X230624740Y-61786389D01*
X230596841Y-61786389D01*
X230592851Y-61786893D01*
X230581017Y-61787825D01*
X230536808Y-61789215D01*
X230529194Y-61791427D01*
X230529189Y-61791428D01*
X230517356Y-61794866D01*
X230497993Y-61798877D01*
X230477900Y-61801415D01*
X230470533Y-61804332D01*
X230470528Y-61804333D01*
X230436789Y-61817691D01*
X230425562Y-61821535D01*
X230383104Y-61833871D01*
X230376278Y-61837908D01*
X230365669Y-61844182D01*
X230347921Y-61852877D01*
X230329080Y-61860337D01*
X230322664Y-61864999D01*
X230322663Y-61864999D01*
X230293310Y-61886325D01*
X230283390Y-61892841D01*
X230252162Y-61911309D01*
X230252159Y-61911311D01*
X230245335Y-61915347D01*
X230231014Y-61929668D01*
X230215981Y-61942508D01*
X230199590Y-61954417D01*
X230177438Y-61981194D01*
X230171409Y-61988482D01*
X230163419Y-61997263D01*
X229714483Y-62446198D01*
X229652171Y-62480223D01*
X229625388Y-62483102D01*
X228733322Y-62483102D01*
X228665201Y-62463100D01*
X228618708Y-62409444D01*
X228608604Y-62339170D01*
X228613489Y-62318166D01*
X228626692Y-62277529D01*
X228629942Y-62267528D01*
X228635596Y-62213738D01*
X228646550Y-62109513D01*
X228673563Y-62043857D01*
X228731785Y-62003227D01*
X228745663Y-61999437D01*
X228825031Y-61982567D01*
X228825036Y-61982566D01*
X228831488Y-61981194D01*
X228837519Y-61978509D01*
X228999922Y-61906203D01*
X228999924Y-61906202D01*
X229005952Y-61903518D01*
X229160453Y-61791266D01*
X229167978Y-61782909D01*
X229283821Y-61654252D01*
X229283822Y-61654251D01*
X229288240Y-61649344D01*
X229383727Y-61483956D01*
X229442742Y-61302328D01*
X229445947Y-61271840D01*
X229452026Y-61214000D01*
X235408096Y-61214000D01*
X235408786Y-61220565D01*
X235425924Y-61383621D01*
X235428058Y-61403928D01*
X235487073Y-61585556D01*
X235582560Y-61750944D01*
X235586978Y-61755851D01*
X235586979Y-61755852D01*
X235710347Y-61892866D01*
X235709207Y-61893892D01*
X235742320Y-61947643D01*
X235740967Y-62018626D01*
X235729891Y-62043823D01*
X235690273Y-62112444D01*
X235631258Y-62294072D01*
X235630568Y-62300633D01*
X235630568Y-62300635D01*
X235628099Y-62324129D01*
X235611296Y-62484000D01*
X235611986Y-62490565D01*
X235625520Y-62619330D01*
X235631258Y-62673928D01*
X235690273Y-62855556D01*
X235785760Y-63020944D01*
X235790178Y-63025851D01*
X235790179Y-63025852D01*
X235887983Y-63134474D01*
X235913547Y-63162866D01*
X236068048Y-63275118D01*
X236074076Y-63277802D01*
X236074078Y-63277803D01*
X236236481Y-63350109D01*
X236242512Y-63352794D01*
X236335912Y-63372647D01*
X236422856Y-63391128D01*
X236422861Y-63391128D01*
X236429313Y-63392500D01*
X236620287Y-63392500D01*
X236626739Y-63391128D01*
X236626744Y-63391128D01*
X236713688Y-63372647D01*
X236807088Y-63352794D01*
X236813119Y-63350109D01*
X236975522Y-63277803D01*
X236975524Y-63277802D01*
X236981552Y-63275118D01*
X237136053Y-63162866D01*
X237161617Y-63134474D01*
X237259421Y-63025852D01*
X237259422Y-63025851D01*
X237263840Y-63020944D01*
X237359327Y-62855556D01*
X237418342Y-62673928D01*
X237424081Y-62619330D01*
X237437614Y-62490565D01*
X237438304Y-62484000D01*
X237421501Y-62324129D01*
X237419032Y-62300635D01*
X237419032Y-62300633D01*
X237418342Y-62294072D01*
X237359327Y-62112444D01*
X237263840Y-61947056D01*
X237255357Y-61937634D01*
X237136053Y-61805134D01*
X237137193Y-61804108D01*
X237104080Y-61750357D01*
X237105433Y-61679374D01*
X237116509Y-61654177D01*
X237156127Y-61585556D01*
X237215142Y-61403928D01*
X237217277Y-61383621D01*
X237234414Y-61220565D01*
X237235104Y-61214000D01*
X237231055Y-61175477D01*
X237215832Y-61030635D01*
X237215832Y-61030633D01*
X237215142Y-61024072D01*
X237156127Y-60842444D01*
X237060640Y-60677056D01*
X237055267Y-60671088D01*
X236937275Y-60540045D01*
X236937274Y-60540044D01*
X236932853Y-60535134D01*
X236778352Y-60422882D01*
X236772324Y-60420198D01*
X236772322Y-60420197D01*
X236609919Y-60347891D01*
X236609918Y-60347891D01*
X236603888Y-60345206D01*
X236491321Y-60321279D01*
X236423544Y-60306872D01*
X236423539Y-60306872D01*
X236417087Y-60305500D01*
X236226113Y-60305500D01*
X236219661Y-60306872D01*
X236219656Y-60306872D01*
X236151879Y-60321279D01*
X236039312Y-60345206D01*
X236033282Y-60347891D01*
X236033281Y-60347891D01*
X235870878Y-60420197D01*
X235870876Y-60420198D01*
X235864848Y-60422882D01*
X235710347Y-60535134D01*
X235705926Y-60540044D01*
X235705925Y-60540045D01*
X235587934Y-60671088D01*
X235582560Y-60677056D01*
X235487073Y-60842444D01*
X235428058Y-61024072D01*
X235427368Y-61030633D01*
X235427368Y-61030635D01*
X235412145Y-61175477D01*
X235408096Y-61214000D01*
X229452026Y-61214000D01*
X229462014Y-61118965D01*
X229462704Y-61112400D01*
X229457045Y-61058560D01*
X229443432Y-60929035D01*
X229443432Y-60929033D01*
X229442742Y-60922472D01*
X229391449Y-60764610D01*
X229385523Y-60746371D01*
X229383495Y-60675404D01*
X229420158Y-60614606D01*
X229483870Y-60583280D01*
X229500169Y-60582138D01*
X229500686Y-60582220D01*
X229505516Y-60581763D01*
X229505522Y-60581763D01*
X229544704Y-60578059D01*
X229556562Y-60577500D01*
X230939800Y-60577500D01*
X231007921Y-60597502D01*
X231027147Y-60613843D01*
X231027420Y-60613540D01*
X231032332Y-60617963D01*
X231036747Y-60622866D01*
X231046437Y-60629906D01*
X231176912Y-60724702D01*
X231191248Y-60735118D01*
X231197276Y-60737802D01*
X231197278Y-60737803D01*
X231359681Y-60810109D01*
X231365712Y-60812794D01*
X231459113Y-60832647D01*
X231546056Y-60851128D01*
X231546061Y-60851128D01*
X231552513Y-60852500D01*
X231743487Y-60852500D01*
X231749939Y-60851128D01*
X231749944Y-60851128D01*
X231836887Y-60832647D01*
X231930288Y-60812794D01*
X231936319Y-60810109D01*
X232098722Y-60737803D01*
X232098724Y-60737802D01*
X232104752Y-60735118D01*
X232119089Y-60724702D01*
X232182477Y-60678647D01*
X232259253Y-60622866D01*
X232268589Y-60612497D01*
X232382621Y-60485852D01*
X232382622Y-60485851D01*
X232387040Y-60480944D01*
X232466448Y-60343406D01*
X232479223Y-60321279D01*
X232479224Y-60321278D01*
X232482527Y-60315556D01*
X232541542Y-60133928D01*
X232552864Y-60026210D01*
X232560814Y-59950565D01*
X232561504Y-59944000D01*
X232541542Y-59754072D01*
X232482527Y-59572444D01*
X232387040Y-59407056D01*
X232322569Y-59335453D01*
X232263675Y-59270045D01*
X232263674Y-59270044D01*
X232259253Y-59265134D01*
X232104752Y-59152882D01*
X232098724Y-59150198D01*
X232098722Y-59150197D01*
X231979566Y-59097146D01*
X231925471Y-59051166D01*
X231904821Y-58983239D01*
X231924173Y-58914931D01*
X231956752Y-58880104D01*
X232005253Y-58844866D01*
X232041050Y-58805109D01*
X232128621Y-58707852D01*
X232128622Y-58707851D01*
X232133040Y-58702944D01*
X232208927Y-58571504D01*
X232225223Y-58543279D01*
X232225224Y-58543278D01*
X232228527Y-58537556D01*
X232287542Y-58355928D01*
X232288839Y-58343594D01*
X232306814Y-58172565D01*
X232307504Y-58166000D01*
X232302809Y-58121333D01*
X232288232Y-57982635D01*
X232288232Y-57982633D01*
X232287542Y-57976072D01*
X232228527Y-57794444D01*
X232221932Y-57783020D01*
X232162819Y-57680635D01*
X232133040Y-57629056D01*
X232120662Y-57615309D01*
X232089946Y-57551303D01*
X232098710Y-57480850D01*
X232120661Y-57446693D01*
X232133040Y-57432944D01*
X232203927Y-57310165D01*
X232225223Y-57273279D01*
X232225224Y-57273278D01*
X232228527Y-57267556D01*
X232287542Y-57085928D01*
X232288781Y-57074146D01*
X232306814Y-56902565D01*
X232307504Y-56896000D01*
X232300676Y-56831034D01*
X232288232Y-56712635D01*
X232288232Y-56712633D01*
X232287542Y-56706072D01*
X232228527Y-56524444D01*
X232133040Y-56359056D01*
X232124630Y-56349715D01*
X232009675Y-56222045D01*
X232009674Y-56222044D01*
X232005253Y-56217134D01*
X231850752Y-56104882D01*
X231844724Y-56102198D01*
X231844722Y-56102197D01*
X231682319Y-56029891D01*
X231682318Y-56029891D01*
X231676288Y-56027206D01*
X231582887Y-56007353D01*
X231495944Y-55988872D01*
X231495939Y-55988872D01*
X231489487Y-55987500D01*
X231298513Y-55987500D01*
X231292061Y-55988872D01*
X231292056Y-55988872D01*
X231205113Y-56007353D01*
X231111712Y-56027206D01*
X231105682Y-56029891D01*
X231105681Y-56029891D01*
X230943278Y-56102197D01*
X230943276Y-56102198D01*
X230937248Y-56104882D01*
X230782747Y-56217134D01*
X230778326Y-56222044D01*
X230778325Y-56222045D01*
X230663371Y-56349715D01*
X230654960Y-56359056D01*
X230559473Y-56524444D01*
X230500458Y-56706072D01*
X230499768Y-56712633D01*
X230499768Y-56712635D01*
X230487324Y-56831034D01*
X230480496Y-56896000D01*
X230481186Y-56902565D01*
X230499220Y-57074146D01*
X230500458Y-57085928D01*
X230559473Y-57267556D01*
X230562776Y-57273278D01*
X230562777Y-57273279D01*
X230584073Y-57310165D01*
X230654960Y-57432944D01*
X230667338Y-57446691D01*
X230698054Y-57510697D01*
X230689290Y-57581150D01*
X230667339Y-57615307D01*
X230654960Y-57629056D01*
X230625181Y-57680635D01*
X230566069Y-57783020D01*
X230559473Y-57794444D01*
X230500458Y-57976072D01*
X230499768Y-57982633D01*
X230499768Y-57982635D01*
X230485191Y-58121333D01*
X230480496Y-58166000D01*
X230481186Y-58172565D01*
X230499162Y-58343594D01*
X230500458Y-58355928D01*
X230559473Y-58537556D01*
X230562776Y-58543278D01*
X230562777Y-58543279D01*
X230579073Y-58571504D01*
X230654960Y-58702944D01*
X230659378Y-58707851D01*
X230659379Y-58707852D01*
X230746950Y-58805109D01*
X230782747Y-58844866D01*
X230937248Y-58957118D01*
X230943276Y-58959802D01*
X230943278Y-58959803D01*
X231062434Y-59012854D01*
X231116529Y-59058834D01*
X231137179Y-59126761D01*
X231117827Y-59195069D01*
X231085248Y-59229896D01*
X231036747Y-59265134D01*
X231032331Y-59270038D01*
X231027420Y-59274460D01*
X231026295Y-59273211D01*
X230972986Y-59306051D01*
X230939800Y-59310500D01*
X229835338Y-59310500D01*
X229767217Y-59290498D01*
X229746242Y-59273595D01*
X229432451Y-58959803D01*
X229101033Y-58628385D01*
X229093499Y-58620106D01*
X229089386Y-58613625D01*
X229039734Y-58566999D01*
X229036893Y-58564245D01*
X229017156Y-58544508D01*
X229013959Y-58542028D01*
X229004937Y-58534323D01*
X228989082Y-58519434D01*
X228972707Y-58504057D01*
X228965761Y-58500238D01*
X228965758Y-58500236D01*
X228954952Y-58494295D01*
X228938433Y-58483444D01*
X228930590Y-58477361D01*
X228922427Y-58471029D01*
X228915158Y-58467884D01*
X228915154Y-58467881D01*
X228881849Y-58453469D01*
X228871199Y-58448252D01*
X228832446Y-58426948D01*
X228812823Y-58421910D01*
X228794120Y-58415506D01*
X228782806Y-58410610D01*
X228782805Y-58410610D01*
X228775531Y-58407462D01*
X228767708Y-58406223D01*
X228767698Y-58406220D01*
X228731862Y-58400544D01*
X228720242Y-58398138D01*
X228685097Y-58389115D01*
X228685096Y-58389115D01*
X228677416Y-58387143D01*
X228657162Y-58387143D01*
X228637451Y-58385592D01*
X228625272Y-58383663D01*
X228617443Y-58382423D01*
X228609551Y-58383169D01*
X228573425Y-58386584D01*
X228561567Y-58387143D01*
X228007579Y-58387143D01*
X227939458Y-58367141D01*
X227920232Y-58350800D01*
X227919959Y-58351103D01*
X227915047Y-58346680D01*
X227910632Y-58341777D01*
X227834740Y-58286638D01*
X227761473Y-58233406D01*
X227761472Y-58233405D01*
X227756131Y-58229525D01*
X227750103Y-58226841D01*
X227750101Y-58226840D01*
X227581667Y-58151849D01*
X227582884Y-58149116D01*
X227535015Y-58116360D01*
X227507400Y-58050954D01*
X227519531Y-57981001D01*
X227523458Y-57973646D01*
X227533837Y-57955670D01*
X227592852Y-57774042D01*
X227602277Y-57684373D01*
X227612124Y-57590679D01*
X227612814Y-57584114D01*
X227597828Y-57441528D01*
X227593542Y-57400749D01*
X227593542Y-57400747D01*
X227592852Y-57394186D01*
X227533837Y-57212558D01*
X227528497Y-57203308D01*
X227492368Y-57140732D01*
X227438350Y-57047170D01*
X227390197Y-56993690D01*
X227314985Y-56910159D01*
X227314984Y-56910158D01*
X227310563Y-56905248D01*
X227208417Y-56831034D01*
X227161404Y-56796877D01*
X227161403Y-56796876D01*
X227156062Y-56792996D01*
X227150034Y-56790312D01*
X227150032Y-56790311D01*
X226987629Y-56718005D01*
X226987628Y-56718005D01*
X226981598Y-56715320D01*
X226888197Y-56695467D01*
X226801254Y-56676986D01*
X226801249Y-56676986D01*
X226794797Y-56675614D01*
X226603823Y-56675614D01*
X226597371Y-56676986D01*
X226597366Y-56676986D01*
X226510423Y-56695467D01*
X226417022Y-56715320D01*
X226410992Y-56718005D01*
X226410991Y-56718005D01*
X226248588Y-56790311D01*
X226248586Y-56790312D01*
X226242558Y-56792996D01*
X226237217Y-56796876D01*
X226237216Y-56796877D01*
X226190203Y-56831034D01*
X226088057Y-56905248D01*
X226083636Y-56910158D01*
X226083635Y-56910159D01*
X226008424Y-56993690D01*
X225960270Y-57047170D01*
X225906252Y-57140732D01*
X225870124Y-57203308D01*
X225864783Y-57212558D01*
X225805768Y-57394186D01*
X225805078Y-57400747D01*
X225805078Y-57400749D01*
X225800792Y-57441528D01*
X225785806Y-57584114D01*
X225786496Y-57590679D01*
X225796344Y-57684373D01*
X225805768Y-57774042D01*
X225864783Y-57955670D01*
X225868086Y-57961391D01*
X225868087Y-57961393D01*
X225876562Y-57976072D01*
X225960270Y-58121058D01*
X226033447Y-58202329D01*
X226064163Y-58266335D01*
X226065810Y-58286638D01*
X226065810Y-58341807D01*
X226065283Y-58352990D01*
X226063608Y-58360483D01*
X226063857Y-58368409D01*
X226063857Y-58368410D01*
X226065748Y-58428560D01*
X226065810Y-58432519D01*
X226065810Y-58460430D01*
X226066307Y-58464364D01*
X226066307Y-58464365D01*
X226066315Y-58464430D01*
X226067248Y-58476267D01*
X226068637Y-58520463D01*
X226072664Y-58534323D01*
X226074288Y-58539913D01*
X226078297Y-58559274D01*
X226080836Y-58579371D01*
X226083755Y-58586742D01*
X226083755Y-58586744D01*
X226097114Y-58620486D01*
X226100959Y-58631716D01*
X226113292Y-58674167D01*
X226117325Y-58680986D01*
X226117327Y-58680991D01*
X226123603Y-58691602D01*
X226132298Y-58709350D01*
X226139758Y-58728191D01*
X226144420Y-58734607D01*
X226144420Y-58734608D01*
X226165746Y-58763961D01*
X226172262Y-58773881D01*
X226185450Y-58796180D01*
X226194768Y-58811936D01*
X226209089Y-58826257D01*
X226221929Y-58841290D01*
X226233838Y-58857681D01*
X226266313Y-58884547D01*
X226267915Y-58885872D01*
X226276694Y-58893862D01*
X226352257Y-58969425D01*
X226386283Y-59031737D01*
X226388472Y-59045350D01*
X226399492Y-59150197D01*
X226405837Y-59210571D01*
X226436861Y-59306051D01*
X226446414Y-59335453D01*
X226448442Y-59406420D01*
X226411779Y-59467218D01*
X226348067Y-59498544D01*
X226326581Y-59500389D01*
X224693497Y-59500389D01*
X224625376Y-59480387D01*
X224604402Y-59463484D01*
X223894552Y-58753633D01*
X223168666Y-58027747D01*
X223161126Y-58019461D01*
X223157014Y-58012982D01*
X223107362Y-57966356D01*
X223104521Y-57963602D01*
X223084784Y-57943865D01*
X223081587Y-57941385D01*
X223072565Y-57933680D01*
X223040335Y-57903414D01*
X223033389Y-57899595D01*
X223033386Y-57899593D01*
X223022580Y-57893652D01*
X223006061Y-57882801D01*
X223005597Y-57882441D01*
X222990055Y-57870386D01*
X222982786Y-57867241D01*
X222982782Y-57867238D01*
X222949477Y-57852826D01*
X222938827Y-57847609D01*
X222900074Y-57826305D01*
X222880451Y-57821267D01*
X222861748Y-57814863D01*
X222850434Y-57809967D01*
X222850433Y-57809967D01*
X222843159Y-57806819D01*
X222835336Y-57805580D01*
X222835326Y-57805577D01*
X222799490Y-57799901D01*
X222787870Y-57797495D01*
X222752725Y-57788472D01*
X222752724Y-57788472D01*
X222745044Y-57786500D01*
X222724790Y-57786500D01*
X222705079Y-57784949D01*
X222692900Y-57783020D01*
X222685071Y-57781780D01*
X222677179Y-57782526D01*
X222671953Y-57783020D01*
X222642143Y-57785838D01*
X222641053Y-57785941D01*
X222629195Y-57786500D01*
X222352916Y-57786500D01*
X222284795Y-57766498D01*
X222238302Y-57712842D01*
X222227606Y-57647330D01*
X222246547Y-57467112D01*
X222247237Y-57460547D01*
X222239753Y-57389338D01*
X222227965Y-57277182D01*
X222227965Y-57277180D01*
X222227275Y-57270619D01*
X222216428Y-57237236D01*
X222214400Y-57166269D01*
X222251062Y-57105471D01*
X222314775Y-57074146D01*
X222336261Y-57072300D01*
X224000033Y-57072300D01*
X224011216Y-57072827D01*
X224018709Y-57074502D01*
X224026635Y-57074253D01*
X224026636Y-57074253D01*
X224086786Y-57072362D01*
X224090745Y-57072300D01*
X224118656Y-57072300D01*
X224122591Y-57071803D01*
X224122656Y-57071795D01*
X224134493Y-57070862D01*
X224166751Y-57069848D01*
X224170770Y-57069722D01*
X224178689Y-57069473D01*
X224198143Y-57063821D01*
X224217500Y-57059813D01*
X224229730Y-57058268D01*
X224229731Y-57058268D01*
X224237597Y-57057274D01*
X224244968Y-57054355D01*
X224244970Y-57054355D01*
X224278712Y-57040996D01*
X224289942Y-57037151D01*
X224324783Y-57027029D01*
X224324784Y-57027029D01*
X224332393Y-57024818D01*
X224339212Y-57020785D01*
X224339217Y-57020783D01*
X224349828Y-57014507D01*
X224367576Y-57005812D01*
X224386417Y-56998352D01*
X224422187Y-56972364D01*
X224432107Y-56965848D01*
X224463335Y-56947380D01*
X224463338Y-56947378D01*
X224470162Y-56943342D01*
X224484483Y-56929021D01*
X224499517Y-56916180D01*
X224507804Y-56910159D01*
X224515907Y-56904272D01*
X224544098Y-56870195D01*
X224552088Y-56861416D01*
X227940900Y-53472605D01*
X228003212Y-53438579D01*
X228029995Y-53435700D01*
X228085887Y-53435700D01*
X228092339Y-53434328D01*
X228092344Y-53434328D01*
X228189294Y-53413720D01*
X228272688Y-53395994D01*
X228278719Y-53393309D01*
X228441122Y-53321003D01*
X228441124Y-53321002D01*
X228447152Y-53318318D01*
X228601653Y-53206066D01*
X228640796Y-53162593D01*
X228725021Y-53069052D01*
X228725022Y-53069051D01*
X228729440Y-53064144D01*
X228795419Y-52949866D01*
X228821623Y-52904479D01*
X228821624Y-52904478D01*
X228824927Y-52898756D01*
X228883942Y-52717128D01*
X228895947Y-52602912D01*
X228903214Y-52533765D01*
X228903904Y-52527200D01*
X228883942Y-52337272D01*
X228824927Y-52155644D01*
X228729440Y-51990256D01*
X228674778Y-51929547D01*
X228606075Y-51853245D01*
X228606074Y-51853244D01*
X228601653Y-51848334D01*
X228447152Y-51736082D01*
X228441124Y-51733398D01*
X228441122Y-51733397D01*
X228278719Y-51661091D01*
X228278718Y-51661091D01*
X228272688Y-51658406D01*
X228179288Y-51638553D01*
X228092344Y-51620072D01*
X228092339Y-51620072D01*
X228085887Y-51618700D01*
X227894913Y-51618700D01*
X227888461Y-51620072D01*
X227888456Y-51620072D01*
X227801512Y-51638553D01*
X227708112Y-51658406D01*
X227702082Y-51661091D01*
X227702081Y-51661091D01*
X227539678Y-51733397D01*
X227539676Y-51733398D01*
X227533648Y-51736082D01*
X227379147Y-51848334D01*
X227374726Y-51853244D01*
X227374725Y-51853245D01*
X227306023Y-51929547D01*
X227251360Y-51990256D01*
X227155873Y-52155644D01*
X227096858Y-52337272D01*
X227080149Y-52496255D01*
X227079493Y-52502492D01*
X227052480Y-52568149D01*
X227043278Y-52578418D01*
X226594750Y-53026945D01*
X226532438Y-53060970D01*
X226461622Y-53055905D01*
X226412020Y-53022161D01*
X226315653Y-52915134D01*
X226161152Y-52802882D01*
X226155124Y-52800198D01*
X226155122Y-52800197D01*
X225992719Y-52727891D01*
X225992718Y-52727891D01*
X225986688Y-52725206D01*
X225893287Y-52705353D01*
X225806344Y-52686872D01*
X225806339Y-52686872D01*
X225799887Y-52685500D01*
X225608913Y-52685500D01*
X225602461Y-52686872D01*
X225602456Y-52686872D01*
X225515513Y-52705353D01*
X225422112Y-52725206D01*
X225416082Y-52727891D01*
X225416081Y-52727891D01*
X225253678Y-52800197D01*
X225253676Y-52800198D01*
X225247648Y-52802882D01*
X225242307Y-52806762D01*
X225242306Y-52806763D01*
X225124340Y-52892471D01*
X225093147Y-52915134D01*
X225088732Y-52920037D01*
X225083820Y-52924460D01*
X225082695Y-52923211D01*
X225029386Y-52956051D01*
X224996200Y-52960500D01*
X221363563Y-52960500D01*
X221352379Y-52959973D01*
X221344891Y-52958299D01*
X221336968Y-52958548D01*
X221276833Y-52960438D01*
X221272875Y-52960500D01*
X221244944Y-52960500D01*
X221241029Y-52960995D01*
X221241025Y-52960995D01*
X221240967Y-52961003D01*
X221240938Y-52961006D01*
X221229096Y-52961939D01*
X221184910Y-52963327D01*
X221167544Y-52968372D01*
X221165458Y-52968978D01*
X221146106Y-52972986D01*
X221139035Y-52973880D01*
X221126003Y-52975526D01*
X221118634Y-52978443D01*
X221118632Y-52978444D01*
X221084897Y-52991800D01*
X221073669Y-52995645D01*
X221031207Y-53007982D01*
X221024385Y-53012016D01*
X221024379Y-53012019D01*
X221013768Y-53018294D01*
X220996018Y-53026990D01*
X220984556Y-53031528D01*
X220984551Y-53031531D01*
X220977183Y-53034448D01*
X220970768Y-53039109D01*
X220941425Y-53060427D01*
X220931507Y-53066943D01*
X220912819Y-53077995D01*
X220893437Y-53089458D01*
X220879113Y-53103782D01*
X220864081Y-53116621D01*
X220847693Y-53128528D01*
X220831530Y-53148066D01*
X220819512Y-53162593D01*
X220811522Y-53171373D01*
X220255440Y-53727455D01*
X220193128Y-53761481D01*
X220122313Y-53756416D01*
X220065477Y-53713869D01*
X220040770Y-53648686D01*
X220038852Y-53625361D01*
X219984431Y-53408702D01*
X219895354Y-53203840D01*
X219808156Y-53069052D01*
X219776822Y-53020617D01*
X219776820Y-53020614D01*
X219774014Y-53016277D01*
X219623670Y-52851051D01*
X219619619Y-52847852D01*
X219619615Y-52847848D01*
X219452414Y-52715800D01*
X219452410Y-52715798D01*
X219448359Y-52712598D01*
X219412028Y-52692542D01*
X219396136Y-52683769D01*
X219252789Y-52604638D01*
X219247920Y-52602914D01*
X219247916Y-52602912D01*
X219047087Y-52531795D01*
X219047083Y-52531794D01*
X219042212Y-52530069D01*
X219037119Y-52529162D01*
X219037116Y-52529161D01*
X218827373Y-52491800D01*
X218827367Y-52491799D01*
X218822284Y-52490894D01*
X218748452Y-52489992D01*
X218604081Y-52488228D01*
X218604079Y-52488228D01*
X218598911Y-52488165D01*
X218378091Y-52521955D01*
X218165756Y-52591357D01*
X218092757Y-52629358D01*
X217982274Y-52686872D01*
X217967607Y-52694507D01*
X217963474Y-52697610D01*
X217963471Y-52697612D01*
X217793100Y-52825530D01*
X217788965Y-52828635D01*
X217785393Y-52832373D01*
X217648593Y-52975526D01*
X217634629Y-52990138D01*
X217527201Y-53147621D01*
X217472293Y-53192621D01*
X217401768Y-53200792D01*
X217338021Y-53169538D01*
X217317324Y-53145054D01*
X217236822Y-53020617D01*
X217236820Y-53020614D01*
X217234014Y-53016277D01*
X217083670Y-52851051D01*
X217079619Y-52847852D01*
X217079615Y-52847848D01*
X216912414Y-52715800D01*
X216912410Y-52715798D01*
X216908359Y-52712598D01*
X216872028Y-52692542D01*
X216856136Y-52683769D01*
X216712789Y-52604638D01*
X216707920Y-52602914D01*
X216707916Y-52602912D01*
X216507087Y-52531795D01*
X216507083Y-52531794D01*
X216502212Y-52530069D01*
X216497119Y-52529162D01*
X216497116Y-52529161D01*
X216287373Y-52491800D01*
X216287367Y-52491799D01*
X216282284Y-52490894D01*
X216208452Y-52489992D01*
X216064081Y-52488228D01*
X216064079Y-52488228D01*
X216058911Y-52488165D01*
X215838091Y-52521955D01*
X215625756Y-52591357D01*
X215552757Y-52629358D01*
X215442274Y-52686872D01*
X215427607Y-52694507D01*
X215423474Y-52697610D01*
X215423471Y-52697612D01*
X215253100Y-52825530D01*
X215248965Y-52828635D01*
X215245393Y-52832373D01*
X215108593Y-52975526D01*
X215094629Y-52990138D01*
X214987204Y-53147618D01*
X214986898Y-53148066D01*
X214931987Y-53193069D01*
X214861462Y-53201240D01*
X214797715Y-53169986D01*
X214777018Y-53145502D01*
X214696426Y-53020926D01*
X214690136Y-53012757D01*
X214546806Y-52855240D01*
X214539273Y-52848215D01*
X214372139Y-52716222D01*
X214363552Y-52710517D01*
X214177117Y-52607599D01*
X214167705Y-52603369D01*
X213966959Y-52532280D01*
X213956988Y-52529646D01*
X213885837Y-52516972D01*
X213872540Y-52518432D01*
X213868000Y-52532989D01*
X213868000Y-53976000D01*
X213847998Y-54044121D01*
X213794342Y-54090614D01*
X213742000Y-54102000D01*
X213486000Y-54102000D01*
X213417879Y-54081998D01*
X213371386Y-54028342D01*
X213360000Y-53976000D01*
X213360000Y-52531102D01*
X213356082Y-52517758D01*
X213341806Y-52515771D01*
X213303324Y-52521660D01*
X213293288Y-52524051D01*
X213090868Y-52590212D01*
X213081359Y-52594209D01*
X212892463Y-52692542D01*
X212883738Y-52698036D01*
X212713433Y-52825905D01*
X212705726Y-52832748D01*
X212628478Y-52913584D01*
X212566954Y-52949014D01*
X212496042Y-52945557D01*
X212438255Y-52904311D01*
X212419402Y-52870763D01*
X212377767Y-52759703D01*
X212374615Y-52751295D01*
X212287261Y-52634739D01*
X212170705Y-52547385D01*
X212034316Y-52496255D01*
X211972134Y-52489500D01*
X210175866Y-52489500D01*
X210113684Y-52496255D01*
X209977295Y-52547385D01*
X209860739Y-52634739D01*
X209773385Y-52751295D01*
X209722255Y-52887684D01*
X209715500Y-52949866D01*
X209715500Y-54225989D01*
X209695498Y-54294110D01*
X209641842Y-54340603D01*
X209589500Y-54351989D01*
X207274500Y-54351989D01*
X207206379Y-54331987D01*
X207159886Y-54278331D01*
X207148500Y-54225989D01*
X207148500Y-52721866D01*
X207141745Y-52659684D01*
X207090615Y-52523295D01*
X207003261Y-52406739D01*
X206886705Y-52319385D01*
X206750316Y-52268255D01*
X206688134Y-52261500D01*
X204891866Y-52261500D01*
X204829684Y-52268255D01*
X204693295Y-52319385D01*
X204651620Y-52350619D01*
X204642150Y-52357716D01*
X204575644Y-52382564D01*
X204506261Y-52367511D01*
X204456031Y-52317337D01*
X204446751Y-52295824D01*
X204446688Y-52295630D01*
X204445833Y-52292438D01*
X204306532Y-51929547D01*
X204209934Y-51739963D01*
X204131561Y-51586147D01*
X204131557Y-51586140D01*
X204130062Y-51583206D01*
X204020199Y-51414030D01*
X203920152Y-51259971D01*
X203920152Y-51259970D01*
X203918357Y-51257207D01*
X203673734Y-50955124D01*
X203398876Y-50680266D01*
X203196544Y-50516420D01*
X203156192Y-50458006D01*
X203153827Y-50387049D01*
X203190200Y-50326077D01*
X203253763Y-50294449D01*
X203275839Y-50292500D01*
X232998161Y-50292500D01*
X233066282Y-50312502D01*
G37*
%TD.AperFunction*%
%TA.AperFunction,Conductor*%
G36*
X210592842Y-62533339D02*
G01*
X210626130Y-62583544D01*
X210627293Y-62583026D01*
X210629977Y-62589055D01*
X210632019Y-62595339D01*
X210635322Y-62601061D01*
X210635323Y-62601062D01*
X210660459Y-62644598D01*
X210727506Y-62760727D01*
X210731924Y-62765634D01*
X210731925Y-62765635D01*
X210841282Y-62887088D01*
X210855293Y-62902649D01*
X210925180Y-62953425D01*
X210979060Y-62992571D01*
X211009794Y-63014901D01*
X211015822Y-63017585D01*
X211015824Y-63017586D01*
X211139932Y-63072842D01*
X211184258Y-63092577D01*
X211277658Y-63112430D01*
X211364602Y-63130911D01*
X211364607Y-63130911D01*
X211371059Y-63132283D01*
X211426952Y-63132283D01*
X211495073Y-63152285D01*
X211516047Y-63169188D01*
X212543906Y-64197047D01*
X212551450Y-64205337D01*
X212555563Y-64211818D01*
X212561340Y-64217243D01*
X212584899Y-64239366D01*
X212601137Y-64254614D01*
X212605230Y-64258458D01*
X212608072Y-64261213D01*
X212627794Y-64280935D01*
X212630936Y-64283372D01*
X212630996Y-64283419D01*
X212640008Y-64291117D01*
X212660195Y-64310073D01*
X212672242Y-64321386D01*
X212679185Y-64325203D01*
X212689994Y-64331145D01*
X212706516Y-64341998D01*
X212722522Y-64354414D01*
X212729800Y-64357564D01*
X212729801Y-64357564D01*
X212763100Y-64371974D01*
X212773750Y-64377191D01*
X212812503Y-64398495D01*
X212820178Y-64400466D01*
X212820179Y-64400466D01*
X212832125Y-64403533D01*
X212850829Y-64409937D01*
X212860355Y-64414059D01*
X212869418Y-64417981D01*
X212877241Y-64419220D01*
X212877251Y-64419223D01*
X212913087Y-64424899D01*
X212924707Y-64427305D01*
X212948845Y-64433502D01*
X212967533Y-64438300D01*
X212987787Y-64438300D01*
X213007497Y-64439851D01*
X213027506Y-64443020D01*
X213035398Y-64442274D01*
X213071524Y-64438859D01*
X213083382Y-64438300D01*
X220924406Y-64438300D01*
X220992527Y-64458302D01*
X221039020Y-64511958D01*
X221049124Y-64582232D01*
X221019630Y-64646812D01*
X221013501Y-64653395D01*
X217846386Y-67820509D01*
X214679592Y-70987303D01*
X214617280Y-71021329D01*
X214590497Y-71024208D01*
X212505635Y-71024208D01*
X212437514Y-71004206D01*
X212431574Y-71000144D01*
X212338092Y-70932225D01*
X212338091Y-70932224D01*
X212332750Y-70928344D01*
X212326722Y-70925660D01*
X212326720Y-70925659D01*
X212164317Y-70853353D01*
X212164316Y-70853353D01*
X212158286Y-70850668D01*
X212052936Y-70828275D01*
X211977942Y-70812334D01*
X211977937Y-70812334D01*
X211971485Y-70810962D01*
X211915592Y-70810962D01*
X211847471Y-70790960D01*
X211826497Y-70774057D01*
X209674916Y-68622475D01*
X209640890Y-68560163D01*
X209638011Y-68533380D01*
X209638011Y-67927638D01*
X209658013Y-67859517D01*
X209705926Y-67818000D01*
X211938496Y-67818000D01*
X211939186Y-67824565D01*
X211957457Y-67998401D01*
X211958458Y-68007928D01*
X212017473Y-68189556D01*
X212020776Y-68195278D01*
X212020777Y-68195279D01*
X212040997Y-68230300D01*
X212112960Y-68354944D01*
X212117378Y-68359851D01*
X212117379Y-68359852D01*
X212203997Y-68456051D01*
X212240747Y-68496866D01*
X212330761Y-68562265D01*
X212385253Y-68601856D01*
X212395248Y-68609118D01*
X212401276Y-68611802D01*
X212401278Y-68611803D01*
X212563681Y-68684109D01*
X212569712Y-68686794D01*
X212663112Y-68706647D01*
X212750056Y-68725128D01*
X212750061Y-68725128D01*
X212756513Y-68726500D01*
X212947487Y-68726500D01*
X212953939Y-68725128D01*
X212953944Y-68725128D01*
X213040888Y-68706647D01*
X213134288Y-68686794D01*
X213140319Y-68684109D01*
X213302722Y-68611803D01*
X213302724Y-68611802D01*
X213308752Y-68609118D01*
X213318748Y-68601856D01*
X213426830Y-68523329D01*
X213493698Y-68499471D01*
X213562849Y-68515551D01*
X213610010Y-68562265D01*
X213636960Y-68608944D01*
X213641378Y-68613851D01*
X213641379Y-68613852D01*
X213662547Y-68637361D01*
X213764747Y-68750866D01*
X213795940Y-68773529D01*
X213908419Y-68855250D01*
X213919248Y-68863118D01*
X213925276Y-68865802D01*
X213925278Y-68865803D01*
X214087681Y-68938109D01*
X214093712Y-68940794D01*
X214187112Y-68960647D01*
X214274056Y-68979128D01*
X214274061Y-68979128D01*
X214280513Y-68980500D01*
X214471487Y-68980500D01*
X214477939Y-68979128D01*
X214477944Y-68979128D01*
X214564888Y-68960647D01*
X214658288Y-68940794D01*
X214664319Y-68938109D01*
X214826722Y-68865803D01*
X214826724Y-68865802D01*
X214832752Y-68863118D01*
X214843582Y-68855250D01*
X214956060Y-68773529D01*
X214987253Y-68750866D01*
X215089453Y-68637361D01*
X215110621Y-68613852D01*
X215110622Y-68613851D01*
X215115040Y-68608944D01*
X215210527Y-68443556D01*
X215269542Y-68261928D01*
X215289504Y-68072000D01*
X215274331Y-67927638D01*
X215270232Y-67888635D01*
X215270232Y-67888633D01*
X215269542Y-67882072D01*
X215210527Y-67700444D01*
X215206732Y-67693870D01*
X215142614Y-67582816D01*
X215115040Y-67535056D01*
X215035254Y-67446444D01*
X214991675Y-67398045D01*
X214991674Y-67398044D01*
X214987253Y-67393134D01*
X214855267Y-67297240D01*
X214838094Y-67284763D01*
X214838093Y-67284762D01*
X214832752Y-67280882D01*
X214826724Y-67278198D01*
X214826722Y-67278197D01*
X214664319Y-67205891D01*
X214664318Y-67205891D01*
X214658288Y-67203206D01*
X214564888Y-67183353D01*
X214477944Y-67164872D01*
X214477939Y-67164872D01*
X214471487Y-67163500D01*
X214280513Y-67163500D01*
X214274061Y-67164872D01*
X214274056Y-67164872D01*
X214187112Y-67183353D01*
X214093712Y-67203206D01*
X214087682Y-67205891D01*
X214087681Y-67205891D01*
X213925274Y-67278199D01*
X213919248Y-67280882D01*
X213918809Y-67279895D01*
X213855897Y-67295156D01*
X213788806Y-67271934D01*
X213744920Y-67216126D01*
X213738172Y-67145451D01*
X213768260Y-67084988D01*
X213785605Y-67065725D01*
X213785606Y-67065724D01*
X213790024Y-67060817D01*
X213885511Y-66895429D01*
X213944526Y-66713801D01*
X213958892Y-66577121D01*
X213963798Y-66530438D01*
X213964488Y-66523873D01*
X213944526Y-66333945D01*
X213885511Y-66152317D01*
X213790024Y-65986929D01*
X213782708Y-65978803D01*
X213666659Y-65849918D01*
X213666658Y-65849917D01*
X213662237Y-65845007D01*
X213507736Y-65732755D01*
X213501708Y-65730071D01*
X213501706Y-65730070D01*
X213339303Y-65657764D01*
X213339302Y-65657764D01*
X213333272Y-65655079D01*
X213239871Y-65635226D01*
X213152928Y-65616745D01*
X213152923Y-65616745D01*
X213146471Y-65615373D01*
X212955497Y-65615373D01*
X212949045Y-65616745D01*
X212949040Y-65616745D01*
X212862097Y-65635226D01*
X212768696Y-65655079D01*
X212762666Y-65657764D01*
X212762665Y-65657764D01*
X212600262Y-65730070D01*
X212600260Y-65730071D01*
X212594232Y-65732755D01*
X212439731Y-65845007D01*
X212435310Y-65849917D01*
X212435309Y-65849918D01*
X212319261Y-65978803D01*
X212311944Y-65986929D01*
X212216457Y-66152317D01*
X212157442Y-66333945D01*
X212137480Y-66523873D01*
X212138170Y-66530438D01*
X212143077Y-66577121D01*
X212157442Y-66713801D01*
X212216457Y-66895429D01*
X212219760Y-66901151D01*
X212219761Y-66901152D01*
X212266679Y-66982416D01*
X212283417Y-67051411D01*
X212260197Y-67118503D01*
X212243731Y-67136966D01*
X212240747Y-67139134D01*
X212236324Y-67144046D01*
X212236322Y-67144048D01*
X212121173Y-67271934D01*
X212112960Y-67281056D01*
X212103616Y-67297240D01*
X212022934Y-67436986D01*
X212017473Y-67446444D01*
X211958458Y-67628072D01*
X211957768Y-67634633D01*
X211957768Y-67634635D01*
X211951542Y-67693870D01*
X211938496Y-67818000D01*
X209705926Y-67818000D01*
X209711669Y-67813024D01*
X209781943Y-67802920D01*
X209790210Y-67804392D01*
X209803392Y-67807194D01*
X209803395Y-67807194D01*
X209809853Y-67808567D01*
X210000827Y-67808567D01*
X210007279Y-67807195D01*
X210007284Y-67807195D01*
X210094227Y-67788714D01*
X210187628Y-67768861D01*
X210198708Y-67763928D01*
X210356062Y-67693870D01*
X210356064Y-67693869D01*
X210362092Y-67691185D01*
X210374224Y-67682371D01*
X210457600Y-67621794D01*
X210516593Y-67578933D01*
X210525457Y-67569089D01*
X210639961Y-67441919D01*
X210639962Y-67441918D01*
X210644380Y-67437011D01*
X210726280Y-67295156D01*
X210736563Y-67277346D01*
X210736564Y-67277345D01*
X210739867Y-67271623D01*
X210798882Y-67089995D01*
X210806021Y-67022077D01*
X210818154Y-66906632D01*
X210818844Y-66900067D01*
X210803933Y-66758194D01*
X210799572Y-66716702D01*
X210799572Y-66716700D01*
X210798882Y-66710139D01*
X210739867Y-66528511D01*
X210644380Y-66363123D01*
X210625817Y-66342506D01*
X210521015Y-66226112D01*
X210521014Y-66226111D01*
X210516593Y-66221201D01*
X210436269Y-66162842D01*
X210392915Y-66106620D01*
X210384330Y-66060906D01*
X210384330Y-62628563D01*
X210404332Y-62560442D01*
X210457988Y-62513949D01*
X210528262Y-62503845D01*
X210592842Y-62533339D01*
G37*
%TD.AperFunction*%
%TA.AperFunction,Conductor*%
G36*
X197821012Y-55495377D02*
G01*
X197844172Y-55521976D01*
X197909643Y-55622793D01*
X198154266Y-55924876D01*
X198429124Y-56199734D01*
X198431682Y-56201806D01*
X198431686Y-56201809D01*
X198553712Y-56300624D01*
X198731207Y-56444357D01*
X198733970Y-56446152D01*
X198733971Y-56446152D01*
X198883756Y-56543423D01*
X199057205Y-56656062D01*
X199060139Y-56657557D01*
X199060146Y-56657561D01*
X199400607Y-56831034D01*
X199403547Y-56832532D01*
X199568887Y-56896000D01*
X199759032Y-56968990D01*
X199766438Y-56971833D01*
X200141901Y-57072438D01*
X200331009Y-57102390D01*
X200522576Y-57132732D01*
X200522584Y-57132733D01*
X200525824Y-57133246D01*
X200914000Y-57153589D01*
X201302176Y-57133246D01*
X201305416Y-57132733D01*
X201305424Y-57132732D01*
X201496991Y-57102390D01*
X201686099Y-57072438D01*
X202061562Y-56971833D01*
X202160457Y-56933871D01*
X202231218Y-56928132D01*
X202293852Y-56961562D01*
X202328469Y-57023547D01*
X202331609Y-57051502D01*
X202331609Y-57266679D01*
X202311607Y-57334800D01*
X202299251Y-57350982D01*
X202226069Y-57432259D01*
X202222768Y-57437977D01*
X202140107Y-57581150D01*
X202130582Y-57597647D01*
X202071567Y-57779275D01*
X202070877Y-57785836D01*
X202070877Y-57785838D01*
X202055676Y-57930466D01*
X202051605Y-57969203D01*
X202052295Y-57975768D01*
X202070802Y-58151849D01*
X202071567Y-58159131D01*
X202130582Y-58340759D01*
X202226069Y-58506147D01*
X202299246Y-58587418D01*
X202329962Y-58651424D01*
X202331609Y-58671727D01*
X202331609Y-60392342D01*
X202331082Y-60403525D01*
X202329407Y-60411018D01*
X202329656Y-60418944D01*
X202329656Y-60418945D01*
X202331547Y-60479095D01*
X202331609Y-60483054D01*
X202331609Y-60510965D01*
X202332106Y-60514899D01*
X202332106Y-60514900D01*
X202332114Y-60514965D01*
X202333047Y-60526802D01*
X202334436Y-60570998D01*
X202339629Y-60588873D01*
X202340087Y-60590448D01*
X202344096Y-60609809D01*
X202346635Y-60629906D01*
X202349554Y-60637277D01*
X202349554Y-60637279D01*
X202362913Y-60671021D01*
X202366758Y-60682251D01*
X202376880Y-60717092D01*
X202379091Y-60724702D01*
X202383124Y-60731521D01*
X202383126Y-60731526D01*
X202389402Y-60742137D01*
X202398097Y-60759885D01*
X202405557Y-60778726D01*
X202410219Y-60785142D01*
X202410219Y-60785143D01*
X202431545Y-60814496D01*
X202438061Y-60824416D01*
X202453859Y-60851128D01*
X202460567Y-60862471D01*
X202474888Y-60876792D01*
X202487728Y-60891825D01*
X202499637Y-60908216D01*
X202524803Y-60929035D01*
X202533714Y-60936407D01*
X202542493Y-60944397D01*
X204529501Y-62931405D01*
X204563527Y-62993717D01*
X204558462Y-63064532D01*
X204515915Y-63121368D01*
X204449395Y-63146179D01*
X204440406Y-63146500D01*
X204216124Y-63146500D01*
X204148003Y-63126498D01*
X204101510Y-63072842D01*
X204096290Y-63059434D01*
X204094095Y-63052677D01*
X203998608Y-62887289D01*
X203989636Y-62877324D01*
X203875243Y-62750278D01*
X203875242Y-62750277D01*
X203870821Y-62745367D01*
X203763461Y-62667365D01*
X203721662Y-62636996D01*
X203721661Y-62636995D01*
X203716320Y-62633115D01*
X203710292Y-62630431D01*
X203710290Y-62630430D01*
X203547887Y-62558124D01*
X203547886Y-62558124D01*
X203541856Y-62555439D01*
X203448456Y-62535586D01*
X203361512Y-62517105D01*
X203361507Y-62517105D01*
X203355055Y-62515733D01*
X203164081Y-62515733D01*
X203157629Y-62517105D01*
X203157624Y-62517105D01*
X203070680Y-62535586D01*
X202977280Y-62555439D01*
X202971250Y-62558124D01*
X202971249Y-62558124D01*
X202808846Y-62630430D01*
X202808844Y-62630431D01*
X202802816Y-62633115D01*
X202797475Y-62636995D01*
X202797474Y-62636996D01*
X202755675Y-62667365D01*
X202648315Y-62745367D01*
X202643894Y-62750277D01*
X202643893Y-62750278D01*
X202529501Y-62877324D01*
X202520528Y-62887289D01*
X202425041Y-63052677D01*
X202366026Y-63234305D01*
X202365336Y-63240866D01*
X202365336Y-63240868D01*
X202353855Y-63350109D01*
X202346064Y-63424233D01*
X202366026Y-63614161D01*
X202425041Y-63795789D01*
X202428344Y-63801511D01*
X202428345Y-63801512D01*
X202434673Y-63812472D01*
X202520528Y-63961177D01*
X202524946Y-63966084D01*
X202524947Y-63966085D01*
X202627858Y-64080379D01*
X202648315Y-64103099D01*
X202704218Y-64143715D01*
X202786531Y-64203519D01*
X202802816Y-64215351D01*
X202808844Y-64218035D01*
X202808846Y-64218036D01*
X202971249Y-64290342D01*
X202977280Y-64293027D01*
X203057475Y-64310073D01*
X203157624Y-64331361D01*
X203157629Y-64331361D01*
X203164081Y-64332733D01*
X203271410Y-64332733D01*
X203321453Y-64343097D01*
X203330867Y-64347171D01*
X203341525Y-64352392D01*
X203380275Y-64373695D01*
X203387951Y-64375666D01*
X203387954Y-64375667D01*
X203399897Y-64378733D01*
X203418602Y-64385137D01*
X203437190Y-64393181D01*
X203445013Y-64394420D01*
X203445023Y-64394423D01*
X203480859Y-64400099D01*
X203492479Y-64402505D01*
X203521427Y-64409937D01*
X203535305Y-64413500D01*
X203555559Y-64413500D01*
X203575269Y-64415051D01*
X203595278Y-64418220D01*
X203603170Y-64417474D01*
X203639296Y-64414059D01*
X203651154Y-64413500D01*
X204514274Y-64413500D01*
X204582395Y-64433502D01*
X204621707Y-64473665D01*
X204689987Y-64585088D01*
X204836250Y-64753938D01*
X205008126Y-64896632D01*
X205078595Y-64937811D01*
X205081445Y-64939476D01*
X205130169Y-64991114D01*
X205143240Y-65060897D01*
X205116509Y-65126669D01*
X205076055Y-65160027D01*
X205063607Y-65166507D01*
X205059474Y-65169610D01*
X205059471Y-65169612D01*
X204889396Y-65297308D01*
X204884965Y-65300635D01*
X204730629Y-65462138D01*
X204727715Y-65466410D01*
X204727714Y-65466411D01*
X204646391Y-65585627D01*
X204604743Y-65646680D01*
X204562987Y-65736636D01*
X204520478Y-65828215D01*
X204510688Y-65849305D01*
X204450989Y-66064570D01*
X204427251Y-66286695D01*
X204440110Y-66509715D01*
X204441247Y-66514761D01*
X204441248Y-66514767D01*
X204458007Y-66589129D01*
X204489222Y-66727639D01*
X204573266Y-66934616D01*
X204575965Y-66939020D01*
X204685952Y-67118503D01*
X204689987Y-67125088D01*
X204836250Y-67293938D01*
X205008126Y-67436632D01*
X205078595Y-67477811D01*
X205081445Y-67479476D01*
X205130169Y-67531114D01*
X205143240Y-67600897D01*
X205116509Y-67666669D01*
X205076055Y-67700027D01*
X205063607Y-67706507D01*
X205059474Y-67709610D01*
X205059471Y-67709612D01*
X204890363Y-67836582D01*
X204884965Y-67840635D01*
X204730629Y-68002138D01*
X204604743Y-68186680D01*
X204582773Y-68234011D01*
X204524360Y-68359852D01*
X204510688Y-68389305D01*
X204450989Y-68604570D01*
X204427251Y-68826695D01*
X204427548Y-68831848D01*
X204427548Y-68831851D01*
X204434450Y-68951556D01*
X204440110Y-69049715D01*
X204441247Y-69054761D01*
X204441248Y-69054767D01*
X204450314Y-69094994D01*
X204489222Y-69267639D01*
X204533932Y-69377748D01*
X204561691Y-69446109D01*
X204573266Y-69474616D01*
X204607393Y-69530306D01*
X204684707Y-69656471D01*
X204689987Y-69665088D01*
X204836250Y-69833938D01*
X205008126Y-69976632D01*
X205061111Y-70007594D01*
X205081445Y-70019476D01*
X205130169Y-70071114D01*
X205143240Y-70140897D01*
X205116509Y-70206669D01*
X205076055Y-70240027D01*
X205063607Y-70246507D01*
X205059474Y-70249610D01*
X205059471Y-70249612D01*
X204900938Y-70368642D01*
X204884965Y-70380635D01*
X204730629Y-70542138D01*
X204711604Y-70570028D01*
X204656694Y-70615029D01*
X204586169Y-70623200D01*
X204522422Y-70591946D01*
X204485810Y-70531633D01*
X204452408Y-70406976D01*
X204445833Y-70382438D01*
X204306532Y-70019547D01*
X204213642Y-69837240D01*
X204131561Y-69676147D01*
X204131557Y-69676140D01*
X204130062Y-69673206D01*
X204121934Y-69660689D01*
X203920152Y-69349971D01*
X203920152Y-69349970D01*
X203918357Y-69347207D01*
X203749592Y-69138800D01*
X203675809Y-69047686D01*
X203675806Y-69047682D01*
X203673734Y-69045124D01*
X203398876Y-68770266D01*
X203395145Y-68767244D01*
X203216370Y-68622475D01*
X203096793Y-68525643D01*
X203063409Y-68503963D01*
X202773564Y-68315736D01*
X202773561Y-68315734D01*
X202770795Y-68313938D01*
X202767861Y-68312443D01*
X202767854Y-68312439D01*
X202427393Y-68138966D01*
X202424453Y-68137468D01*
X202103345Y-68014206D01*
X202064652Y-67999353D01*
X202064650Y-67999352D01*
X202061562Y-67998167D01*
X201686099Y-67897562D01*
X201467254Y-67862900D01*
X201305424Y-67837268D01*
X201305416Y-67837267D01*
X201302176Y-67836754D01*
X200914000Y-67816411D01*
X200525824Y-67836754D01*
X200522584Y-67837267D01*
X200522576Y-67837268D01*
X200360746Y-67862900D01*
X200141901Y-67897562D01*
X199766438Y-67998167D01*
X199763350Y-67999352D01*
X199763348Y-67999353D01*
X199724655Y-68014206D01*
X199403547Y-68137468D01*
X199400607Y-68138966D01*
X199060147Y-68312439D01*
X199060140Y-68312443D01*
X199057206Y-68313938D01*
X199054440Y-68315734D01*
X199054437Y-68315736D01*
X198770568Y-68500082D01*
X198731207Y-68525643D01*
X198611630Y-68622475D01*
X198432856Y-68767244D01*
X198429124Y-68770266D01*
X198154266Y-69045124D01*
X198152194Y-69047682D01*
X198152191Y-69047686D01*
X198078408Y-69138800D01*
X197909643Y-69347207D01*
X197907848Y-69349970D01*
X197907848Y-69349971D01*
X197844173Y-69448023D01*
X197790297Y-69494260D01*
X197719975Y-69504030D01*
X197655536Y-69474230D01*
X197617436Y-69414322D01*
X197612500Y-69379399D01*
X197612500Y-55590601D01*
X197632502Y-55522480D01*
X197686158Y-55475987D01*
X197756432Y-55465883D01*
X197821012Y-55495377D01*
G37*
%TD.AperFunction*%
%TA.AperFunction,Conductor*%
G36*
X208099542Y-59930528D02*
G01*
X208156378Y-59973075D01*
X208181189Y-60039595D01*
X208181510Y-60048584D01*
X208181510Y-61415950D01*
X208161508Y-61484071D01*
X208144605Y-61505046D01*
X207733656Y-61915994D01*
X207671344Y-61950019D01*
X207644561Y-61952898D01*
X207588670Y-61952898D01*
X207582218Y-61954270D01*
X207582213Y-61954270D01*
X207498045Y-61972161D01*
X207401869Y-61992604D01*
X207395839Y-61995289D01*
X207395838Y-61995289D01*
X207233435Y-62067595D01*
X207233433Y-62067596D01*
X207227405Y-62070280D01*
X207222064Y-62074160D01*
X207222063Y-62074161D01*
X207104773Y-62159378D01*
X207037906Y-62183236D01*
X206968754Y-62167156D01*
X206919274Y-62116242D01*
X206905174Y-62046660D01*
X206928389Y-61983916D01*
X206955435Y-61946277D01*
X206958453Y-61942077D01*
X206961120Y-61936682D01*
X207055136Y-61746453D01*
X207055137Y-61746451D01*
X207057430Y-61741811D01*
X207122370Y-61528069D01*
X207151529Y-61306590D01*
X207151618Y-61302955D01*
X207153074Y-61243365D01*
X207153074Y-61243361D01*
X207153156Y-61240000D01*
X207134852Y-61017361D01*
X207106821Y-60905765D01*
X207109625Y-60834823D01*
X207139930Y-60785974D01*
X207966415Y-59959489D01*
X208028727Y-59925463D01*
X208099542Y-59930528D01*
G37*
%TD.AperFunction*%
%TA.AperFunction,Conductor*%
G36*
X210199289Y-59273712D02*
G01*
X210256125Y-59316259D01*
X210280936Y-59382779D01*
X210281257Y-59391768D01*
X210281257Y-60452453D01*
X210261255Y-60520574D01*
X210244352Y-60541548D01*
X209663605Y-61122295D01*
X209601293Y-61156321D01*
X209530478Y-61151256D01*
X209473642Y-61108709D01*
X209448831Y-61042189D01*
X209448510Y-61033200D01*
X209448510Y-59972515D01*
X209468512Y-59904394D01*
X209485415Y-59883420D01*
X210066162Y-59302673D01*
X210128474Y-59268647D01*
X210199289Y-59273712D01*
G37*
%TD.AperFunction*%
%TA.AperFunction,Conductor*%
G36*
X217506026Y-54523144D02*
G01*
X217533875Y-54554994D01*
X217593987Y-54653088D01*
X217740250Y-54821938D01*
X217816846Y-54885529D01*
X217898589Y-54953393D01*
X217912126Y-54964632D01*
X218105000Y-55077338D01*
X218313692Y-55157030D01*
X218318760Y-55158061D01*
X218318763Y-55158062D01*
X218509490Y-55196866D01*
X218572255Y-55230047D01*
X218607117Y-55291895D01*
X218603008Y-55362773D01*
X218573464Y-55409431D01*
X218522643Y-55460252D01*
X218460331Y-55494278D01*
X218391132Y-55489329D01*
X218391100Y-55489427D01*
X218390703Y-55489298D01*
X218389516Y-55489213D01*
X218385926Y-55487746D01*
X218384820Y-55487387D01*
X218378788Y-55484701D01*
X218285387Y-55464848D01*
X218198444Y-55446367D01*
X218198439Y-55446367D01*
X218191987Y-55444995D01*
X218001013Y-55444995D01*
X217994561Y-55446367D01*
X217994556Y-55446367D01*
X217907612Y-55464848D01*
X217814212Y-55484701D01*
X217808182Y-55487386D01*
X217808181Y-55487386D01*
X217645778Y-55559692D01*
X217645776Y-55559693D01*
X217639748Y-55562377D01*
X217485247Y-55674629D01*
X217480826Y-55679539D01*
X217480825Y-55679540D01*
X217366984Y-55805974D01*
X217357460Y-55816551D01*
X217261973Y-55981939D01*
X217202958Y-56163567D01*
X217202268Y-56170128D01*
X217202268Y-56170130D01*
X217197736Y-56213251D01*
X217182996Y-56353495D01*
X217183686Y-56360060D01*
X217200556Y-56520565D01*
X217202958Y-56543423D01*
X217261973Y-56725051D01*
X217357460Y-56890439D01*
X217361878Y-56895346D01*
X217361879Y-56895347D01*
X217453993Y-56997650D01*
X217485247Y-57032361D01*
X217581633Y-57102390D01*
X217621016Y-57131003D01*
X217639748Y-57144613D01*
X217645776Y-57147297D01*
X217645778Y-57147298D01*
X217806472Y-57218843D01*
X217814212Y-57222289D01*
X217907151Y-57242044D01*
X217994556Y-57260623D01*
X217994561Y-57260623D01*
X218001013Y-57261995D01*
X218191987Y-57261995D01*
X218198439Y-57260623D01*
X218198444Y-57260623D01*
X218283247Y-57242597D01*
X218353434Y-57227678D01*
X218424224Y-57233080D01*
X218468725Y-57261830D01*
X219032300Y-57825405D01*
X219066326Y-57887717D01*
X219061261Y-57958532D01*
X219018714Y-58015368D01*
X218952194Y-58040179D01*
X218943205Y-58040500D01*
X217248763Y-58040500D01*
X217237579Y-58039973D01*
X217230091Y-58038299D01*
X217222168Y-58038548D01*
X217162033Y-58040438D01*
X217158075Y-58040500D01*
X217130144Y-58040500D01*
X217126229Y-58040995D01*
X217126225Y-58040995D01*
X217126167Y-58041003D01*
X217126138Y-58041006D01*
X217114296Y-58041939D01*
X217070110Y-58043327D01*
X217052744Y-58048372D01*
X217050658Y-58048978D01*
X217031306Y-58052986D01*
X217019068Y-58054532D01*
X217019066Y-58054533D01*
X217011203Y-58055526D01*
X216970086Y-58071806D01*
X216958885Y-58075641D01*
X216916406Y-58087982D01*
X216909587Y-58092015D01*
X216909582Y-58092017D01*
X216898971Y-58098293D01*
X216881221Y-58106990D01*
X216862383Y-58114448D01*
X216855967Y-58119109D01*
X216855966Y-58119110D01*
X216826625Y-58140428D01*
X216816701Y-58146947D01*
X216785460Y-58165422D01*
X216785455Y-58165426D01*
X216778637Y-58169458D01*
X216764313Y-58183782D01*
X216749281Y-58196621D01*
X216732893Y-58208528D01*
X216719589Y-58224610D01*
X216704712Y-58242593D01*
X216696722Y-58251373D01*
X215275395Y-59672700D01*
X215213083Y-59706726D01*
X215142268Y-59701661D01*
X215085432Y-59659114D01*
X215060621Y-59592594D01*
X215060300Y-59583605D01*
X215060300Y-57310165D01*
X215080302Y-57242044D01*
X215133958Y-57195551D01*
X215204232Y-57185447D01*
X215237548Y-57195058D01*
X215256077Y-57203308D01*
X215256085Y-57203311D01*
X215262112Y-57205994D01*
X215351998Y-57225100D01*
X215442456Y-57244328D01*
X215442461Y-57244328D01*
X215448913Y-57245700D01*
X215639887Y-57245700D01*
X215646339Y-57244328D01*
X215646344Y-57244328D01*
X215736802Y-57225100D01*
X215826688Y-57205994D01*
X215833058Y-57203158D01*
X215995122Y-57131003D01*
X215995124Y-57131002D01*
X216001152Y-57128318D01*
X216041128Y-57099274D01*
X216078064Y-57072438D01*
X216155653Y-57016066D01*
X216172235Y-56997650D01*
X216279021Y-56879052D01*
X216279022Y-56879051D01*
X216283440Y-56874144D01*
X216378927Y-56708756D01*
X216437942Y-56527128D01*
X216446642Y-56444357D01*
X216457214Y-56343765D01*
X216457904Y-56337200D01*
X216443210Y-56197397D01*
X216438632Y-56153835D01*
X216438632Y-56153833D01*
X216437942Y-56147272D01*
X216378927Y-55965644D01*
X216283440Y-55800256D01*
X216155653Y-55658334D01*
X216023580Y-55562377D01*
X216006494Y-55549963D01*
X216006493Y-55549962D01*
X216001152Y-55546082D01*
X215995124Y-55543398D01*
X215995122Y-55543397D01*
X215832719Y-55471091D01*
X215832718Y-55471091D01*
X215826688Y-55468406D01*
X215733287Y-55448553D01*
X215646344Y-55430072D01*
X215646339Y-55430072D01*
X215639887Y-55428700D01*
X215583995Y-55428700D01*
X215515874Y-55408698D01*
X215494899Y-55391795D01*
X215330514Y-55227409D01*
X215296489Y-55165097D01*
X215301554Y-55094281D01*
X215344101Y-55037446D01*
X215410622Y-55012635D01*
X215483178Y-55029525D01*
X215565000Y-55077338D01*
X215773692Y-55157030D01*
X215778760Y-55158061D01*
X215778763Y-55158062D01*
X215886017Y-55179883D01*
X215992597Y-55201567D01*
X215997772Y-55201757D01*
X215997774Y-55201757D01*
X216210673Y-55209564D01*
X216210677Y-55209564D01*
X216215837Y-55209753D01*
X216220957Y-55209097D01*
X216220959Y-55209097D01*
X216432288Y-55182025D01*
X216432289Y-55182025D01*
X216437416Y-55181368D01*
X216491650Y-55165097D01*
X216646429Y-55118661D01*
X216646434Y-55118659D01*
X216651384Y-55117174D01*
X216851994Y-55018896D01*
X217033860Y-54889173D01*
X217192096Y-54731489D01*
X217322453Y-54550077D01*
X217323776Y-54551028D01*
X217370645Y-54507857D01*
X217440580Y-54495625D01*
X217506026Y-54523144D01*
G37*
%TD.AperFunction*%
%TD*%
M02*
