%TF.GenerationSoftware,KiCad,Pcbnew,6.0.11+dfsg-1~bpo11+1*%
%TF.CreationDate,2023-04-29T04:06:51+00:00*%
%TF.ProjectId,slcam,736c6361-6d2e-46b6-9963-61645f706362,v0.2*%
%TF.SameCoordinates,Original*%
%TF.FileFunction,Soldermask,Bot*%
%TF.FilePolarity,Negative*%
%FSLAX46Y46*%
G04 Gerber Fmt 4.6, Leading zero omitted, Abs format (unit mm)*
G04 Created by KiCad (PCBNEW 6.0.11+dfsg-1~bpo11+1) date 2023-04-29 04:06:51*
%MOMM*%
%LPD*%
G01*
G04 APERTURE LIST*
G04 Aperture macros list*
%AMRoundRect*
0 Rectangle with rounded corners*
0 $1 Rounding radius*
0 $2 $3 $4 $5 $6 $7 $8 $9 X,Y pos of 4 corners*
0 Add a 4 corners polygon primitive as box body*
4,1,4,$2,$3,$4,$5,$6,$7,$8,$9,$2,$3,0*
0 Add four circle primitives for the rounded corners*
1,1,$1+$1,$2,$3*
1,1,$1+$1,$4,$5*
1,1,$1+$1,$6,$7*
1,1,$1+$1,$8,$9*
0 Add four rect primitives between the rounded corners*
20,1,$1+$1,$2,$3,$4,$5,0*
20,1,$1+$1,$4,$5,$6,$7,0*
20,1,$1+$1,$6,$7,$8,$9,0*
20,1,$1+$1,$8,$9,$2,$3,0*%
G04 Aperture macros list end*
%ADD10RoundRect,0.051000X-0.850000X-0.850000X0.850000X-0.850000X0.850000X0.850000X-0.850000X0.850000X0*%
%ADD11O,1.802000X1.802000*%
%ADD12RoundRect,0.051000X0.850000X-0.850000X0.850000X0.850000X-0.850000X0.850000X-0.850000X-0.850000X0*%
%ADD13C,6.502000*%
%ADD14RoundRect,0.126000X0.521491X-0.415425X-0.415425X0.521491X-0.521491X0.415425X0.415425X-0.521491X0*%
%ADD15RoundRect,0.126000X0.521491X0.415425X0.415425X0.521491X-0.521491X-0.415425X-0.415425X-0.521491X0*%
%ADD16RoundRect,0.051000X-0.600000X0.700000X-0.600000X-0.700000X0.600000X-0.700000X0.600000X0.700000X0*%
%ADD17RoundRect,0.201000X-0.825000X-0.150000X0.825000X-0.150000X0.825000X0.150000X-0.825000X0.150000X0*%
%ADD18RoundRect,0.288500X-0.237500X0.287500X-0.237500X-0.287500X0.237500X-0.287500X0.237500X0.287500X0*%
%ADD19RoundRect,0.288500X-0.035355X-0.371231X0.371231X0.035355X0.035355X0.371231X-0.371231X-0.035355X0*%
%ADD20RoundRect,0.288500X-0.287500X-0.237500X0.287500X-0.237500X0.287500X0.237500X-0.287500X0.237500X0*%
%ADD21RoundRect,0.288500X0.237500X-0.287500X0.237500X0.287500X-0.237500X0.287500X-0.237500X-0.287500X0*%
%ADD22RoundRect,0.288500X0.035355X0.371231X-0.371231X-0.035355X-0.035355X-0.371231X0.371231X0.035355X0*%
%ADD23RoundRect,0.288500X0.287500X0.237500X-0.287500X0.237500X-0.287500X-0.237500X0.287500X-0.237500X0*%
%ADD24RoundRect,0.288500X-0.300000X-0.237500X0.300000X-0.237500X0.300000X0.237500X-0.300000X0.237500X0*%
%ADD25RoundRect,0.051000X-0.900000X0.875000X-0.900000X-0.875000X0.900000X-0.875000X0.900000X0.875000X0*%
G04 APERTURE END LIST*
D10*
%TO.C,J2*%
X205790000Y-53620000D03*
D11*
X205790000Y-56160000D03*
X205790000Y-58700000D03*
X205790000Y-61240000D03*
X205790000Y-63780000D03*
X205790000Y-66320000D03*
X205790000Y-68860000D03*
X205790000Y-71400000D03*
%TD*%
D12*
%TO.C,J3*%
X211074000Y-53848000D03*
D11*
X213614000Y-53848000D03*
X216154000Y-53848000D03*
X218694000Y-53848000D03*
%TD*%
D13*
%TO.C,H1*%
X200914000Y-53440000D03*
%TD*%
%TO.C,H2*%
X200914000Y-71530000D03*
%TD*%
%TO.C,H3*%
X235360000Y-71530000D03*
%TD*%
%TO.C,H4*%
X235360000Y-53440000D03*
%TD*%
D14*
%TO.C,U1*%
X221875985Y-63510233D03*
X221522431Y-63863787D03*
X221168878Y-64217340D03*
X220815324Y-64570894D03*
X220461771Y-64924447D03*
X220108218Y-65278000D03*
X219754664Y-65631554D03*
X219401111Y-65985107D03*
X219047558Y-66338660D03*
X218694004Y-66692214D03*
X218340451Y-67045767D03*
X217986897Y-67399321D03*
D15*
X215989321Y-67399321D03*
X215635767Y-67045767D03*
X215282214Y-66692214D03*
X214928660Y-66338660D03*
X214575107Y-65985107D03*
X214221554Y-65631554D03*
X213868000Y-65278000D03*
X213514447Y-64924447D03*
X213160894Y-64570894D03*
X212807340Y-64217340D03*
X212453787Y-63863787D03*
X212100233Y-63510233D03*
D14*
X212100233Y-61512657D03*
X212453787Y-61159103D03*
X212807340Y-60805550D03*
X213160894Y-60451996D03*
X213514447Y-60098443D03*
X213868000Y-59744890D03*
X214221554Y-59391336D03*
X214575107Y-59037783D03*
X214928660Y-58684230D03*
X215282214Y-58330676D03*
X215635767Y-57977123D03*
X215989321Y-57623569D03*
D15*
X217986897Y-57623569D03*
X218340451Y-57977123D03*
X218694004Y-58330676D03*
X219047558Y-58684230D03*
X219401111Y-59037783D03*
X219754664Y-59391336D03*
X220108218Y-59744890D03*
X220461771Y-60098443D03*
X220815324Y-60451996D03*
X221168878Y-60805550D03*
X221522431Y-61159103D03*
X221875985Y-61512657D03*
%TD*%
D16*
%TO.C,Y1*%
X224204000Y-66802000D03*
X224204000Y-69002000D03*
X222504000Y-69002000D03*
X222504000Y-66802000D03*
%TD*%
D17*
%TO.C,U3*%
X224790000Y-59436000D03*
X224790000Y-58166000D03*
X224790000Y-56896000D03*
X224790000Y-55626000D03*
X229740000Y-55626000D03*
X229740000Y-56896000D03*
X229740000Y-58166000D03*
X229740000Y-59436000D03*
%TD*%
D18*
%TO.C,R4*%
X222504000Y-56286400D03*
X222504000Y-58036400D03*
%TD*%
D19*
%TO.C,R5*%
X210312000Y-68072000D03*
X211549436Y-66834564D03*
%TD*%
D20*
%TO.C,R6*%
X199926000Y-66446400D03*
X201676000Y-66446400D03*
%TD*%
%TO.C,R7*%
X199937400Y-64922400D03*
X201687400Y-64922400D03*
%TD*%
D21*
%TO.C,R8*%
X237998000Y-62710000D03*
X237998000Y-60960000D03*
%TD*%
D22*
%TO.C,C3*%
X210185000Y-64770000D03*
X208947564Y-66007436D03*
%TD*%
D20*
%TO.C,C5*%
X224409000Y-61087000D03*
X226159000Y-61087000D03*
%TD*%
D18*
%TO.C,C6*%
X220421200Y-68427600D03*
X220421200Y-70177600D03*
%TD*%
D21*
%TO.C,C7*%
X226060000Y-67564000D03*
X226060000Y-65814000D03*
%TD*%
%TO.C,C8*%
X226060000Y-71092000D03*
X226060000Y-69342000D03*
%TD*%
D20*
%TO.C,R9*%
X222532000Y-71120000D03*
X224282000Y-71120000D03*
%TD*%
D23*
%TO.C,C4*%
X213868000Y-56489600D03*
X212118000Y-56489600D03*
%TD*%
D24*
%TO.C,C9*%
X233274700Y-62636400D03*
X234999700Y-62636400D03*
%TD*%
D25*
%TO.C,Y2*%
X230993950Y-62078200D03*
X230993950Y-65328200D03*
%TD*%
D24*
%TO.C,C10*%
X233274700Y-64820800D03*
X234999700Y-64820800D03*
%TD*%
G36*
X217695503Y-66634994D02*
G01*
X217696146Y-66636108D01*
X217704436Y-66677781D01*
X217731418Y-66718163D01*
X218668055Y-67654800D01*
X218708437Y-67681782D01*
X218750110Y-67690072D01*
X218751614Y-67691391D01*
X218751224Y-67693353D01*
X218750110Y-67693996D01*
X218735089Y-67696983D01*
X218673473Y-67729213D01*
X218638110Y-67793976D01*
X218635126Y-67808980D01*
X218633807Y-67810484D01*
X218631845Y-67810094D01*
X218631202Y-67808980D01*
X218622912Y-67767307D01*
X218595930Y-67726925D01*
X217659293Y-66790288D01*
X217618911Y-66763306D01*
X217577238Y-66755016D01*
X217575734Y-66753697D01*
X217576124Y-66751735D01*
X217577238Y-66751092D01*
X217592259Y-66748105D01*
X217653875Y-66715875D01*
X217689238Y-66651112D01*
X217692222Y-66636108D01*
X217693541Y-66634604D01*
X217695503Y-66634994D01*
G37*
G36*
X216283353Y-66634994D02*
G01*
X216283996Y-66636108D01*
X216286983Y-66651129D01*
X216319213Y-66712745D01*
X216383976Y-66748108D01*
X216398980Y-66751092D01*
X216400484Y-66752411D01*
X216400094Y-66754373D01*
X216398980Y-66755016D01*
X216357307Y-66763306D01*
X216316925Y-66790288D01*
X215380288Y-67726925D01*
X215353306Y-67767307D01*
X215345016Y-67808980D01*
X215343697Y-67810484D01*
X215341735Y-67810094D01*
X215341092Y-67808980D01*
X215338105Y-67793959D01*
X215305875Y-67732343D01*
X215241112Y-67696980D01*
X215226108Y-67693996D01*
X215224604Y-67692677D01*
X215224994Y-67690715D01*
X215226108Y-67690072D01*
X215267781Y-67681782D01*
X215308163Y-67654800D01*
X216244800Y-66718163D01*
X216271782Y-66677781D01*
X216280072Y-66636108D01*
X216281391Y-66634604D01*
X216283353Y-66634994D01*
G37*
G36*
X215929800Y-66281440D02*
G01*
X215930443Y-66282554D01*
X215933430Y-66297575D01*
X215965660Y-66359191D01*
X216030423Y-66394554D01*
X216045427Y-66397538D01*
X216046931Y-66398857D01*
X216046541Y-66400819D01*
X216045427Y-66401462D01*
X216003753Y-66409752D01*
X215963371Y-66436734D01*
X215026734Y-67373371D01*
X214999752Y-67413753D01*
X214991462Y-67455427D01*
X214990143Y-67456931D01*
X214988181Y-67456541D01*
X214987538Y-67455427D01*
X214984551Y-67440406D01*
X214952321Y-67378790D01*
X214887558Y-67343427D01*
X214872554Y-67340443D01*
X214871050Y-67339124D01*
X214871440Y-67337162D01*
X214872554Y-67336519D01*
X214914228Y-67328229D01*
X214954610Y-67301247D01*
X215891247Y-66364610D01*
X215918229Y-66324228D01*
X215926519Y-66282554D01*
X215927838Y-66281050D01*
X215929800Y-66281440D01*
G37*
G36*
X218049056Y-66281440D02*
G01*
X218049699Y-66282554D01*
X218057989Y-66324228D01*
X218084971Y-66364610D01*
X219021608Y-67301247D01*
X219061990Y-67328229D01*
X219103664Y-67336519D01*
X219105168Y-67337838D01*
X219104778Y-67339800D01*
X219103664Y-67340443D01*
X219088643Y-67343430D01*
X219027027Y-67375660D01*
X218991664Y-67440423D01*
X218988680Y-67455427D01*
X218987361Y-67456931D01*
X218985399Y-67456541D01*
X218984756Y-67455427D01*
X218976466Y-67413753D01*
X218949484Y-67373371D01*
X218012847Y-66436734D01*
X217972465Y-66409752D01*
X217930791Y-66401462D01*
X217929287Y-66400143D01*
X217929677Y-66398181D01*
X217930791Y-66397538D01*
X217945812Y-66394551D01*
X218007428Y-66362321D01*
X218042791Y-66297558D01*
X218045775Y-66282554D01*
X218047094Y-66281050D01*
X218049056Y-66281440D01*
G37*
G36*
X218402610Y-65927887D02*
G01*
X218403253Y-65929001D01*
X218411543Y-65970674D01*
X218438525Y-66011056D01*
X219375162Y-66947693D01*
X219415544Y-66974675D01*
X219457217Y-66982965D01*
X219458721Y-66984284D01*
X219458331Y-66986246D01*
X219457217Y-66986889D01*
X219442196Y-66989876D01*
X219380580Y-67022106D01*
X219345217Y-67086869D01*
X219342233Y-67101873D01*
X219340914Y-67103377D01*
X219338952Y-67102987D01*
X219338309Y-67101873D01*
X219330019Y-67060200D01*
X219303037Y-67019818D01*
X218366400Y-66083181D01*
X218326018Y-66056199D01*
X218284345Y-66047909D01*
X218282841Y-66046590D01*
X218283231Y-66044628D01*
X218284345Y-66043985D01*
X218299366Y-66040998D01*
X218360982Y-66008768D01*
X218396345Y-65944005D01*
X218399329Y-65929001D01*
X218400648Y-65927497D01*
X218402610Y-65927887D01*
G37*
G36*
X215576246Y-65927887D02*
G01*
X215576889Y-65929001D01*
X215579876Y-65944022D01*
X215612106Y-66005638D01*
X215676869Y-66041001D01*
X215691873Y-66043985D01*
X215693377Y-66045304D01*
X215692987Y-66047266D01*
X215691873Y-66047909D01*
X215650200Y-66056199D01*
X215609818Y-66083181D01*
X214673181Y-67019818D01*
X214646199Y-67060200D01*
X214637909Y-67101873D01*
X214636590Y-67103377D01*
X214634628Y-67102987D01*
X214633985Y-67101873D01*
X214630998Y-67086852D01*
X214598768Y-67025236D01*
X214534005Y-66989873D01*
X214519001Y-66986889D01*
X214517497Y-66985570D01*
X214517887Y-66983608D01*
X214519001Y-66982965D01*
X214560674Y-66974675D01*
X214601056Y-66947693D01*
X215537693Y-66011056D01*
X215564675Y-65970674D01*
X215572965Y-65929001D01*
X215574284Y-65927497D01*
X215576246Y-65927887D01*
G37*
G36*
X215222693Y-65574333D02*
G01*
X215223336Y-65575447D01*
X215226323Y-65590468D01*
X215258553Y-65652084D01*
X215323316Y-65687447D01*
X215338320Y-65690431D01*
X215339824Y-65691750D01*
X215339434Y-65693712D01*
X215338320Y-65694355D01*
X215296646Y-65702645D01*
X215256264Y-65729627D01*
X214319627Y-66666264D01*
X214292645Y-66706646D01*
X214284355Y-66748320D01*
X214283036Y-66749824D01*
X214281074Y-66749434D01*
X214280431Y-66748320D01*
X214277444Y-66733299D01*
X214245214Y-66671683D01*
X214180451Y-66636320D01*
X214165447Y-66633336D01*
X214163943Y-66632017D01*
X214164333Y-66630055D01*
X214165447Y-66629412D01*
X214207121Y-66621122D01*
X214247503Y-66594140D01*
X215184140Y-65657503D01*
X215211122Y-65617121D01*
X215219412Y-65575447D01*
X215220731Y-65573943D01*
X215222693Y-65574333D01*
G37*
G36*
X218756163Y-65574333D02*
G01*
X218756806Y-65575447D01*
X218765096Y-65617121D01*
X218792078Y-65657503D01*
X219728715Y-66594140D01*
X219769097Y-66621122D01*
X219810771Y-66629412D01*
X219812275Y-66630731D01*
X219811885Y-66632693D01*
X219810771Y-66633336D01*
X219795750Y-66636323D01*
X219734134Y-66668553D01*
X219698771Y-66733316D01*
X219695787Y-66748320D01*
X219694468Y-66749824D01*
X219692506Y-66749434D01*
X219691863Y-66748320D01*
X219683573Y-66706646D01*
X219656591Y-66666264D01*
X218719954Y-65729627D01*
X218679572Y-65702645D01*
X218637898Y-65694355D01*
X218636394Y-65693036D01*
X218636784Y-65691074D01*
X218637898Y-65690431D01*
X218652919Y-65687444D01*
X218714535Y-65655214D01*
X218749898Y-65590451D01*
X218752882Y-65575447D01*
X218754201Y-65573943D01*
X218756163Y-65574333D01*
G37*
G36*
X214869140Y-65220780D02*
G01*
X214869783Y-65221894D01*
X214872770Y-65236915D01*
X214905000Y-65298531D01*
X214969763Y-65333894D01*
X214984767Y-65336878D01*
X214986271Y-65338197D01*
X214985881Y-65340159D01*
X214984767Y-65340802D01*
X214943093Y-65349092D01*
X214902711Y-65376074D01*
X213966074Y-66312711D01*
X213939092Y-66353093D01*
X213930802Y-66394767D01*
X213929483Y-66396271D01*
X213927521Y-66395881D01*
X213926878Y-66394767D01*
X213923891Y-66379746D01*
X213891661Y-66318130D01*
X213826898Y-66282767D01*
X213811894Y-66279783D01*
X213810390Y-66278464D01*
X213810780Y-66276502D01*
X213811894Y-66275859D01*
X213853568Y-66267569D01*
X213893950Y-66240587D01*
X214830587Y-65303950D01*
X214857569Y-65263568D01*
X214865859Y-65221894D01*
X214867178Y-65220390D01*
X214869140Y-65220780D01*
G37*
G36*
X219109716Y-65220780D02*
G01*
X219110359Y-65221894D01*
X219118649Y-65263568D01*
X219145631Y-65303950D01*
X220082268Y-66240587D01*
X220122650Y-66267569D01*
X220164324Y-66275859D01*
X220165828Y-66277178D01*
X220165438Y-66279140D01*
X220164324Y-66279783D01*
X220149303Y-66282770D01*
X220087687Y-66315000D01*
X220052324Y-66379763D01*
X220049340Y-66394767D01*
X220048021Y-66396271D01*
X220046059Y-66395881D01*
X220045416Y-66394767D01*
X220037126Y-66353093D01*
X220010144Y-66312711D01*
X219073507Y-65376074D01*
X219033125Y-65349092D01*
X218991451Y-65340802D01*
X218989947Y-65339483D01*
X218990337Y-65337521D01*
X218991451Y-65336878D01*
X219006472Y-65333891D01*
X219068088Y-65301661D01*
X219103451Y-65236898D01*
X219106435Y-65221894D01*
X219107754Y-65220390D01*
X219109716Y-65220780D01*
G37*
G36*
X214515586Y-64867227D02*
G01*
X214516229Y-64868341D01*
X214519216Y-64883362D01*
X214551446Y-64944978D01*
X214616209Y-64980341D01*
X214631213Y-64983325D01*
X214632717Y-64984644D01*
X214632327Y-64986606D01*
X214631213Y-64987249D01*
X214589540Y-64995539D01*
X214549158Y-65022521D01*
X213612521Y-65959158D01*
X213585539Y-65999540D01*
X213577249Y-66041213D01*
X213575930Y-66042717D01*
X213573968Y-66042327D01*
X213573325Y-66041213D01*
X213570338Y-66026192D01*
X213538108Y-65964576D01*
X213473345Y-65929213D01*
X213458341Y-65926229D01*
X213456837Y-65924910D01*
X213457227Y-65922948D01*
X213458341Y-65922305D01*
X213500014Y-65914015D01*
X213540396Y-65887033D01*
X214477033Y-64950396D01*
X214504015Y-64910014D01*
X214512305Y-64868341D01*
X214513624Y-64866837D01*
X214515586Y-64867227D01*
G37*
G36*
X219463270Y-64867227D02*
G01*
X219463913Y-64868341D01*
X219472203Y-64910014D01*
X219499185Y-64950396D01*
X220435822Y-65887033D01*
X220476204Y-65914015D01*
X220517877Y-65922305D01*
X220519381Y-65923624D01*
X220518991Y-65925586D01*
X220517877Y-65926229D01*
X220502856Y-65929216D01*
X220441240Y-65961446D01*
X220405877Y-66026209D01*
X220402893Y-66041213D01*
X220401574Y-66042717D01*
X220399612Y-66042327D01*
X220398969Y-66041213D01*
X220390679Y-65999540D01*
X220363697Y-65959158D01*
X219427060Y-65022521D01*
X219386678Y-64995539D01*
X219345005Y-64987249D01*
X219343501Y-64985930D01*
X219343891Y-64983968D01*
X219345005Y-64983325D01*
X219360026Y-64980338D01*
X219421642Y-64948108D01*
X219457005Y-64883345D01*
X219459989Y-64868341D01*
X219461308Y-64866837D01*
X219463270Y-64867227D01*
G37*
G36*
X219816823Y-64513673D02*
G01*
X219817466Y-64514787D01*
X219825756Y-64556461D01*
X219852738Y-64596843D01*
X220789375Y-65533480D01*
X220829757Y-65560462D01*
X220871431Y-65568752D01*
X220872935Y-65570071D01*
X220872545Y-65572033D01*
X220871431Y-65572676D01*
X220856410Y-65575663D01*
X220794794Y-65607893D01*
X220759431Y-65672656D01*
X220756447Y-65687660D01*
X220755128Y-65689164D01*
X220753166Y-65688774D01*
X220752523Y-65687660D01*
X220744233Y-65645986D01*
X220717251Y-65605604D01*
X219780614Y-64668967D01*
X219740232Y-64641985D01*
X219698558Y-64633695D01*
X219697054Y-64632376D01*
X219697444Y-64630414D01*
X219698558Y-64629771D01*
X219713579Y-64626784D01*
X219775195Y-64594554D01*
X219810558Y-64529791D01*
X219813542Y-64514787D01*
X219814861Y-64513283D01*
X219816823Y-64513673D01*
G37*
G36*
X214162033Y-64513673D02*
G01*
X214162676Y-64514787D01*
X214165663Y-64529808D01*
X214197893Y-64591424D01*
X214262656Y-64626787D01*
X214277660Y-64629771D01*
X214279164Y-64631090D01*
X214278774Y-64633052D01*
X214277660Y-64633695D01*
X214235986Y-64641985D01*
X214195604Y-64668967D01*
X213258967Y-65605604D01*
X213231985Y-65645986D01*
X213223695Y-65687660D01*
X213222376Y-65689164D01*
X213220414Y-65688774D01*
X213219771Y-65687660D01*
X213216784Y-65672639D01*
X213184554Y-65611023D01*
X213119791Y-65575660D01*
X213104787Y-65572676D01*
X213103283Y-65571357D01*
X213103673Y-65569395D01*
X213104787Y-65568752D01*
X213146461Y-65560462D01*
X213186843Y-65533480D01*
X214123480Y-64596843D01*
X214150462Y-64556461D01*
X214158752Y-64514787D01*
X214160071Y-64513283D01*
X214162033Y-64513673D01*
G37*
G36*
X213808480Y-64160120D02*
G01*
X213809123Y-64161234D01*
X213812110Y-64176255D01*
X213844340Y-64237871D01*
X213909103Y-64273234D01*
X213924107Y-64276218D01*
X213925611Y-64277537D01*
X213925221Y-64279499D01*
X213924107Y-64280142D01*
X213882433Y-64288432D01*
X213842051Y-64315414D01*
X212905414Y-65252051D01*
X212878432Y-65292433D01*
X212870142Y-65334107D01*
X212868823Y-65335611D01*
X212866861Y-65335221D01*
X212866218Y-65334107D01*
X212863231Y-65319086D01*
X212831001Y-65257470D01*
X212766238Y-65222107D01*
X212751234Y-65219123D01*
X212749730Y-65217804D01*
X212750120Y-65215842D01*
X212751234Y-65215199D01*
X212792908Y-65206909D01*
X212833290Y-65179927D01*
X213769927Y-64243290D01*
X213796909Y-64202908D01*
X213805199Y-64161234D01*
X213806518Y-64159730D01*
X213808480Y-64160120D01*
G37*
G36*
X220170376Y-64160120D02*
G01*
X220171019Y-64161234D01*
X220179309Y-64202908D01*
X220206291Y-64243290D01*
X221142928Y-65179927D01*
X221183310Y-65206909D01*
X221224984Y-65215199D01*
X221226488Y-65216518D01*
X221226098Y-65218480D01*
X221224984Y-65219123D01*
X221209963Y-65222110D01*
X221148347Y-65254340D01*
X221112984Y-65319103D01*
X221110000Y-65334107D01*
X221108681Y-65335611D01*
X221106719Y-65335221D01*
X221106076Y-65334107D01*
X221097786Y-65292433D01*
X221070804Y-65252051D01*
X220134167Y-64315414D01*
X220093785Y-64288432D01*
X220052111Y-64280142D01*
X220050607Y-64278823D01*
X220050997Y-64276861D01*
X220052111Y-64276218D01*
X220067132Y-64273231D01*
X220128748Y-64241001D01*
X220164111Y-64176238D01*
X220167095Y-64161234D01*
X220168414Y-64159730D01*
X220170376Y-64160120D01*
G37*
G36*
X220523930Y-63806567D02*
G01*
X220524573Y-63807681D01*
X220532863Y-63849354D01*
X220559845Y-63889736D01*
X221496482Y-64826373D01*
X221536864Y-64853355D01*
X221578537Y-64861645D01*
X221580041Y-64862964D01*
X221579651Y-64864926D01*
X221578537Y-64865569D01*
X221563516Y-64868556D01*
X221501900Y-64900786D01*
X221466537Y-64965549D01*
X221463553Y-64980553D01*
X221462234Y-64982057D01*
X221460272Y-64981667D01*
X221459629Y-64980553D01*
X221451339Y-64938880D01*
X221424357Y-64898498D01*
X220487720Y-63961861D01*
X220447338Y-63934879D01*
X220405665Y-63926589D01*
X220404161Y-63925270D01*
X220404551Y-63923308D01*
X220405665Y-63922665D01*
X220420686Y-63919678D01*
X220482302Y-63887448D01*
X220517665Y-63822685D01*
X220520649Y-63807681D01*
X220521968Y-63806177D01*
X220523930Y-63806567D01*
G37*
G36*
X213454926Y-63806567D02*
G01*
X213455569Y-63807681D01*
X213458556Y-63822702D01*
X213490786Y-63884318D01*
X213555549Y-63919681D01*
X213570553Y-63922665D01*
X213572057Y-63923984D01*
X213571667Y-63925946D01*
X213570553Y-63926589D01*
X213528880Y-63934879D01*
X213488498Y-63961861D01*
X212551861Y-64898498D01*
X212524879Y-64938880D01*
X212516589Y-64980553D01*
X212515270Y-64982057D01*
X212513308Y-64981667D01*
X212512665Y-64980553D01*
X212509678Y-64965532D01*
X212477448Y-64903916D01*
X212412685Y-64868553D01*
X212397681Y-64865569D01*
X212396177Y-64864250D01*
X212396567Y-64862288D01*
X212397681Y-64861645D01*
X212439354Y-64853355D01*
X212479736Y-64826373D01*
X213416373Y-63889736D01*
X213443355Y-63849354D01*
X213451645Y-63807681D01*
X213452964Y-63806177D01*
X213454926Y-63806567D01*
G37*
G36*
X220877483Y-63453013D02*
G01*
X220878126Y-63454127D01*
X220886416Y-63495801D01*
X220913398Y-63536183D01*
X221850035Y-64472820D01*
X221890417Y-64499802D01*
X221932091Y-64508092D01*
X221933595Y-64509411D01*
X221933205Y-64511373D01*
X221932091Y-64512016D01*
X221917070Y-64515003D01*
X221855454Y-64547233D01*
X221820091Y-64611996D01*
X221817107Y-64627000D01*
X221815788Y-64628504D01*
X221813826Y-64628114D01*
X221813183Y-64627000D01*
X221804893Y-64585326D01*
X221777911Y-64544944D01*
X220841274Y-63608307D01*
X220800892Y-63581325D01*
X220759218Y-63573035D01*
X220757714Y-63571716D01*
X220758104Y-63569754D01*
X220759218Y-63569111D01*
X220774239Y-63566124D01*
X220835855Y-63533894D01*
X220871218Y-63469131D01*
X220874202Y-63454127D01*
X220875521Y-63452623D01*
X220877483Y-63453013D01*
G37*
G36*
X213101373Y-63453013D02*
G01*
X213102016Y-63454127D01*
X213105003Y-63469148D01*
X213137233Y-63530764D01*
X213201996Y-63566127D01*
X213217000Y-63569111D01*
X213218504Y-63570430D01*
X213218114Y-63572392D01*
X213217000Y-63573035D01*
X213175326Y-63581325D01*
X213134944Y-63608307D01*
X212198307Y-64544944D01*
X212171325Y-64585326D01*
X212163035Y-64627000D01*
X212161716Y-64628504D01*
X212159754Y-64628114D01*
X212159111Y-64627000D01*
X212156124Y-64611979D01*
X212123894Y-64550363D01*
X212059131Y-64515000D01*
X212044127Y-64512016D01*
X212042623Y-64510697D01*
X212043013Y-64508735D01*
X212044127Y-64508092D01*
X212085801Y-64499802D01*
X212126183Y-64472820D01*
X213062820Y-63536183D01*
X213089802Y-63495801D01*
X213098092Y-63454127D01*
X213099411Y-63452623D01*
X213101373Y-63453013D01*
G37*
G36*
X221231037Y-63099460D02*
G01*
X221231680Y-63100574D01*
X221239970Y-63142247D01*
X221266952Y-63182629D01*
X222203589Y-64119266D01*
X222243971Y-64146248D01*
X222285644Y-64154538D01*
X222287148Y-64155857D01*
X222286758Y-64157819D01*
X222285644Y-64158462D01*
X222270623Y-64161449D01*
X222209007Y-64193679D01*
X222173644Y-64258442D01*
X222170660Y-64273446D01*
X222169341Y-64274950D01*
X222167379Y-64274560D01*
X222166736Y-64273446D01*
X222158446Y-64231773D01*
X222131464Y-64191391D01*
X221194827Y-63254754D01*
X221154445Y-63227772D01*
X221112772Y-63219482D01*
X221111268Y-63218163D01*
X221111658Y-63216201D01*
X221112772Y-63215558D01*
X221127793Y-63212571D01*
X221189409Y-63180341D01*
X221224772Y-63115578D01*
X221227756Y-63100574D01*
X221229075Y-63099070D01*
X221231037Y-63099460D01*
G37*
G36*
X212747819Y-63099460D02*
G01*
X212748462Y-63100574D01*
X212751449Y-63115595D01*
X212783679Y-63177211D01*
X212848442Y-63212574D01*
X212863446Y-63215558D01*
X212864950Y-63216877D01*
X212864560Y-63218839D01*
X212863446Y-63219482D01*
X212821773Y-63227772D01*
X212781391Y-63254754D01*
X211844754Y-64191391D01*
X211817772Y-64231773D01*
X211809482Y-64273446D01*
X211808163Y-64274950D01*
X211806201Y-64274560D01*
X211805558Y-64273446D01*
X211802571Y-64258425D01*
X211770341Y-64196809D01*
X211705578Y-64161446D01*
X211690574Y-64158462D01*
X211689070Y-64157143D01*
X211689460Y-64155181D01*
X211690574Y-64154538D01*
X211732247Y-64146248D01*
X211772629Y-64119266D01*
X212709266Y-63182629D01*
X212736248Y-63142247D01*
X212744538Y-63100574D01*
X212745857Y-63099070D01*
X212747819Y-63099460D01*
G37*
G36*
X211808839Y-60748330D02*
G01*
X211809482Y-60749444D01*
X211817772Y-60791117D01*
X211844754Y-60831499D01*
X212781391Y-61768136D01*
X212821773Y-61795118D01*
X212863446Y-61803408D01*
X212864950Y-61804727D01*
X212864560Y-61806689D01*
X212863446Y-61807332D01*
X212848425Y-61810319D01*
X212786809Y-61842549D01*
X212751446Y-61907312D01*
X212748462Y-61922316D01*
X212747143Y-61923820D01*
X212745181Y-61923430D01*
X212744538Y-61922316D01*
X212736248Y-61880643D01*
X212709266Y-61840261D01*
X211772629Y-60903624D01*
X211732247Y-60876642D01*
X211690574Y-60868352D01*
X211689070Y-60867033D01*
X211689460Y-60865071D01*
X211690574Y-60864428D01*
X211705595Y-60861441D01*
X211767211Y-60829211D01*
X211802574Y-60764448D01*
X211805558Y-60749444D01*
X211806877Y-60747940D01*
X211808839Y-60748330D01*
G37*
G36*
X222170017Y-60748330D02*
G01*
X222170660Y-60749444D01*
X222173647Y-60764465D01*
X222205877Y-60826081D01*
X222270640Y-60861444D01*
X222285644Y-60864428D01*
X222287148Y-60865747D01*
X222286758Y-60867709D01*
X222285644Y-60868352D01*
X222243971Y-60876642D01*
X222203589Y-60903624D01*
X221266952Y-61840261D01*
X221239970Y-61880643D01*
X221231680Y-61922316D01*
X221230361Y-61923820D01*
X221228399Y-61923430D01*
X221227756Y-61922316D01*
X221224769Y-61907295D01*
X221192539Y-61845679D01*
X221127776Y-61810316D01*
X221112772Y-61807332D01*
X221111268Y-61806013D01*
X221111658Y-61804051D01*
X221112772Y-61803408D01*
X221154445Y-61795118D01*
X221194827Y-61768136D01*
X222131464Y-60831499D01*
X222158446Y-60791117D01*
X222166736Y-60749444D01*
X222168055Y-60747940D01*
X222170017Y-60748330D01*
G37*
G36*
X212162392Y-60394776D02*
G01*
X212163035Y-60395890D01*
X212171325Y-60437564D01*
X212198307Y-60477946D01*
X213134944Y-61414583D01*
X213175326Y-61441565D01*
X213217000Y-61449855D01*
X213218504Y-61451174D01*
X213218114Y-61453136D01*
X213217000Y-61453779D01*
X213201979Y-61456766D01*
X213140363Y-61488996D01*
X213105000Y-61553759D01*
X213102016Y-61568763D01*
X213100697Y-61570267D01*
X213098735Y-61569877D01*
X213098092Y-61568763D01*
X213089802Y-61527089D01*
X213062820Y-61486707D01*
X212126183Y-60550070D01*
X212085801Y-60523088D01*
X212044127Y-60514798D01*
X212042623Y-60513479D01*
X212043013Y-60511517D01*
X212044127Y-60510874D01*
X212059148Y-60507887D01*
X212120764Y-60475657D01*
X212156127Y-60410894D01*
X212159111Y-60395890D01*
X212160430Y-60394386D01*
X212162392Y-60394776D01*
G37*
G36*
X221816464Y-60394776D02*
G01*
X221817107Y-60395890D01*
X221820094Y-60410911D01*
X221852324Y-60472527D01*
X221917087Y-60507890D01*
X221932091Y-60510874D01*
X221933595Y-60512193D01*
X221933205Y-60514155D01*
X221932091Y-60514798D01*
X221890417Y-60523088D01*
X221850035Y-60550070D01*
X220913398Y-61486707D01*
X220886416Y-61527089D01*
X220878126Y-61568763D01*
X220876807Y-61570267D01*
X220874845Y-61569877D01*
X220874202Y-61568763D01*
X220871215Y-61553742D01*
X220838985Y-61492126D01*
X220774222Y-61456763D01*
X220759218Y-61453779D01*
X220757714Y-61452460D01*
X220758104Y-61450498D01*
X220759218Y-61449855D01*
X220800892Y-61441565D01*
X220841274Y-61414583D01*
X221777911Y-60477946D01*
X221804893Y-60437564D01*
X221813183Y-60395890D01*
X221814502Y-60394386D01*
X221816464Y-60394776D01*
G37*
G36*
X221462910Y-60041223D02*
G01*
X221463553Y-60042337D01*
X221466540Y-60057358D01*
X221498770Y-60118974D01*
X221563533Y-60154337D01*
X221578537Y-60157321D01*
X221580041Y-60158640D01*
X221579651Y-60160602D01*
X221578537Y-60161245D01*
X221536864Y-60169535D01*
X221496482Y-60196517D01*
X220559845Y-61133154D01*
X220532863Y-61173536D01*
X220524573Y-61215209D01*
X220523254Y-61216713D01*
X220521292Y-61216323D01*
X220520649Y-61215209D01*
X220517662Y-61200188D01*
X220485432Y-61138572D01*
X220420669Y-61103209D01*
X220405665Y-61100225D01*
X220404161Y-61098906D01*
X220404551Y-61096944D01*
X220405665Y-61096301D01*
X220447338Y-61088011D01*
X220487720Y-61061029D01*
X221424357Y-60124392D01*
X221451339Y-60084010D01*
X221459629Y-60042337D01*
X221460948Y-60040833D01*
X221462910Y-60041223D01*
G37*
G36*
X212515946Y-60041223D02*
G01*
X212516589Y-60042337D01*
X212524879Y-60084010D01*
X212551861Y-60124392D01*
X213488498Y-61061029D01*
X213528880Y-61088011D01*
X213570553Y-61096301D01*
X213572057Y-61097620D01*
X213571667Y-61099582D01*
X213570553Y-61100225D01*
X213555532Y-61103212D01*
X213493916Y-61135442D01*
X213458553Y-61200205D01*
X213455569Y-61215209D01*
X213454250Y-61216713D01*
X213452288Y-61216323D01*
X213451645Y-61215209D01*
X213443355Y-61173536D01*
X213416373Y-61133154D01*
X212479736Y-60196517D01*
X212439354Y-60169535D01*
X212397681Y-60161245D01*
X212396177Y-60159926D01*
X212396567Y-60157964D01*
X212397681Y-60157321D01*
X212412702Y-60154334D01*
X212474318Y-60122104D01*
X212509681Y-60057341D01*
X212512665Y-60042337D01*
X212513984Y-60040833D01*
X212515946Y-60041223D01*
G37*
G36*
X212869499Y-59687669D02*
G01*
X212870142Y-59688783D01*
X212878432Y-59730457D01*
X212905414Y-59770839D01*
X213842051Y-60707476D01*
X213882433Y-60734458D01*
X213924107Y-60742748D01*
X213925611Y-60744067D01*
X213925221Y-60746029D01*
X213924107Y-60746672D01*
X213909086Y-60749659D01*
X213847470Y-60781889D01*
X213812107Y-60846652D01*
X213809123Y-60861656D01*
X213807804Y-60863160D01*
X213805842Y-60862770D01*
X213805199Y-60861656D01*
X213796909Y-60819982D01*
X213769927Y-60779600D01*
X212833290Y-59842963D01*
X212792908Y-59815981D01*
X212751234Y-59807691D01*
X212749730Y-59806372D01*
X212750120Y-59804410D01*
X212751234Y-59803767D01*
X212766255Y-59800780D01*
X212827871Y-59768550D01*
X212863234Y-59703787D01*
X212866218Y-59688783D01*
X212867537Y-59687279D01*
X212869499Y-59687669D01*
G37*
G36*
X221109357Y-59687669D02*
G01*
X221110000Y-59688783D01*
X221112987Y-59703804D01*
X221145217Y-59765420D01*
X221209980Y-59800783D01*
X221224984Y-59803767D01*
X221226488Y-59805086D01*
X221226098Y-59807048D01*
X221224984Y-59807691D01*
X221183310Y-59815981D01*
X221142928Y-59842963D01*
X220206291Y-60779600D01*
X220179309Y-60819982D01*
X220171019Y-60861656D01*
X220169700Y-60863160D01*
X220167738Y-60862770D01*
X220167095Y-60861656D01*
X220164108Y-60846635D01*
X220131878Y-60785019D01*
X220067115Y-60749656D01*
X220052111Y-60746672D01*
X220050607Y-60745353D01*
X220050997Y-60743391D01*
X220052111Y-60742748D01*
X220093785Y-60734458D01*
X220134167Y-60707476D01*
X221070804Y-59770839D01*
X221097786Y-59730457D01*
X221106076Y-59688783D01*
X221107395Y-59687279D01*
X221109357Y-59687669D01*
G37*
G36*
X213223052Y-59334116D02*
G01*
X213223695Y-59335230D01*
X213231985Y-59376904D01*
X213258967Y-59417286D01*
X214195604Y-60353923D01*
X214235986Y-60380905D01*
X214277660Y-60389195D01*
X214279164Y-60390514D01*
X214278774Y-60392476D01*
X214277660Y-60393119D01*
X214262639Y-60396106D01*
X214201023Y-60428336D01*
X214165660Y-60493099D01*
X214162676Y-60508103D01*
X214161357Y-60509607D01*
X214159395Y-60509217D01*
X214158752Y-60508103D01*
X214150462Y-60466429D01*
X214123480Y-60426047D01*
X213186843Y-59489410D01*
X213146461Y-59462428D01*
X213104787Y-59454138D01*
X213103283Y-59452819D01*
X213103673Y-59450857D01*
X213104787Y-59450214D01*
X213119808Y-59447227D01*
X213181424Y-59414997D01*
X213216787Y-59350234D01*
X213219771Y-59335230D01*
X213221090Y-59333726D01*
X213223052Y-59334116D01*
G37*
G36*
X220755804Y-59334116D02*
G01*
X220756447Y-59335230D01*
X220759434Y-59350251D01*
X220791664Y-59411867D01*
X220856427Y-59447230D01*
X220871431Y-59450214D01*
X220872935Y-59451533D01*
X220872545Y-59453495D01*
X220871431Y-59454138D01*
X220829757Y-59462428D01*
X220789375Y-59489410D01*
X219852738Y-60426047D01*
X219825756Y-60466429D01*
X219817466Y-60508103D01*
X219816147Y-60509607D01*
X219814185Y-60509217D01*
X219813542Y-60508103D01*
X219810555Y-60493082D01*
X219778325Y-60431466D01*
X219713562Y-60396103D01*
X219698558Y-60393119D01*
X219697054Y-60391800D01*
X219697444Y-60389838D01*
X219698558Y-60389195D01*
X219740232Y-60380905D01*
X219780614Y-60353923D01*
X220717251Y-59417286D01*
X220744233Y-59376904D01*
X220752523Y-59335230D01*
X220753842Y-59333726D01*
X220755804Y-59334116D01*
G37*
G36*
X220402250Y-58980563D02*
G01*
X220402893Y-58981677D01*
X220405880Y-58996698D01*
X220438110Y-59058314D01*
X220502873Y-59093677D01*
X220517877Y-59096661D01*
X220519381Y-59097980D01*
X220518991Y-59099942D01*
X220517877Y-59100585D01*
X220476204Y-59108875D01*
X220435822Y-59135857D01*
X219499185Y-60072494D01*
X219472203Y-60112876D01*
X219463913Y-60154549D01*
X219462594Y-60156053D01*
X219460632Y-60155663D01*
X219459989Y-60154549D01*
X219457002Y-60139528D01*
X219424772Y-60077912D01*
X219360009Y-60042549D01*
X219345005Y-60039565D01*
X219343501Y-60038246D01*
X219343891Y-60036284D01*
X219345005Y-60035641D01*
X219386678Y-60027351D01*
X219427060Y-60000369D01*
X220363697Y-59063732D01*
X220390679Y-59023350D01*
X220398969Y-58981677D01*
X220400288Y-58980173D01*
X220402250Y-58980563D01*
G37*
G36*
X213576606Y-58980563D02*
G01*
X213577249Y-58981677D01*
X213585539Y-59023350D01*
X213612521Y-59063732D01*
X214549158Y-60000369D01*
X214589540Y-60027351D01*
X214631213Y-60035641D01*
X214632717Y-60036960D01*
X214632327Y-60038922D01*
X214631213Y-60039565D01*
X214616192Y-60042552D01*
X214554576Y-60074782D01*
X214519213Y-60139545D01*
X214516229Y-60154549D01*
X214514910Y-60156053D01*
X214512948Y-60155663D01*
X214512305Y-60154549D01*
X214504015Y-60112876D01*
X214477033Y-60072494D01*
X213540396Y-59135857D01*
X213500014Y-59108875D01*
X213458341Y-59100585D01*
X213456837Y-59099266D01*
X213457227Y-59097304D01*
X213458341Y-59096661D01*
X213473362Y-59093674D01*
X213534978Y-59061444D01*
X213570341Y-58996681D01*
X213573325Y-58981677D01*
X213574644Y-58980173D01*
X213576606Y-58980563D01*
G37*
G36*
X213930159Y-58627009D02*
G01*
X213930802Y-58628123D01*
X213939092Y-58669797D01*
X213966074Y-58710179D01*
X214902711Y-59646816D01*
X214943093Y-59673798D01*
X214984767Y-59682088D01*
X214986271Y-59683407D01*
X214985881Y-59685369D01*
X214984767Y-59686012D01*
X214969746Y-59688999D01*
X214908130Y-59721229D01*
X214872767Y-59785992D01*
X214869783Y-59800996D01*
X214868464Y-59802500D01*
X214866502Y-59802110D01*
X214865859Y-59800996D01*
X214857569Y-59759322D01*
X214830587Y-59718940D01*
X213893950Y-58782303D01*
X213853568Y-58755321D01*
X213811894Y-58747031D01*
X213810390Y-58745712D01*
X213810780Y-58743750D01*
X213811894Y-58743107D01*
X213826915Y-58740120D01*
X213888531Y-58707890D01*
X213923894Y-58643127D01*
X213926878Y-58628123D01*
X213928197Y-58626619D01*
X213930159Y-58627009D01*
G37*
G36*
X220048697Y-58627009D02*
G01*
X220049340Y-58628123D01*
X220052327Y-58643144D01*
X220084557Y-58704760D01*
X220149320Y-58740123D01*
X220164324Y-58743107D01*
X220165828Y-58744426D01*
X220165438Y-58746388D01*
X220164324Y-58747031D01*
X220122650Y-58755321D01*
X220082268Y-58782303D01*
X219145631Y-59718940D01*
X219118649Y-59759322D01*
X219110359Y-59800996D01*
X219109040Y-59802500D01*
X219107078Y-59802110D01*
X219106435Y-59800996D01*
X219103448Y-59785975D01*
X219071218Y-59724359D01*
X219006455Y-59688996D01*
X218991451Y-59686012D01*
X218989947Y-59684693D01*
X218990337Y-59682731D01*
X218991451Y-59682088D01*
X219033125Y-59673798D01*
X219073507Y-59646816D01*
X220010144Y-58710179D01*
X220037126Y-58669797D01*
X220045416Y-58628123D01*
X220046735Y-58626619D01*
X220048697Y-58627009D01*
G37*
G36*
X219695144Y-58273456D02*
G01*
X219695787Y-58274570D01*
X219698774Y-58289591D01*
X219731004Y-58351207D01*
X219795767Y-58386570D01*
X219810771Y-58389554D01*
X219812275Y-58390873D01*
X219811885Y-58392835D01*
X219810771Y-58393478D01*
X219769097Y-58401768D01*
X219728715Y-58428750D01*
X218792078Y-59365387D01*
X218765096Y-59405769D01*
X218756806Y-59447443D01*
X218755487Y-59448947D01*
X218753525Y-59448557D01*
X218752882Y-59447443D01*
X218749895Y-59432422D01*
X218717665Y-59370806D01*
X218652902Y-59335443D01*
X218637898Y-59332459D01*
X218636394Y-59331140D01*
X218636784Y-59329178D01*
X218637898Y-59328535D01*
X218679572Y-59320245D01*
X218719954Y-59293263D01*
X219656591Y-58356626D01*
X219683573Y-58316244D01*
X219691863Y-58274570D01*
X219693182Y-58273066D01*
X219695144Y-58273456D01*
G37*
G36*
X214283712Y-58273456D02*
G01*
X214284355Y-58274570D01*
X214292645Y-58316244D01*
X214319627Y-58356626D01*
X215256264Y-59293263D01*
X215296646Y-59320245D01*
X215338320Y-59328535D01*
X215339824Y-59329854D01*
X215339434Y-59331816D01*
X215338320Y-59332459D01*
X215323299Y-59335446D01*
X215261683Y-59367676D01*
X215226320Y-59432439D01*
X215223336Y-59447443D01*
X215222017Y-59448947D01*
X215220055Y-59448557D01*
X215219412Y-59447443D01*
X215211122Y-59405769D01*
X215184140Y-59365387D01*
X214247503Y-58428750D01*
X214207121Y-58401768D01*
X214165447Y-58393478D01*
X214163943Y-58392159D01*
X214164333Y-58390197D01*
X214165447Y-58389554D01*
X214180468Y-58386567D01*
X214242084Y-58354337D01*
X214277447Y-58289574D01*
X214280431Y-58274570D01*
X214281750Y-58273066D01*
X214283712Y-58273456D01*
G37*
G36*
X214637266Y-57919903D02*
G01*
X214637909Y-57921017D01*
X214646199Y-57962690D01*
X214673181Y-58003072D01*
X215609818Y-58939709D01*
X215650200Y-58966691D01*
X215691873Y-58974981D01*
X215693377Y-58976300D01*
X215692987Y-58978262D01*
X215691873Y-58978905D01*
X215676852Y-58981892D01*
X215615236Y-59014122D01*
X215579873Y-59078885D01*
X215576889Y-59093889D01*
X215575570Y-59095393D01*
X215573608Y-59095003D01*
X215572965Y-59093889D01*
X215564675Y-59052216D01*
X215537693Y-59011834D01*
X214601056Y-58075197D01*
X214560674Y-58048215D01*
X214519001Y-58039925D01*
X214517497Y-58038606D01*
X214517887Y-58036644D01*
X214519001Y-58036001D01*
X214534022Y-58033014D01*
X214595638Y-58000784D01*
X214631001Y-57936021D01*
X214633985Y-57921017D01*
X214635304Y-57919513D01*
X214637266Y-57919903D01*
G37*
G36*
X219341590Y-57919903D02*
G01*
X219342233Y-57921017D01*
X219345220Y-57936038D01*
X219377450Y-57997654D01*
X219442213Y-58033017D01*
X219457217Y-58036001D01*
X219458721Y-58037320D01*
X219458331Y-58039282D01*
X219457217Y-58039925D01*
X219415544Y-58048215D01*
X219375162Y-58075197D01*
X218438525Y-59011834D01*
X218411543Y-59052216D01*
X218403253Y-59093889D01*
X218401934Y-59095393D01*
X218399972Y-59095003D01*
X218399329Y-59093889D01*
X218396342Y-59078868D01*
X218364112Y-59017252D01*
X218299349Y-58981889D01*
X218284345Y-58978905D01*
X218282841Y-58977586D01*
X218283231Y-58975624D01*
X218284345Y-58974981D01*
X218326018Y-58966691D01*
X218366400Y-58939709D01*
X219303037Y-58003072D01*
X219330019Y-57962690D01*
X219338309Y-57921017D01*
X219339628Y-57919513D01*
X219341590Y-57919903D01*
G37*
G36*
X218988037Y-57566349D02*
G01*
X218988680Y-57567463D01*
X218991667Y-57582484D01*
X219023897Y-57644100D01*
X219088660Y-57679463D01*
X219103664Y-57682447D01*
X219105168Y-57683766D01*
X219104778Y-57685728D01*
X219103664Y-57686371D01*
X219061990Y-57694661D01*
X219021608Y-57721643D01*
X218084971Y-58658280D01*
X218057989Y-58698662D01*
X218049699Y-58740336D01*
X218048380Y-58741840D01*
X218046418Y-58741450D01*
X218045775Y-58740336D01*
X218042788Y-58725315D01*
X218010558Y-58663699D01*
X217945795Y-58628336D01*
X217930791Y-58625352D01*
X217929287Y-58624033D01*
X217929677Y-58622071D01*
X217930791Y-58621428D01*
X217972465Y-58613138D01*
X218012847Y-58586156D01*
X218949484Y-57649519D01*
X218976466Y-57609137D01*
X218984756Y-57567463D01*
X218986075Y-57565959D01*
X218988037Y-57566349D01*
G37*
G36*
X214990819Y-57566349D02*
G01*
X214991462Y-57567463D01*
X214999752Y-57609137D01*
X215026734Y-57649519D01*
X215963371Y-58586156D01*
X216003753Y-58613138D01*
X216045427Y-58621428D01*
X216046931Y-58622747D01*
X216046541Y-58624709D01*
X216045427Y-58625352D01*
X216030406Y-58628339D01*
X215968790Y-58660569D01*
X215933427Y-58725332D01*
X215930443Y-58740336D01*
X215929124Y-58741840D01*
X215927162Y-58741450D01*
X215926519Y-58740336D01*
X215918229Y-58698662D01*
X215891247Y-58658280D01*
X214954610Y-57721643D01*
X214914228Y-57694661D01*
X214872554Y-57686371D01*
X214871050Y-57685052D01*
X214871440Y-57683090D01*
X214872554Y-57682447D01*
X214887575Y-57679460D01*
X214949191Y-57647230D01*
X214984554Y-57582467D01*
X214987538Y-57567463D01*
X214988857Y-57565959D01*
X214990819Y-57566349D01*
G37*
G36*
X215344373Y-57212796D02*
G01*
X215345016Y-57213910D01*
X215353306Y-57255583D01*
X215380288Y-57295965D01*
X216316925Y-58232602D01*
X216357307Y-58259584D01*
X216398980Y-58267874D01*
X216400484Y-58269193D01*
X216400094Y-58271155D01*
X216398980Y-58271798D01*
X216383959Y-58274785D01*
X216322343Y-58307015D01*
X216286980Y-58371778D01*
X216283996Y-58386782D01*
X216282677Y-58388286D01*
X216280715Y-58387896D01*
X216280072Y-58386782D01*
X216271782Y-58345109D01*
X216244800Y-58304727D01*
X215308163Y-57368090D01*
X215267781Y-57341108D01*
X215226108Y-57332818D01*
X215224604Y-57331499D01*
X215224994Y-57329537D01*
X215226108Y-57328894D01*
X215241129Y-57325907D01*
X215302745Y-57293677D01*
X215338108Y-57228914D01*
X215341092Y-57213910D01*
X215342411Y-57212406D01*
X215344373Y-57212796D01*
G37*
G36*
X218634483Y-57212796D02*
G01*
X218635126Y-57213910D01*
X218638113Y-57228931D01*
X218670343Y-57290547D01*
X218735106Y-57325910D01*
X218750110Y-57328894D01*
X218751614Y-57330213D01*
X218751224Y-57332175D01*
X218750110Y-57332818D01*
X218708437Y-57341108D01*
X218668055Y-57368090D01*
X217731418Y-58304727D01*
X217704436Y-58345109D01*
X217696146Y-58386782D01*
X217694827Y-58388286D01*
X217692865Y-58387896D01*
X217692222Y-58386782D01*
X217689235Y-58371761D01*
X217657005Y-58310145D01*
X217592242Y-58274782D01*
X217577238Y-58271798D01*
X217575734Y-58270479D01*
X217576124Y-58268517D01*
X217577238Y-58267874D01*
X217618911Y-58259584D01*
X217659293Y-58232602D01*
X218595930Y-57295965D01*
X218622912Y-57255583D01*
X218631202Y-57213910D01*
X218632521Y-57212406D01*
X218634483Y-57212796D01*
G37*
M02*
