%TF.GenerationSoftware,KiCad,Pcbnew,6.0.11+dfsg-1~bpo11+1*%
%TF.CreationDate,2023-04-29T04:06:51+00:00*%
%TF.ProjectId,slcam,736c6361-6d2e-46b6-9963-61645f706362,v0.2*%
%TF.SameCoordinates,Original*%
%TF.FileFunction,Copper,L1,Top*%
%TF.FilePolarity,Positive*%
%FSLAX46Y46*%
G04 Gerber Fmt 4.6, Leading zero omitted, Abs format (unit mm)*
G04 Created by KiCad (PCBNEW 6.0.11+dfsg-1~bpo11+1) date 2023-04-29 04:06:51*
%MOMM*%
%LPD*%
G01*
G04 APERTURE LIST*
G04 Aperture macros list*
%AMRoundRect*
0 Rectangle with rounded corners*
0 $1 Rounding radius*
0 $2 $3 $4 $5 $6 $7 $8 $9 X,Y pos of 4 corners*
0 Add a 4 corners polygon primitive as box body*
4,1,4,$2,$3,$4,$5,$6,$7,$8,$9,$2,$3,0*
0 Add four circle primitives for the rounded corners*
1,1,$1+$1,$2,$3*
1,1,$1+$1,$4,$5*
1,1,$1+$1,$6,$7*
1,1,$1+$1,$8,$9*
0 Add four rect primitives between the rounded corners*
20,1,$1+$1,$2,$3,$4,$5,0*
20,1,$1+$1,$4,$5,$6,$7,0*
20,1,$1+$1,$6,$7,$8,$9,0*
20,1,$1+$1,$8,$9,$2,$3,0*%
G04 Aperture macros list end*
%TA.AperFunction,ComponentPad*%
%ADD10R,1.700000X1.700000*%
%TD*%
%TA.AperFunction,ComponentPad*%
%ADD11O,1.700000X1.700000*%
%TD*%
%TA.AperFunction,SMDPad,CuDef*%
%ADD12RoundRect,0.150000X0.150000X-0.650000X0.150000X0.650000X-0.150000X0.650000X-0.150000X-0.650000X0*%
%TD*%
%TA.AperFunction,SMDPad,CuDef*%
%ADD13RoundRect,0.150000X-0.150000X0.825000X-0.150000X-0.825000X0.150000X-0.825000X0.150000X0.825000X0*%
%TD*%
%TA.AperFunction,ComponentPad*%
%ADD14C,6.400000*%
%TD*%
%TA.AperFunction,SMDPad,CuDef*%
%ADD15RoundRect,0.237500X-0.237500X0.287500X-0.237500X-0.287500X0.237500X-0.287500X0.237500X0.287500X0*%
%TD*%
%TA.AperFunction,SMDPad,CuDef*%
%ADD16RoundRect,0.237500X0.287500X0.237500X-0.287500X0.237500X-0.287500X-0.237500X0.287500X-0.237500X0*%
%TD*%
%TA.AperFunction,SMDPad,CuDef*%
%ADD17RoundRect,0.200000X-0.200000X-0.600000X0.200000X-0.600000X0.200000X0.600000X-0.200000X0.600000X0*%
%TD*%
%TA.AperFunction,SMDPad,CuDef*%
%ADD18RoundRect,0.250001X-0.799999X-1.249999X0.799999X-1.249999X0.799999X1.249999X-0.799999X1.249999X0*%
%TD*%
%TA.AperFunction,SMDPad,CuDef*%
%ADD19RoundRect,0.200000X0.600000X-0.200000X0.600000X0.200000X-0.600000X0.200000X-0.600000X-0.200000X0*%
%TD*%
%TA.AperFunction,SMDPad,CuDef*%
%ADD20RoundRect,0.250001X1.249999X-0.799999X1.249999X0.799999X-1.249999X0.799999X-1.249999X-0.799999X0*%
%TD*%
%TA.AperFunction,SMDPad,CuDef*%
%ADD21RoundRect,0.237500X-0.287500X-0.237500X0.287500X-0.237500X0.287500X0.237500X-0.287500X0.237500X0*%
%TD*%
%TA.AperFunction,SMDPad,CuDef*%
%ADD22RoundRect,0.200000X0.200000X0.600000X-0.200000X0.600000X-0.200000X-0.600000X0.200000X-0.600000X0*%
%TD*%
%TA.AperFunction,SMDPad,CuDef*%
%ADD23RoundRect,0.250001X0.799999X1.249999X-0.799999X1.249999X-0.799999X-1.249999X0.799999X-1.249999X0*%
%TD*%
%TA.AperFunction,ViaPad*%
%ADD24C,0.800000*%
%TD*%
%TA.AperFunction,Conductor*%
%ADD25C,0.250000*%
%TD*%
%TA.AperFunction,Conductor*%
%ADD26C,0.200000*%
%TD*%
G04 APERTURE END LIST*
D10*
%TO.P,J2,1,Pin_1*%
%TO.N,/SPI_NSS_IMG*%
X205790000Y-53620000D03*
D11*
%TO.P,J2,2,Pin_2*%
%TO.N,/SPI2_MOSI*%
X205790000Y-56160000D03*
%TO.P,J2,3,Pin_3*%
%TO.N,/SPI2_MISO*%
X205790000Y-58700000D03*
%TO.P,J2,4,Pin_4*%
%TO.N,/SPI2_SCK*%
X205790000Y-61240000D03*
%TO.P,J2,5,Pin_5*%
%TO.N,GND*%
X205790000Y-63780000D03*
%TO.P,J2,6,Pin_6*%
%TO.N,/3V3_IMG_SENSOR*%
X205790000Y-66320000D03*
%TO.P,J2,7,Pin_7*%
%TO.N,/I2C_SDA*%
X205790000Y-68860000D03*
%TO.P,J2,8,Pin_8*%
%TO.N,/I2C_SCL*%
X205790000Y-71400000D03*
%TD*%
D12*
%TO.P,U2,1,~{CS}*%
%TO.N,/SPI_NSS_FLASH*%
X224790000Y-70866000D03*
%TO.P,U2,2,DO(IO1)*%
%TO.N,/SPI2_MISO*%
X226060000Y-70866000D03*
%TO.P,U2,3,IO2*%
%TO.N,/FLASH_HR*%
X227330000Y-70866000D03*
%TO.P,U2,4,GND*%
%TO.N,GND*%
X228600000Y-70866000D03*
%TO.P,U2,5,DI(IO0)*%
%TO.N,/SPI2_MOSI*%
X228600000Y-63666000D03*
%TO.P,U2,6,CLK*%
%TO.N,/SPI2_SCK*%
X227330000Y-63666000D03*
%TO.P,U2,7,IO3*%
%TO.N,/FLASH_WP*%
X226060000Y-63666000D03*
%TO.P,U2,8,VCC*%
%TO.N,VCC*%
X224790000Y-63666000D03*
%TD*%
D13*
%TO.P,U4,1,GND*%
%TO.N,GND*%
X220091000Y-59501000D03*
%TO.P,U4,2,IN1*%
%TO.N,VCC*%
X218821000Y-59501000D03*
%TO.P,U4,3,~{EN1}*%
%TO.N,/EN_SWITCH*%
X217551000Y-59501000D03*
%TO.P,U4,4,~{EN2}*%
%TO.N,VCC*%
X216281000Y-59501000D03*
%TO.P,U4,5,GND*%
%TO.N,GND*%
X215011000Y-59501000D03*
%TO.P,U4,6,IN2*%
%TO.N,unconnected-(U4-Pad6)*%
X213741000Y-59501000D03*
%TO.P,U4,7,~{EN3}*%
%TO.N,VCC*%
X212471000Y-59501000D03*
%TO.P,U4,8,~{EN4}*%
X211201000Y-59501000D03*
%TO.P,U4,9,~{OC4}*%
%TO.N,unconnected-(U4-Pad9)*%
X211201000Y-64451000D03*
%TO.P,U4,10,OUT4*%
%TO.N,unconnected-(U4-Pad10)*%
X212471000Y-64451000D03*
%TO.P,U4,11,OUT3*%
%TO.N,unconnected-(U4-Pad11)*%
X213741000Y-64451000D03*
%TO.P,U4,12,~{OC3}*%
%TO.N,unconnected-(U4-Pad12)*%
X215011000Y-64451000D03*
%TO.P,U4,13,~{OC2}*%
%TO.N,unconnected-(U4-Pad13)*%
X216281000Y-64451000D03*
%TO.P,U4,14,OUT2*%
%TO.N,unconnected-(U4-Pad14)*%
X217551000Y-64451000D03*
%TO.P,U4,15,OUT1*%
%TO.N,/3V3_IMG_SENSOR*%
X218821000Y-64451000D03*
%TO.P,U4,16,~{OC1}*%
%TO.N,unconnected-(U4-Pad16)*%
X220091000Y-64451000D03*
%TD*%
D10*
%TO.P,J3,1,Pin_1*%
%TO.N,GND*%
X211074000Y-53848000D03*
D11*
%TO.P,J3,2,Pin_2*%
%TO.N,VCC*%
X213614000Y-53848000D03*
%TO.P,J3,3,Pin_3*%
%TO.N,/SWCLK*%
X216154000Y-53848000D03*
%TO.P,J3,4,Pin_4*%
%TO.N,/SWDIO*%
X218694000Y-53848000D03*
%TD*%
D14*
%TO.P,H1,1*%
%TO.N,N/C*%
X200914000Y-53440000D03*
%TD*%
%TO.P,H2,1*%
%TO.N,N/C*%
X200914000Y-71530000D03*
%TD*%
%TO.P,H3,1*%
%TO.N,N/C*%
X235360000Y-71530000D03*
%TD*%
%TO.P,H4,1*%
%TO.N,N/C*%
X235360000Y-53440000D03*
%TD*%
D15*
%TO.P,C1,1*%
%TO.N,/RESET*%
X222961200Y-69240400D03*
%TO.P,C1,2*%
%TO.N,GND*%
X222961200Y-70990400D03*
%TD*%
D16*
%TO.P,D1,1,K*%
%TO.N,Net-(D1-Pad1)*%
X201930000Y-61468000D03*
%TO.P,D1,2,A*%
%TO.N,VCC*%
X200180000Y-61468000D03*
%TD*%
D17*
%TO.P,J1,1,Pin_1*%
%TO.N,VCC*%
X211759000Y-69482000D03*
%TO.P,J1,2,Pin_2*%
%TO.N,GND*%
X213009000Y-69482000D03*
%TO.P,J1,3,Pin_3*%
%TO.N,/SPI_MISO*%
X214259000Y-69482000D03*
%TO.P,J1,4,Pin_4*%
%TO.N,/SPI_MOSI*%
X215509000Y-69482000D03*
%TO.P,J1,5,Pin_5*%
%TO.N,/SPI_SCK*%
X216759000Y-69482000D03*
%TO.P,J1,6,Pin_6*%
%TO.N,/SPI_NSS*%
X218009000Y-69482000D03*
D18*
%TO.P,J1,MP*%
%TO.N,N/C*%
X209209000Y-72382000D03*
X220559000Y-72382000D03*
%TD*%
D19*
%TO.P,J4,1,Pin_1*%
%TO.N,GND*%
X233566000Y-63734000D03*
%TO.P,J4,2,Pin_2*%
%TO.N,/CAN_P*%
X233566000Y-62484000D03*
%TO.P,J4,3,Pin_3*%
%TO.N,/CAN_N*%
X233566000Y-61234000D03*
D20*
%TO.P,J4,MP*%
%TO.N,N/C*%
X236466000Y-58684000D03*
X236466000Y-66284000D03*
%TD*%
D15*
%TO.P,R1,1*%
%TO.N,VCC*%
X222656400Y-65356800D03*
%TO.P,R1,2*%
%TO.N,/RESET*%
X222656400Y-67106800D03*
%TD*%
D16*
%TO.P,R2,1*%
%TO.N,GND*%
X201930000Y-59791600D03*
%TO.P,R2,2*%
%TO.N,Net-(D1-Pad1)*%
X200180000Y-59791600D03*
%TD*%
D21*
%TO.P,R3,1*%
%TO.N,GND*%
X225134200Y-73812400D03*
%TO.P,R3,2*%
%TO.N,Net-(D2-Pad1)*%
X226884200Y-73812400D03*
%TD*%
D22*
%TO.P,J5,1,Pin_1*%
%TO.N,GND*%
X227564000Y-55486000D03*
%TO.P,J5,2,Pin_2*%
%TO.N,/UART_RX*%
X226314000Y-55486000D03*
%TO.P,J5,3,Pin_3*%
%TO.N,/UART_TX*%
X225064000Y-55486000D03*
D23*
%TO.P,J5,MP*%
%TO.N,N/C*%
X230114000Y-52586000D03*
X222514000Y-52586000D03*
%TD*%
D21*
%TO.P,C2,1*%
%TO.N,GND*%
X211113400Y-56388000D03*
%TO.P,C2,2*%
%TO.N,VCC*%
X212863400Y-56388000D03*
%TD*%
%TO.P,D2,1,K*%
%TO.N,Net-(D2-Pad1)*%
X228549200Y-73812400D03*
%TO.P,D2,2,A*%
%TO.N,/HEARTBEAT*%
X230299200Y-73812400D03*
%TD*%
D24*
%TO.N,/SPI2_MOSI*%
X214582609Y-61547033D03*
X228549200Y-61112400D03*
%TO.N,/SPI2_SCK*%
X227736400Y-62077600D03*
X213862716Y-62271533D03*
%TO.N,/SPI_NSS*%
X218176898Y-71275770D03*
X217554942Y-62558914D03*
%TO.N,/OSC_IN2*%
X223926400Y-64603469D03*
X230276400Y-63804800D03*
%TO.N,/OSC_OUT2*%
X231317808Y-63677808D03*
X224831342Y-65338258D03*
%TO.N,/CAN_SHDN*%
X227990400Y-52527200D03*
X219608400Y-56438800D03*
%TO.N,/CAN_S*%
X225704400Y-53594000D03*
X220343492Y-57617248D03*
%TO.N,/FLASH_WP*%
X222453200Y-59232800D03*
X227431600Y-60858400D03*
%TO.N,/FLASH_HR*%
X228549200Y-69291200D03*
X222961200Y-60147200D03*
%TO.N,GND*%
X223874508Y-72301899D03*
X231648000Y-59944000D03*
X209905340Y-66900067D03*
X223418400Y-63144400D03*
X226699310Y-57584114D03*
X216215829Y-61075500D03*
X203259568Y-63424233D03*
X202965109Y-57969203D03*
X219456000Y-61214000D03*
X207684157Y-62861398D03*
X211875998Y-71719462D03*
X227299379Y-59020643D03*
X215544400Y-56337200D03*
X210914757Y-57558174D03*
%TO.N,/RESET*%
X220726000Y-66954400D03*
%TO.N,VCC*%
X216533789Y-55756717D03*
X209539521Y-61117670D03*
X210592701Y-66090510D03*
X227652581Y-67134899D03*
X207826560Y-61320012D03*
X200050400Y-63093600D03*
X214158678Y-72875069D03*
%TO.N,/SPI_SCK*%
X216273572Y-62608328D03*
%TO.N,/SPI_MISO*%
X214376000Y-68072000D03*
%TO.N,/SPI_MOSI*%
X212852000Y-67818000D03*
X216408000Y-71882000D03*
%TO.N,/I2C_SCL*%
X221333733Y-57460547D03*
%TO.N,/I2C_SDA*%
X207877524Y-66895134D03*
X219405200Y-62331600D03*
%TO.N,/3V3_IMG_SENSOR*%
X219151200Y-69138800D03*
X208280000Y-68580000D03*
%TO.N,/SWCLK*%
X218096500Y-56353495D03*
%TO.N,/CAN_N*%
X231394000Y-56896000D03*
X236321600Y-61214000D03*
%TO.N,/CAN_P*%
X236524800Y-62484000D03*
X231394000Y-58166000D03*
%TO.N,/UART_TX*%
X207873600Y-57251600D03*
%TO.N,/UART_RX*%
X208940400Y-57099200D03*
%TO.N,/EN_SWITCH*%
X213050984Y-66523873D03*
%TO.N,/SPI_NSS_FLASH*%
X228319288Y-65247403D03*
X211466546Y-62223783D03*
%TO.N,/HEARTBEAT*%
X230845484Y-69227294D03*
%TD*%
D25*
%TO.N,/SPI2_MISO*%
X229360075Y-67364853D02*
X229360075Y-55740292D01*
X204470000Y-57380000D02*
X205790000Y-58700000D01*
X207149089Y-54800911D02*
X205264584Y-54800911D01*
X223912873Y-50293090D02*
X208281090Y-50293090D01*
X205264584Y-54800911D02*
X204470000Y-55595495D01*
X226060000Y-70866000D02*
X226060000Y-70664928D01*
X208280000Y-50292000D02*
X207149089Y-51422911D01*
X204470000Y-55595495D02*
X204470000Y-57380000D01*
X208281090Y-50293090D02*
X208280000Y-50292000D01*
X229360075Y-55740292D02*
X223912873Y-50293090D01*
X207149089Y-51422911D02*
X207149089Y-54800911D01*
X226060000Y-70664928D02*
X229360075Y-67364853D01*
%TO.N,/SPI2_MOSI*%
X228600000Y-63666000D02*
X228600000Y-61163200D01*
X228600000Y-61163200D02*
X228549200Y-61112400D01*
%TO.N,/SPI2_SCK*%
X227736400Y-62077600D02*
X227330000Y-62484000D01*
X227330000Y-62484000D02*
X227330000Y-63666000D01*
%TO.N,/SPI_NSS*%
X218009000Y-69482000D02*
X218009000Y-71107872D01*
X218009000Y-71107872D02*
X218176898Y-71275770D01*
%TO.N,/FLASH_WP*%
X226060000Y-63666000D02*
X226060000Y-62230000D01*
X226060000Y-62230000D02*
X227431600Y-60858400D01*
%TO.N,/FLASH_HR*%
X227330000Y-70866000D02*
X227330000Y-70510400D01*
X227330000Y-70510400D02*
X228549200Y-69291200D01*
%TO.N,GND*%
X214356040Y-74656040D02*
X211875998Y-72175998D01*
X211074000Y-53848000D02*
X211074000Y-56377000D01*
X229108000Y-70866000D02*
X229809595Y-70164405D01*
X222961200Y-70990400D02*
X219466480Y-67495680D01*
X228600000Y-70866000D02*
X229108000Y-70866000D01*
X215934448Y-60800520D02*
X215011000Y-59877072D01*
X211875998Y-72175998D02*
X211875998Y-71719462D01*
X229809595Y-68386405D02*
X233566000Y-64630000D01*
X219466480Y-67495680D02*
X219466480Y-63429448D01*
X228600000Y-70866000D02*
X228600000Y-72898000D01*
X215011000Y-59877072D02*
X215011000Y-59501000D01*
X211113400Y-57359531D02*
X210914757Y-57558174D01*
X233566000Y-64630000D02*
X233566000Y-63734000D01*
X228600000Y-72898000D02*
X226048600Y-72898000D01*
X219744448Y-63151480D02*
X223411320Y-63151480D01*
X223411320Y-63151480D02*
X223418400Y-63144400D01*
X224290560Y-74656040D02*
X214356040Y-74656040D01*
X211074000Y-56377000D02*
X211085000Y-56388000D01*
X223874508Y-72301899D02*
X223874508Y-71903708D01*
X220091000Y-59501000D02*
X220091000Y-60579000D01*
X201930000Y-59004312D02*
X202965109Y-57969203D01*
X201930000Y-59791600D02*
X201930000Y-59004312D01*
X226048600Y-72898000D02*
X225134200Y-73812400D01*
X219466480Y-63429448D02*
X219744448Y-63151480D01*
X220091000Y-60579000D02*
X219456000Y-61214000D01*
X225134200Y-73812400D02*
X224290560Y-74656040D01*
X223874508Y-71903708D02*
X222961200Y-70990400D01*
X229809595Y-70164405D02*
X229809595Y-68386405D01*
X228600000Y-71120000D02*
X228600000Y-70866000D01*
X215940849Y-60800520D02*
X215934448Y-60800520D01*
X216215829Y-61075500D02*
X215940849Y-60800520D01*
X211113400Y-56388000D02*
X211113400Y-57359531D01*
%TO.N,/RESET*%
X222961200Y-69240400D02*
X222504000Y-68783200D01*
X222504000Y-67259200D02*
X222656400Y-67106800D01*
X222504000Y-68783200D02*
X222504000Y-67259200D01*
X222504000Y-66954400D02*
X222656400Y-67106800D01*
X220726000Y-66954400D02*
X222504000Y-66954400D01*
%TO.N,VCC*%
X223921414Y-63666000D02*
X223718503Y-63868911D01*
X217897552Y-60800520D02*
X217204448Y-60800520D01*
X216718001Y-52672999D02*
X214789001Y-52672999D01*
X213614000Y-55118000D02*
X213614000Y-53848000D01*
X217204448Y-60800520D02*
X216281000Y-59877072D01*
X216149072Y-55372000D02*
X213879400Y-55372000D01*
X213879400Y-55372000D02*
X212863400Y-56388000D01*
X211201000Y-59501000D02*
X210247000Y-59501000D01*
X222656400Y-64617600D02*
X222656400Y-65356800D01*
X212863400Y-56388000D02*
X213868000Y-55383400D01*
X210247000Y-59501000D02*
X209539521Y-60208479D01*
X216281000Y-59877072D02*
X216281000Y-59501000D01*
X214789001Y-52672999D02*
X214463999Y-52998001D01*
X210592701Y-66090510D02*
X210576480Y-66074289D01*
X218821000Y-55878590D02*
X217329001Y-54386591D01*
X217329001Y-54386591D02*
X217329001Y-53283999D01*
X223718503Y-63868911D02*
X223405089Y-63868911D01*
X200180000Y-62964000D02*
X200050400Y-63093600D01*
X201828400Y-63093600D02*
X200050400Y-63093600D01*
X218821000Y-59501000D02*
X218821000Y-59877072D01*
X206572037Y-60065489D02*
X204856511Y-60065489D01*
X210592701Y-66090510D02*
X211759000Y-67256809D01*
X209539521Y-60208479D02*
X209539521Y-61117670D01*
X224790000Y-64272318D02*
X224790000Y-63666000D01*
X213868000Y-55372000D02*
X213614000Y-55118000D01*
X207826560Y-61320012D02*
X206572037Y-60065489D01*
X212471000Y-59501000D02*
X211201000Y-59501000D01*
X224790000Y-63666000D02*
X223921414Y-63666000D01*
X218821000Y-59877072D02*
X217897552Y-60800520D01*
X211759000Y-67256809D02*
X211759000Y-69482000D01*
X227652581Y-67134899D02*
X224790000Y-64272318D01*
X223405089Y-63868911D02*
X222656400Y-64617600D01*
X200180000Y-61468000D02*
X200180000Y-62964000D01*
X214463999Y-52998001D02*
X213614000Y-53848000D01*
X209539521Y-61117670D02*
X210576480Y-62154629D01*
X216533789Y-55756717D02*
X216149072Y-55372000D01*
X204856511Y-60065489D02*
X201828400Y-63093600D01*
X210576480Y-66074289D02*
X210576480Y-62154629D01*
X217329001Y-53283999D02*
X216718001Y-52672999D01*
X218821000Y-59501000D02*
X218821000Y-55878590D01*
X213868000Y-55383400D02*
X213868000Y-55372000D01*
%TO.N,Net-(D1-Pad1)*%
X201930000Y-61468000D02*
X200253600Y-59791600D01*
X200253600Y-59791600D02*
X200180000Y-59791600D01*
%TO.N,Net-(D2-Pad1)*%
X228549200Y-73812400D02*
X226884200Y-73812400D01*
%TO.N,/SPI_SCK*%
X216759000Y-68229000D02*
X216926480Y-68061520D01*
X216926480Y-63261236D02*
X216273572Y-62608328D01*
X216759000Y-69482000D02*
X216759000Y-68229000D01*
X216926480Y-68061520D02*
X216926480Y-63261236D01*
%TO.N,/SPI_MISO*%
X214259000Y-69190217D02*
X214259000Y-69482000D01*
X214376000Y-68072000D02*
X214376000Y-69073217D01*
X214376000Y-69073217D02*
X214259000Y-69190217D01*
%TO.N,/SPI_MOSI*%
X215509000Y-70983000D02*
X215509000Y-69482000D01*
X216408000Y-71882000D02*
X215509000Y-70983000D01*
%TO.N,/I2C_SCL*%
X209899489Y-52673489D02*
X209899489Y-57164725D01*
X209610613Y-69535387D02*
X208882690Y-70263310D01*
X210349499Y-52223479D02*
X209899489Y-52673489D01*
X208644214Y-58420000D02*
X208644214Y-66676030D01*
X206926690Y-70263310D02*
X205790000Y-71400000D01*
X221333733Y-56944933D02*
X219868511Y-55479711D01*
X219868511Y-53361501D02*
X218730489Y-52223479D01*
X218730489Y-52223479D02*
X210349499Y-52223479D01*
X221333733Y-57460547D02*
X221333733Y-56944933D01*
X209610613Y-67642429D02*
X209610613Y-69535387D01*
X208882690Y-70263310D02*
X206926690Y-70263310D01*
X219868511Y-55479711D02*
X219868511Y-53361501D01*
X208644214Y-66676030D02*
X209610613Y-67642429D01*
X209899489Y-57164725D02*
X208644214Y-58420000D01*
%TO.N,/I2C_SDA*%
X205790000Y-68860000D02*
X206234511Y-69304511D01*
X209004511Y-69089279D02*
X209004511Y-68022121D01*
X209004511Y-68022121D02*
X207877524Y-66895134D01*
X206234511Y-69304511D02*
X208789279Y-69304511D01*
X208789279Y-69304511D02*
X209004511Y-69089279D01*
%TO.N,/3V3_IMG_SENSOR*%
X218821000Y-64451000D02*
X218821000Y-68199000D01*
X219151200Y-68529200D02*
X219151200Y-69138800D01*
X218821000Y-68199000D02*
X219151200Y-68529200D01*
X208280000Y-68810000D02*
X205790000Y-66320000D01*
%TO.N,/SWCLK*%
X218096500Y-55790500D02*
X216154000Y-53848000D01*
X218096500Y-56353495D02*
X218096500Y-55790500D01*
D26*
%TO.N,/CAN_N*%
X233566000Y-61234000D02*
X233566000Y-59068000D01*
X235501601Y-62033999D02*
X234623106Y-62033999D01*
X233566000Y-59068000D02*
X232345802Y-57847802D01*
X234116000Y-61784000D02*
X233566000Y-61234000D01*
X232345802Y-57847802D02*
X231394000Y-56896000D01*
X236321600Y-61214000D02*
X235501601Y-62033999D01*
X234623106Y-62033999D02*
X234373107Y-61784000D01*
X234373107Y-61784000D02*
X234116000Y-61784000D01*
%TO.N,/CAN_P*%
X232758888Y-60533990D02*
X233116000Y-60533990D01*
X233116000Y-60533990D02*
X233116000Y-59254397D01*
X233116000Y-59254397D02*
X232027603Y-58166000D01*
X232027603Y-58166000D02*
X231394000Y-58166000D01*
X236524800Y-62484000D02*
X233566000Y-62484000D01*
X233566000Y-62484000D02*
X233116000Y-62034000D01*
X232465990Y-61641112D02*
X232465990Y-60826888D01*
X232858878Y-62034000D02*
X232465990Y-61641112D01*
X232465990Y-60826888D02*
X232758888Y-60533990D01*
X233116000Y-62034000D02*
X232858878Y-62034000D01*
D25*
%TO.N,/UART_TX*%
X225064000Y-55486000D02*
X222550810Y-55486000D01*
X220752796Y-50901600D02*
X208686400Y-50901600D01*
X207873600Y-51714400D02*
X207873600Y-57251600D01*
X208686400Y-50901600D02*
X207873600Y-51714400D01*
X222550810Y-55486000D02*
X221138990Y-54074180D01*
X221138990Y-51287794D02*
X220752796Y-50901600D01*
X221138990Y-54074180D02*
X221138990Y-51287794D01*
%TO.N,/UART_RX*%
X220675200Y-51562000D02*
X220573600Y-51460400D01*
X225704000Y-56896000D02*
X223324400Y-56896000D01*
X220573600Y-51460400D02*
X209651600Y-51460400D01*
X220675200Y-54246800D02*
X220675200Y-51562000D01*
X226314000Y-56286000D02*
X225704000Y-56896000D01*
X209651600Y-51460400D02*
X209042000Y-52070000D01*
X223324400Y-56896000D02*
X220675200Y-54246800D01*
X209042000Y-56997600D02*
X208940400Y-57099200D01*
X209042000Y-52070000D02*
X209042000Y-56997600D01*
X226314000Y-55486000D02*
X226314000Y-56286000D01*
%TO.N,/EN_SWITCH*%
X214386480Y-65472552D02*
X214386480Y-62981520D01*
X214386480Y-60522552D02*
X214386480Y-58479448D01*
X214861401Y-60800520D02*
X214664448Y-60800520D01*
X217170000Y-58201480D02*
X217551000Y-58582480D01*
X214664448Y-60800520D02*
X214386480Y-60522552D01*
X214386480Y-62981520D02*
X215392000Y-61976000D01*
X213335159Y-66523873D02*
X214386480Y-65472552D01*
X213050984Y-66523873D02*
X213335159Y-66523873D01*
X215392000Y-61976000D02*
X215392000Y-61331119D01*
X215392000Y-61331119D02*
X214861401Y-60800520D01*
X214386480Y-58479448D02*
X214664448Y-58201480D01*
X217551000Y-58582480D02*
X217551000Y-59501000D01*
X214664448Y-58201480D02*
X217170000Y-58201480D01*
%TO.N,/SPI_NSS_FLASH*%
X225298000Y-69342000D02*
X224790000Y-69850000D01*
X224790000Y-69850000D02*
X224790000Y-70866000D01*
X228712003Y-65640118D02*
X228712003Y-67377207D01*
X228319288Y-65247403D02*
X228712003Y-65640118D01*
X228712003Y-67377207D02*
X226747210Y-69342000D01*
X226747210Y-69342000D02*
X225298000Y-69342000D01*
%TO.N,/HEARTBEAT*%
X230845484Y-69227294D02*
X230845484Y-73266116D01*
X230845484Y-73266116D02*
X230299200Y-73812400D01*
%TD*%
%TA.AperFunction,Conductor*%
%TO.N,GND*%
G36*
X238716465Y-55344863D02*
G01*
X238754564Y-55404771D01*
X238759500Y-55439694D01*
X238759500Y-69530306D01*
X238739498Y-69598427D01*
X238685842Y-69644920D01*
X238615568Y-69655024D01*
X238550988Y-69625530D01*
X238527827Y-69598930D01*
X238366152Y-69349971D01*
X238366152Y-69349970D01*
X238364357Y-69347207D01*
X238194758Y-69137771D01*
X238121809Y-69047686D01*
X238121806Y-69047682D01*
X238119734Y-69045124D01*
X237844876Y-68770266D01*
X237841145Y-68767244D01*
X237646603Y-68609707D01*
X237542793Y-68525643D01*
X237495088Y-68494663D01*
X237219564Y-68315736D01*
X237219561Y-68315734D01*
X237216795Y-68313938D01*
X237213861Y-68312443D01*
X237213854Y-68312439D01*
X236873393Y-68138966D01*
X236870453Y-68137468D01*
X236736716Y-68086131D01*
X236680287Y-68043045D01*
X236656111Y-67976292D01*
X236671862Y-67907064D01*
X236722540Y-67857343D01*
X236781870Y-67842500D01*
X237766400Y-67842500D01*
X237769646Y-67842163D01*
X237769650Y-67842163D01*
X237865307Y-67832238D01*
X237865311Y-67832237D01*
X237872165Y-67831526D01*
X237878701Y-67829345D01*
X237878703Y-67829345D01*
X238022120Y-67781497D01*
X238039945Y-67775550D01*
X238190348Y-67682478D01*
X238200965Y-67671843D01*
X238310134Y-67562483D01*
X238315305Y-67557303D01*
X238319520Y-67550465D01*
X238404275Y-67412968D01*
X238404276Y-67412966D01*
X238408115Y-67406738D01*
X238450187Y-67279895D01*
X238461632Y-67245389D01*
X238461632Y-67245387D01*
X238463797Y-67238861D01*
X238464733Y-67229732D01*
X238471917Y-67159607D01*
X238474500Y-67134400D01*
X238474500Y-65433600D01*
X238474163Y-65430350D01*
X238464238Y-65334693D01*
X238464237Y-65334689D01*
X238463526Y-65327835D01*
X238460862Y-65319848D01*
X238409868Y-65167003D01*
X238407550Y-65160055D01*
X238314478Y-65009652D01*
X238189303Y-64884695D01*
X238183072Y-64880854D01*
X238044968Y-64795725D01*
X238044966Y-64795724D01*
X238038738Y-64791885D01*
X237949421Y-64762260D01*
X237877389Y-64738368D01*
X237877387Y-64738368D01*
X237870861Y-64736203D01*
X237864025Y-64735503D01*
X237864022Y-64735502D01*
X237820969Y-64731091D01*
X237766400Y-64725500D01*
X235165600Y-64725500D01*
X235162354Y-64725837D01*
X235162350Y-64725837D01*
X235066693Y-64735762D01*
X235066689Y-64735763D01*
X235059835Y-64736474D01*
X235053299Y-64738655D01*
X235053297Y-64738655D01*
X234982545Y-64762260D01*
X234892055Y-64792450D01*
X234741652Y-64885522D01*
X234616695Y-65010697D01*
X234612855Y-65016927D01*
X234612854Y-65016928D01*
X234553221Y-65113671D01*
X234523885Y-65161262D01*
X234516973Y-65182101D01*
X234471285Y-65319848D01*
X234468203Y-65329139D01*
X234457500Y-65433600D01*
X234457500Y-67134400D01*
X234457837Y-67137646D01*
X234457837Y-67137650D01*
X234465980Y-67216126D01*
X234468474Y-67240165D01*
X234470655Y-67246701D01*
X234470655Y-67246703D01*
X234500051Y-67334812D01*
X234524450Y-67407945D01*
X234617522Y-67558348D01*
X234703188Y-67643864D01*
X234731540Y-67672167D01*
X234765619Y-67734449D01*
X234760616Y-67805269D01*
X234718119Y-67862142D01*
X234662234Y-67885789D01*
X234587901Y-67897562D01*
X234212438Y-67998167D01*
X234209350Y-67999352D01*
X234209348Y-67999353D01*
X234147313Y-68023166D01*
X233849547Y-68137468D01*
X233846607Y-68138966D01*
X233506147Y-68312439D01*
X233506140Y-68312443D01*
X233503206Y-68313938D01*
X233500440Y-68315734D01*
X233500437Y-68315736D01*
X233288069Y-68453649D01*
X233177207Y-68525643D01*
X233073397Y-68609707D01*
X232878856Y-68767244D01*
X232875124Y-68770266D01*
X232600266Y-69045124D01*
X232598194Y-69047682D01*
X232598191Y-69047686D01*
X232525242Y-69137771D01*
X232355643Y-69347207D01*
X232353848Y-69349970D01*
X232353848Y-69349971D01*
X232152067Y-69660689D01*
X232143938Y-69673206D01*
X232142443Y-69676140D01*
X232142439Y-69676147D01*
X232023532Y-69909515D01*
X231967468Y-70019547D01*
X231895107Y-70208054D01*
X231831469Y-70373837D01*
X231828167Y-70382438D01*
X231780364Y-70560841D01*
X231731288Y-70743997D01*
X231727562Y-70757901D01*
X231727053Y-70757765D01*
X231694504Y-70818057D01*
X231632355Y-70852379D01*
X231561516Y-70847652D01*
X231504477Y-70805378D01*
X231479349Y-70738977D01*
X231478984Y-70729388D01*
X231478984Y-69929818D01*
X231498986Y-69861697D01*
X231511342Y-69845515D01*
X231584524Y-69764238D01*
X231664607Y-69625530D01*
X231676707Y-69604573D01*
X231676708Y-69604572D01*
X231680011Y-69598850D01*
X231739026Y-69417222D01*
X231745251Y-69358000D01*
X231758298Y-69233859D01*
X231758988Y-69227294D01*
X231748997Y-69132235D01*
X231739716Y-69043929D01*
X231739716Y-69043927D01*
X231739026Y-69037366D01*
X231680011Y-68855738D01*
X231663452Y-68827056D01*
X231633393Y-68774994D01*
X231584524Y-68690350D01*
X231511383Y-68609118D01*
X231461159Y-68553339D01*
X231461158Y-68553338D01*
X231456737Y-68548428D01*
X231357641Y-68476430D01*
X231307578Y-68440057D01*
X231307577Y-68440056D01*
X231302236Y-68436176D01*
X231296208Y-68433492D01*
X231296206Y-68433491D01*
X231133803Y-68361185D01*
X231133802Y-68361185D01*
X231127772Y-68358500D01*
X231034372Y-68338647D01*
X230947428Y-68320166D01*
X230947423Y-68320166D01*
X230940971Y-68318794D01*
X230749997Y-68318794D01*
X230743545Y-68320166D01*
X230743540Y-68320166D01*
X230656597Y-68338647D01*
X230563196Y-68358500D01*
X230557166Y-68361185D01*
X230557165Y-68361185D01*
X230394762Y-68433491D01*
X230394760Y-68433492D01*
X230388732Y-68436176D01*
X230383391Y-68440056D01*
X230383390Y-68440057D01*
X230333327Y-68476430D01*
X230234231Y-68548428D01*
X230229810Y-68553338D01*
X230229809Y-68553339D01*
X230179586Y-68609118D01*
X230106444Y-68690350D01*
X230057575Y-68774994D01*
X230027517Y-68827056D01*
X230010957Y-68855738D01*
X229951942Y-69037366D01*
X229951252Y-69043927D01*
X229951252Y-69043929D01*
X229941971Y-69132235D01*
X229931980Y-69227294D01*
X229932670Y-69233859D01*
X229945718Y-69358000D01*
X229951942Y-69417222D01*
X230010957Y-69598850D01*
X230014260Y-69604572D01*
X230014261Y-69604573D01*
X230026361Y-69625530D01*
X230106444Y-69764238D01*
X230179621Y-69845509D01*
X230210337Y-69909515D01*
X230211984Y-69929818D01*
X230211984Y-72702900D01*
X230191982Y-72771021D01*
X230138326Y-72817514D01*
X230085984Y-72828900D01*
X229962128Y-72828900D01*
X229958882Y-72829237D01*
X229958878Y-72829237D01*
X229864965Y-72838981D01*
X229864961Y-72838982D01*
X229858107Y-72839693D01*
X229851571Y-72841874D01*
X229851569Y-72841874D01*
X229771750Y-72868504D01*
X229693093Y-72894746D01*
X229686861Y-72898602D01*
X229686862Y-72898602D01*
X229552690Y-72981630D01*
X229545169Y-72986284D01*
X229513321Y-73018187D01*
X229451041Y-73052266D01*
X229380221Y-73047263D01*
X229335133Y-73018343D01*
X229307384Y-72990643D01*
X229302203Y-72985471D01*
X229154120Y-72894191D01*
X228989009Y-72839426D01*
X228982173Y-72838726D01*
X228982170Y-72838725D01*
X228930674Y-72833449D01*
X228886272Y-72828900D01*
X228212128Y-72828900D01*
X228208882Y-72829237D01*
X228208878Y-72829237D01*
X228114965Y-72838981D01*
X228114961Y-72838982D01*
X228108107Y-72839693D01*
X228101571Y-72841874D01*
X228101569Y-72841874D01*
X228021750Y-72868504D01*
X227943093Y-72894746D01*
X227936861Y-72898602D01*
X227936862Y-72898602D01*
X227801396Y-72982430D01*
X227801395Y-72982431D01*
X227795169Y-72986284D01*
X227793225Y-72988232D01*
X227729156Y-73014164D01*
X227659392Y-73000993D01*
X227640816Y-72989077D01*
X227637203Y-72985471D01*
X227489120Y-72894191D01*
X227324009Y-72839426D01*
X227317173Y-72838726D01*
X227317170Y-72838725D01*
X227265674Y-72833449D01*
X227221272Y-72828900D01*
X226547128Y-72828900D01*
X226543882Y-72829237D01*
X226543878Y-72829237D01*
X226449965Y-72838981D01*
X226449961Y-72838982D01*
X226443107Y-72839693D01*
X226436571Y-72841874D01*
X226436569Y-72841874D01*
X226356750Y-72868504D01*
X226278093Y-72894746D01*
X226130169Y-72986284D01*
X226097969Y-73018541D01*
X226035688Y-73052620D01*
X225964868Y-73047618D01*
X225919778Y-73018696D01*
X225892071Y-72991037D01*
X225880660Y-72982025D01*
X225745137Y-72898488D01*
X225731959Y-72892344D01*
X225580434Y-72842085D01*
X225567068Y-72839219D01*
X225474430Y-72829728D01*
X225468015Y-72829400D01*
X225406315Y-72829400D01*
X225391076Y-72833875D01*
X225389871Y-72835265D01*
X225388200Y-72842948D01*
X225388200Y-73940400D01*
X225368198Y-74008521D01*
X225314542Y-74055014D01*
X225262200Y-74066400D01*
X224119315Y-74066400D01*
X224104076Y-74070875D01*
X224102871Y-74072265D01*
X224101200Y-74079948D01*
X224101200Y-74096166D01*
X224101537Y-74102682D01*
X224111275Y-74196532D01*
X224114168Y-74209928D01*
X224164688Y-74361353D01*
X224170851Y-74374511D01*
X224238108Y-74483197D01*
X224256945Y-74551649D01*
X224235784Y-74619419D01*
X224181343Y-74664990D01*
X224130963Y-74675500D01*
X203278309Y-74675500D01*
X203210188Y-74655498D01*
X203163695Y-74601842D01*
X203153591Y-74531568D01*
X203183085Y-74466988D01*
X203199014Y-74451580D01*
X203396314Y-74291809D01*
X203396318Y-74291806D01*
X203398876Y-74289734D01*
X203673734Y-74014876D01*
X203678881Y-74008521D01*
X203861043Y-73783569D01*
X203918357Y-73712793D01*
X203939263Y-73680601D01*
X204128264Y-73389563D01*
X204128266Y-73389560D01*
X204130062Y-73386794D01*
X204150774Y-73346146D01*
X204305034Y-73043393D01*
X204306532Y-73040453D01*
X204413767Y-72761097D01*
X204444647Y-72680652D01*
X204444648Y-72680650D01*
X204445833Y-72677562D01*
X204538742Y-72330819D01*
X204575694Y-72270197D01*
X204639554Y-72239176D01*
X204710049Y-72247604D01*
X204755686Y-72280933D01*
X204832865Y-72370031D01*
X204832869Y-72370035D01*
X204836250Y-72373938D01*
X205008126Y-72516632D01*
X205201000Y-72629338D01*
X205409692Y-72709030D01*
X205414760Y-72710061D01*
X205414763Y-72710062D01*
X205522017Y-72731883D01*
X205628597Y-72753567D01*
X205633772Y-72753757D01*
X205633774Y-72753757D01*
X205846673Y-72761564D01*
X205846677Y-72761564D01*
X205851837Y-72761753D01*
X205856957Y-72761097D01*
X205856959Y-72761097D01*
X206068288Y-72734025D01*
X206068289Y-72734025D01*
X206073416Y-72733368D01*
X206078366Y-72731883D01*
X206282429Y-72670661D01*
X206282434Y-72670659D01*
X206287384Y-72669174D01*
X206487994Y-72570896D01*
X206669860Y-72441173D01*
X206828096Y-72283489D01*
X206911411Y-72167544D01*
X206955435Y-72106277D01*
X206958453Y-72102077D01*
X206965494Y-72087832D01*
X207055136Y-71906453D01*
X207055137Y-71906451D01*
X207057430Y-71901811D01*
X207096934Y-71771790D01*
X207120865Y-71693023D01*
X207120865Y-71693021D01*
X207122370Y-71688069D01*
X207151529Y-71466590D01*
X207152665Y-71420107D01*
X207153074Y-71403365D01*
X207153074Y-71403361D01*
X207153156Y-71400000D01*
X207134852Y-71177361D01*
X207106821Y-71065765D01*
X207109625Y-70994823D01*
X207139930Y-70945974D01*
X207152189Y-70933715D01*
X207214501Y-70899689D01*
X207241284Y-70896810D01*
X207529864Y-70896810D01*
X207597985Y-70916812D01*
X207644478Y-70970468D01*
X207655208Y-71035652D01*
X207650500Y-71081600D01*
X207650500Y-73682400D01*
X207650837Y-73685646D01*
X207650837Y-73685650D01*
X207657020Y-73745235D01*
X207661474Y-73788165D01*
X207717450Y-73955945D01*
X207810522Y-74106348D01*
X207935697Y-74231305D01*
X207941927Y-74235145D01*
X207941928Y-74235146D01*
X208079090Y-74319694D01*
X208086262Y-74324115D01*
X208166005Y-74350564D01*
X208247611Y-74377632D01*
X208247613Y-74377632D01*
X208254139Y-74379797D01*
X208260975Y-74380497D01*
X208260978Y-74380498D01*
X208304031Y-74384909D01*
X208358600Y-74390500D01*
X210059400Y-74390500D01*
X210062646Y-74390163D01*
X210062650Y-74390163D01*
X210158307Y-74380238D01*
X210158311Y-74380237D01*
X210165165Y-74379526D01*
X210171701Y-74377345D01*
X210171703Y-74377345D01*
X210303805Y-74333272D01*
X210332945Y-74323550D01*
X210483348Y-74230478D01*
X210608305Y-74105303D01*
X210664045Y-74014876D01*
X210697275Y-73960968D01*
X210697276Y-73960966D01*
X210701115Y-73954738D01*
X210756797Y-73786861D01*
X210767500Y-73682400D01*
X210767500Y-72875069D01*
X213245174Y-72875069D01*
X213245864Y-72881634D01*
X213260649Y-73022301D01*
X213265136Y-73064997D01*
X213324151Y-73246625D01*
X213327454Y-73252347D01*
X213327455Y-73252348D01*
X213342428Y-73278281D01*
X213419638Y-73412013D01*
X213424056Y-73416920D01*
X213424057Y-73416921D01*
X213506174Y-73508121D01*
X213547425Y-73553935D01*
X213701926Y-73666187D01*
X213707954Y-73668871D01*
X213707956Y-73668872D01*
X213870359Y-73741178D01*
X213876390Y-73743863D01*
X213969791Y-73763716D01*
X214056734Y-73782197D01*
X214056739Y-73782197D01*
X214063191Y-73783569D01*
X214254165Y-73783569D01*
X214260617Y-73782197D01*
X214260622Y-73782197D01*
X214347565Y-73763716D01*
X214440966Y-73743863D01*
X214446997Y-73741178D01*
X214609400Y-73668872D01*
X214609402Y-73668871D01*
X214615430Y-73666187D01*
X214769931Y-73553935D01*
X214811182Y-73508121D01*
X214893299Y-73416921D01*
X214893300Y-73416920D01*
X214897718Y-73412013D01*
X214974928Y-73278281D01*
X214989901Y-73252348D01*
X214989902Y-73252347D01*
X214993205Y-73246625D01*
X215052220Y-73064997D01*
X215056708Y-73022301D01*
X215071492Y-72881634D01*
X215072182Y-72875069D01*
X215068362Y-72838725D01*
X215052910Y-72691704D01*
X215052910Y-72691702D01*
X215052220Y-72685141D01*
X214993205Y-72503513D01*
X214897718Y-72338125D01*
X214836556Y-72270197D01*
X214774353Y-72201114D01*
X214774352Y-72201113D01*
X214769931Y-72196203D01*
X214615430Y-72083951D01*
X214609402Y-72081267D01*
X214609400Y-72081266D01*
X214446997Y-72008960D01*
X214446996Y-72008960D01*
X214440966Y-72006275D01*
X214344117Y-71985689D01*
X214260622Y-71967941D01*
X214260617Y-71967941D01*
X214254165Y-71966569D01*
X214063191Y-71966569D01*
X214056739Y-71967941D01*
X214056734Y-71967941D01*
X213973239Y-71985689D01*
X213876390Y-72006275D01*
X213870360Y-72008960D01*
X213870359Y-72008960D01*
X213707956Y-72081266D01*
X213707954Y-72081267D01*
X213701926Y-72083951D01*
X213547425Y-72196203D01*
X213543004Y-72201113D01*
X213543003Y-72201114D01*
X213480801Y-72270197D01*
X213419638Y-72338125D01*
X213324151Y-72503513D01*
X213265136Y-72685141D01*
X213264446Y-72691702D01*
X213264446Y-72691704D01*
X213248994Y-72838725D01*
X213245174Y-72875069D01*
X210767500Y-72875069D01*
X210767500Y-71081600D01*
X210762733Y-71035653D01*
X210757238Y-70982693D01*
X210757237Y-70982689D01*
X210756526Y-70975835D01*
X210738869Y-70922909D01*
X210702868Y-70815003D01*
X210700550Y-70808055D01*
X210607478Y-70657652D01*
X210482303Y-70532695D01*
X210474292Y-70527757D01*
X210337968Y-70443725D01*
X210337966Y-70443724D01*
X210331738Y-70439885D01*
X210171254Y-70386655D01*
X210170389Y-70386368D01*
X210170387Y-70386368D01*
X210163861Y-70384203D01*
X210157025Y-70383503D01*
X210157022Y-70383502D01*
X210113969Y-70379091D01*
X210059400Y-70373500D01*
X209972594Y-70373500D01*
X209904473Y-70353498D01*
X209857980Y-70299842D01*
X209847876Y-70229568D01*
X209877370Y-70164988D01*
X209883499Y-70158405D01*
X210002860Y-70039044D01*
X210011150Y-70031500D01*
X210017631Y-70027387D01*
X210064272Y-69977719D01*
X210067026Y-69974878D01*
X210086748Y-69955156D01*
X210089225Y-69951963D01*
X210096930Y-69942942D01*
X210121772Y-69916487D01*
X210127199Y-69910708D01*
X210136262Y-69894222D01*
X210136959Y-69892955D01*
X210147815Y-69876428D01*
X210155370Y-69866689D01*
X210155371Y-69866687D01*
X210160227Y-69860427D01*
X210177787Y-69819847D01*
X210183004Y-69809199D01*
X210200488Y-69777396D01*
X210200489Y-69777394D01*
X210204308Y-69770447D01*
X210207371Y-69758520D01*
X210209346Y-69750825D01*
X210215750Y-69732121D01*
X210220646Y-69720807D01*
X210220646Y-69720806D01*
X210223794Y-69713532D01*
X210225033Y-69705709D01*
X210225036Y-69705699D01*
X210230712Y-69669863D01*
X210233118Y-69658243D01*
X210242141Y-69623098D01*
X210242141Y-69623097D01*
X210244113Y-69615417D01*
X210244113Y-69595163D01*
X210245664Y-69575452D01*
X210247593Y-69563273D01*
X210248833Y-69555444D01*
X210244672Y-69511425D01*
X210244113Y-69499568D01*
X210244113Y-67721197D01*
X210244640Y-67710014D01*
X210246315Y-67702521D01*
X210244175Y-67634430D01*
X210244113Y-67630473D01*
X210244113Y-67602573D01*
X210243609Y-67598582D01*
X210242676Y-67586740D01*
X210242474Y-67580291D01*
X210241287Y-67542540D01*
X210239074Y-67534922D01*
X210235634Y-67523081D01*
X210231625Y-67503722D01*
X210230329Y-67493464D01*
X210229087Y-67483632D01*
X210226171Y-67476266D01*
X210226169Y-67476260D01*
X210212813Y-67442527D01*
X210208968Y-67431297D01*
X210198843Y-67396446D01*
X210198843Y-67396445D01*
X210196632Y-67388836D01*
X210186318Y-67371395D01*
X210177621Y-67353642D01*
X210173085Y-67342187D01*
X210170165Y-67334812D01*
X210144176Y-67299041D01*
X210137660Y-67289121D01*
X210135083Y-67284763D01*
X210115155Y-67251067D01*
X210100834Y-67236746D01*
X210087993Y-67221712D01*
X210076085Y-67205322D01*
X210069981Y-67200272D01*
X210069976Y-67200267D01*
X210042015Y-67177136D01*
X210033235Y-67169146D01*
X209840980Y-66976891D01*
X209806954Y-66914579D01*
X209808314Y-66895564D01*
X209748010Y-66879097D01*
X209725005Y-66860917D01*
X209649949Y-66785860D01*
X209314618Y-66450529D01*
X209280593Y-66388217D01*
X209277714Y-66361434D01*
X209277714Y-62146415D01*
X209297716Y-62078294D01*
X209351372Y-62031801D01*
X209421646Y-62021697D01*
X209429911Y-62023169D01*
X209437568Y-62024797D01*
X209437581Y-62024798D01*
X209444034Y-62026170D01*
X209499927Y-62026170D01*
X209568048Y-62046172D01*
X209589022Y-62063075D01*
X209906075Y-62380128D01*
X209940101Y-62442440D01*
X209942980Y-62469223D01*
X209942980Y-65406001D01*
X209922978Y-65474122D01*
X209910616Y-65490311D01*
X209853661Y-65553566D01*
X209797191Y-65651375D01*
X209767080Y-65703529D01*
X209758174Y-65718954D01*
X209699159Y-65900582D01*
X209698469Y-65907143D01*
X209698469Y-65907145D01*
X209691210Y-65976209D01*
X209679197Y-66090510D01*
X209679887Y-66097075D01*
X209697653Y-66266105D01*
X209699159Y-66280438D01*
X209758174Y-66462066D01*
X209853661Y-66627454D01*
X209907739Y-66687513D01*
X209938455Y-66751520D01*
X209936714Y-66765517D01*
X209990460Y-66777208D01*
X210004136Y-66785860D01*
X210072486Y-66835519D01*
X210135949Y-66881628D01*
X210141977Y-66884312D01*
X210141979Y-66884313D01*
X210264854Y-66939020D01*
X210310413Y-66959304D01*
X210393153Y-66976891D01*
X210490757Y-66997638D01*
X210490762Y-66997638D01*
X210497214Y-66999010D01*
X210553106Y-66999010D01*
X210621227Y-67019012D01*
X210642202Y-67035915D01*
X211088596Y-67482310D01*
X211122621Y-67544622D01*
X211125500Y-67571405D01*
X211125500Y-68261290D01*
X211105498Y-68329411D01*
X211088595Y-68350385D01*
X210997361Y-68441619D01*
X210908528Y-68588301D01*
X210906257Y-68595548D01*
X210906256Y-68595550D01*
X210885483Y-68661836D01*
X210857247Y-68751938D01*
X210850500Y-68825365D01*
X210850501Y-70138634D01*
X210850764Y-70141492D01*
X210850764Y-70141501D01*
X210852922Y-70164988D01*
X210857247Y-70212062D01*
X210859246Y-70218440D01*
X210859246Y-70218441D01*
X210901571Y-70353498D01*
X210908528Y-70375699D01*
X210997361Y-70522381D01*
X211118619Y-70643639D01*
X211265301Y-70732472D01*
X211272548Y-70734743D01*
X211272550Y-70734744D01*
X211336428Y-70754762D01*
X211428938Y-70783753D01*
X211502365Y-70790500D01*
X211505263Y-70790500D01*
X211759665Y-70790499D01*
X212015634Y-70790499D01*
X212018492Y-70790236D01*
X212018501Y-70790236D01*
X212054004Y-70786974D01*
X212089062Y-70783753D01*
X212097030Y-70781256D01*
X212245450Y-70734744D01*
X212245452Y-70734743D01*
X212252699Y-70732472D01*
X212319212Y-70692191D01*
X212387840Y-70674012D01*
X212449753Y-70692191D01*
X212509008Y-70728077D01*
X212522757Y-70734285D01*
X212672644Y-70781256D01*
X212685694Y-70783869D01*
X212740586Y-70788913D01*
X212752124Y-70785525D01*
X212753329Y-70784135D01*
X212755000Y-70776452D01*
X212755000Y-69354000D01*
X212775002Y-69285879D01*
X212828658Y-69239386D01*
X212881000Y-69228000D01*
X213137000Y-69228000D01*
X213205121Y-69248002D01*
X213251614Y-69301658D01*
X213263000Y-69354000D01*
X213263000Y-70771884D01*
X213267475Y-70787123D01*
X213268865Y-70788328D01*
X213273294Y-70789291D01*
X213332315Y-70783868D01*
X213345351Y-70781257D01*
X213495243Y-70734285D01*
X213508992Y-70728077D01*
X213568247Y-70692191D01*
X213636876Y-70674012D01*
X213698788Y-70692191D01*
X213765301Y-70732472D01*
X213772548Y-70734743D01*
X213772550Y-70734744D01*
X213836428Y-70754762D01*
X213928938Y-70783753D01*
X214002365Y-70790500D01*
X214005263Y-70790500D01*
X214259665Y-70790499D01*
X214515634Y-70790499D01*
X214518492Y-70790236D01*
X214518501Y-70790236D01*
X214554004Y-70786974D01*
X214589062Y-70783753D01*
X214711823Y-70745282D01*
X214782805Y-70743997D01*
X214843216Y-70781294D01*
X214873873Y-70845331D01*
X214875500Y-70865516D01*
X214875500Y-70904233D01*
X214874973Y-70915416D01*
X214873298Y-70922909D01*
X214873547Y-70930835D01*
X214873547Y-70930836D01*
X214875438Y-70990986D01*
X214875500Y-70994945D01*
X214875500Y-71022856D01*
X214875997Y-71026790D01*
X214875997Y-71026791D01*
X214876005Y-71026856D01*
X214876938Y-71038693D01*
X214878327Y-71082889D01*
X214881777Y-71094763D01*
X214883978Y-71102339D01*
X214887987Y-71121700D01*
X214890526Y-71141797D01*
X214893445Y-71149168D01*
X214893445Y-71149170D01*
X214906804Y-71182912D01*
X214910649Y-71194142D01*
X214914687Y-71208040D01*
X214922982Y-71236593D01*
X214927015Y-71243412D01*
X214927017Y-71243417D01*
X214933293Y-71254028D01*
X214941988Y-71271776D01*
X214949448Y-71290617D01*
X214954110Y-71297033D01*
X214954110Y-71297034D01*
X214975436Y-71326387D01*
X214981952Y-71336307D01*
X215004458Y-71374362D01*
X215018779Y-71388683D01*
X215031619Y-71403716D01*
X215043528Y-71420107D01*
X215049633Y-71425158D01*
X215049638Y-71425163D01*
X215077598Y-71448294D01*
X215086376Y-71456281D01*
X215277422Y-71647326D01*
X215460878Y-71830782D01*
X215494903Y-71893095D01*
X215497093Y-71906706D01*
X215499532Y-71929916D01*
X215510984Y-72038871D01*
X215514458Y-72071928D01*
X215573473Y-72253556D01*
X215576776Y-72259278D01*
X215576777Y-72259279D01*
X215610686Y-72318010D01*
X215668960Y-72418944D01*
X215673378Y-72423851D01*
X215673379Y-72423852D01*
X215792325Y-72555955D01*
X215796747Y-72560866D01*
X215887402Y-72626731D01*
X215945820Y-72669174D01*
X215951248Y-72673118D01*
X215957276Y-72675802D01*
X215957278Y-72675803D01*
X216083237Y-72731883D01*
X216125712Y-72750794D01*
X216219113Y-72770647D01*
X216306056Y-72789128D01*
X216306061Y-72789128D01*
X216312513Y-72790500D01*
X216503487Y-72790500D01*
X216509939Y-72789128D01*
X216509944Y-72789128D01*
X216596888Y-72770647D01*
X216690288Y-72750794D01*
X216732763Y-72731883D01*
X216858722Y-72675803D01*
X216858724Y-72675802D01*
X216864752Y-72673118D01*
X216870181Y-72669174D01*
X216928598Y-72626731D01*
X217019253Y-72560866D01*
X217023675Y-72555955D01*
X217142621Y-72423852D01*
X217142622Y-72423851D01*
X217147040Y-72418944D01*
X217205314Y-72318010D01*
X217239223Y-72259279D01*
X217239224Y-72259278D01*
X217242527Y-72253556D01*
X217301542Y-72071928D01*
X217305017Y-72038871D01*
X217310606Y-71985689D01*
X217337619Y-71920033D01*
X217395841Y-71879403D01*
X217466786Y-71876700D01*
X217529550Y-71914548D01*
X217565645Y-71954636D01*
X217720146Y-72066888D01*
X217726174Y-72069572D01*
X217726176Y-72069573D01*
X217850994Y-72125145D01*
X217894610Y-72144564D01*
X217988010Y-72164417D01*
X218074954Y-72182898D01*
X218074959Y-72182898D01*
X218081411Y-72184270D01*
X218272385Y-72184270D01*
X218278837Y-72182898D01*
X218278842Y-72182898D01*
X218365786Y-72164417D01*
X218459186Y-72144564D01*
X218502802Y-72125145D01*
X218627620Y-72069573D01*
X218627622Y-72069572D01*
X218633650Y-72066888D01*
X218638992Y-72063007D01*
X218782807Y-71958519D01*
X218782809Y-71958517D01*
X218788151Y-71954636D01*
X218790982Y-71951492D01*
X218854192Y-71921154D01*
X218924646Y-71929916D01*
X218979179Y-71975377D01*
X219000500Y-72045507D01*
X219000500Y-73682400D01*
X219000837Y-73685646D01*
X219000837Y-73685650D01*
X219007020Y-73745235D01*
X219011474Y-73788165D01*
X219067450Y-73955945D01*
X219160522Y-74106348D01*
X219285697Y-74231305D01*
X219291927Y-74235145D01*
X219291928Y-74235146D01*
X219429090Y-74319694D01*
X219436262Y-74324115D01*
X219516005Y-74350564D01*
X219597611Y-74377632D01*
X219597613Y-74377632D01*
X219604139Y-74379797D01*
X219610975Y-74380497D01*
X219610978Y-74380498D01*
X219654031Y-74384909D01*
X219708600Y-74390500D01*
X221409400Y-74390500D01*
X221412646Y-74390163D01*
X221412650Y-74390163D01*
X221508307Y-74380238D01*
X221508311Y-74380237D01*
X221515165Y-74379526D01*
X221521701Y-74377345D01*
X221521703Y-74377345D01*
X221653805Y-74333272D01*
X221682945Y-74323550D01*
X221833348Y-74230478D01*
X221958305Y-74105303D01*
X222014045Y-74014876D01*
X222047275Y-73960968D01*
X222047276Y-73960966D01*
X222051115Y-73954738D01*
X222106797Y-73786861D01*
X222117500Y-73682400D01*
X222117500Y-73540285D01*
X224101200Y-73540285D01*
X224105675Y-73555524D01*
X224107065Y-73556729D01*
X224114748Y-73558400D01*
X224862085Y-73558400D01*
X224877324Y-73553925D01*
X224878529Y-73552535D01*
X224880200Y-73544852D01*
X224880200Y-72847515D01*
X224875725Y-72832276D01*
X224874335Y-72831071D01*
X224866652Y-72829400D01*
X224800434Y-72829400D01*
X224793918Y-72829737D01*
X224700068Y-72839475D01*
X224686672Y-72842368D01*
X224535247Y-72892888D01*
X224522085Y-72899053D01*
X224386708Y-72982826D01*
X224375310Y-72991860D01*
X224262837Y-73104529D01*
X224253825Y-73115940D01*
X224170288Y-73251463D01*
X224164144Y-73264641D01*
X224113885Y-73416166D01*
X224111019Y-73429532D01*
X224101528Y-73522170D01*
X224101200Y-73528585D01*
X224101200Y-73540285D01*
X222117500Y-73540285D01*
X222117500Y-72005697D01*
X222137502Y-71937576D01*
X222191158Y-71891083D01*
X222261432Y-71880979D01*
X222309615Y-71898437D01*
X222400259Y-71954310D01*
X222413441Y-71960456D01*
X222564966Y-72010715D01*
X222578332Y-72013581D01*
X222670970Y-72023072D01*
X222677385Y-72023400D01*
X222689085Y-72023400D01*
X222704324Y-72018925D01*
X222705529Y-72017535D01*
X222707200Y-72009852D01*
X222707200Y-70862400D01*
X222727202Y-70794279D01*
X222780858Y-70747786D01*
X222833200Y-70736400D01*
X223089200Y-70736400D01*
X223157321Y-70756402D01*
X223203814Y-70810058D01*
X223215200Y-70862400D01*
X223215200Y-72005285D01*
X223219675Y-72020524D01*
X223221065Y-72021729D01*
X223228748Y-72023400D01*
X223244966Y-72023400D01*
X223251482Y-72023063D01*
X223345332Y-72013325D01*
X223358728Y-72010432D01*
X223510153Y-71959912D01*
X223523315Y-71953747D01*
X223658692Y-71869974D01*
X223670090Y-71860940D01*
X223782563Y-71748271D01*
X223791575Y-71736860D01*
X223796741Y-71728479D01*
X223849513Y-71680986D01*
X223919585Y-71669562D01*
X223984709Y-71697836D01*
X224024998Y-71759441D01*
X224030855Y-71779601D01*
X224034892Y-71786427D01*
X224111509Y-71915980D01*
X224111511Y-71915983D01*
X224115547Y-71922807D01*
X224233193Y-72040453D01*
X224240016Y-72044488D01*
X224240020Y-72044491D01*
X224306744Y-72083951D01*
X224376399Y-72125145D01*
X224384010Y-72127356D01*
X224384012Y-72127357D01*
X224433998Y-72141879D01*
X224536169Y-72171562D01*
X224542574Y-72172066D01*
X224542579Y-72172067D01*
X224571042Y-72174307D01*
X224571050Y-72174307D01*
X224573498Y-72174500D01*
X225006502Y-72174500D01*
X225008950Y-72174307D01*
X225008958Y-72174307D01*
X225037421Y-72172067D01*
X225037426Y-72172066D01*
X225043831Y-72171562D01*
X225146002Y-72141879D01*
X225195988Y-72127357D01*
X225195990Y-72127356D01*
X225203601Y-72125145D01*
X225346807Y-72040453D01*
X225349489Y-72037771D01*
X225413861Y-72012498D01*
X225483484Y-72026400D01*
X225499312Y-72036572D01*
X225503193Y-72040453D01*
X225646399Y-72125145D01*
X225654010Y-72127356D01*
X225654012Y-72127357D01*
X225703998Y-72141879D01*
X225806169Y-72171562D01*
X225812574Y-72172066D01*
X225812579Y-72172067D01*
X225841042Y-72174307D01*
X225841050Y-72174307D01*
X225843498Y-72174500D01*
X226276502Y-72174500D01*
X226278950Y-72174307D01*
X226278958Y-72174307D01*
X226307421Y-72172067D01*
X226307426Y-72172066D01*
X226313831Y-72171562D01*
X226416002Y-72141879D01*
X226465988Y-72127357D01*
X226465990Y-72127356D01*
X226473601Y-72125145D01*
X226616807Y-72040453D01*
X226619489Y-72037771D01*
X226683861Y-72012498D01*
X226753484Y-72026400D01*
X226769312Y-72036572D01*
X226773193Y-72040453D01*
X226916399Y-72125145D01*
X226924010Y-72127356D01*
X226924012Y-72127357D01*
X226973998Y-72141879D01*
X227076169Y-72171562D01*
X227082574Y-72172066D01*
X227082579Y-72172067D01*
X227111042Y-72174307D01*
X227111050Y-72174307D01*
X227113498Y-72174500D01*
X227546502Y-72174500D01*
X227548950Y-72174307D01*
X227548958Y-72174307D01*
X227577421Y-72172067D01*
X227577426Y-72172066D01*
X227583831Y-72171562D01*
X227686002Y-72141879D01*
X227735988Y-72127357D01*
X227735990Y-72127356D01*
X227743601Y-72125145D01*
X227886807Y-72040453D01*
X227889747Y-72037513D01*
X227954271Y-72012179D01*
X228023894Y-72026080D01*
X228042640Y-72038129D01*
X228050323Y-72044089D01*
X228179779Y-72120648D01*
X228194210Y-72126893D01*
X228328605Y-72165939D01*
X228342706Y-72165899D01*
X228346000Y-72158630D01*
X228346000Y-72152878D01*
X228854000Y-72152878D01*
X228857973Y-72166409D01*
X228865871Y-72167544D01*
X229005790Y-72126893D01*
X229020221Y-72120648D01*
X229149678Y-72044089D01*
X229162104Y-72034449D01*
X229268449Y-71928104D01*
X229278089Y-71915678D01*
X229354648Y-71786221D01*
X229360893Y-71771790D01*
X229403269Y-71625935D01*
X229405570Y-71613333D01*
X229407807Y-71584916D01*
X229408000Y-71579986D01*
X229408000Y-71138115D01*
X229403525Y-71122876D01*
X229402135Y-71121671D01*
X229394452Y-71120000D01*
X228872115Y-71120000D01*
X228856876Y-71124475D01*
X228855671Y-71125865D01*
X228854000Y-71133548D01*
X228854000Y-72152878D01*
X228346000Y-72152878D01*
X228346000Y-70738000D01*
X228366002Y-70669879D01*
X228419658Y-70623386D01*
X228472000Y-70612000D01*
X229389884Y-70612000D01*
X229405123Y-70607525D01*
X229406328Y-70606135D01*
X229407999Y-70598452D01*
X229407999Y-70152017D01*
X229407805Y-70147080D01*
X229405570Y-70118664D01*
X229403270Y-70106069D01*
X229360892Y-69960207D01*
X229354649Y-69945780D01*
X229324158Y-69894222D01*
X229306699Y-69825406D01*
X229323493Y-69767084D01*
X229328438Y-69758520D01*
X229358934Y-69705699D01*
X229380423Y-69668479D01*
X229380424Y-69668478D01*
X229383727Y-69662756D01*
X229442742Y-69481128D01*
X229446222Y-69448023D01*
X229462014Y-69297765D01*
X229462704Y-69291200D01*
X229456677Y-69233859D01*
X229443432Y-69107835D01*
X229443432Y-69107833D01*
X229442742Y-69101272D01*
X229383727Y-68919644D01*
X229378502Y-68910593D01*
X229310700Y-68793158D01*
X229288240Y-68754256D01*
X229267333Y-68731036D01*
X229168465Y-68621232D01*
X229137747Y-68557225D01*
X229146512Y-68486771D01*
X229173006Y-68447826D01*
X229427434Y-68193399D01*
X229752333Y-67868500D01*
X229760612Y-67860966D01*
X229767093Y-67856853D01*
X229813719Y-67807201D01*
X229816473Y-67804360D01*
X229836210Y-67784623D01*
X229838690Y-67781426D01*
X229846395Y-67772404D01*
X229871234Y-67745953D01*
X229876661Y-67740174D01*
X229880480Y-67733228D01*
X229880482Y-67733225D01*
X229886423Y-67722419D01*
X229897274Y-67705900D01*
X229904833Y-67696154D01*
X229909689Y-67689894D01*
X229912834Y-67682625D01*
X229912837Y-67682621D01*
X229927249Y-67649316D01*
X229932466Y-67638666D01*
X229953770Y-67599913D01*
X229958808Y-67580290D01*
X229965212Y-67561587D01*
X229970108Y-67550273D01*
X229970108Y-67550272D01*
X229973256Y-67542998D01*
X229974495Y-67535175D01*
X229974498Y-67535165D01*
X229980174Y-67499329D01*
X229982580Y-67487709D01*
X229991603Y-67452564D01*
X229991603Y-67452563D01*
X229993575Y-67444883D01*
X229993575Y-67424629D01*
X229995126Y-67404918D01*
X229997055Y-67392739D01*
X229998295Y-67384910D01*
X229994134Y-67340891D01*
X229993575Y-67329034D01*
X229993575Y-64829078D01*
X230013577Y-64760957D01*
X230067233Y-64714464D01*
X230137507Y-64704360D01*
X230145770Y-64705831D01*
X230174451Y-64711927D01*
X230174456Y-64711928D01*
X230180913Y-64713300D01*
X230371887Y-64713300D01*
X230378339Y-64711928D01*
X230378344Y-64711928D01*
X230465287Y-64693447D01*
X230558688Y-64673594D01*
X230573921Y-64666812D01*
X230727122Y-64598603D01*
X230727124Y-64598602D01*
X230733152Y-64595918D01*
X230831276Y-64524627D01*
X230898140Y-64500770D01*
X230956583Y-64511457D01*
X231035520Y-64546602D01*
X231128921Y-64566455D01*
X231215864Y-64584936D01*
X231215869Y-64584936D01*
X231222321Y-64586308D01*
X231413295Y-64586308D01*
X231419747Y-64584936D01*
X231419752Y-64584936D01*
X231506695Y-64566455D01*
X231600096Y-64546602D01*
X231649451Y-64524628D01*
X231768530Y-64471611D01*
X231768532Y-64471610D01*
X231774560Y-64468926D01*
X231929061Y-64356674D01*
X232056848Y-64214752D01*
X232078710Y-64176886D01*
X232130093Y-64127893D01*
X232199806Y-64114457D01*
X232265717Y-64140843D01*
X232308063Y-64202206D01*
X232313716Y-64220245D01*
X232319921Y-64233988D01*
X232400824Y-64367574D01*
X232410131Y-64379443D01*
X232520557Y-64489869D01*
X232532426Y-64499176D01*
X232666012Y-64580079D01*
X232679757Y-64586285D01*
X232829644Y-64633256D01*
X232842694Y-64635869D01*
X232906521Y-64641734D01*
X232912309Y-64642000D01*
X233293885Y-64642000D01*
X233309124Y-64637525D01*
X233310329Y-64636135D01*
X233312000Y-64628452D01*
X233312000Y-64623884D01*
X233820000Y-64623884D01*
X233824475Y-64639123D01*
X233825865Y-64640328D01*
X233833548Y-64641999D01*
X234219705Y-64641999D01*
X234225454Y-64641736D01*
X234289315Y-64635868D01*
X234302351Y-64633257D01*
X234452243Y-64586285D01*
X234465988Y-64580079D01*
X234599574Y-64499176D01*
X234611443Y-64489869D01*
X234721869Y-64379443D01*
X234731176Y-64367574D01*
X234812079Y-64233988D01*
X234818285Y-64220243D01*
X234865256Y-64070356D01*
X234867869Y-64057306D01*
X234872913Y-64002414D01*
X234869525Y-63990876D01*
X234868135Y-63989671D01*
X234860452Y-63988000D01*
X233838115Y-63988000D01*
X233822876Y-63992475D01*
X233821671Y-63993865D01*
X233820000Y-64001548D01*
X233820000Y-64623884D01*
X233312000Y-64623884D01*
X233312000Y-63606000D01*
X233332002Y-63537879D01*
X233385658Y-63491386D01*
X233438000Y-63480000D01*
X234855884Y-63480000D01*
X234871123Y-63475525D01*
X234872328Y-63474135D01*
X234873291Y-63469706D01*
X234867868Y-63410685D01*
X234865257Y-63397649D01*
X234820924Y-63256179D01*
X234819640Y-63185194D01*
X234856937Y-63124783D01*
X234920974Y-63094127D01*
X234941158Y-63092500D01*
X235794090Y-63092500D01*
X235862211Y-63112502D01*
X235887726Y-63134189D01*
X235913547Y-63162866D01*
X235919325Y-63167064D01*
X236059490Y-63268900D01*
X236068048Y-63275118D01*
X236074076Y-63277802D01*
X236074078Y-63277803D01*
X236236481Y-63350109D01*
X236242512Y-63352794D01*
X236323516Y-63370012D01*
X236422856Y-63391128D01*
X236422861Y-63391128D01*
X236429313Y-63392500D01*
X236620287Y-63392500D01*
X236626739Y-63391128D01*
X236626744Y-63391128D01*
X236726084Y-63370012D01*
X236807088Y-63352794D01*
X236813119Y-63350109D01*
X236975522Y-63277803D01*
X236975524Y-63277802D01*
X236981552Y-63275118D01*
X236990111Y-63268900D01*
X237039342Y-63233131D01*
X237136053Y-63162866D01*
X237161874Y-63134189D01*
X237259421Y-63025852D01*
X237259422Y-63025851D01*
X237263840Y-63020944D01*
X237342902Y-62884005D01*
X237356023Y-62861279D01*
X237356024Y-62861278D01*
X237359327Y-62855556D01*
X237418342Y-62673928D01*
X237426001Y-62601062D01*
X237437614Y-62490565D01*
X237438304Y-62484000D01*
X237425029Y-62357693D01*
X237419032Y-62300635D01*
X237419032Y-62300633D01*
X237418342Y-62294072D01*
X237359327Y-62112444D01*
X237352945Y-62101389D01*
X237315874Y-62037182D01*
X237263840Y-61947056D01*
X237255185Y-61937443D01*
X237136053Y-61805134D01*
X237137193Y-61804108D01*
X237104080Y-61750357D01*
X237105433Y-61679374D01*
X237116509Y-61654177D01*
X237156127Y-61585556D01*
X237215142Y-61403928D01*
X237216738Y-61388749D01*
X237234414Y-61220565D01*
X237235104Y-61214000D01*
X237230724Y-61172322D01*
X237215832Y-61030635D01*
X237215832Y-61030633D01*
X237215142Y-61024072D01*
X237156127Y-60842444D01*
X237152638Y-60836400D01*
X237100511Y-60746114D01*
X237060640Y-60677056D01*
X236937596Y-60540401D01*
X236937275Y-60540045D01*
X236937274Y-60540044D01*
X236932853Y-60535134D01*
X236922542Y-60527642D01*
X236843804Y-60470436D01*
X236800450Y-60414214D01*
X236794375Y-60343477D01*
X236827506Y-60280686D01*
X236889327Y-60245774D01*
X236917865Y-60242500D01*
X237766400Y-60242500D01*
X237769646Y-60242163D01*
X237769650Y-60242163D01*
X237865307Y-60232238D01*
X237865311Y-60232237D01*
X237872165Y-60231526D01*
X237878701Y-60229345D01*
X237878703Y-60229345D01*
X238018535Y-60182693D01*
X238039945Y-60175550D01*
X238190348Y-60082478D01*
X238315305Y-59957303D01*
X238343436Y-59911666D01*
X238404275Y-59812968D01*
X238404276Y-59812966D01*
X238408115Y-59806738D01*
X238434564Y-59726995D01*
X238461632Y-59645389D01*
X238461632Y-59645387D01*
X238463797Y-59638861D01*
X238474500Y-59534400D01*
X238474500Y-57833600D01*
X238472789Y-57817107D01*
X238464238Y-57734693D01*
X238464237Y-57734689D01*
X238463526Y-57727835D01*
X238460654Y-57719225D01*
X238409868Y-57567003D01*
X238407550Y-57560055D01*
X238314478Y-57409652D01*
X238189303Y-57284695D01*
X238152477Y-57261995D01*
X238044968Y-57195725D01*
X238044966Y-57195724D01*
X238038738Y-57191885D01*
X237958995Y-57165436D01*
X237877389Y-57138368D01*
X237877387Y-57138368D01*
X237870861Y-57136203D01*
X237864025Y-57135503D01*
X237864022Y-57135502D01*
X237820969Y-57131091D01*
X237766400Y-57125500D01*
X236787080Y-57125500D01*
X236718959Y-57105498D01*
X236672466Y-57051842D01*
X236662362Y-56981568D01*
X236691856Y-56916988D01*
X236741926Y-56881869D01*
X236793486Y-56862077D01*
X236870453Y-56832532D01*
X236951723Y-56791123D01*
X237213854Y-56657561D01*
X237213861Y-56657557D01*
X237216795Y-56656062D01*
X237229766Y-56647639D01*
X237540029Y-56446152D01*
X237540030Y-56446152D01*
X237542793Y-56444357D01*
X237717854Y-56302595D01*
X237842314Y-56201809D01*
X237842318Y-56201806D01*
X237844876Y-56199734D01*
X238119734Y-55924876D01*
X238364357Y-55622793D01*
X238391176Y-55581495D01*
X238527827Y-55371070D01*
X238581704Y-55324833D01*
X238652025Y-55315063D01*
X238716465Y-55344863D01*
G37*
%TD.AperFunction*%
%TA.AperFunction,Conductor*%
G36*
X219644636Y-65865769D02*
G01*
X219677399Y-65885145D01*
X219685010Y-65887356D01*
X219685012Y-65887357D01*
X219730534Y-65900582D01*
X219837169Y-65931562D01*
X219843574Y-65932066D01*
X219843579Y-65932067D01*
X219872042Y-65934307D01*
X219872050Y-65934307D01*
X219874498Y-65934500D01*
X220196652Y-65934500D01*
X220264773Y-65954502D01*
X220311266Y-66008158D01*
X220321370Y-66078432D01*
X220291876Y-66143012D01*
X220268528Y-66162292D01*
X220269248Y-66163282D01*
X220114747Y-66275534D01*
X220110326Y-66280444D01*
X220110325Y-66280445D01*
X220049859Y-66347600D01*
X219986960Y-66417456D01*
X219891473Y-66582844D01*
X219832458Y-66764472D01*
X219831768Y-66771033D01*
X219831768Y-66771035D01*
X219816681Y-66914579D01*
X219812496Y-66954400D01*
X219813186Y-66960965D01*
X219831751Y-67137598D01*
X219832458Y-67144328D01*
X219891473Y-67325956D01*
X219894776Y-67331678D01*
X219894777Y-67331679D01*
X219912780Y-67362861D01*
X219986960Y-67491344D01*
X219991378Y-67496251D01*
X219991379Y-67496252D01*
X220091909Y-67607902D01*
X220114747Y-67633266D01*
X220199157Y-67694594D01*
X220261893Y-67740174D01*
X220269248Y-67745518D01*
X220275276Y-67748202D01*
X220275278Y-67748203D01*
X220432194Y-67818066D01*
X220443712Y-67823194D01*
X220525765Y-67840635D01*
X220624056Y-67861528D01*
X220624061Y-67861528D01*
X220630513Y-67862900D01*
X220821487Y-67862900D01*
X220827939Y-67861528D01*
X220827944Y-67861528D01*
X220926235Y-67840635D01*
X221008288Y-67823194D01*
X221019806Y-67818066D01*
X221176722Y-67748203D01*
X221176724Y-67748202D01*
X221182752Y-67745518D01*
X221190108Y-67740174D01*
X221329836Y-67638655D01*
X221337253Y-67633266D01*
X221341668Y-67628363D01*
X221346580Y-67623940D01*
X221347705Y-67625189D01*
X221401014Y-67592349D01*
X221434200Y-67587900D01*
X221606250Y-67587900D01*
X221674371Y-67607902D01*
X221720864Y-67661558D01*
X221725773Y-67674023D01*
X221735814Y-67704118D01*
X221738746Y-67712907D01*
X221742598Y-67719131D01*
X221742598Y-67719132D01*
X221755619Y-67740174D01*
X221830284Y-67860831D01*
X221835466Y-67866004D01*
X221840013Y-67871741D01*
X221838413Y-67873009D01*
X221867596Y-67926334D01*
X221870500Y-67953232D01*
X221870500Y-68704433D01*
X221869973Y-68715616D01*
X221868298Y-68723109D01*
X221868547Y-68731035D01*
X221868547Y-68731036D01*
X221870438Y-68791186D01*
X221870500Y-68795145D01*
X221870500Y-68823056D01*
X221870997Y-68826990D01*
X221870997Y-68826991D01*
X221871005Y-68827056D01*
X221871938Y-68838893D01*
X221873327Y-68883089D01*
X221878263Y-68900078D01*
X221878978Y-68902539D01*
X221882987Y-68921900D01*
X221885526Y-68941997D01*
X221888445Y-68949368D01*
X221888445Y-68949370D01*
X221901804Y-68983112D01*
X221905649Y-68994342D01*
X221917982Y-69036793D01*
X221922015Y-69043612D01*
X221922017Y-69043617D01*
X221928293Y-69054228D01*
X221936988Y-69071976D01*
X221944448Y-69090817D01*
X221949111Y-69097235D01*
X221949113Y-69097239D01*
X221953637Y-69103466D01*
X221977700Y-69177525D01*
X221977700Y-69577472D01*
X221978037Y-69580718D01*
X221978037Y-69580722D01*
X221987346Y-69670437D01*
X221988493Y-69681493D01*
X221990674Y-69688029D01*
X221990674Y-69688031D01*
X222017735Y-69769141D01*
X222043546Y-69846507D01*
X222135084Y-69994431D01*
X222167341Y-70026631D01*
X222201420Y-70088912D01*
X222196418Y-70159732D01*
X222167496Y-70204822D01*
X222139837Y-70232529D01*
X222130825Y-70243940D01*
X222047288Y-70379463D01*
X222041145Y-70392638D01*
X222017262Y-70464641D01*
X221976831Y-70523001D01*
X221911267Y-70550237D01*
X221841385Y-70537703D01*
X221831558Y-70532236D01*
X221739138Y-70475267D01*
X221687968Y-70443725D01*
X221687966Y-70443724D01*
X221681738Y-70439885D01*
X221521254Y-70386655D01*
X221520389Y-70386368D01*
X221520387Y-70386368D01*
X221513861Y-70384203D01*
X221507025Y-70383503D01*
X221507022Y-70383502D01*
X221463969Y-70379091D01*
X221409400Y-70373500D01*
X219708600Y-70373500D01*
X219705354Y-70373837D01*
X219705350Y-70373837D01*
X219609693Y-70383762D01*
X219609689Y-70383763D01*
X219602835Y-70384474D01*
X219596299Y-70386655D01*
X219596297Y-70386655D01*
X219464195Y-70430728D01*
X219435055Y-70440450D01*
X219284652Y-70533522D01*
X219159695Y-70658697D01*
X219155855Y-70664927D01*
X219155854Y-70664928D01*
X219119368Y-70724119D01*
X219066595Y-70771613D01*
X218996524Y-70783036D01*
X218931400Y-70754762D01*
X218916240Y-70738554D01*
X218915938Y-70738826D01*
X218813312Y-70624848D01*
X218782594Y-70560841D01*
X218791359Y-70490387D01*
X218799172Y-70475267D01*
X218820600Y-70439885D01*
X218859472Y-70375699D01*
X218866430Y-70353498D01*
X218898985Y-70249612D01*
X218910753Y-70212062D01*
X218915516Y-70160223D01*
X218941666Y-70094219D01*
X218999351Y-70052830D01*
X219052556Y-70046629D01*
X219055713Y-70047300D01*
X219246687Y-70047300D01*
X219253139Y-70045928D01*
X219253144Y-70045928D01*
X219367548Y-70021610D01*
X219433488Y-70007594D01*
X219439519Y-70004909D01*
X219601922Y-69932603D01*
X219601924Y-69932602D01*
X219607952Y-69929918D01*
X219762453Y-69817666D01*
X219839478Y-69732121D01*
X219885821Y-69680652D01*
X219885822Y-69680651D01*
X219890240Y-69675744D01*
X219985727Y-69510356D01*
X220044742Y-69328728D01*
X220064704Y-69138800D01*
X220063925Y-69131392D01*
X220045432Y-68955435D01*
X220045432Y-68955433D01*
X220044742Y-68948872D01*
X219985727Y-68767244D01*
X219981555Y-68760017D01*
X219910739Y-68637361D01*
X219890240Y-68601856D01*
X219814426Y-68517655D01*
X219783708Y-68453649D01*
X219782124Y-68437301D01*
X219782122Y-68437236D01*
X219781873Y-68429310D01*
X219776222Y-68409858D01*
X219772214Y-68390506D01*
X219770667Y-68378263D01*
X219769674Y-68370403D01*
X219766756Y-68363032D01*
X219753400Y-68329297D01*
X219749555Y-68318070D01*
X219747919Y-68312439D01*
X219737218Y-68275607D01*
X219733184Y-68268785D01*
X219733181Y-68268779D01*
X219726906Y-68258168D01*
X219718210Y-68240418D01*
X219713672Y-68228956D01*
X219713669Y-68228951D01*
X219710752Y-68221583D01*
X219698101Y-68204170D01*
X219684773Y-68185825D01*
X219678257Y-68175907D01*
X219659775Y-68144657D01*
X219655742Y-68137837D01*
X219641418Y-68123513D01*
X219628576Y-68108478D01*
X219622303Y-68099844D01*
X219616672Y-68092093D01*
X219582606Y-68063911D01*
X219573827Y-68055922D01*
X219491405Y-67973500D01*
X219457379Y-67911188D01*
X219454500Y-67884405D01*
X219454500Y-65974224D01*
X219474502Y-65906103D01*
X219528158Y-65859610D01*
X219598432Y-65849506D01*
X219644636Y-65865769D01*
G37*
%TD.AperFunction*%
%TA.AperFunction,Conductor*%
G36*
X197821012Y-55495377D02*
G01*
X197844172Y-55521976D01*
X197909643Y-55622793D01*
X198154266Y-55924876D01*
X198429124Y-56199734D01*
X198431682Y-56201806D01*
X198431686Y-56201809D01*
X198556146Y-56302595D01*
X198731207Y-56444357D01*
X198733970Y-56446152D01*
X198733971Y-56446152D01*
X199044235Y-56647639D01*
X199057205Y-56656062D01*
X199060139Y-56657557D01*
X199060146Y-56657561D01*
X199322277Y-56791123D01*
X199403547Y-56832532D01*
X199568887Y-56896000D01*
X199693720Y-56943919D01*
X199766438Y-56971833D01*
X200141901Y-57072438D01*
X200345793Y-57104732D01*
X200522576Y-57132732D01*
X200522584Y-57132733D01*
X200525824Y-57133246D01*
X200914000Y-57153589D01*
X201302176Y-57133246D01*
X201305416Y-57132733D01*
X201305424Y-57132732D01*
X201482207Y-57104732D01*
X201686099Y-57072438D01*
X202061562Y-56971833D01*
X202134281Y-56943919D01*
X202259113Y-56896000D01*
X202424453Y-56832532D01*
X202505723Y-56791123D01*
X202767854Y-56657561D01*
X202767861Y-56657557D01*
X202770795Y-56656062D01*
X202783766Y-56647639D01*
X203094029Y-56446152D01*
X203094030Y-56446152D01*
X203096793Y-56444357D01*
X203271854Y-56302595D01*
X203396314Y-56201809D01*
X203396318Y-56201806D01*
X203398876Y-56199734D01*
X203621405Y-55977205D01*
X203683717Y-55943179D01*
X203754532Y-55948244D01*
X203811368Y-55990791D01*
X203836179Y-56057311D01*
X203836500Y-56066300D01*
X203836500Y-57301233D01*
X203835973Y-57312416D01*
X203834298Y-57319909D01*
X203834547Y-57327835D01*
X203834547Y-57327836D01*
X203836438Y-57387986D01*
X203836500Y-57391945D01*
X203836500Y-57419856D01*
X203836997Y-57423790D01*
X203836997Y-57423791D01*
X203837005Y-57423856D01*
X203837938Y-57435693D01*
X203839327Y-57479889D01*
X203844356Y-57497199D01*
X203844978Y-57499339D01*
X203848987Y-57518700D01*
X203851526Y-57538797D01*
X203854445Y-57546168D01*
X203854445Y-57546170D01*
X203867804Y-57579912D01*
X203871649Y-57591142D01*
X203879124Y-57616871D01*
X203883982Y-57633593D01*
X203888015Y-57640412D01*
X203888017Y-57640417D01*
X203894293Y-57651028D01*
X203902988Y-57668776D01*
X203910448Y-57687617D01*
X203915110Y-57694033D01*
X203915110Y-57694034D01*
X203936436Y-57723387D01*
X203942952Y-57733307D01*
X203965458Y-57771362D01*
X203979779Y-57785683D01*
X203992619Y-57800716D01*
X204004528Y-57817107D01*
X204029573Y-57837826D01*
X204038605Y-57845298D01*
X204047384Y-57853288D01*
X204439778Y-58245682D01*
X204473804Y-58307994D01*
X204472100Y-58368448D01*
X204450989Y-58444570D01*
X204450441Y-58449700D01*
X204450440Y-58449704D01*
X204446933Y-58482522D01*
X204427251Y-58666695D01*
X204427548Y-58671848D01*
X204427548Y-58671851D01*
X204438829Y-58867500D01*
X204440110Y-58889715D01*
X204441247Y-58894761D01*
X204441248Y-58894767D01*
X204458443Y-58971064D01*
X204489222Y-59107639D01*
X204573266Y-59314616D01*
X204575966Y-59319022D01*
X204575968Y-59319026D01*
X204586327Y-59335930D01*
X204604867Y-59404463D01*
X204583412Y-59472140D01*
X204547911Y-59504586D01*
X204548893Y-59505938D01*
X204546404Y-59507746D01*
X204513123Y-59531926D01*
X204503206Y-59538440D01*
X204465149Y-59560947D01*
X204450828Y-59575268D01*
X204435795Y-59588108D01*
X204419404Y-59600017D01*
X204411080Y-59610079D01*
X204391213Y-59634094D01*
X204383223Y-59642873D01*
X203092944Y-60933152D01*
X203030632Y-60967178D01*
X202959817Y-60962113D01*
X202902981Y-60919566D01*
X202896719Y-60910381D01*
X202806116Y-60763969D01*
X202760659Y-60718592D01*
X202726580Y-60656311D01*
X202731583Y-60585491D01*
X202760504Y-60540401D01*
X202801363Y-60499471D01*
X202810375Y-60488060D01*
X202893912Y-60352537D01*
X202900056Y-60339359D01*
X202950315Y-60187834D01*
X202953181Y-60174468D01*
X202962672Y-60081830D01*
X202963000Y-60075415D01*
X202963000Y-60063715D01*
X202958525Y-60048476D01*
X202957135Y-60047271D01*
X202949452Y-60045600D01*
X201802000Y-60045600D01*
X201733879Y-60025598D01*
X201687386Y-59971942D01*
X201676000Y-59919600D01*
X201676000Y-59519485D01*
X202184000Y-59519485D01*
X202188475Y-59534724D01*
X202189865Y-59535929D01*
X202197548Y-59537600D01*
X202944885Y-59537600D01*
X202960124Y-59533125D01*
X202961329Y-59531735D01*
X202963000Y-59524052D01*
X202963000Y-59507834D01*
X202962663Y-59501318D01*
X202952925Y-59407468D01*
X202950032Y-59394072D01*
X202899512Y-59242647D01*
X202893347Y-59229485D01*
X202809574Y-59094108D01*
X202800540Y-59082710D01*
X202687871Y-58970237D01*
X202676460Y-58961225D01*
X202540937Y-58877688D01*
X202527759Y-58871544D01*
X202376234Y-58821285D01*
X202362868Y-58818419D01*
X202270230Y-58808928D01*
X202263815Y-58808600D01*
X202202115Y-58808600D01*
X202186876Y-58813075D01*
X202185671Y-58814465D01*
X202184000Y-58822148D01*
X202184000Y-59519485D01*
X201676000Y-59519485D01*
X201676000Y-58826715D01*
X201671525Y-58811476D01*
X201670135Y-58810271D01*
X201662452Y-58808600D01*
X201596234Y-58808600D01*
X201589718Y-58808937D01*
X201495868Y-58818675D01*
X201482472Y-58821568D01*
X201331047Y-58872088D01*
X201317885Y-58878253D01*
X201182508Y-58962026D01*
X201171105Y-58971064D01*
X201144475Y-58997740D01*
X201082193Y-59031819D01*
X201011373Y-59026816D01*
X200966285Y-58997895D01*
X200964846Y-58996458D01*
X200933003Y-58964671D01*
X200902892Y-58946110D01*
X200791150Y-58877231D01*
X200791148Y-58877230D01*
X200784920Y-58873391D01*
X200619809Y-58818626D01*
X200612973Y-58817926D01*
X200612970Y-58817925D01*
X200561474Y-58812649D01*
X200517072Y-58808100D01*
X199842928Y-58808100D01*
X199839682Y-58808437D01*
X199839678Y-58808437D01*
X199745765Y-58818181D01*
X199745761Y-58818182D01*
X199738907Y-58818893D01*
X199732371Y-58821074D01*
X199732369Y-58821074D01*
X199599811Y-58865299D01*
X199573893Y-58873946D01*
X199425969Y-58965484D01*
X199420796Y-58970666D01*
X199308242Y-59083416D01*
X199308238Y-59083421D01*
X199303071Y-59088597D01*
X199299231Y-59094827D01*
X199299230Y-59094828D01*
X199233285Y-59201811D01*
X199211791Y-59236680D01*
X199157026Y-59401791D01*
X199156326Y-59408627D01*
X199156325Y-59408630D01*
X199151049Y-59460126D01*
X199146500Y-59504528D01*
X199146500Y-60078672D01*
X199146837Y-60081918D01*
X199146837Y-60081922D01*
X199156552Y-60175550D01*
X199157293Y-60182693D01*
X199159474Y-60189229D01*
X199159474Y-60189231D01*
X199173909Y-60232498D01*
X199212346Y-60347707D01*
X199303884Y-60495631D01*
X199348733Y-60540401D01*
X199348986Y-60540654D01*
X199383066Y-60602937D01*
X199378063Y-60673757D01*
X199349143Y-60718844D01*
X199303071Y-60764997D01*
X199299231Y-60771227D01*
X199299230Y-60771228D01*
X199245387Y-60858578D01*
X199211791Y-60913080D01*
X199157026Y-61078191D01*
X199156326Y-61085027D01*
X199156325Y-61085030D01*
X199151350Y-61133595D01*
X199146500Y-61180928D01*
X199146500Y-61755072D01*
X199146837Y-61758318D01*
X199146837Y-61758322D01*
X199156581Y-61852227D01*
X199157293Y-61859093D01*
X199159474Y-61865629D01*
X199159474Y-61865631D01*
X199202615Y-61994940D01*
X199212346Y-62024107D01*
X199303884Y-62172031D01*
X199309066Y-62177204D01*
X199405510Y-62273480D01*
X199439589Y-62335762D01*
X199434586Y-62406583D01*
X199410128Y-62446963D01*
X199311360Y-62556656D01*
X199215873Y-62722044D01*
X199156858Y-62903672D01*
X199156168Y-62910233D01*
X199156168Y-62910235D01*
X199141584Y-63048995D01*
X199136896Y-63093600D01*
X199137586Y-63100165D01*
X199155495Y-63270556D01*
X199156858Y-63283528D01*
X199215873Y-63465156D01*
X199219176Y-63470878D01*
X199219177Y-63470879D01*
X199224443Y-63480000D01*
X199311360Y-63630544D01*
X199315778Y-63635451D01*
X199315779Y-63635452D01*
X199397852Y-63726603D01*
X199439147Y-63772466D01*
X199593648Y-63884718D01*
X199599676Y-63887402D01*
X199599678Y-63887403D01*
X199762081Y-63959709D01*
X199768112Y-63962394D01*
X199861512Y-63982247D01*
X199948456Y-64000728D01*
X199948461Y-64000728D01*
X199954913Y-64002100D01*
X200145887Y-64002100D01*
X200152339Y-64000728D01*
X200152344Y-64000728D01*
X200239288Y-63982247D01*
X200332688Y-63962394D01*
X200338719Y-63959709D01*
X200501122Y-63887403D01*
X200501124Y-63887402D01*
X200507152Y-63884718D01*
X200661653Y-63772466D01*
X200666068Y-63767563D01*
X200670980Y-63763140D01*
X200672105Y-63764389D01*
X200725414Y-63731549D01*
X200758600Y-63727100D01*
X201749633Y-63727100D01*
X201760816Y-63727627D01*
X201768309Y-63729302D01*
X201776235Y-63729053D01*
X201776236Y-63729053D01*
X201836386Y-63727162D01*
X201840345Y-63727100D01*
X201868256Y-63727100D01*
X201872191Y-63726603D01*
X201872256Y-63726595D01*
X201884093Y-63725662D01*
X201916351Y-63724648D01*
X201920370Y-63724522D01*
X201928289Y-63724273D01*
X201947743Y-63718621D01*
X201967100Y-63714613D01*
X201979330Y-63713068D01*
X201979331Y-63713068D01*
X201987197Y-63712074D01*
X201994568Y-63709155D01*
X201994570Y-63709155D01*
X202028312Y-63695796D01*
X202039542Y-63691951D01*
X202074383Y-63681829D01*
X202074384Y-63681829D01*
X202081993Y-63679618D01*
X202088812Y-63675585D01*
X202088817Y-63675583D01*
X202099428Y-63669307D01*
X202117176Y-63660612D01*
X202136017Y-63653152D01*
X202171787Y-63627164D01*
X202181707Y-63620648D01*
X202212935Y-63602180D01*
X202212938Y-63602178D01*
X202219762Y-63598142D01*
X202234083Y-63583821D01*
X202249117Y-63570980D01*
X202259094Y-63563731D01*
X202265507Y-63559072D01*
X202293698Y-63524995D01*
X202301688Y-63516216D01*
X204268832Y-61549072D01*
X204331144Y-61515046D01*
X204401959Y-61520111D01*
X204458795Y-61562658D01*
X204480844Y-61610464D01*
X204489222Y-61647639D01*
X204573266Y-61854616D01*
X204589506Y-61881117D01*
X204681845Y-62031801D01*
X204689987Y-62045088D01*
X204836250Y-62213938D01*
X205008126Y-62356632D01*
X205048335Y-62380128D01*
X205081955Y-62399774D01*
X205130679Y-62451412D01*
X205143750Y-62521195D01*
X205117019Y-62586967D01*
X205076562Y-62620327D01*
X205068457Y-62624546D01*
X205059738Y-62630036D01*
X204889433Y-62757905D01*
X204881726Y-62764748D01*
X204734590Y-62918717D01*
X204728104Y-62926727D01*
X204608098Y-63102649D01*
X204603000Y-63111623D01*
X204513338Y-63304783D01*
X204509775Y-63314470D01*
X204454389Y-63514183D01*
X204455912Y-63522607D01*
X204468292Y-63526000D01*
X207108344Y-63526000D01*
X207121875Y-63522027D01*
X207123180Y-63512947D01*
X207081214Y-63345875D01*
X207077894Y-63336124D01*
X206992972Y-63140814D01*
X206988105Y-63131739D01*
X206872426Y-62952926D01*
X206866136Y-62944757D01*
X206722806Y-62787240D01*
X206715273Y-62780215D01*
X206548139Y-62648222D01*
X206539556Y-62642520D01*
X206502602Y-62622120D01*
X206452631Y-62571687D01*
X206437859Y-62502245D01*
X206462975Y-62435839D01*
X206490327Y-62409232D01*
X206522604Y-62386209D01*
X206669860Y-62281173D01*
X206828096Y-62123489D01*
X206831517Y-62118729D01*
X206958453Y-61942077D01*
X206960065Y-61943235D01*
X207007390Y-61901453D01*
X207077567Y-61890698D01*
X207142419Y-61919590D01*
X207154429Y-61931266D01*
X207205512Y-61987999D01*
X207215307Y-61998878D01*
X207301146Y-62061244D01*
X207364322Y-62107144D01*
X207369808Y-62111130D01*
X207375836Y-62113814D01*
X207375838Y-62113815D01*
X207518213Y-62177204D01*
X207544272Y-62188806D01*
X207637672Y-62208659D01*
X207724616Y-62227140D01*
X207724621Y-62227140D01*
X207731073Y-62228512D01*
X207884714Y-62228512D01*
X207952835Y-62248514D01*
X207999328Y-62302170D01*
X208010714Y-62354512D01*
X208010714Y-65860634D01*
X207990712Y-65928755D01*
X207937056Y-65975248D01*
X207884714Y-65986634D01*
X207782037Y-65986634D01*
X207775585Y-65988006D01*
X207775580Y-65988006D01*
X207688637Y-66006487D01*
X207595236Y-66026340D01*
X207589206Y-66029025D01*
X207589205Y-66029025D01*
X207426802Y-66101331D01*
X207426800Y-66101332D01*
X207420772Y-66104016D01*
X207415431Y-66107896D01*
X207415430Y-66107897D01*
X207331199Y-66169095D01*
X207264332Y-66192953D01*
X207195180Y-66176873D01*
X207145700Y-66125959D01*
X207135969Y-66097080D01*
X207134852Y-66097361D01*
X207131482Y-66083945D01*
X207080431Y-65880702D01*
X206991354Y-65675840D01*
X206915666Y-65558844D01*
X206872822Y-65492617D01*
X206872820Y-65492614D01*
X206870014Y-65488277D01*
X206719670Y-65323051D01*
X206715619Y-65319852D01*
X206715615Y-65319848D01*
X206548414Y-65187800D01*
X206548410Y-65187798D01*
X206544359Y-65184598D01*
X206502569Y-65161529D01*
X206452598Y-65111097D01*
X206437826Y-65041654D01*
X206462942Y-64975248D01*
X206490294Y-64948641D01*
X206665328Y-64823792D01*
X206673200Y-64817139D01*
X206824052Y-64666812D01*
X206830730Y-64658965D01*
X206955003Y-64486020D01*
X206960313Y-64477183D01*
X207054670Y-64286267D01*
X207058469Y-64276672D01*
X207120377Y-64072910D01*
X207122555Y-64062837D01*
X207123986Y-64051962D01*
X207121775Y-64037778D01*
X207108617Y-64034000D01*
X204473225Y-64034000D01*
X204459694Y-64037973D01*
X204458257Y-64047966D01*
X204488565Y-64182446D01*
X204491645Y-64192275D01*
X204571770Y-64389603D01*
X204576413Y-64398794D01*
X204687694Y-64580388D01*
X204693777Y-64588699D01*
X204833213Y-64749667D01*
X204840580Y-64756883D01*
X205004434Y-64892916D01*
X205012881Y-64898831D01*
X205081969Y-64939203D01*
X205130693Y-64990842D01*
X205143764Y-65060625D01*
X205117033Y-65126396D01*
X205076584Y-65159752D01*
X205063607Y-65166507D01*
X205059474Y-65169610D01*
X205059471Y-65169612D01*
X204889100Y-65297530D01*
X204884965Y-65300635D01*
X204881393Y-65304373D01*
X204754780Y-65436866D01*
X204730629Y-65462138D01*
X204727715Y-65466410D01*
X204727714Y-65466411D01*
X204646391Y-65585627D01*
X204604743Y-65646680D01*
X204581329Y-65697122D01*
X204516220Y-65837388D01*
X204510688Y-65849305D01*
X204450989Y-66064570D01*
X204427251Y-66286695D01*
X204427548Y-66291848D01*
X204427548Y-66291851D01*
X204434790Y-66417456D01*
X204440110Y-66509715D01*
X204441247Y-66514761D01*
X204441248Y-66514767D01*
X204458007Y-66589129D01*
X204489222Y-66727639D01*
X204573266Y-66934616D01*
X204689987Y-67125088D01*
X204836250Y-67293938D01*
X205008126Y-67436632D01*
X205075941Y-67476260D01*
X205081445Y-67479476D01*
X205130169Y-67531114D01*
X205143240Y-67600897D01*
X205116509Y-67666669D01*
X205076055Y-67700027D01*
X205063607Y-67706507D01*
X205059474Y-67709610D01*
X205059471Y-67709612D01*
X204890873Y-67836199D01*
X204884965Y-67840635D01*
X204730629Y-68002138D01*
X204727715Y-68006410D01*
X204727714Y-68006411D01*
X204688490Y-68063912D01*
X204604743Y-68186680D01*
X204579799Y-68240418D01*
X204515814Y-68378263D01*
X204510688Y-68389305D01*
X204450989Y-68604570D01*
X204427251Y-68826695D01*
X204427548Y-68831848D01*
X204427548Y-68831851D01*
X204434324Y-68949370D01*
X204440110Y-69049715D01*
X204441247Y-69054761D01*
X204441248Y-69054767D01*
X204460186Y-69138800D01*
X204489222Y-69267639D01*
X204573266Y-69474616D01*
X204600280Y-69518699D01*
X204684707Y-69656471D01*
X204689987Y-69665088D01*
X204836250Y-69833938D01*
X205008126Y-69976632D01*
X205061111Y-70007594D01*
X205081445Y-70019476D01*
X205130169Y-70071114D01*
X205143240Y-70140897D01*
X205116509Y-70206669D01*
X205076055Y-70240027D01*
X205063607Y-70246507D01*
X205059474Y-70249610D01*
X205059471Y-70249612D01*
X204894031Y-70373828D01*
X204884965Y-70380635D01*
X204879212Y-70386655D01*
X204738863Y-70533522D01*
X204730629Y-70542138D01*
X204711604Y-70570028D01*
X204656694Y-70615029D01*
X204586169Y-70623200D01*
X204522422Y-70591946D01*
X204485810Y-70531633D01*
X204460756Y-70438132D01*
X204445833Y-70382438D01*
X204442532Y-70373837D01*
X204378893Y-70208054D01*
X204306532Y-70019547D01*
X204250468Y-69909515D01*
X204131561Y-69676147D01*
X204131557Y-69676140D01*
X204130062Y-69673206D01*
X204121934Y-69660689D01*
X203920152Y-69349971D01*
X203920152Y-69349970D01*
X203918357Y-69347207D01*
X203748758Y-69137771D01*
X203675809Y-69047686D01*
X203675806Y-69047682D01*
X203673734Y-69045124D01*
X203398876Y-68770266D01*
X203395145Y-68767244D01*
X203200603Y-68609707D01*
X203096793Y-68525643D01*
X203049088Y-68494663D01*
X202773564Y-68315736D01*
X202773561Y-68315734D01*
X202770795Y-68313938D01*
X202767861Y-68312443D01*
X202767854Y-68312439D01*
X202427393Y-68138966D01*
X202424453Y-68137468D01*
X202126687Y-68023166D01*
X202064652Y-67999353D01*
X202064650Y-67999352D01*
X202061562Y-67998167D01*
X201686099Y-67897562D01*
X201462468Y-67862142D01*
X201305424Y-67837268D01*
X201305416Y-67837267D01*
X201302176Y-67836754D01*
X200914000Y-67816411D01*
X200525824Y-67836754D01*
X200522584Y-67837267D01*
X200522576Y-67837268D01*
X200365532Y-67862142D01*
X200141901Y-67897562D01*
X199766438Y-67998167D01*
X199763350Y-67999352D01*
X199763348Y-67999353D01*
X199701313Y-68023166D01*
X199403547Y-68137468D01*
X199400607Y-68138966D01*
X199060147Y-68312439D01*
X199060140Y-68312443D01*
X199057206Y-68313938D01*
X199054440Y-68315734D01*
X199054437Y-68315736D01*
X198842069Y-68453649D01*
X198731207Y-68525643D01*
X198627397Y-68609707D01*
X198432856Y-68767244D01*
X198429124Y-68770266D01*
X198154266Y-69045124D01*
X198152194Y-69047682D01*
X198152191Y-69047686D01*
X198079242Y-69137771D01*
X197909643Y-69347207D01*
X197847793Y-69442449D01*
X197844173Y-69448023D01*
X197790297Y-69494260D01*
X197719975Y-69504030D01*
X197655536Y-69474230D01*
X197617436Y-69414322D01*
X197612500Y-69379399D01*
X197612500Y-55590601D01*
X197632502Y-55522480D01*
X197686158Y-55475987D01*
X197756432Y-55465883D01*
X197821012Y-55495377D01*
G37*
%TD.AperFunction*%
%TA.AperFunction,Conductor*%
G36*
X227760121Y-55252002D02*
G01*
X227806614Y-55305658D01*
X227818000Y-55358000D01*
X227818000Y-56775884D01*
X227822475Y-56791123D01*
X227823865Y-56792328D01*
X227828294Y-56793291D01*
X227887315Y-56787868D01*
X227900351Y-56785257D01*
X228050243Y-56738285D01*
X228063988Y-56732079D01*
X228197574Y-56651176D01*
X228209443Y-56641869D01*
X228319869Y-56531443D01*
X228329176Y-56519574D01*
X228410079Y-56385988D01*
X228416285Y-56372243D01*
X228463256Y-56222356D01*
X228465869Y-56209306D01*
X228471734Y-56145479D01*
X228472000Y-56139691D01*
X228472000Y-56052312D01*
X228492002Y-55984191D01*
X228545658Y-55937698D01*
X228615932Y-55927594D01*
X228680512Y-55957088D01*
X228687095Y-55963217D01*
X228689670Y-55965792D01*
X228723696Y-56028104D01*
X228726575Y-56054887D01*
X228726575Y-60077900D01*
X228706573Y-60146021D01*
X228652917Y-60192514D01*
X228600575Y-60203900D01*
X228453713Y-60203900D01*
X228447261Y-60205272D01*
X228447256Y-60205272D01*
X228360313Y-60223753D01*
X228266912Y-60243606D01*
X228260882Y-60246291D01*
X228260881Y-60246291D01*
X228231782Y-60259247D01*
X228161415Y-60268681D01*
X228097118Y-60238575D01*
X228086897Y-60228450D01*
X228047275Y-60184445D01*
X228047274Y-60184444D01*
X228042853Y-60179534D01*
X227910406Y-60083305D01*
X227893694Y-60071163D01*
X227893693Y-60071162D01*
X227888352Y-60067282D01*
X227882324Y-60064598D01*
X227882322Y-60064597D01*
X227719919Y-59992291D01*
X227719918Y-59992291D01*
X227713888Y-59989606D01*
X227592646Y-59963835D01*
X227533544Y-59951272D01*
X227533539Y-59951272D01*
X227527087Y-59949900D01*
X227336113Y-59949900D01*
X227329661Y-59951272D01*
X227329656Y-59951272D01*
X227270554Y-59963835D01*
X227149312Y-59989606D01*
X227143282Y-59992291D01*
X227143281Y-59992291D01*
X226980878Y-60064597D01*
X226980876Y-60064598D01*
X226974848Y-60067282D01*
X226969507Y-60071162D01*
X226969506Y-60071163D01*
X226952794Y-60083305D01*
X226820347Y-60179534D01*
X226815926Y-60184444D01*
X226815925Y-60184445D01*
X226715048Y-60296481D01*
X226692560Y-60321456D01*
X226597073Y-60486844D01*
X226538058Y-60668472D01*
X226521408Y-60826888D01*
X226520693Y-60833692D01*
X226493680Y-60899349D01*
X226484478Y-60909617D01*
X225667747Y-61726348D01*
X225659461Y-61733888D01*
X225652982Y-61738000D01*
X225647557Y-61743777D01*
X225606357Y-61787651D01*
X225603602Y-61790493D01*
X225583865Y-61810230D01*
X225581385Y-61813427D01*
X225573682Y-61822447D01*
X225543414Y-61854679D01*
X225539595Y-61861625D01*
X225539593Y-61861628D01*
X225533652Y-61872434D01*
X225522801Y-61888953D01*
X225510386Y-61904959D01*
X225507241Y-61912228D01*
X225507238Y-61912232D01*
X225492826Y-61945537D01*
X225487609Y-61956187D01*
X225466305Y-61994940D01*
X225464334Y-62002615D01*
X225464334Y-62002616D01*
X225461267Y-62014562D01*
X225454863Y-62033266D01*
X225450573Y-62043181D01*
X225446819Y-62051855D01*
X225445580Y-62059678D01*
X225445577Y-62059688D01*
X225439901Y-62095524D01*
X225437495Y-62107144D01*
X225433299Y-62123489D01*
X225426500Y-62149970D01*
X225426500Y-62170224D01*
X225424949Y-62189934D01*
X225421780Y-62209943D01*
X225422526Y-62217835D01*
X225425941Y-62253961D01*
X225426500Y-62265819D01*
X225426500Y-62317776D01*
X225406498Y-62385897D01*
X225352842Y-62432390D01*
X225282568Y-62442494D01*
X225236364Y-62426231D01*
X225203601Y-62406855D01*
X225195990Y-62404644D01*
X225195988Y-62404643D01*
X225111605Y-62380128D01*
X225043831Y-62360438D01*
X225037426Y-62359934D01*
X225037421Y-62359933D01*
X225008958Y-62357693D01*
X225008950Y-62357693D01*
X225006502Y-62357500D01*
X224573498Y-62357500D01*
X224571050Y-62357693D01*
X224571042Y-62357693D01*
X224542579Y-62359933D01*
X224542574Y-62359934D01*
X224536169Y-62360438D01*
X224468395Y-62380128D01*
X224384012Y-62404643D01*
X224384010Y-62404644D01*
X224376399Y-62406855D01*
X224369572Y-62410892D01*
X224369573Y-62410892D01*
X224240020Y-62487509D01*
X224240017Y-62487511D01*
X224233193Y-62491547D01*
X224115547Y-62609193D01*
X224111511Y-62616017D01*
X224111509Y-62616020D01*
X224048807Y-62722044D01*
X224030855Y-62752399D01*
X224028644Y-62760010D01*
X224028643Y-62760012D01*
X224020733Y-62787240D01*
X223984438Y-62912169D01*
X223983933Y-62918581D01*
X223982775Y-62924922D01*
X223981430Y-62924676D01*
X223958699Y-62984328D01*
X223901564Y-63026471D01*
X223862325Y-63034045D01*
X223853549Y-63034321D01*
X223821524Y-63035327D01*
X223804158Y-63040372D01*
X223802072Y-63040978D01*
X223782720Y-63044986D01*
X223770482Y-63046532D01*
X223770480Y-63046533D01*
X223762617Y-63047526D01*
X223721500Y-63063806D01*
X223710299Y-63067641D01*
X223667820Y-63079982D01*
X223661001Y-63084015D01*
X223660996Y-63084017D01*
X223650385Y-63090293D01*
X223632635Y-63098990D01*
X223613797Y-63106448D01*
X223607381Y-63111109D01*
X223607380Y-63111110D01*
X223578039Y-63132428D01*
X223568115Y-63138947D01*
X223536874Y-63157422D01*
X223536869Y-63157426D01*
X223530051Y-63161458D01*
X223515727Y-63175782D01*
X223500695Y-63188621D01*
X223484307Y-63200528D01*
X223482899Y-63202230D01*
X223421817Y-63233131D01*
X223402888Y-63235166D01*
X223397114Y-63235348D01*
X223393144Y-63235411D01*
X223365233Y-63235411D01*
X223361299Y-63235908D01*
X223361298Y-63235908D01*
X223361233Y-63235916D01*
X223349396Y-63236849D01*
X223317579Y-63237849D01*
X223313118Y-63237989D01*
X223305199Y-63238238D01*
X223287543Y-63243367D01*
X223285747Y-63243889D01*
X223266395Y-63247897D01*
X223259324Y-63248791D01*
X223246292Y-63250437D01*
X223238923Y-63253354D01*
X223238921Y-63253355D01*
X223205186Y-63266711D01*
X223193958Y-63270556D01*
X223151496Y-63282893D01*
X223144673Y-63286928D01*
X223144671Y-63286929D01*
X223134061Y-63293204D01*
X223116313Y-63301899D01*
X223097472Y-63309359D01*
X223091056Y-63314021D01*
X223091055Y-63314021D01*
X223061702Y-63335347D01*
X223051782Y-63341863D01*
X223020554Y-63360331D01*
X223020551Y-63360333D01*
X223013727Y-63364369D01*
X222999406Y-63378690D01*
X222984373Y-63391530D01*
X222967982Y-63403439D01*
X222961988Y-63410685D01*
X222939801Y-63437504D01*
X222931811Y-63446285D01*
X222264142Y-64113953D01*
X222255863Y-64121487D01*
X222249382Y-64125600D01*
X222202757Y-64175251D01*
X222200002Y-64178093D01*
X222180265Y-64197830D01*
X222177785Y-64201027D01*
X222170082Y-64210047D01*
X222139814Y-64242279D01*
X222135995Y-64249225D01*
X222135993Y-64249228D01*
X222130052Y-64260034D01*
X222119201Y-64276553D01*
X222106786Y-64292559D01*
X222103641Y-64299828D01*
X222103638Y-64299832D01*
X222089226Y-64333137D01*
X222084009Y-64343787D01*
X222062705Y-64382540D01*
X222062203Y-64384494D01*
X222020149Y-64438394D01*
X222013001Y-64443164D01*
X221952369Y-64480684D01*
X221947196Y-64485866D01*
X221834642Y-64598616D01*
X221834638Y-64598621D01*
X221829471Y-64603797D01*
X221825631Y-64610027D01*
X221825630Y-64610028D01*
X221748287Y-64735502D01*
X221738191Y-64751880D01*
X221683426Y-64916991D01*
X221682726Y-64923827D01*
X221682725Y-64923830D01*
X221678723Y-64962894D01*
X221672900Y-65019728D01*
X221672900Y-65693872D01*
X221673237Y-65697118D01*
X221673237Y-65697122D01*
X221682797Y-65789255D01*
X221683693Y-65797893D01*
X221685874Y-65804429D01*
X221685874Y-65804431D01*
X221713541Y-65887358D01*
X221738746Y-65962907D01*
X221830284Y-66110831D01*
X221835468Y-66116006D01*
X221835965Y-66116633D01*
X221862605Y-66182442D01*
X221849436Y-66252206D01*
X221800640Y-66303777D01*
X221737222Y-66320900D01*
X221434200Y-66320900D01*
X221366079Y-66300898D01*
X221346853Y-66284557D01*
X221346580Y-66284860D01*
X221341668Y-66280437D01*
X221337253Y-66275534D01*
X221269625Y-66226399D01*
X221188094Y-66167163D01*
X221188093Y-66167162D01*
X221182752Y-66163282D01*
X221176724Y-66160598D01*
X221176722Y-66160597D01*
X221014319Y-66088291D01*
X221014318Y-66088291D01*
X221008288Y-66085606D01*
X220909322Y-66064570D01*
X220827944Y-66047272D01*
X220827939Y-66047272D01*
X220821487Y-66045900D01*
X220693356Y-66045900D01*
X220625235Y-66025898D01*
X220578742Y-65972242D01*
X220568638Y-65901968D01*
X220598132Y-65837388D01*
X220629212Y-65811450D01*
X220647807Y-65800453D01*
X220765453Y-65682807D01*
X220769489Y-65675983D01*
X220769491Y-65675980D01*
X220846108Y-65546427D01*
X220850145Y-65539601D01*
X220853462Y-65528186D01*
X220872650Y-65462138D01*
X220896562Y-65379831D01*
X220899500Y-65342502D01*
X220899500Y-63559498D01*
X220898986Y-63552966D01*
X220897067Y-63528579D01*
X220897066Y-63528574D01*
X220896562Y-63522169D01*
X220858609Y-63391531D01*
X220852357Y-63370012D01*
X220852356Y-63370010D01*
X220850145Y-63362399D01*
X220814369Y-63301905D01*
X220769491Y-63226020D01*
X220769489Y-63226017D01*
X220765453Y-63219193D01*
X220647807Y-63101547D01*
X220640983Y-63097511D01*
X220640980Y-63097509D01*
X220531055Y-63032500D01*
X220504601Y-63016855D01*
X220496990Y-63014644D01*
X220496988Y-63014643D01*
X220429578Y-62995059D01*
X220344831Y-62970438D01*
X220338426Y-62969934D01*
X220338421Y-62969933D01*
X220309958Y-62967693D01*
X220309950Y-62967693D01*
X220307502Y-62967500D01*
X220305035Y-62967500D01*
X220302561Y-62967403D01*
X220302589Y-62966690D01*
X220237225Y-62947498D01*
X220190732Y-62893842D01*
X220180628Y-62823568D01*
X220196227Y-62778500D01*
X220236423Y-62708879D01*
X220236424Y-62708878D01*
X220239727Y-62703156D01*
X220298742Y-62521528D01*
X220299547Y-62513875D01*
X220318014Y-62338165D01*
X220318704Y-62331600D01*
X220315611Y-62302170D01*
X220299432Y-62148235D01*
X220299432Y-62148233D01*
X220298742Y-62141672D01*
X220239727Y-61960044D01*
X220232767Y-61947988D01*
X220199690Y-61890698D01*
X220144240Y-61794656D01*
X220139219Y-61789079D01*
X220020875Y-61657645D01*
X220020874Y-61657644D01*
X220016453Y-61652734D01*
X219873775Y-61549072D01*
X219867294Y-61544363D01*
X219867293Y-61544362D01*
X219861952Y-61540482D01*
X219855924Y-61537798D01*
X219855922Y-61537797D01*
X219693519Y-61465491D01*
X219693518Y-61465491D01*
X219687488Y-61462806D01*
X219594087Y-61442953D01*
X219507144Y-61424472D01*
X219507139Y-61424472D01*
X219500687Y-61423100D01*
X219309713Y-61423100D01*
X219303261Y-61424472D01*
X219303256Y-61424472D01*
X219216313Y-61442953D01*
X219122912Y-61462806D01*
X219116882Y-61465491D01*
X219116881Y-61465491D01*
X218954478Y-61537797D01*
X218954476Y-61537798D01*
X218948448Y-61540482D01*
X218943107Y-61544362D01*
X218943106Y-61544363D01*
X218936625Y-61549072D01*
X218793947Y-61652734D01*
X218789526Y-61657644D01*
X218789525Y-61657645D01*
X218671182Y-61789079D01*
X218666160Y-61794656D01*
X218610710Y-61890698D01*
X218577634Y-61947988D01*
X218570673Y-61960044D01*
X218568632Y-61966326D01*
X218545609Y-62037182D01*
X218505535Y-62095787D01*
X218440138Y-62123424D01*
X218370181Y-62111317D01*
X218316658Y-62061246D01*
X218293982Y-62021970D01*
X218263395Y-61987999D01*
X218170617Y-61884959D01*
X218170616Y-61884958D01*
X218166195Y-61880048D01*
X218055968Y-61799963D01*
X218017036Y-61771677D01*
X218017035Y-61771676D01*
X218011694Y-61767796D01*
X218005666Y-61765112D01*
X218005664Y-61765111D01*
X217843261Y-61692805D01*
X217843260Y-61692805D01*
X217837230Y-61690120D01*
X217821794Y-61686839D01*
X217814926Y-61685379D01*
X217752452Y-61651652D01*
X217718130Y-61589502D01*
X217722857Y-61518663D01*
X217765132Y-61461625D01*
X217831533Y-61436497D01*
X217837471Y-61436548D01*
X217837461Y-61436222D01*
X217858170Y-61435571D01*
X217905538Y-61434082D01*
X217909497Y-61434020D01*
X217937408Y-61434020D01*
X217941343Y-61433523D01*
X217941408Y-61433515D01*
X217953245Y-61432582D01*
X217985503Y-61431568D01*
X217989522Y-61431442D01*
X217997441Y-61431193D01*
X218016895Y-61425541D01*
X218036252Y-61421533D01*
X218048482Y-61419988D01*
X218048483Y-61419988D01*
X218056349Y-61418994D01*
X218063720Y-61416075D01*
X218063722Y-61416075D01*
X218097464Y-61402716D01*
X218108694Y-61398871D01*
X218143535Y-61388749D01*
X218143536Y-61388749D01*
X218151145Y-61386538D01*
X218157964Y-61382505D01*
X218157969Y-61382503D01*
X218168580Y-61376227D01*
X218186328Y-61367532D01*
X218205169Y-61360072D01*
X218240939Y-61334084D01*
X218250859Y-61327568D01*
X218282087Y-61309100D01*
X218282090Y-61309098D01*
X218288914Y-61305062D01*
X218303235Y-61290741D01*
X218318269Y-61277900D01*
X218319983Y-61276655D01*
X218334659Y-61265992D01*
X218362850Y-61231915D01*
X218370840Y-61223136D01*
X218572571Y-61021405D01*
X218634883Y-60987379D01*
X218661666Y-60984500D01*
X219037502Y-60984500D01*
X219039950Y-60984307D01*
X219039958Y-60984307D01*
X219068421Y-60982067D01*
X219068426Y-60982066D01*
X219074831Y-60981562D01*
X219174769Y-60952528D01*
X219226988Y-60937357D01*
X219226990Y-60937356D01*
X219234601Y-60935145D01*
X219377807Y-60850453D01*
X219380747Y-60847513D01*
X219445271Y-60822179D01*
X219514894Y-60836080D01*
X219533640Y-60848129D01*
X219541323Y-60854089D01*
X219670779Y-60930648D01*
X219685210Y-60936893D01*
X219819605Y-60975939D01*
X219833706Y-60975899D01*
X219837000Y-60968630D01*
X219837000Y-60962878D01*
X220345000Y-60962878D01*
X220348973Y-60976409D01*
X220356871Y-60977544D01*
X220496790Y-60936893D01*
X220511221Y-60930648D01*
X220640678Y-60854089D01*
X220653104Y-60844449D01*
X220759449Y-60738104D01*
X220769089Y-60725678D01*
X220845648Y-60596221D01*
X220851893Y-60581790D01*
X220894269Y-60435935D01*
X220896570Y-60423333D01*
X220898807Y-60394916D01*
X220899000Y-60389986D01*
X220899000Y-59773115D01*
X220894525Y-59757876D01*
X220893135Y-59756671D01*
X220885452Y-59755000D01*
X220363115Y-59755000D01*
X220347876Y-59759475D01*
X220346671Y-59760865D01*
X220345000Y-59768548D01*
X220345000Y-60962878D01*
X219837000Y-60962878D01*
X219837000Y-59373000D01*
X219857002Y-59304879D01*
X219910658Y-59258386D01*
X219963000Y-59247000D01*
X220880884Y-59247000D01*
X220896123Y-59242525D01*
X220897328Y-59241135D01*
X220898999Y-59233452D01*
X220898999Y-59232800D01*
X221539696Y-59232800D01*
X221540386Y-59239365D01*
X221557488Y-59402077D01*
X221559658Y-59422728D01*
X221618673Y-59604356D01*
X221621976Y-59610078D01*
X221621977Y-59610079D01*
X221639347Y-59640165D01*
X221714160Y-59769744D01*
X221718578Y-59774651D01*
X221718579Y-59774652D01*
X221834092Y-59902942D01*
X221841947Y-59911666D01*
X221996448Y-60023918D01*
X221994783Y-60026210D01*
X222035185Y-60068577D01*
X222047481Y-60134030D01*
X222048386Y-60134030D01*
X222048386Y-60138849D01*
X222048506Y-60139488D01*
X222048386Y-60140630D01*
X222048386Y-60140635D01*
X222047696Y-60147200D01*
X222048386Y-60153765D01*
X222066319Y-60324385D01*
X222067658Y-60337128D01*
X222126673Y-60518756D01*
X222222160Y-60684144D01*
X222226578Y-60689051D01*
X222226579Y-60689052D01*
X222314779Y-60787008D01*
X222349947Y-60826066D01*
X222416370Y-60874325D01*
X222497338Y-60933152D01*
X222504448Y-60938318D01*
X222510476Y-60941002D01*
X222510478Y-60941003D01*
X222607741Y-60984307D01*
X222678912Y-61015994D01*
X222772312Y-61035847D01*
X222859256Y-61054328D01*
X222859261Y-61054328D01*
X222865713Y-61055700D01*
X223056687Y-61055700D01*
X223063139Y-61054328D01*
X223063144Y-61054328D01*
X223150088Y-61035847D01*
X223243488Y-61015994D01*
X223314659Y-60984307D01*
X223411922Y-60941003D01*
X223411924Y-60941002D01*
X223417952Y-60938318D01*
X223425063Y-60933152D01*
X223506030Y-60874325D01*
X223572453Y-60826066D01*
X223607621Y-60787008D01*
X223695821Y-60689052D01*
X223695822Y-60689051D01*
X223700240Y-60684144D01*
X223795727Y-60518756D01*
X223854742Y-60337128D01*
X223856082Y-60324385D01*
X223874014Y-60153765D01*
X223874704Y-60147200D01*
X223873098Y-60131916D01*
X223855432Y-59963835D01*
X223855432Y-59963833D01*
X223854742Y-59957272D01*
X223795727Y-59775644D01*
X223700240Y-59610256D01*
X223672247Y-59579166D01*
X223576875Y-59473245D01*
X223576874Y-59473244D01*
X223572453Y-59468334D01*
X223417952Y-59356082D01*
X223419617Y-59353790D01*
X223379215Y-59311423D01*
X223366919Y-59245970D01*
X223366014Y-59245970D01*
X223366014Y-59241151D01*
X223365894Y-59240512D01*
X223366014Y-59239370D01*
X223366014Y-59239365D01*
X223366704Y-59232800D01*
X223349922Y-59073128D01*
X223347432Y-59049435D01*
X223347432Y-59049433D01*
X223346742Y-59042872D01*
X223287727Y-58861244D01*
X223272564Y-58834980D01*
X223231144Y-58763240D01*
X223192240Y-58695856D01*
X223165984Y-58666695D01*
X223068875Y-58558845D01*
X223068874Y-58558844D01*
X223064453Y-58553934D01*
X222921229Y-58449875D01*
X222915294Y-58445563D01*
X222915293Y-58445562D01*
X222909952Y-58441682D01*
X222903924Y-58438998D01*
X222903922Y-58438997D01*
X222741519Y-58366691D01*
X222741518Y-58366691D01*
X222735488Y-58364006D01*
X222640657Y-58343849D01*
X222555144Y-58325672D01*
X222555139Y-58325672D01*
X222548687Y-58324300D01*
X222357713Y-58324300D01*
X222351261Y-58325672D01*
X222351256Y-58325672D01*
X222265743Y-58343849D01*
X222170912Y-58364006D01*
X222164882Y-58366691D01*
X222164881Y-58366691D01*
X222002478Y-58438997D01*
X222002476Y-58438998D01*
X221996448Y-58441682D01*
X221991107Y-58445562D01*
X221991106Y-58445563D01*
X221985171Y-58449875D01*
X221841947Y-58553934D01*
X221837526Y-58558844D01*
X221837525Y-58558845D01*
X221740417Y-58666695D01*
X221714160Y-58695856D01*
X221675256Y-58763240D01*
X221633837Y-58834980D01*
X221618673Y-58861244D01*
X221559658Y-59042872D01*
X221558968Y-59049433D01*
X221558968Y-59049435D01*
X221556478Y-59073128D01*
X221539696Y-59232800D01*
X220898999Y-59232800D01*
X220898999Y-58612017D01*
X220898805Y-58607080D01*
X220896570Y-58578664D01*
X220894269Y-58566066D01*
X220867655Y-58474461D01*
X220867858Y-58403465D01*
X220906411Y-58343849D01*
X220971076Y-58314540D01*
X221039899Y-58324201D01*
X221045405Y-58326652D01*
X221051445Y-58329341D01*
X221065324Y-58332291D01*
X221231789Y-58367675D01*
X221231794Y-58367675D01*
X221238246Y-58369047D01*
X221429220Y-58369047D01*
X221435672Y-58367675D01*
X221435677Y-58367675D01*
X221528713Y-58347899D01*
X221616021Y-58329341D01*
X221624262Y-58325672D01*
X221784455Y-58254350D01*
X221784457Y-58254349D01*
X221790485Y-58251665D01*
X221944986Y-58139413D01*
X221949408Y-58134502D01*
X222068354Y-58002399D01*
X222068355Y-58002398D01*
X222072773Y-57997491D01*
X222168260Y-57832103D01*
X222227275Y-57650475D01*
X222228174Y-57641928D01*
X222246547Y-57467112D01*
X222247237Y-57460547D01*
X222245780Y-57446689D01*
X222227965Y-57277182D01*
X222227965Y-57277180D01*
X222227275Y-57270619D01*
X222168260Y-57088991D01*
X222162703Y-57079365D01*
X222076076Y-56929324D01*
X222072773Y-56923603D01*
X222035196Y-56881869D01*
X221969896Y-56809347D01*
X221946379Y-56771416D01*
X221946203Y-56770970D01*
X221936018Y-56745245D01*
X221929540Y-56674545D01*
X221962315Y-56611566D01*
X222023935Y-56576304D01*
X222094838Y-56579954D01*
X222142266Y-56609770D01*
X222820743Y-57288247D01*
X222828287Y-57296537D01*
X222832400Y-57303018D01*
X222838177Y-57308443D01*
X222882067Y-57349658D01*
X222884909Y-57352413D01*
X222904631Y-57372135D01*
X222907755Y-57374558D01*
X222907759Y-57374562D01*
X222907824Y-57374612D01*
X222916845Y-57382317D01*
X222949079Y-57412586D01*
X222956027Y-57416405D01*
X222956029Y-57416407D01*
X222966832Y-57422346D01*
X222983359Y-57433202D01*
X222993098Y-57440757D01*
X222993100Y-57440758D01*
X222999360Y-57445614D01*
X223039940Y-57463174D01*
X223050588Y-57468391D01*
X223076240Y-57482493D01*
X223089340Y-57489695D01*
X223097016Y-57491666D01*
X223097019Y-57491667D01*
X223108962Y-57494733D01*
X223127667Y-57501137D01*
X223146255Y-57509181D01*
X223154078Y-57510420D01*
X223154088Y-57510423D01*
X223189924Y-57516099D01*
X223201544Y-57518505D01*
X223233359Y-57526673D01*
X223244370Y-57529500D01*
X223264624Y-57529500D01*
X223284334Y-57531051D01*
X223304343Y-57534220D01*
X223312235Y-57533474D01*
X223330980Y-57531702D01*
X223348362Y-57530059D01*
X223360219Y-57529500D01*
X225625233Y-57529500D01*
X225636416Y-57530027D01*
X225643909Y-57531702D01*
X225651835Y-57531453D01*
X225651836Y-57531453D01*
X225711986Y-57529562D01*
X225715945Y-57529500D01*
X225743856Y-57529500D01*
X225747791Y-57529003D01*
X225747856Y-57528995D01*
X225759693Y-57528062D01*
X225791951Y-57527048D01*
X225795970Y-57526922D01*
X225803889Y-57526673D01*
X225823343Y-57521021D01*
X225842700Y-57517013D01*
X225854930Y-57515468D01*
X225854931Y-57515468D01*
X225862797Y-57514474D01*
X225870168Y-57511555D01*
X225870170Y-57511555D01*
X225903912Y-57498196D01*
X225915142Y-57494351D01*
X225949983Y-57484229D01*
X225949984Y-57484229D01*
X225957593Y-57482018D01*
X225964412Y-57477985D01*
X225964417Y-57477983D01*
X225975028Y-57471707D01*
X225992776Y-57463012D01*
X226011617Y-57455552D01*
X226020377Y-57449188D01*
X226047387Y-57429564D01*
X226057307Y-57423048D01*
X226088535Y-57404580D01*
X226088538Y-57404578D01*
X226095362Y-57400542D01*
X226109683Y-57386221D01*
X226124717Y-57373380D01*
X226126431Y-57372135D01*
X226141107Y-57361472D01*
X226169298Y-57327395D01*
X226177288Y-57318616D01*
X226706247Y-56789657D01*
X226714537Y-56782113D01*
X226721018Y-56778000D01*
X226726444Y-56772222D01*
X226727411Y-56771422D01*
X226770049Y-56748271D01*
X226800447Y-56738745D01*
X226800449Y-56738744D01*
X226807699Y-56736472D01*
X226814196Y-56732537D01*
X226814199Y-56732536D01*
X226874211Y-56696191D01*
X226942840Y-56678012D01*
X227004753Y-56696191D01*
X227064008Y-56732077D01*
X227077757Y-56738285D01*
X227227644Y-56785256D01*
X227240694Y-56787869D01*
X227295586Y-56792913D01*
X227307124Y-56789525D01*
X227308329Y-56788135D01*
X227310000Y-56780452D01*
X227310000Y-55358000D01*
X227330002Y-55289879D01*
X227383658Y-55243386D01*
X227436000Y-55232000D01*
X227692000Y-55232000D01*
X227760121Y-55252002D01*
G37*
%TD.AperFunction*%
%TA.AperFunction,Conductor*%
G36*
X231715432Y-54255690D02*
G01*
X231756430Y-54319837D01*
X231828167Y-54587562D01*
X231829352Y-54590650D01*
X231829353Y-54590652D01*
X231853320Y-54653088D01*
X231967468Y-54950453D01*
X231968966Y-54953393D01*
X232140415Y-55289879D01*
X232143938Y-55296794D01*
X232145734Y-55299560D01*
X232145736Y-55299563D01*
X232328824Y-55581495D01*
X232355643Y-55622793D01*
X232600266Y-55924876D01*
X232875124Y-56199734D01*
X232877682Y-56201806D01*
X232877686Y-56201809D01*
X233002146Y-56302595D01*
X233177207Y-56444357D01*
X233179970Y-56446152D01*
X233179971Y-56446152D01*
X233490235Y-56647639D01*
X233503205Y-56656062D01*
X233506139Y-56657557D01*
X233506146Y-56657561D01*
X233768277Y-56791123D01*
X233849547Y-56832532D01*
X234014887Y-56896000D01*
X234139720Y-56943919D01*
X234212438Y-56971833D01*
X234587901Y-57072438D01*
X234660353Y-57083913D01*
X234724505Y-57114325D01*
X234762032Y-57174593D01*
X234761018Y-57245583D01*
X234729814Y-57297380D01*
X234621866Y-57405516D01*
X234621862Y-57405521D01*
X234616695Y-57410697D01*
X234612855Y-57416927D01*
X234612854Y-57416928D01*
X234533401Y-57545825D01*
X234523885Y-57561262D01*
X234517237Y-57581306D01*
X234472840Y-57715160D01*
X234468203Y-57729139D01*
X234467503Y-57735975D01*
X234467502Y-57735978D01*
X234466287Y-57747837D01*
X234457500Y-57833600D01*
X234457500Y-59534400D01*
X234457837Y-59537646D01*
X234457837Y-59537650D01*
X234465536Y-59611846D01*
X234468474Y-59640165D01*
X234470655Y-59646701D01*
X234470655Y-59646703D01*
X234514728Y-59778805D01*
X234524450Y-59807945D01*
X234617522Y-59958348D01*
X234742697Y-60083305D01*
X234748927Y-60087145D01*
X234748928Y-60087146D01*
X234886090Y-60171694D01*
X234893262Y-60176115D01*
X234927102Y-60187339D01*
X235054611Y-60229632D01*
X235054613Y-60229632D01*
X235061139Y-60231797D01*
X235067975Y-60232497D01*
X235067978Y-60232498D01*
X235111031Y-60236909D01*
X235165600Y-60242500D01*
X235725335Y-60242500D01*
X235793456Y-60262502D01*
X235839949Y-60316158D01*
X235850053Y-60386432D01*
X235820559Y-60451012D01*
X235799396Y-60470436D01*
X235720659Y-60527642D01*
X235710347Y-60535134D01*
X235705926Y-60540044D01*
X235705925Y-60540045D01*
X235705605Y-60540401D01*
X235582560Y-60677056D01*
X235542689Y-60746114D01*
X235490563Y-60836400D01*
X235487073Y-60842444D01*
X235428058Y-61024072D01*
X235427368Y-61030633D01*
X235427368Y-61030635D01*
X235412476Y-61172322D01*
X235408096Y-61214000D01*
X235408284Y-61215786D01*
X235388784Y-61282196D01*
X235371881Y-61303170D01*
X235286457Y-61388594D01*
X235224145Y-61422620D01*
X235197362Y-61425499D01*
X235000500Y-61425499D01*
X234932379Y-61405497D01*
X234885886Y-61351841D01*
X234874500Y-61299499D01*
X234874499Y-60980249D01*
X234874499Y-60977366D01*
X234873697Y-60968630D01*
X234868364Y-60910592D01*
X234867753Y-60903938D01*
X234850992Y-60850453D01*
X234818744Y-60747550D01*
X234818743Y-60747548D01*
X234816472Y-60740301D01*
X234727639Y-60593619D01*
X234606381Y-60472361D01*
X234459699Y-60383528D01*
X234452452Y-60381257D01*
X234452450Y-60381256D01*
X234386164Y-60360483D01*
X234296062Y-60332247D01*
X234288962Y-60331595D01*
X234288720Y-60331499D01*
X234282849Y-60330323D01*
X234283063Y-60329257D01*
X234222960Y-60305439D01*
X234181575Y-60247752D01*
X234174500Y-60206124D01*
X234174500Y-59116144D01*
X234175578Y-59099698D01*
X234178673Y-59076188D01*
X234179751Y-59068000D01*
X234165507Y-58959803D01*
X234159916Y-58917337D01*
X234158838Y-58909149D01*
X234097524Y-58761124D01*
X234024478Y-58665929D01*
X234024474Y-58665925D01*
X234008800Y-58645498D01*
X234005016Y-58640566D01*
X234005013Y-58640563D01*
X233999987Y-58634013D01*
X233993432Y-58628983D01*
X233974621Y-58614548D01*
X233962230Y-58603681D01*
X232343719Y-56985170D01*
X232309693Y-56922858D01*
X232307159Y-56899284D01*
X232307504Y-56896000D01*
X232295865Y-56785257D01*
X232288232Y-56712635D01*
X232288232Y-56712633D01*
X232287542Y-56706072D01*
X232228527Y-56524444D01*
X232133040Y-56359056D01*
X232005253Y-56217134D01*
X231850752Y-56104882D01*
X231844724Y-56102198D01*
X231844722Y-56102197D01*
X231682319Y-56029891D01*
X231682318Y-56029891D01*
X231676288Y-56027206D01*
X231560983Y-56002697D01*
X231495944Y-55988872D01*
X231495939Y-55988872D01*
X231489487Y-55987500D01*
X231298513Y-55987500D01*
X231292061Y-55988872D01*
X231292056Y-55988872D01*
X231227017Y-56002697D01*
X231111712Y-56027206D01*
X231105682Y-56029891D01*
X231105681Y-56029891D01*
X230943278Y-56102197D01*
X230943276Y-56102198D01*
X230937248Y-56104882D01*
X230782747Y-56217134D01*
X230654960Y-56359056D01*
X230559473Y-56524444D01*
X230500458Y-56706072D01*
X230499768Y-56712633D01*
X230499768Y-56712635D01*
X230492135Y-56785257D01*
X230480496Y-56896000D01*
X230481186Y-56902565D01*
X230497909Y-57061672D01*
X230500458Y-57085928D01*
X230559473Y-57267556D01*
X230562776Y-57273278D01*
X230562777Y-57273279D01*
X230576692Y-57297380D01*
X230654960Y-57432944D01*
X230667338Y-57446691D01*
X230698054Y-57510697D01*
X230689290Y-57581150D01*
X230667339Y-57615307D01*
X230654960Y-57629056D01*
X230559473Y-57794444D01*
X230500458Y-57976072D01*
X230499768Y-57982633D01*
X230499768Y-57982635D01*
X230485289Y-58120394D01*
X230480496Y-58166000D01*
X230481186Y-58172565D01*
X230497974Y-58332291D01*
X230500458Y-58355928D01*
X230559473Y-58537556D01*
X230562776Y-58543278D01*
X230562777Y-58543279D01*
X230575933Y-58566066D01*
X230654960Y-58702944D01*
X230659378Y-58707851D01*
X230659379Y-58707852D01*
X230778325Y-58839955D01*
X230782747Y-58844866D01*
X230837363Y-58884547D01*
X230927194Y-58949813D01*
X230937248Y-58957118D01*
X230943276Y-58959802D01*
X230943278Y-58959803D01*
X231105030Y-59031819D01*
X231111712Y-59034794D01*
X231205112Y-59054647D01*
X231292056Y-59073128D01*
X231292061Y-59073128D01*
X231298513Y-59074500D01*
X231489487Y-59074500D01*
X231495939Y-59073128D01*
X231495944Y-59073128D01*
X231582888Y-59054647D01*
X231676288Y-59034794D01*
X231685102Y-59030870D01*
X231762392Y-58996458D01*
X231845971Y-58959247D01*
X231916336Y-58949813D01*
X231980633Y-58979919D01*
X231986313Y-58985259D01*
X232470595Y-59469541D01*
X232504621Y-59531853D01*
X232507500Y-59558636D01*
X232507500Y-59902942D01*
X232487498Y-59971063D01*
X232467325Y-59995192D01*
X232465520Y-59996871D01*
X232452013Y-60002466D01*
X232452011Y-60002467D01*
X232452012Y-60002467D01*
X232356816Y-60075513D01*
X232356813Y-60075516D01*
X232324901Y-60100003D01*
X232319871Y-60106558D01*
X232305436Y-60125369D01*
X232294569Y-60137760D01*
X232069756Y-60362573D01*
X232057365Y-60373440D01*
X232032003Y-60392901D01*
X232007516Y-60424813D01*
X232007513Y-60424816D01*
X232007507Y-60424824D01*
X231953639Y-60495026D01*
X231934466Y-60520012D01*
X231873152Y-60668037D01*
X231872075Y-60676220D01*
X231872074Y-60676224D01*
X231871401Y-60681341D01*
X231871400Y-60681349D01*
X231857490Y-60787003D01*
X231857490Y-60787008D01*
X231852240Y-60826888D01*
X231856389Y-60858400D01*
X231856412Y-60858578D01*
X231857490Y-60875024D01*
X231857490Y-61592976D01*
X231856412Y-61609419D01*
X231852240Y-61641112D01*
X231857490Y-61680992D01*
X231857490Y-61680997D01*
X231867242Y-61755072D01*
X231873152Y-61799963D01*
X231934466Y-61947988D01*
X231939493Y-61954539D01*
X231939494Y-61954541D01*
X232007510Y-62043181D01*
X232007516Y-62043187D01*
X232032003Y-62075099D01*
X232038558Y-62080129D01*
X232057369Y-62094564D01*
X232069760Y-62105431D01*
X232220595Y-62256266D01*
X232254621Y-62318578D01*
X232257500Y-62345361D01*
X232257501Y-62549030D01*
X232257501Y-62740634D01*
X232257764Y-62743492D01*
X232257764Y-62743501D01*
X232260135Y-62769308D01*
X232264247Y-62814062D01*
X232266246Y-62820440D01*
X232266246Y-62820441D01*
X232313253Y-62970438D01*
X232315528Y-62977699D01*
X232355526Y-63043744D01*
X232355809Y-63044211D01*
X232373988Y-63112840D01*
X232355809Y-63174753D01*
X232323141Y-63228695D01*
X232270744Y-63276602D01*
X232200765Y-63288575D01*
X232135420Y-63260814D01*
X232106246Y-63226424D01*
X232082442Y-63185194D01*
X232056848Y-63140864D01*
X232030058Y-63111110D01*
X231933483Y-63003853D01*
X231933482Y-63003852D01*
X231929061Y-62998942D01*
X231789677Y-62897673D01*
X231779902Y-62890571D01*
X231779901Y-62890570D01*
X231774560Y-62886690D01*
X231768532Y-62884006D01*
X231768530Y-62884005D01*
X231606127Y-62811699D01*
X231606126Y-62811699D01*
X231600096Y-62809014D01*
X231497658Y-62787240D01*
X231419752Y-62770680D01*
X231419747Y-62770680D01*
X231413295Y-62769308D01*
X231222321Y-62769308D01*
X231215869Y-62770680D01*
X231215864Y-62770680D01*
X231137958Y-62787240D01*
X231035520Y-62809014D01*
X231029490Y-62811699D01*
X231029489Y-62811699D01*
X230867086Y-62884005D01*
X230867084Y-62884006D01*
X230861056Y-62886690D01*
X230762932Y-62957981D01*
X230696068Y-62981838D01*
X230637625Y-62971151D01*
X230627606Y-62966690D01*
X230558688Y-62936006D01*
X230465287Y-62916153D01*
X230378344Y-62897672D01*
X230378339Y-62897672D01*
X230371887Y-62896300D01*
X230180913Y-62896300D01*
X230174456Y-62897672D01*
X230174451Y-62897673D01*
X230145770Y-62903769D01*
X230074980Y-62898366D01*
X230018348Y-62855549D01*
X229993855Y-62788911D01*
X229993575Y-62780522D01*
X229993575Y-55819059D01*
X229994102Y-55807876D01*
X229995777Y-55800383D01*
X229993637Y-55732292D01*
X229993575Y-55728335D01*
X229993575Y-55700436D01*
X229993071Y-55696445D01*
X229992138Y-55684603D01*
X229990998Y-55648328D01*
X229990749Y-55640403D01*
X229988537Y-55632789D01*
X229988536Y-55632784D01*
X229985098Y-55620951D01*
X229981087Y-55601587D01*
X229979542Y-55589356D01*
X229978549Y-55581495D01*
X229975632Y-55574128D01*
X229975631Y-55574123D01*
X229962273Y-55540384D01*
X229958429Y-55529157D01*
X229948305Y-55494314D01*
X229946093Y-55486699D01*
X229935782Y-55469264D01*
X229927087Y-55451516D01*
X229919627Y-55432675D01*
X229906999Y-55415293D01*
X229893639Y-55396905D01*
X229887123Y-55386985D01*
X229868655Y-55355757D01*
X229868653Y-55355754D01*
X229864617Y-55348930D01*
X229850296Y-55334609D01*
X229837455Y-55319575D01*
X229830206Y-55309598D01*
X229825547Y-55303185D01*
X229819443Y-55298135D01*
X229819438Y-55298130D01*
X229791477Y-55274999D01*
X229782696Y-55267009D01*
X229325283Y-54809595D01*
X229291258Y-54747283D01*
X229296323Y-54676467D01*
X229338870Y-54619632D01*
X229405390Y-54594821D01*
X229414379Y-54594500D01*
X230964400Y-54594500D01*
X230967646Y-54594163D01*
X230967650Y-54594163D01*
X231063307Y-54584238D01*
X231063311Y-54584237D01*
X231070165Y-54583526D01*
X231076701Y-54581345D01*
X231076703Y-54581345D01*
X231230997Y-54529868D01*
X231237945Y-54527550D01*
X231388348Y-54434478D01*
X231513305Y-54309303D01*
X231527464Y-54286333D01*
X231580237Y-54238840D01*
X231650308Y-54227416D01*
X231715432Y-54255690D01*
G37*
%TD.AperFunction*%
%TA.AperFunction,Conductor*%
G36*
X216508455Y-61004502D02*
G01*
X216529429Y-61021405D01*
X216700791Y-61192767D01*
X216708335Y-61201057D01*
X216712448Y-61207538D01*
X216718225Y-61212963D01*
X216762115Y-61254178D01*
X216764957Y-61256933D01*
X216784679Y-61276655D01*
X216787821Y-61279092D01*
X216787881Y-61279139D01*
X216796893Y-61286837D01*
X216816301Y-61305062D01*
X216829127Y-61317106D01*
X216836070Y-61320923D01*
X216846879Y-61326865D01*
X216863401Y-61337718D01*
X216879407Y-61350134D01*
X216886685Y-61353284D01*
X216886686Y-61353284D01*
X216919985Y-61367694D01*
X216930635Y-61372911D01*
X216969388Y-61394215D01*
X216977063Y-61396186D01*
X216977064Y-61396186D01*
X216989010Y-61399253D01*
X217007715Y-61405657D01*
X217026303Y-61413701D01*
X217034126Y-61414940D01*
X217034136Y-61414943D01*
X217069972Y-61420619D01*
X217081592Y-61423025D01*
X217113407Y-61431193D01*
X217124418Y-61434020D01*
X217144672Y-61434020D01*
X217164382Y-61435571D01*
X217184391Y-61438740D01*
X217192283Y-61437994D01*
X217228409Y-61434579D01*
X217240267Y-61434020D01*
X217278698Y-61434020D01*
X217346819Y-61454022D01*
X217393312Y-61507678D01*
X217403416Y-61577952D01*
X217373922Y-61642532D01*
X217314196Y-61680916D01*
X217304897Y-61683267D01*
X217272654Y-61690120D01*
X217266624Y-61692805D01*
X217266623Y-61692805D01*
X217104220Y-61765111D01*
X217104218Y-61765112D01*
X217098190Y-61767796D01*
X217092849Y-61771676D01*
X217092848Y-61771677D01*
X217033873Y-61814525D01*
X216972632Y-61859020D01*
X216954312Y-61872330D01*
X216887444Y-61896188D01*
X216818293Y-61880108D01*
X216806190Y-61872330D01*
X216735666Y-61821091D01*
X216735665Y-61821090D01*
X216730324Y-61817210D01*
X216724296Y-61814526D01*
X216724294Y-61814525D01*
X216561891Y-61742219D01*
X216561890Y-61742219D01*
X216555860Y-61739534D01*
X216462459Y-61719681D01*
X216375516Y-61701200D01*
X216375511Y-61701200D01*
X216369059Y-61699828D01*
X216178085Y-61699828D01*
X216171628Y-61701200D01*
X216165057Y-61701891D01*
X216164748Y-61698948D01*
X216106769Y-61694456D01*
X216050186Y-61651573D01*
X216025770Y-61584907D01*
X216025500Y-61576663D01*
X216025500Y-61409886D01*
X216026027Y-61398703D01*
X216027702Y-61391210D01*
X216027059Y-61370739D01*
X216025562Y-61323133D01*
X216025500Y-61319174D01*
X216025500Y-61291263D01*
X216024995Y-61287263D01*
X216024062Y-61275420D01*
X216024013Y-61273844D01*
X216022673Y-61231229D01*
X216017022Y-61211777D01*
X216013014Y-61192425D01*
X216011467Y-61180182D01*
X216010474Y-61172322D01*
X216004362Y-61156884D01*
X215997881Y-61086185D01*
X216030653Y-61023205D01*
X216092272Y-60987940D01*
X216121513Y-60984500D01*
X216440334Y-60984500D01*
X216508455Y-61004502D01*
G37*
%TD.AperFunction*%
%TA.AperFunction,Conductor*%
G36*
X215635947Y-56025502D02*
G01*
X215682440Y-56079158D01*
X215687659Y-56092564D01*
X215692923Y-56108763D01*
X215699262Y-56128273D01*
X215794749Y-56293661D01*
X215799167Y-56298568D01*
X215799168Y-56298569D01*
X215880823Y-56389256D01*
X215922536Y-56435583D01*
X216077037Y-56547835D01*
X216083065Y-56550519D01*
X216083067Y-56550520D01*
X216245470Y-56622826D01*
X216251501Y-56625511D01*
X216328459Y-56641869D01*
X216431845Y-56663845D01*
X216431850Y-56663845D01*
X216438302Y-56665217D01*
X216629276Y-56665217D01*
X216635728Y-56663845D01*
X216635733Y-56663845D01*
X216739119Y-56641869D01*
X216816077Y-56625511D01*
X216822108Y-56622826D01*
X216984511Y-56550520D01*
X216984513Y-56550519D01*
X216990541Y-56547835D01*
X217023248Y-56524072D01*
X217090116Y-56500214D01*
X217159267Y-56516295D01*
X217208747Y-56567210D01*
X217217140Y-56587072D01*
X217261973Y-56725051D01*
X217265276Y-56730773D01*
X217265277Y-56730774D01*
X217292433Y-56777809D01*
X217357460Y-56890439D01*
X217361878Y-56895346D01*
X217361879Y-56895347D01*
X217430747Y-56971833D01*
X217485247Y-57032361D01*
X217584343Y-57104359D01*
X217631153Y-57138368D01*
X217639748Y-57144613D01*
X217645776Y-57147297D01*
X217645778Y-57147298D01*
X217795855Y-57214116D01*
X217814212Y-57222289D01*
X217907613Y-57242142D01*
X217994556Y-57260623D01*
X217994561Y-57260623D01*
X218001013Y-57261995D01*
X218061500Y-57261995D01*
X218129621Y-57281997D01*
X218176114Y-57335653D01*
X218187500Y-57387995D01*
X218187500Y-57977776D01*
X218167498Y-58045897D01*
X218113842Y-58092390D01*
X218043568Y-58102494D01*
X217997364Y-58086231D01*
X217964601Y-58066855D01*
X217956984Y-58064642D01*
X217948698Y-58062234D01*
X217894758Y-58030333D01*
X217673652Y-57809227D01*
X217666112Y-57800941D01*
X217662000Y-57794462D01*
X217612348Y-57747836D01*
X217609507Y-57745082D01*
X217589770Y-57725345D01*
X217586573Y-57722865D01*
X217577551Y-57715160D01*
X217561245Y-57699848D01*
X217545321Y-57684894D01*
X217538375Y-57681075D01*
X217538372Y-57681073D01*
X217527566Y-57675132D01*
X217511047Y-57664281D01*
X217504964Y-57659563D01*
X217495041Y-57651866D01*
X217487772Y-57648721D01*
X217487768Y-57648718D01*
X217454463Y-57634306D01*
X217443813Y-57629089D01*
X217405060Y-57607785D01*
X217396730Y-57605646D01*
X217390654Y-57604086D01*
X217385437Y-57602747D01*
X217366734Y-57596343D01*
X217355420Y-57591447D01*
X217355419Y-57591447D01*
X217348145Y-57588299D01*
X217340322Y-57587060D01*
X217340312Y-57587057D01*
X217304476Y-57581381D01*
X217292856Y-57578975D01*
X217257711Y-57569952D01*
X217257710Y-57569952D01*
X217250030Y-57567980D01*
X217229776Y-57567980D01*
X217210065Y-57566429D01*
X217197886Y-57564500D01*
X217190057Y-57563260D01*
X217182165Y-57564006D01*
X217170737Y-57565086D01*
X217160786Y-57566027D01*
X217146039Y-57567421D01*
X217134181Y-57567980D01*
X214743215Y-57567980D01*
X214732032Y-57567453D01*
X214724539Y-57565778D01*
X214716613Y-57566027D01*
X214716612Y-57566027D01*
X214656462Y-57567918D01*
X214652503Y-57567980D01*
X214624592Y-57567980D01*
X214620658Y-57568477D01*
X214620657Y-57568477D01*
X214620592Y-57568485D01*
X214608755Y-57569418D01*
X214576938Y-57570418D01*
X214572477Y-57570558D01*
X214564558Y-57570807D01*
X214546902Y-57575936D01*
X214545106Y-57576458D01*
X214525754Y-57580466D01*
X214520341Y-57581150D01*
X214505651Y-57583006D01*
X214498282Y-57585923D01*
X214498280Y-57585924D01*
X214464545Y-57599280D01*
X214453317Y-57603125D01*
X214410855Y-57615462D01*
X214404032Y-57619497D01*
X214404030Y-57619498D01*
X214393420Y-57625773D01*
X214375672Y-57634468D01*
X214356831Y-57641928D01*
X214350415Y-57646590D01*
X214350414Y-57646590D01*
X214321061Y-57667916D01*
X214311141Y-57674432D01*
X214279913Y-57692900D01*
X214279910Y-57692902D01*
X214273086Y-57696938D01*
X214258762Y-57711262D01*
X214243735Y-57724097D01*
X214227341Y-57736008D01*
X214222288Y-57742116D01*
X214199159Y-57770074D01*
X214191170Y-57778852D01*
X213994221Y-57975801D01*
X213985940Y-57983337D01*
X213979462Y-57987448D01*
X213977549Y-57989485D01*
X213914408Y-58016595D01*
X213899331Y-58017500D01*
X213524498Y-58017500D01*
X213522050Y-58017693D01*
X213522042Y-58017693D01*
X213493579Y-58019933D01*
X213493574Y-58019934D01*
X213487169Y-58020438D01*
X213423839Y-58038837D01*
X213335012Y-58064643D01*
X213335010Y-58064644D01*
X213327399Y-58066855D01*
X213184193Y-58151547D01*
X213181511Y-58154229D01*
X213117139Y-58179502D01*
X213047516Y-58165600D01*
X213031688Y-58155428D01*
X213027807Y-58151547D01*
X212884601Y-58066855D01*
X212876990Y-58064644D01*
X212876988Y-58064643D01*
X212788161Y-58038837D01*
X212724831Y-58020438D01*
X212718426Y-58019934D01*
X212718421Y-58019933D01*
X212689958Y-58017693D01*
X212689950Y-58017693D01*
X212687502Y-58017500D01*
X212254498Y-58017500D01*
X212252050Y-58017693D01*
X212252042Y-58017693D01*
X212223579Y-58019933D01*
X212223574Y-58019934D01*
X212217169Y-58020438D01*
X212153839Y-58038837D01*
X212065012Y-58064643D01*
X212065010Y-58064644D01*
X212057399Y-58066855D01*
X211914193Y-58151547D01*
X211911511Y-58154229D01*
X211847139Y-58179502D01*
X211777516Y-58165600D01*
X211761688Y-58155428D01*
X211757807Y-58151547D01*
X211614601Y-58066855D01*
X211606990Y-58064644D01*
X211606988Y-58064643D01*
X211518161Y-58038837D01*
X211454831Y-58020438D01*
X211448426Y-58019934D01*
X211448421Y-58019933D01*
X211419958Y-58017693D01*
X211419950Y-58017693D01*
X211417502Y-58017500D01*
X210984498Y-58017500D01*
X210982050Y-58017693D01*
X210982042Y-58017693D01*
X210953579Y-58019933D01*
X210953574Y-58019934D01*
X210947169Y-58020438D01*
X210883839Y-58038837D01*
X210795012Y-58064643D01*
X210795010Y-58064644D01*
X210787399Y-58066855D01*
X210780572Y-58070892D01*
X210780573Y-58070892D01*
X210651020Y-58147509D01*
X210651017Y-58147511D01*
X210644193Y-58151547D01*
X210526547Y-58269193D01*
X210522511Y-58276017D01*
X210522509Y-58276020D01*
X210492563Y-58326656D01*
X210441855Y-58412399D01*
X210439644Y-58420010D01*
X210439643Y-58420012D01*
X210432220Y-58445563D01*
X210395438Y-58572169D01*
X210394934Y-58578574D01*
X210394933Y-58578579D01*
X210392958Y-58603681D01*
X210392500Y-58609498D01*
X210392500Y-58740512D01*
X210372498Y-58808633D01*
X210318842Y-58855126D01*
X210270459Y-58866450D01*
X210242737Y-58867322D01*
X210239031Y-58867438D01*
X210235075Y-58867500D01*
X210207144Y-58867500D01*
X210203229Y-58867995D01*
X210203225Y-58867995D01*
X210203167Y-58868003D01*
X210203138Y-58868006D01*
X210191296Y-58868939D01*
X210147110Y-58870327D01*
X210134653Y-58873946D01*
X210127658Y-58875978D01*
X210108306Y-58879986D01*
X210096068Y-58881532D01*
X210096066Y-58881533D01*
X210088203Y-58882526D01*
X210047086Y-58898806D01*
X210035885Y-58902641D01*
X209993406Y-58914982D01*
X209986587Y-58919015D01*
X209986582Y-58919017D01*
X209975971Y-58925293D01*
X209958221Y-58933990D01*
X209939383Y-58941448D01*
X209932967Y-58946109D01*
X209932966Y-58946110D01*
X209923157Y-58953237D01*
X209906301Y-58965484D01*
X209903625Y-58967428D01*
X209893701Y-58973947D01*
X209862460Y-58992422D01*
X209862455Y-58992426D01*
X209855637Y-58996458D01*
X209841313Y-59010782D01*
X209826281Y-59023621D01*
X209809893Y-59035528D01*
X209789804Y-59059812D01*
X209781712Y-59069593D01*
X209773722Y-59078373D01*
X209492809Y-59359286D01*
X209430497Y-59393312D01*
X209359682Y-59388247D01*
X209302846Y-59345700D01*
X209278035Y-59279180D01*
X209277714Y-59270191D01*
X209277714Y-58734594D01*
X209297716Y-58666473D01*
X209314615Y-58645503D01*
X210291753Y-57668366D01*
X210300027Y-57660837D01*
X210306507Y-57656725D01*
X210353133Y-57607073D01*
X210355887Y-57604232D01*
X210375624Y-57584495D01*
X210378104Y-57581298D01*
X210385809Y-57572276D01*
X210416075Y-57540046D01*
X210419894Y-57533100D01*
X210419896Y-57533097D01*
X210425837Y-57522291D01*
X210436688Y-57505772D01*
X210440283Y-57501137D01*
X210449103Y-57489766D01*
X210452248Y-57482497D01*
X210452251Y-57482493D01*
X210466663Y-57449188D01*
X210471880Y-57438538D01*
X210488770Y-57407814D01*
X210539115Y-57357757D01*
X210608531Y-57342863D01*
X210638853Y-57348923D01*
X210667172Y-57358316D01*
X210680532Y-57361181D01*
X210773170Y-57370672D01*
X210779585Y-57371000D01*
X210841285Y-57371000D01*
X210856524Y-57366525D01*
X210857729Y-57365135D01*
X210859400Y-57357452D01*
X210859400Y-56260000D01*
X210879402Y-56191879D01*
X210933058Y-56145386D01*
X210985400Y-56134000D01*
X211241400Y-56134000D01*
X211309521Y-56154002D01*
X211356014Y-56207658D01*
X211367400Y-56260000D01*
X211367400Y-57352885D01*
X211371875Y-57368124D01*
X211373265Y-57369329D01*
X211380948Y-57371000D01*
X211447166Y-57371000D01*
X211453682Y-57370663D01*
X211547532Y-57360925D01*
X211560928Y-57358032D01*
X211712353Y-57307512D01*
X211725515Y-57301347D01*
X211860892Y-57217574D01*
X211872295Y-57208536D01*
X211898925Y-57181860D01*
X211961207Y-57147781D01*
X212032027Y-57152784D01*
X212077115Y-57181705D01*
X212110397Y-57214929D01*
X212116627Y-57218769D01*
X212116628Y-57218770D01*
X212244157Y-57297380D01*
X212258480Y-57306209D01*
X212423591Y-57360974D01*
X212430427Y-57361674D01*
X212430430Y-57361675D01*
X212477770Y-57366525D01*
X212526328Y-57371500D01*
X213200472Y-57371500D01*
X213203718Y-57371163D01*
X213203722Y-57371163D01*
X213297635Y-57361419D01*
X213297639Y-57361418D01*
X213304493Y-57360707D01*
X213311029Y-57358526D01*
X213311031Y-57358526D01*
X213456307Y-57310058D01*
X213469507Y-57305654D01*
X213617431Y-57214116D01*
X213628370Y-57203158D01*
X213735158Y-57096184D01*
X213735162Y-57096179D01*
X213740329Y-57091003D01*
X213831609Y-56942920D01*
X213886374Y-56777809D01*
X213889401Y-56748271D01*
X213896572Y-56678271D01*
X213896900Y-56675072D01*
X213896900Y-56302595D01*
X213916902Y-56234474D01*
X213933805Y-56213500D01*
X214104900Y-56042405D01*
X214167212Y-56008379D01*
X214193995Y-56005500D01*
X215567826Y-56005500D01*
X215635947Y-56025502D01*
G37*
%TD.AperFunction*%
%TD*%
M02*
