%TF.GenerationSoftware,KiCad,Pcbnew,6.0.11+dfsg-1~bpo11+1*%
%TF.CreationDate,2023-04-29T04:06:51+00:00*%
%TF.ProjectId,slcam,736c6361-6d2e-46b6-9963-61645f706362,v0.2*%
%TF.SameCoordinates,Original*%
%TF.FileFunction,Drillmap*%
%TF.FilePolarity,Positive*%
%FSLAX45Y45*%
G04 Gerber Fmt 4.5, Leading zero omitted, Abs format (unit mm)*
G04 Created by KiCad (PCBNEW 6.0.11+dfsg-1~bpo11+1) date 2023-04-29 04:06:51*
%MOMM*%
%LPD*%
G01*
G04 APERTURE LIST*
%ADD10C,0.100000*%
%ADD11C,0.200000*%
%ADD12C,0.040000*%
%ADD13C,0.320000*%
G04 APERTURE END LIST*
D10*
X23926800Y-7518400D02*
X19710400Y-7518400D01*
X19710400Y-4978400D01*
X23926800Y-4978400D01*
X23926800Y-7518400D01*
D11*
D12*
X19985040Y-6289360D02*
X20025040Y-6329360D01*
X20025040Y-6289360D02*
X19985040Y-6329360D01*
X20276511Y-5776920D02*
X20316511Y-5816920D01*
X20316511Y-5776920D02*
X20276511Y-5816920D01*
X20305957Y-6322423D02*
X20345957Y-6362423D01*
X20345957Y-6322423D02*
X20305957Y-6362423D01*
X20748416Y-6266140D02*
X20788416Y-6306140D01*
X20788416Y-6266140D02*
X20748416Y-6306140D01*
X20762656Y-6112001D02*
X20802656Y-6152001D01*
X20802656Y-6112001D02*
X20762656Y-6152001D01*
X20767360Y-5705160D02*
X20807360Y-5745160D01*
X20807360Y-5705160D02*
X20767360Y-5745160D01*
X20767752Y-6669513D02*
X20807752Y-6709513D01*
X20807752Y-6669513D02*
X20767752Y-6709513D01*
X20808000Y-6838000D02*
X20848000Y-6878000D01*
X20848000Y-6838000D02*
X20808000Y-6878000D01*
X20874040Y-5689920D02*
X20914040Y-5729920D01*
X20914040Y-5689920D02*
X20874040Y-5729920D01*
X20933952Y-6091767D02*
X20973952Y-6131767D01*
X20973952Y-6091767D02*
X20933952Y-6131767D01*
X20970534Y-6670007D02*
X21010534Y-6710007D01*
X21010534Y-6670007D02*
X20970534Y-6710007D01*
X21039270Y-6589051D02*
X21079270Y-6629051D01*
X21079270Y-6589051D02*
X21039270Y-6629051D01*
X21071476Y-5735817D02*
X21111476Y-5775817D01*
X21111476Y-5735817D02*
X21071476Y-5775817D01*
X21126655Y-6202378D02*
X21166655Y-6242378D01*
X21166655Y-6202378D02*
X21126655Y-6242378D01*
X21167600Y-7151946D02*
X21207600Y-7191946D01*
X21207600Y-7151946D02*
X21167600Y-7191946D01*
X21265200Y-6761800D02*
X21305200Y-6801800D01*
X21305200Y-6761800D02*
X21265200Y-6801800D01*
X21285098Y-6632387D02*
X21325098Y-6672387D01*
X21325098Y-6632387D02*
X21285098Y-6672387D01*
X21366272Y-6207153D02*
X21406272Y-6247153D01*
X21406272Y-6207153D02*
X21366272Y-6247153D01*
X21395868Y-7267507D02*
X21435868Y-7307507D01*
X21435868Y-7267507D02*
X21395868Y-7307507D01*
X21417600Y-6787200D02*
X21457600Y-6827200D01*
X21457600Y-6787200D02*
X21417600Y-6827200D01*
X21438261Y-6134703D02*
X21478261Y-6174703D01*
X21478261Y-6134703D02*
X21438261Y-6174703D01*
X21534440Y-5613720D02*
X21574440Y-5653720D01*
X21574440Y-5613720D02*
X21534440Y-5653720D01*
X21601583Y-6087550D02*
X21641583Y-6127550D01*
X21641583Y-6087550D02*
X21601583Y-6127550D01*
X21607357Y-6240833D02*
X21647357Y-6280833D01*
X21647357Y-6240833D02*
X21607357Y-6280833D01*
X21620800Y-7168200D02*
X21660800Y-7208200D01*
X21660800Y-7168200D02*
X21620800Y-7208200D01*
X21633379Y-5555672D02*
X21673379Y-5595672D01*
X21673379Y-5555672D02*
X21633379Y-5595672D01*
X21735494Y-6235891D02*
X21775494Y-6275891D01*
X21775494Y-6235891D02*
X21735494Y-6275891D01*
X21789650Y-5615349D02*
X21829650Y-5655349D01*
X21829650Y-5615349D02*
X21789650Y-5655349D01*
X21797690Y-7107577D02*
X21837690Y-7147577D01*
X21837690Y-7107577D02*
X21797690Y-7147577D01*
X21895120Y-6893880D02*
X21935120Y-6933880D01*
X21935120Y-6893880D02*
X21895120Y-6933880D01*
X21920520Y-6213160D02*
X21960520Y-6253160D01*
X21960520Y-6213160D02*
X21920520Y-6253160D01*
X21925600Y-6101400D02*
X21965600Y-6141400D01*
X21965600Y-6101400D02*
X21925600Y-6141400D01*
X21940840Y-5623880D02*
X21980840Y-5663880D01*
X21980840Y-5623880D02*
X21940840Y-5663880D01*
X22014349Y-5741725D02*
X22054349Y-5781725D01*
X22054349Y-5741725D02*
X22014349Y-5781725D01*
X22052600Y-6675440D02*
X22092600Y-6715440D01*
X22092600Y-6675440D02*
X22052600Y-6715440D01*
X22113373Y-5726055D02*
X22153373Y-5766055D01*
X22153373Y-5726055D02*
X22113373Y-5766055D01*
X22225320Y-5903280D02*
X22265320Y-5943280D01*
X22265320Y-5903280D02*
X22225320Y-5943280D01*
X22276120Y-5994720D02*
X22316120Y-6034720D01*
X22316120Y-5994720D02*
X22276120Y-6034720D01*
X22321840Y-6294440D02*
X22361840Y-6334440D01*
X22361840Y-6294440D02*
X22321840Y-6334440D01*
X22367451Y-7210190D02*
X22407451Y-7250190D01*
X22407451Y-7210190D02*
X22367451Y-7250190D01*
X22372640Y-6440347D02*
X22412640Y-6480347D01*
X22412640Y-6440347D02*
X22372640Y-6480347D01*
X22463134Y-6513826D02*
X22503134Y-6553826D01*
X22503134Y-6513826D02*
X22463134Y-6553826D01*
X22550440Y-5339400D02*
X22590440Y-5379400D01*
X22590440Y-5339400D02*
X22550440Y-5379400D01*
X22649931Y-5738411D02*
X22689931Y-5778411D01*
X22689931Y-5738411D02*
X22649931Y-5778411D01*
X22709938Y-5882064D02*
X22749938Y-5922064D01*
X22749938Y-5882064D02*
X22709938Y-5922064D01*
X22723160Y-6065840D02*
X22763160Y-6105840D01*
X22763160Y-6065840D02*
X22723160Y-6105840D01*
X22745258Y-6693490D02*
X22785258Y-6733490D01*
X22785258Y-6693490D02*
X22745258Y-6733490D01*
X22753640Y-6187760D02*
X22793640Y-6227760D01*
X22793640Y-6187760D02*
X22753640Y-6227760D01*
X22779040Y-5232720D02*
X22819040Y-5272720D01*
X22819040Y-5232720D02*
X22779040Y-5272720D01*
X22811929Y-6504740D02*
X22851929Y-6544740D01*
X22851929Y-6504740D02*
X22811929Y-6544740D01*
X22834920Y-6091240D02*
X22874920Y-6131240D01*
X22874920Y-6091240D02*
X22834920Y-6131240D01*
X22834920Y-6909120D02*
X22874920Y-6949120D01*
X22874920Y-6909120D02*
X22834920Y-6949120D01*
X23007640Y-6360480D02*
X23047640Y-6400480D01*
X23047640Y-6360480D02*
X23007640Y-6400480D01*
X23064548Y-6902729D02*
X23104548Y-6942729D01*
X23104548Y-6902729D02*
X23064548Y-6942729D01*
X23111781Y-6347781D02*
X23151781Y-6387781D01*
X23151781Y-6347781D02*
X23111781Y-6387781D01*
X23119400Y-5669600D02*
X23159400Y-5709600D01*
X23159400Y-5669600D02*
X23119400Y-5709600D01*
X23119400Y-5796600D02*
X23159400Y-5836600D01*
X23159400Y-5796600D02*
X23119400Y-5836600D01*
X23144800Y-5974400D02*
X23184800Y-6014400D01*
X23184800Y-5974400D02*
X23144800Y-6014400D01*
X23612160Y-6101400D02*
X23652160Y-6141400D01*
X23652160Y-6101400D02*
X23612160Y-6141400D01*
X23632480Y-6228400D02*
X23672480Y-6268400D01*
X23672480Y-6228400D02*
X23632480Y-6268400D01*
D10*
X20629000Y-5362000D02*
G75*
G03*
X20629000Y-5362000I-50000J0D01*
G01*
X20629000Y-5616000D02*
G75*
G03*
X20629000Y-5616000I-50000J0D01*
G01*
X20629000Y-5870000D02*
G75*
G03*
X20629000Y-5870000I-50000J0D01*
G01*
X20629000Y-6124000D02*
G75*
G03*
X20629000Y-6124000I-50000J0D01*
G01*
X20629000Y-6378000D02*
G75*
G03*
X20629000Y-6378000I-50000J0D01*
G01*
X20629000Y-6632000D02*
G75*
G03*
X20629000Y-6632000I-50000J0D01*
G01*
X20629000Y-6886000D02*
G75*
G03*
X20629000Y-6886000I-50000J0D01*
G01*
X20629000Y-7140000D02*
G75*
G03*
X20629000Y-7140000I-50000J0D01*
G01*
X21157400Y-5384800D02*
G75*
G03*
X21157400Y-5384800I-50000J0D01*
G01*
X21411400Y-5384800D02*
G75*
G03*
X21411400Y-5384800I-50000J0D01*
G01*
X21665400Y-5384800D02*
G75*
G03*
X21665400Y-5384800I-50000J0D01*
G01*
X21919400Y-5384800D02*
G75*
G03*
X21919400Y-5384800I-50000J0D01*
G01*
D13*
X20091400Y-5184000D02*
X20091400Y-5504000D01*
X19931400Y-5344000D02*
X20251400Y-5344000D01*
X20091400Y-6993000D02*
X20091400Y-7313000D01*
X19931400Y-7153000D02*
X20251400Y-7153000D01*
X23536000Y-5184000D02*
X23536000Y-5504000D01*
X23376000Y-5344000D02*
X23696000Y-5344000D01*
X23536000Y-6993000D02*
X23536000Y-7313000D01*
X23376000Y-7153000D02*
X23696000Y-7153000D01*
D11*
X19963019Y-7833876D02*
X19963019Y-7633876D01*
X20010638Y-7633876D01*
X20039210Y-7643400D01*
X20058257Y-7662448D01*
X20067781Y-7681495D01*
X20077305Y-7719590D01*
X20077305Y-7748162D01*
X20067781Y-7786257D01*
X20058257Y-7805305D01*
X20039210Y-7824352D01*
X20010638Y-7833876D01*
X19963019Y-7833876D01*
X20163019Y-7833876D02*
X20163019Y-7700543D01*
X20163019Y-7738638D02*
X20172543Y-7719590D01*
X20182067Y-7710067D01*
X20201114Y-7700543D01*
X20220162Y-7700543D01*
X20286829Y-7833876D02*
X20286829Y-7700543D01*
X20286829Y-7633876D02*
X20277305Y-7643400D01*
X20286829Y-7652924D01*
X20296352Y-7643400D01*
X20286829Y-7633876D01*
X20286829Y-7652924D01*
X20410638Y-7833876D02*
X20391590Y-7824352D01*
X20382067Y-7805305D01*
X20382067Y-7633876D01*
X20515400Y-7833876D02*
X20496352Y-7824352D01*
X20486829Y-7805305D01*
X20486829Y-7633876D01*
X20743971Y-7833876D02*
X20743971Y-7633876D01*
X20810638Y-7776733D01*
X20877305Y-7633876D01*
X20877305Y-7833876D01*
X21058257Y-7833876D02*
X21058257Y-7729114D01*
X21048733Y-7710067D01*
X21029686Y-7700543D01*
X20991590Y-7700543D01*
X20972543Y-7710067D01*
X21058257Y-7824352D02*
X21039210Y-7833876D01*
X20991590Y-7833876D01*
X20972543Y-7824352D01*
X20963019Y-7805305D01*
X20963019Y-7786257D01*
X20972543Y-7767209D01*
X20991590Y-7757686D01*
X21039210Y-7757686D01*
X21058257Y-7748162D01*
X21153495Y-7700543D02*
X21153495Y-7900543D01*
X21153495Y-7710067D02*
X21172543Y-7700543D01*
X21210638Y-7700543D01*
X21229686Y-7710067D01*
X21239210Y-7719590D01*
X21248733Y-7738638D01*
X21248733Y-7795781D01*
X21239210Y-7814828D01*
X21229686Y-7824352D01*
X21210638Y-7833876D01*
X21172543Y-7833876D01*
X21153495Y-7824352D01*
X21334448Y-7814828D02*
X21343971Y-7824352D01*
X21334448Y-7833876D01*
X21324924Y-7824352D01*
X21334448Y-7814828D01*
X21334448Y-7833876D01*
X21334448Y-7710067D02*
X21343971Y-7719590D01*
X21334448Y-7729114D01*
X21324924Y-7719590D01*
X21334448Y-7710067D01*
X21334448Y-7729114D01*
D12*
X19665400Y-8143400D02*
X19705400Y-8183400D01*
X19705400Y-8143400D02*
X19665400Y-8183400D01*
D11*
X20001114Y-8053876D02*
X20020162Y-8053876D01*
X20039210Y-8063400D01*
X20048733Y-8072924D01*
X20058257Y-8091971D01*
X20067781Y-8130067D01*
X20067781Y-8177686D01*
X20058257Y-8215781D01*
X20048733Y-8234828D01*
X20039210Y-8244352D01*
X20020162Y-8253876D01*
X20001114Y-8253876D01*
X19982067Y-8244352D01*
X19972543Y-8234828D01*
X19963019Y-8215781D01*
X19953495Y-8177686D01*
X19953495Y-8130067D01*
X19963019Y-8091971D01*
X19972543Y-8072924D01*
X19982067Y-8063400D01*
X20001114Y-8053876D01*
X20153495Y-8234828D02*
X20163019Y-8244352D01*
X20153495Y-8253876D01*
X20143971Y-8244352D01*
X20153495Y-8234828D01*
X20153495Y-8253876D01*
X20334448Y-8120543D02*
X20334448Y-8253876D01*
X20286829Y-8044352D02*
X20239210Y-8187209D01*
X20363019Y-8187209D01*
X20477305Y-8053876D02*
X20496352Y-8053876D01*
X20515400Y-8063400D01*
X20524924Y-8072924D01*
X20534448Y-8091971D01*
X20543971Y-8130067D01*
X20543971Y-8177686D01*
X20534448Y-8215781D01*
X20524924Y-8234828D01*
X20515400Y-8244352D01*
X20496352Y-8253876D01*
X20477305Y-8253876D01*
X20458257Y-8244352D01*
X20448733Y-8234828D01*
X20439210Y-8215781D01*
X20429686Y-8177686D01*
X20429686Y-8130067D01*
X20439210Y-8091971D01*
X20448733Y-8072924D01*
X20458257Y-8063400D01*
X20477305Y-8053876D01*
X20667781Y-8053876D02*
X20686829Y-8053876D01*
X20705876Y-8063400D01*
X20715400Y-8072924D01*
X20724924Y-8091971D01*
X20734448Y-8130067D01*
X20734448Y-8177686D01*
X20724924Y-8215781D01*
X20715400Y-8234828D01*
X20705876Y-8244352D01*
X20686829Y-8253876D01*
X20667781Y-8253876D01*
X20648733Y-8244352D01*
X20639210Y-8234828D01*
X20629686Y-8215781D01*
X20620162Y-8177686D01*
X20620162Y-8130067D01*
X20629686Y-8091971D01*
X20639210Y-8072924D01*
X20648733Y-8063400D01*
X20667781Y-8053876D01*
X20820162Y-8253876D02*
X20820162Y-8120543D01*
X20820162Y-8139590D02*
X20829686Y-8130067D01*
X20848733Y-8120543D01*
X20877305Y-8120543D01*
X20896352Y-8130067D01*
X20905876Y-8149114D01*
X20905876Y-8253876D01*
X20905876Y-8149114D02*
X20915400Y-8130067D01*
X20934448Y-8120543D01*
X20963019Y-8120543D01*
X20982067Y-8130067D01*
X20991590Y-8149114D01*
X20991590Y-8253876D01*
X21086829Y-8253876D02*
X21086829Y-8120543D01*
X21086829Y-8139590D02*
X21096352Y-8130067D01*
X21115400Y-8120543D01*
X21143971Y-8120543D01*
X21163019Y-8130067D01*
X21172543Y-8149114D01*
X21172543Y-8253876D01*
X21172543Y-8149114D02*
X21182067Y-8130067D01*
X21201114Y-8120543D01*
X21229686Y-8120543D01*
X21248733Y-8130067D01*
X21258257Y-8149114D01*
X21258257Y-8253876D01*
X21648733Y-8044352D02*
X21477305Y-8301495D01*
X21905876Y-8053876D02*
X21924924Y-8053876D01*
X21943971Y-8063400D01*
X21953495Y-8072924D01*
X21963019Y-8091971D01*
X21972543Y-8130067D01*
X21972543Y-8177686D01*
X21963019Y-8215781D01*
X21953495Y-8234828D01*
X21943971Y-8244352D01*
X21924924Y-8253876D01*
X21905876Y-8253876D01*
X21886829Y-8244352D01*
X21877305Y-8234828D01*
X21867781Y-8215781D01*
X21858257Y-8177686D01*
X21858257Y-8130067D01*
X21867781Y-8091971D01*
X21877305Y-8072924D01*
X21886829Y-8063400D01*
X21905876Y-8053876D01*
X22058257Y-8234828D02*
X22067781Y-8244352D01*
X22058257Y-8253876D01*
X22048733Y-8244352D01*
X22058257Y-8234828D01*
X22058257Y-8253876D01*
X22191590Y-8053876D02*
X22210638Y-8053876D01*
X22229686Y-8063400D01*
X22239210Y-8072924D01*
X22248733Y-8091971D01*
X22258257Y-8130067D01*
X22258257Y-8177686D01*
X22248733Y-8215781D01*
X22239210Y-8234828D01*
X22229686Y-8244352D01*
X22210638Y-8253876D01*
X22191590Y-8253876D01*
X22172543Y-8244352D01*
X22163019Y-8234828D01*
X22153495Y-8215781D01*
X22143971Y-8177686D01*
X22143971Y-8130067D01*
X22153495Y-8091971D01*
X22163019Y-8072924D01*
X22172543Y-8063400D01*
X22191590Y-8053876D01*
X22448733Y-8253876D02*
X22334448Y-8253876D01*
X22391590Y-8253876D02*
X22391590Y-8053876D01*
X22372543Y-8082448D01*
X22353495Y-8101495D01*
X22334448Y-8111019D01*
X22629686Y-8053876D02*
X22534448Y-8053876D01*
X22524924Y-8149114D01*
X22534448Y-8139590D01*
X22553495Y-8130067D01*
X22601114Y-8130067D01*
X22620162Y-8139590D01*
X22629686Y-8149114D01*
X22639209Y-8168162D01*
X22639209Y-8215781D01*
X22629686Y-8234828D01*
X22620162Y-8244352D01*
X22601114Y-8253876D01*
X22553495Y-8253876D01*
X22534448Y-8244352D01*
X22524924Y-8234828D01*
X22705876Y-8053876D02*
X22839209Y-8053876D01*
X22753495Y-8253876D01*
X22905876Y-8053876D02*
X22905876Y-8091971D01*
X22982067Y-8053876D02*
X22982067Y-8091971D01*
X23277305Y-8330067D02*
X23267781Y-8320543D01*
X23248733Y-8291971D01*
X23239209Y-8272924D01*
X23229686Y-8244352D01*
X23220162Y-8196733D01*
X23220162Y-8158638D01*
X23229686Y-8111019D01*
X23239209Y-8082448D01*
X23248733Y-8063400D01*
X23267781Y-8034828D01*
X23277305Y-8025305D01*
X23439209Y-8053876D02*
X23401114Y-8053876D01*
X23382067Y-8063400D01*
X23372543Y-8072924D01*
X23353495Y-8101495D01*
X23343971Y-8139590D01*
X23343971Y-8215781D01*
X23353495Y-8234828D01*
X23363019Y-8244352D01*
X23382067Y-8253876D01*
X23420162Y-8253876D01*
X23439209Y-8244352D01*
X23448733Y-8234828D01*
X23458257Y-8215781D01*
X23458257Y-8168162D01*
X23448733Y-8149114D01*
X23439209Y-8139590D01*
X23420162Y-8130067D01*
X23382067Y-8130067D01*
X23363019Y-8139590D01*
X23353495Y-8149114D01*
X23343971Y-8168162D01*
X23582067Y-8053876D02*
X23601114Y-8053876D01*
X23620162Y-8063400D01*
X23629686Y-8072924D01*
X23639209Y-8091971D01*
X23648733Y-8130067D01*
X23648733Y-8177686D01*
X23639209Y-8215781D01*
X23629686Y-8234828D01*
X23620162Y-8244352D01*
X23601114Y-8253876D01*
X23582067Y-8253876D01*
X23563019Y-8244352D01*
X23553495Y-8234828D01*
X23543971Y-8215781D01*
X23534448Y-8177686D01*
X23534448Y-8130067D01*
X23543971Y-8091971D01*
X23553495Y-8072924D01*
X23563019Y-8063400D01*
X23582067Y-8053876D01*
X23886828Y-8253876D02*
X23886828Y-8053876D01*
X23972543Y-8253876D02*
X23972543Y-8149114D01*
X23963019Y-8130067D01*
X23943971Y-8120543D01*
X23915400Y-8120543D01*
X23896352Y-8130067D01*
X23886828Y-8139590D01*
X24096352Y-8253876D02*
X24077305Y-8244352D01*
X24067781Y-8234828D01*
X24058257Y-8215781D01*
X24058257Y-8158638D01*
X24067781Y-8139590D01*
X24077305Y-8130067D01*
X24096352Y-8120543D01*
X24124924Y-8120543D01*
X24143971Y-8130067D01*
X24153495Y-8139590D01*
X24163019Y-8158638D01*
X24163019Y-8215781D01*
X24153495Y-8234828D01*
X24143971Y-8244352D01*
X24124924Y-8253876D01*
X24096352Y-8253876D01*
X24277305Y-8253876D02*
X24258257Y-8244352D01*
X24248733Y-8225305D01*
X24248733Y-8053876D01*
X24429686Y-8244352D02*
X24410638Y-8253876D01*
X24372543Y-8253876D01*
X24353495Y-8244352D01*
X24343971Y-8225305D01*
X24343971Y-8149114D01*
X24353495Y-8130067D01*
X24372543Y-8120543D01*
X24410638Y-8120543D01*
X24429686Y-8130067D01*
X24439209Y-8149114D01*
X24439209Y-8168162D01*
X24343971Y-8187209D01*
X24515400Y-8244352D02*
X24534448Y-8253876D01*
X24572543Y-8253876D01*
X24591590Y-8244352D01*
X24601114Y-8225305D01*
X24601114Y-8215781D01*
X24591590Y-8196733D01*
X24572543Y-8187209D01*
X24543971Y-8187209D01*
X24524924Y-8177686D01*
X24515400Y-8158638D01*
X24515400Y-8149114D01*
X24524924Y-8130067D01*
X24543971Y-8120543D01*
X24572543Y-8120543D01*
X24591590Y-8130067D01*
X24667781Y-8330067D02*
X24677305Y-8320543D01*
X24696352Y-8291971D01*
X24705876Y-8272924D01*
X24715400Y-8244352D01*
X24724924Y-8196733D01*
X24724924Y-8158638D01*
X24715400Y-8111019D01*
X24705876Y-8082448D01*
X24696352Y-8063400D01*
X24677305Y-8034828D01*
X24667781Y-8025305D01*
D10*
X19705400Y-8427400D02*
G75*
G03*
X19705400Y-8427400I-50000J0D01*
G01*
D11*
X20067781Y-8517876D02*
X19953495Y-8517876D01*
X20010638Y-8517876D02*
X20010638Y-8317876D01*
X19991590Y-8346448D01*
X19972543Y-8365495D01*
X19953495Y-8375019D01*
X20153495Y-8498829D02*
X20163019Y-8508352D01*
X20153495Y-8517876D01*
X20143971Y-8508352D01*
X20153495Y-8498829D01*
X20153495Y-8517876D01*
X20286829Y-8317876D02*
X20305876Y-8317876D01*
X20324924Y-8327400D01*
X20334448Y-8336924D01*
X20343971Y-8355971D01*
X20353495Y-8394067D01*
X20353495Y-8441686D01*
X20343971Y-8479781D01*
X20334448Y-8498829D01*
X20324924Y-8508352D01*
X20305876Y-8517876D01*
X20286829Y-8517876D01*
X20267781Y-8508352D01*
X20258257Y-8498829D01*
X20248733Y-8479781D01*
X20239210Y-8441686D01*
X20239210Y-8394067D01*
X20248733Y-8355971D01*
X20258257Y-8336924D01*
X20267781Y-8327400D01*
X20286829Y-8317876D01*
X20477305Y-8317876D02*
X20496352Y-8317876D01*
X20515400Y-8327400D01*
X20524924Y-8336924D01*
X20534448Y-8355971D01*
X20543971Y-8394067D01*
X20543971Y-8441686D01*
X20534448Y-8479781D01*
X20524924Y-8498829D01*
X20515400Y-8508352D01*
X20496352Y-8517876D01*
X20477305Y-8517876D01*
X20458257Y-8508352D01*
X20448733Y-8498829D01*
X20439210Y-8479781D01*
X20429686Y-8441686D01*
X20429686Y-8394067D01*
X20439210Y-8355971D01*
X20448733Y-8336924D01*
X20458257Y-8327400D01*
X20477305Y-8317876D01*
X20667781Y-8317876D02*
X20686829Y-8317876D01*
X20705876Y-8327400D01*
X20715400Y-8336924D01*
X20724924Y-8355971D01*
X20734448Y-8394067D01*
X20734448Y-8441686D01*
X20724924Y-8479781D01*
X20715400Y-8498829D01*
X20705876Y-8508352D01*
X20686829Y-8517876D01*
X20667781Y-8517876D01*
X20648733Y-8508352D01*
X20639210Y-8498829D01*
X20629686Y-8479781D01*
X20620162Y-8441686D01*
X20620162Y-8394067D01*
X20629686Y-8355971D01*
X20639210Y-8336924D01*
X20648733Y-8327400D01*
X20667781Y-8317876D01*
X20820162Y-8517876D02*
X20820162Y-8384543D01*
X20820162Y-8403590D02*
X20829686Y-8394067D01*
X20848733Y-8384543D01*
X20877305Y-8384543D01*
X20896352Y-8394067D01*
X20905876Y-8413114D01*
X20905876Y-8517876D01*
X20905876Y-8413114D02*
X20915400Y-8394067D01*
X20934448Y-8384543D01*
X20963019Y-8384543D01*
X20982067Y-8394067D01*
X20991590Y-8413114D01*
X20991590Y-8517876D01*
X21086829Y-8517876D02*
X21086829Y-8384543D01*
X21086829Y-8403590D02*
X21096352Y-8394067D01*
X21115400Y-8384543D01*
X21143971Y-8384543D01*
X21163019Y-8394067D01*
X21172543Y-8413114D01*
X21172543Y-8517876D01*
X21172543Y-8413114D02*
X21182067Y-8394067D01*
X21201114Y-8384543D01*
X21229686Y-8384543D01*
X21248733Y-8394067D01*
X21258257Y-8413114D01*
X21258257Y-8517876D01*
X21648733Y-8308352D02*
X21477305Y-8565495D01*
X21905876Y-8317876D02*
X21924924Y-8317876D01*
X21943971Y-8327400D01*
X21953495Y-8336924D01*
X21963019Y-8355971D01*
X21972543Y-8394067D01*
X21972543Y-8441686D01*
X21963019Y-8479781D01*
X21953495Y-8498829D01*
X21943971Y-8508352D01*
X21924924Y-8517876D01*
X21905876Y-8517876D01*
X21886829Y-8508352D01*
X21877305Y-8498829D01*
X21867781Y-8479781D01*
X21858257Y-8441686D01*
X21858257Y-8394067D01*
X21867781Y-8355971D01*
X21877305Y-8336924D01*
X21886829Y-8327400D01*
X21905876Y-8317876D01*
X22058257Y-8498829D02*
X22067781Y-8508352D01*
X22058257Y-8517876D01*
X22048733Y-8508352D01*
X22058257Y-8498829D01*
X22058257Y-8517876D01*
X22191590Y-8317876D02*
X22210638Y-8317876D01*
X22229686Y-8327400D01*
X22239210Y-8336924D01*
X22248733Y-8355971D01*
X22258257Y-8394067D01*
X22258257Y-8441686D01*
X22248733Y-8479781D01*
X22239210Y-8498829D01*
X22229686Y-8508352D01*
X22210638Y-8517876D01*
X22191590Y-8517876D01*
X22172543Y-8508352D01*
X22163019Y-8498829D01*
X22153495Y-8479781D01*
X22143971Y-8441686D01*
X22143971Y-8394067D01*
X22153495Y-8355971D01*
X22163019Y-8336924D01*
X22172543Y-8327400D01*
X22191590Y-8317876D01*
X22324924Y-8317876D02*
X22448733Y-8317876D01*
X22382067Y-8394067D01*
X22410638Y-8394067D01*
X22429686Y-8403590D01*
X22439209Y-8413114D01*
X22448733Y-8432162D01*
X22448733Y-8479781D01*
X22439209Y-8498829D01*
X22429686Y-8508352D01*
X22410638Y-8517876D01*
X22353495Y-8517876D01*
X22334448Y-8508352D01*
X22324924Y-8498829D01*
X22543971Y-8517876D02*
X22582067Y-8517876D01*
X22601114Y-8508352D01*
X22610638Y-8498829D01*
X22629686Y-8470257D01*
X22639209Y-8432162D01*
X22639209Y-8355971D01*
X22629686Y-8336924D01*
X22620162Y-8327400D01*
X22601114Y-8317876D01*
X22563019Y-8317876D01*
X22543971Y-8327400D01*
X22534448Y-8336924D01*
X22524924Y-8355971D01*
X22524924Y-8403590D01*
X22534448Y-8422638D01*
X22543971Y-8432162D01*
X22563019Y-8441686D01*
X22601114Y-8441686D01*
X22620162Y-8432162D01*
X22629686Y-8422638D01*
X22639209Y-8403590D01*
X22810638Y-8384543D02*
X22810638Y-8517876D01*
X22763019Y-8308352D02*
X22715400Y-8451210D01*
X22839209Y-8451210D01*
X22905876Y-8317876D02*
X22905876Y-8355971D01*
X22982067Y-8317876D02*
X22982067Y-8355971D01*
X23277305Y-8594067D02*
X23267781Y-8584543D01*
X23248733Y-8555971D01*
X23239209Y-8536924D01*
X23229686Y-8508352D01*
X23220162Y-8460733D01*
X23220162Y-8422638D01*
X23229686Y-8375019D01*
X23239209Y-8346448D01*
X23248733Y-8327400D01*
X23267781Y-8298828D01*
X23277305Y-8289305D01*
X23458257Y-8517876D02*
X23343971Y-8517876D01*
X23401114Y-8517876D02*
X23401114Y-8317876D01*
X23382067Y-8346448D01*
X23363019Y-8365495D01*
X23343971Y-8375019D01*
X23534448Y-8336924D02*
X23543971Y-8327400D01*
X23563019Y-8317876D01*
X23610638Y-8317876D01*
X23629686Y-8327400D01*
X23639209Y-8336924D01*
X23648733Y-8355971D01*
X23648733Y-8375019D01*
X23639209Y-8403590D01*
X23524924Y-8517876D01*
X23648733Y-8517876D01*
X23886828Y-8517876D02*
X23886828Y-8317876D01*
X23972543Y-8517876D02*
X23972543Y-8413114D01*
X23963019Y-8394067D01*
X23943971Y-8384543D01*
X23915400Y-8384543D01*
X23896352Y-8394067D01*
X23886828Y-8403590D01*
X24096352Y-8517876D02*
X24077305Y-8508352D01*
X24067781Y-8498829D01*
X24058257Y-8479781D01*
X24058257Y-8422638D01*
X24067781Y-8403590D01*
X24077305Y-8394067D01*
X24096352Y-8384543D01*
X24124924Y-8384543D01*
X24143971Y-8394067D01*
X24153495Y-8403590D01*
X24163019Y-8422638D01*
X24163019Y-8479781D01*
X24153495Y-8498829D01*
X24143971Y-8508352D01*
X24124924Y-8517876D01*
X24096352Y-8517876D01*
X24277305Y-8517876D02*
X24258257Y-8508352D01*
X24248733Y-8489305D01*
X24248733Y-8317876D01*
X24429686Y-8508352D02*
X24410638Y-8517876D01*
X24372543Y-8517876D01*
X24353495Y-8508352D01*
X24343971Y-8489305D01*
X24343971Y-8413114D01*
X24353495Y-8394067D01*
X24372543Y-8384543D01*
X24410638Y-8384543D01*
X24429686Y-8394067D01*
X24439209Y-8413114D01*
X24439209Y-8432162D01*
X24343971Y-8451210D01*
X24515400Y-8508352D02*
X24534448Y-8517876D01*
X24572543Y-8517876D01*
X24591590Y-8508352D01*
X24601114Y-8489305D01*
X24601114Y-8479781D01*
X24591590Y-8460733D01*
X24572543Y-8451210D01*
X24543971Y-8451210D01*
X24524924Y-8441686D01*
X24515400Y-8422638D01*
X24515400Y-8413114D01*
X24524924Y-8394067D01*
X24543971Y-8384543D01*
X24572543Y-8384543D01*
X24591590Y-8394067D01*
X24667781Y-8594067D02*
X24677305Y-8584543D01*
X24696352Y-8555971D01*
X24705876Y-8536924D01*
X24715400Y-8508352D01*
X24724924Y-8460733D01*
X24724924Y-8422638D01*
X24715400Y-8375019D01*
X24705876Y-8346448D01*
X24696352Y-8327400D01*
X24677305Y-8298828D01*
X24667781Y-8289305D01*
X19605400Y-8591400D02*
X19605400Y-8791400D01*
X19505400Y-8691400D02*
X19705400Y-8691400D01*
X19943971Y-8581876D02*
X20067781Y-8581876D01*
X20001114Y-8658067D01*
X20029686Y-8658067D01*
X20048733Y-8667590D01*
X20058257Y-8677114D01*
X20067781Y-8696162D01*
X20067781Y-8743781D01*
X20058257Y-8762829D01*
X20048733Y-8772352D01*
X20029686Y-8781876D01*
X19972543Y-8781876D01*
X19953495Y-8772352D01*
X19943971Y-8762829D01*
X20153495Y-8762829D02*
X20163019Y-8772352D01*
X20153495Y-8781876D01*
X20143971Y-8772352D01*
X20153495Y-8762829D01*
X20153495Y-8781876D01*
X20239210Y-8600924D02*
X20248733Y-8591400D01*
X20267781Y-8581876D01*
X20315400Y-8581876D01*
X20334448Y-8591400D01*
X20343971Y-8600924D01*
X20353495Y-8619971D01*
X20353495Y-8639019D01*
X20343971Y-8667590D01*
X20229686Y-8781876D01*
X20353495Y-8781876D01*
X20477305Y-8581876D02*
X20496352Y-8581876D01*
X20515400Y-8591400D01*
X20524924Y-8600924D01*
X20534448Y-8619971D01*
X20543971Y-8658067D01*
X20543971Y-8705686D01*
X20534448Y-8743781D01*
X20524924Y-8762829D01*
X20515400Y-8772352D01*
X20496352Y-8781876D01*
X20477305Y-8781876D01*
X20458257Y-8772352D01*
X20448733Y-8762829D01*
X20439210Y-8743781D01*
X20429686Y-8705686D01*
X20429686Y-8658067D01*
X20439210Y-8619971D01*
X20448733Y-8600924D01*
X20458257Y-8591400D01*
X20477305Y-8581876D01*
X20667781Y-8581876D02*
X20686829Y-8581876D01*
X20705876Y-8591400D01*
X20715400Y-8600924D01*
X20724924Y-8619971D01*
X20734448Y-8658067D01*
X20734448Y-8705686D01*
X20724924Y-8743781D01*
X20715400Y-8762829D01*
X20705876Y-8772352D01*
X20686829Y-8781876D01*
X20667781Y-8781876D01*
X20648733Y-8772352D01*
X20639210Y-8762829D01*
X20629686Y-8743781D01*
X20620162Y-8705686D01*
X20620162Y-8658067D01*
X20629686Y-8619971D01*
X20639210Y-8600924D01*
X20648733Y-8591400D01*
X20667781Y-8581876D01*
X20820162Y-8781876D02*
X20820162Y-8648543D01*
X20820162Y-8667590D02*
X20829686Y-8658067D01*
X20848733Y-8648543D01*
X20877305Y-8648543D01*
X20896352Y-8658067D01*
X20905876Y-8677114D01*
X20905876Y-8781876D01*
X20905876Y-8677114D02*
X20915400Y-8658067D01*
X20934448Y-8648543D01*
X20963019Y-8648543D01*
X20982067Y-8658067D01*
X20991590Y-8677114D01*
X20991590Y-8781876D01*
X21086829Y-8781876D02*
X21086829Y-8648543D01*
X21086829Y-8667590D02*
X21096352Y-8658067D01*
X21115400Y-8648543D01*
X21143971Y-8648543D01*
X21163019Y-8658067D01*
X21172543Y-8677114D01*
X21172543Y-8781876D01*
X21172543Y-8677114D02*
X21182067Y-8658067D01*
X21201114Y-8648543D01*
X21229686Y-8648543D01*
X21248733Y-8658067D01*
X21258257Y-8677114D01*
X21258257Y-8781876D01*
X21648733Y-8572352D02*
X21477305Y-8829495D01*
X21905876Y-8581876D02*
X21924924Y-8581876D01*
X21943971Y-8591400D01*
X21953495Y-8600924D01*
X21963019Y-8619971D01*
X21972543Y-8658067D01*
X21972543Y-8705686D01*
X21963019Y-8743781D01*
X21953495Y-8762829D01*
X21943971Y-8772352D01*
X21924924Y-8781876D01*
X21905876Y-8781876D01*
X21886829Y-8772352D01*
X21877305Y-8762829D01*
X21867781Y-8743781D01*
X21858257Y-8705686D01*
X21858257Y-8658067D01*
X21867781Y-8619971D01*
X21877305Y-8600924D01*
X21886829Y-8591400D01*
X21905876Y-8581876D01*
X22058257Y-8762829D02*
X22067781Y-8772352D01*
X22058257Y-8781876D01*
X22048733Y-8772352D01*
X22058257Y-8762829D01*
X22058257Y-8781876D01*
X22258257Y-8781876D02*
X22143971Y-8781876D01*
X22201114Y-8781876D02*
X22201114Y-8581876D01*
X22182067Y-8610448D01*
X22163019Y-8629495D01*
X22143971Y-8639019D01*
X22334448Y-8600924D02*
X22343971Y-8591400D01*
X22363019Y-8581876D01*
X22410638Y-8581876D01*
X22429686Y-8591400D01*
X22439209Y-8600924D01*
X22448733Y-8619971D01*
X22448733Y-8639019D01*
X22439209Y-8667590D01*
X22324924Y-8781876D01*
X22448733Y-8781876D01*
X22620162Y-8581876D02*
X22582067Y-8581876D01*
X22563019Y-8591400D01*
X22553495Y-8600924D01*
X22534448Y-8629495D01*
X22524924Y-8667590D01*
X22524924Y-8743781D01*
X22534448Y-8762829D01*
X22543971Y-8772352D01*
X22563019Y-8781876D01*
X22601114Y-8781876D01*
X22620162Y-8772352D01*
X22629686Y-8762829D01*
X22639209Y-8743781D01*
X22639209Y-8696162D01*
X22629686Y-8677114D01*
X22620162Y-8667590D01*
X22601114Y-8658067D01*
X22563019Y-8658067D01*
X22543971Y-8667590D01*
X22534448Y-8677114D01*
X22524924Y-8696162D01*
X22763019Y-8581876D02*
X22782067Y-8581876D01*
X22801114Y-8591400D01*
X22810638Y-8600924D01*
X22820162Y-8619971D01*
X22829686Y-8658067D01*
X22829686Y-8705686D01*
X22820162Y-8743781D01*
X22810638Y-8762829D01*
X22801114Y-8772352D01*
X22782067Y-8781876D01*
X22763019Y-8781876D01*
X22743971Y-8772352D01*
X22734448Y-8762829D01*
X22724924Y-8743781D01*
X22715400Y-8705686D01*
X22715400Y-8658067D01*
X22724924Y-8619971D01*
X22734448Y-8600924D01*
X22743971Y-8591400D01*
X22763019Y-8581876D01*
X22905876Y-8581876D02*
X22905876Y-8619971D01*
X22982067Y-8581876D02*
X22982067Y-8619971D01*
X23277305Y-8858067D02*
X23267781Y-8848543D01*
X23248733Y-8819971D01*
X23239209Y-8800924D01*
X23229686Y-8772352D01*
X23220162Y-8724733D01*
X23220162Y-8686638D01*
X23229686Y-8639019D01*
X23239209Y-8610448D01*
X23248733Y-8591400D01*
X23267781Y-8562829D01*
X23277305Y-8553305D01*
X23439209Y-8648543D02*
X23439209Y-8781876D01*
X23391590Y-8572352D02*
X23343971Y-8715210D01*
X23467781Y-8715210D01*
X23696352Y-8781876D02*
X23696352Y-8581876D01*
X23782067Y-8781876D02*
X23782067Y-8677114D01*
X23772543Y-8658067D01*
X23753495Y-8648543D01*
X23724924Y-8648543D01*
X23705876Y-8658067D01*
X23696352Y-8667590D01*
X23905876Y-8781876D02*
X23886828Y-8772352D01*
X23877305Y-8762829D01*
X23867781Y-8743781D01*
X23867781Y-8686638D01*
X23877305Y-8667590D01*
X23886828Y-8658067D01*
X23905876Y-8648543D01*
X23934448Y-8648543D01*
X23953495Y-8658067D01*
X23963019Y-8667590D01*
X23972543Y-8686638D01*
X23972543Y-8743781D01*
X23963019Y-8762829D01*
X23953495Y-8772352D01*
X23934448Y-8781876D01*
X23905876Y-8781876D01*
X24086828Y-8781876D02*
X24067781Y-8772352D01*
X24058257Y-8753305D01*
X24058257Y-8581876D01*
X24239209Y-8772352D02*
X24220162Y-8781876D01*
X24182067Y-8781876D01*
X24163019Y-8772352D01*
X24153495Y-8753305D01*
X24153495Y-8677114D01*
X24163019Y-8658067D01*
X24182067Y-8648543D01*
X24220162Y-8648543D01*
X24239209Y-8658067D01*
X24248733Y-8677114D01*
X24248733Y-8696162D01*
X24153495Y-8715210D01*
X24324924Y-8772352D02*
X24343971Y-8781876D01*
X24382067Y-8781876D01*
X24401114Y-8772352D01*
X24410638Y-8753305D01*
X24410638Y-8743781D01*
X24401114Y-8724733D01*
X24382067Y-8715210D01*
X24353495Y-8715210D01*
X24334448Y-8705686D01*
X24324924Y-8686638D01*
X24324924Y-8677114D01*
X24334448Y-8658067D01*
X24353495Y-8648543D01*
X24382067Y-8648543D01*
X24401114Y-8658067D01*
X24477305Y-8858067D02*
X24486828Y-8848543D01*
X24505876Y-8819971D01*
X24515400Y-8800924D01*
X24524924Y-8772352D01*
X24534448Y-8724733D01*
X24534448Y-8686638D01*
X24524924Y-8639019D01*
X24515400Y-8610448D01*
X24505876Y-8591400D01*
X24486828Y-8562829D01*
X24477305Y-8553305D01*
M02*
