M48
; DRILL file {KiCad 6.0.11+dfsg-1~bpo11+1} date Sat Apr 29 04:06:51 2023
; FORMAT={-:-/ absolute / metric / decimal}
; #@! TF.CreationDate,2023-04-29T04:06:51+00:00
; #@! TF.GenerationSoftware,Kicad,Pcbnew,6.0.11+dfsg-1~bpo11+1
; #@! TF.FileFunction,Plated,1,4,PTH
FMAT,2
METRIC
; #@! TA.AperFunction,Plated,PTH,ViaDrill
T1C0.400
; #@! TA.AperFunction,Plated,PTH,ComponentDrill
T2C1.000
; #@! TA.AperFunction,Plated,PTH,ComponentDrill
T3C3.200
%
G90
G05
T1
X200.05Y-63.094
X202.965Y-57.969
X203.26Y-63.424
X207.684Y-62.861
X207.827Y-61.32
X207.874Y-57.252
X207.878Y-66.895
X208.28Y-68.58
X208.94Y-57.099
X209.54Y-61.118
X209.905Y-66.9
X210.593Y-66.091
X210.915Y-57.558
X211.467Y-62.224
X211.876Y-71.719
X212.852Y-67.818
X213.051Y-66.524
X213.863Y-62.272
X214.159Y-72.875
X214.376Y-68.072
X214.583Y-61.547
X215.544Y-56.337
X216.216Y-61.075
X216.274Y-62.608
X216.408Y-71.882
X216.534Y-55.757
X217.555Y-62.559
X218.096Y-56.353
X218.177Y-71.276
X219.151Y-69.139
X219.405Y-62.332
X219.456Y-61.214
X219.608Y-56.439
X220.343Y-57.617
X220.726Y-66.954
X221.334Y-57.461
X222.453Y-59.233
X222.961Y-60.147
X223.418Y-63.144
X223.875Y-72.302
X223.926Y-64.603
X224.831Y-65.338
X225.704Y-53.594
X226.699Y-57.584
X227.299Y-59.021
X227.432Y-60.858
X227.653Y-67.135
X227.736Y-62.078
X227.99Y-52.527
X228.319Y-65.247
X228.549Y-61.112
X228.549Y-69.291
X230.276Y-63.805
X230.845Y-69.227
X231.318Y-63.678
X231.394Y-56.896
X231.394Y-58.166
X231.648Y-59.944
X236.322Y-61.214
X236.525Y-62.484
T2
X205.79Y-53.62
X205.79Y-56.16
X205.79Y-58.7
X205.79Y-61.24
X205.79Y-63.78
X205.79Y-66.32
X205.79Y-68.86
X205.79Y-71.4
X211.074Y-53.848
X213.614Y-53.848
X216.154Y-53.848
X218.694Y-53.848
T3
X200.914Y-53.44
X200.914Y-71.53
X235.36Y-53.44
X235.36Y-71.53
T0
M30
