%TF.GenerationSoftware,KiCad,Pcbnew,6.0.11+dfsg-1~bpo11+1*%
%TF.CreationDate,2023-04-29T04:06:51+00:00*%
%TF.ProjectId,slcam,736c6361-6d2e-46b6-9963-61645f706362,v0.2*%
%TF.SameCoordinates,Original*%
%TF.FileFunction,Copper,L4,Bot*%
%TF.FilePolarity,Positive*%
%FSLAX46Y46*%
G04 Gerber Fmt 4.6, Leading zero omitted, Abs format (unit mm)*
G04 Created by KiCad (PCBNEW 6.0.11+dfsg-1~bpo11+1) date 2023-04-29 04:06:51*
%MOMM*%
%LPD*%
G01*
G04 APERTURE LIST*
G04 Aperture macros list*
%AMRoundRect*
0 Rectangle with rounded corners*
0 $1 Rounding radius*
0 $2 $3 $4 $5 $6 $7 $8 $9 X,Y pos of 4 corners*
0 Add a 4 corners polygon primitive as box body*
4,1,4,$2,$3,$4,$5,$6,$7,$8,$9,$2,$3,0*
0 Add four circle primitives for the rounded corners*
1,1,$1+$1,$2,$3*
1,1,$1+$1,$4,$5*
1,1,$1+$1,$6,$7*
1,1,$1+$1,$8,$9*
0 Add four rect primitives between the rounded corners*
20,1,$1+$1,$2,$3,$4,$5,0*
20,1,$1+$1,$4,$5,$6,$7,0*
20,1,$1+$1,$6,$7,$8,$9,0*
20,1,$1+$1,$8,$9,$2,$3,0*%
G04 Aperture macros list end*
%TA.AperFunction,ComponentPad*%
%ADD10R,1.700000X1.700000*%
%TD*%
%TA.AperFunction,ComponentPad*%
%ADD11O,1.700000X1.700000*%
%TD*%
%TA.AperFunction,ComponentPad*%
%ADD12C,6.400000*%
%TD*%
%TA.AperFunction,SMDPad,CuDef*%
%ADD13RoundRect,0.075000X0.521491X-0.415425X-0.415425X0.521491X-0.521491X0.415425X0.415425X-0.521491X0*%
%TD*%
%TA.AperFunction,SMDPad,CuDef*%
%ADD14RoundRect,0.075000X0.521491X0.415425X0.415425X0.521491X-0.521491X-0.415425X-0.415425X-0.521491X0*%
%TD*%
%TA.AperFunction,SMDPad,CuDef*%
%ADD15R,1.200000X1.400000*%
%TD*%
%TA.AperFunction,SMDPad,CuDef*%
%ADD16RoundRect,0.150000X-0.825000X-0.150000X0.825000X-0.150000X0.825000X0.150000X-0.825000X0.150000X0*%
%TD*%
%TA.AperFunction,SMDPad,CuDef*%
%ADD17RoundRect,0.237500X-0.237500X0.287500X-0.237500X-0.287500X0.237500X-0.287500X0.237500X0.287500X0*%
%TD*%
%TA.AperFunction,SMDPad,CuDef*%
%ADD18RoundRect,0.237500X-0.035355X-0.371231X0.371231X0.035355X0.035355X0.371231X-0.371231X-0.035355X0*%
%TD*%
%TA.AperFunction,SMDPad,CuDef*%
%ADD19RoundRect,0.237500X-0.287500X-0.237500X0.287500X-0.237500X0.287500X0.237500X-0.287500X0.237500X0*%
%TD*%
%TA.AperFunction,SMDPad,CuDef*%
%ADD20RoundRect,0.237500X0.237500X-0.287500X0.237500X0.287500X-0.237500X0.287500X-0.237500X-0.287500X0*%
%TD*%
%TA.AperFunction,SMDPad,CuDef*%
%ADD21RoundRect,0.237500X0.035355X0.371231X-0.371231X-0.035355X-0.035355X-0.371231X0.371231X0.035355X0*%
%TD*%
%TA.AperFunction,SMDPad,CuDef*%
%ADD22RoundRect,0.237500X0.287500X0.237500X-0.287500X0.237500X-0.287500X-0.237500X0.287500X-0.237500X0*%
%TD*%
%TA.AperFunction,SMDPad,CuDef*%
%ADD23RoundRect,0.237500X-0.300000X-0.237500X0.300000X-0.237500X0.300000X0.237500X-0.300000X0.237500X0*%
%TD*%
%TA.AperFunction,SMDPad,CuDef*%
%ADD24R,1.800000X1.750000*%
%TD*%
%TA.AperFunction,ViaPad*%
%ADD25C,0.800000*%
%TD*%
%TA.AperFunction,Conductor*%
%ADD26C,0.250000*%
%TD*%
%TA.AperFunction,Conductor*%
%ADD27C,0.200000*%
%TD*%
G04 APERTURE END LIST*
D10*
%TO.P,J2,1,Pin_1*%
%TO.N,/SPI_NSS_IMG*%
X205790000Y-53620000D03*
D11*
%TO.P,J2,2,Pin_2*%
%TO.N,/SPI2_MOSI*%
X205790000Y-56160000D03*
%TO.P,J2,3,Pin_3*%
%TO.N,/SPI2_MISO*%
X205790000Y-58700000D03*
%TO.P,J2,4,Pin_4*%
%TO.N,/SPI2_SCK*%
X205790000Y-61240000D03*
%TO.P,J2,5,Pin_5*%
%TO.N,GND*%
X205790000Y-63780000D03*
%TO.P,J2,6,Pin_6*%
%TO.N,/3V3_IMG_SENSOR*%
X205790000Y-66320000D03*
%TO.P,J2,7,Pin_7*%
%TO.N,/I2C_SDA*%
X205790000Y-68860000D03*
%TO.P,J2,8,Pin_8*%
%TO.N,/I2C_SCL*%
X205790000Y-71400000D03*
%TD*%
D10*
%TO.P,J3,1,Pin_1*%
%TO.N,GND*%
X211074000Y-53848000D03*
D11*
%TO.P,J3,2,Pin_2*%
%TO.N,VCC*%
X213614000Y-53848000D03*
%TO.P,J3,3,Pin_3*%
%TO.N,/SWCLK*%
X216154000Y-53848000D03*
%TO.P,J3,4,Pin_4*%
%TO.N,/SWDIO*%
X218694000Y-53848000D03*
%TD*%
D12*
%TO.P,H1,1*%
%TO.N,N/C*%
X200914000Y-53440000D03*
%TD*%
%TO.P,H2,1*%
%TO.N,N/C*%
X200914000Y-71530000D03*
%TD*%
%TO.P,H3,1*%
%TO.N,N/C*%
X235360000Y-71530000D03*
%TD*%
%TO.P,H4,1*%
%TO.N,N/C*%
X235360000Y-53440000D03*
%TD*%
D13*
%TO.P,U1,1,VBAT*%
%TO.N,unconnected-(U1-Pad1)*%
X221875985Y-63510233D03*
%TO.P,U1,2,PC13*%
%TO.N,/HEARTBEAT*%
X221522431Y-63863787D03*
%TO.P,U1,3,PC14*%
%TO.N,/OSC_IN2*%
X221168878Y-64217340D03*
%TO.P,U1,4,PC15*%
%TO.N,/OSC_OUT2*%
X220815324Y-64570894D03*
%TO.P,U1,5,PD0*%
%TO.N,/OSC_IN*%
X220461771Y-64924447D03*
%TO.P,U1,6,PD1*%
%TO.N,/OSC_OUT*%
X220108218Y-65278000D03*
%TO.P,U1,7,NRST*%
%TO.N,/RESET*%
X219754664Y-65631554D03*
%TO.P,U1,8,VSSA*%
%TO.N,GND*%
X219401111Y-65985107D03*
%TO.P,U1,9,VDDA*%
%TO.N,VCC*%
X219047558Y-66338660D03*
%TO.P,U1,10,PA0*%
%TO.N,unconnected-(U1-Pad10)*%
X218694004Y-66692214D03*
%TO.P,U1,11,PA1*%
%TO.N,unconnected-(U1-Pad11)*%
X218340451Y-67045767D03*
%TO.P,U1,12,PA2*%
%TO.N,/SPI_NSS_IMG*%
X217986897Y-67399321D03*
D14*
%TO.P,U1,13,PA3*%
%TO.N,unconnected-(U1-Pad13)*%
X215989321Y-67399321D03*
%TO.P,U1,14,PA4*%
%TO.N,/SPI_NSS*%
X215635767Y-67045767D03*
%TO.P,U1,15,PA5*%
%TO.N,/SPI_SCK*%
X215282214Y-66692214D03*
%TO.P,U1,16,PA6*%
%TO.N,/SPI_MISO*%
X214928660Y-66338660D03*
%TO.P,U1,17,PA7*%
%TO.N,/SPI_MOSI*%
X214575107Y-65985107D03*
%TO.P,U1,18,PB0*%
%TO.N,/EN_SWITCH*%
X214221554Y-65631554D03*
%TO.P,U1,19,PB1*%
%TO.N,unconnected-(U1-Pad19)*%
X213868000Y-65278000D03*
%TO.P,U1,20,PB2*%
%TO.N,/BOOT1*%
X213514447Y-64924447D03*
%TO.P,U1,21,PB10*%
%TO.N,unconnected-(U1-Pad21)*%
X213160894Y-64570894D03*
%TO.P,U1,22,PB11*%
%TO.N,unconnected-(U1-Pad22)*%
X212807340Y-64217340D03*
%TO.P,U1,23,VSS*%
%TO.N,GND*%
X212453787Y-63863787D03*
%TO.P,U1,24,VDD*%
%TO.N,VCC*%
X212100233Y-63510233D03*
D13*
%TO.P,U1,25,PB12*%
%TO.N,/SPI_NSS_FLASH*%
X212100233Y-61512657D03*
%TO.P,U1,26,PB13*%
%TO.N,/SPI2_SCK*%
X212453787Y-61159103D03*
%TO.P,U1,27,PB14*%
%TO.N,/SPI2_MISO*%
X212807340Y-60805550D03*
%TO.P,U1,28,PB15*%
%TO.N,/SPI2_MOSI*%
X213160894Y-60451996D03*
%TO.P,U1,29,PA8*%
%TO.N,unconnected-(U1-Pad29)*%
X213514447Y-60098443D03*
%TO.P,U1,30,PA9*%
%TO.N,/UART_TX*%
X213868000Y-59744890D03*
%TO.P,U1,31,PA10*%
%TO.N,/UART_RX*%
X214221554Y-59391336D03*
%TO.P,U1,32,PA11*%
%TO.N,/CAN_RX*%
X214575107Y-59037783D03*
%TO.P,U1,33,PA12*%
%TO.N,/CAN_TX*%
X214928660Y-58684230D03*
%TO.P,U1,34,PA13*%
%TO.N,/SWDIO*%
X215282214Y-58330676D03*
%TO.P,U1,35,VSS*%
%TO.N,GND*%
X215635767Y-57977123D03*
%TO.P,U1,36,VDD*%
%TO.N,VCC*%
X215989321Y-57623569D03*
D14*
%TO.P,U1,37,PA14*%
%TO.N,/SWCLK*%
X217986897Y-57623569D03*
%TO.P,U1,38,PA15*%
%TO.N,unconnected-(U1-Pad38)*%
X218340451Y-57977123D03*
%TO.P,U1,39,PB3*%
%TO.N,unconnected-(U1-Pad39)*%
X218694004Y-58330676D03*
%TO.P,U1,40,PB4*%
%TO.N,/CAN_SHDN*%
X219047558Y-58684230D03*
%TO.P,U1,41,PB5*%
%TO.N,/CAN_S*%
X219401111Y-59037783D03*
%TO.P,U1,42,PB6*%
%TO.N,/I2C_SCL*%
X219754664Y-59391336D03*
%TO.P,U1,43,PB7*%
%TO.N,/I2C_SDA*%
X220108218Y-59744890D03*
%TO.P,U1,44,BOOT0*%
%TO.N,/BOOT0*%
X220461771Y-60098443D03*
%TO.P,U1,45,PB8*%
%TO.N,/FLASH_WP*%
X220815324Y-60451996D03*
%TO.P,U1,46,PB9*%
%TO.N,/FLASH_HR*%
X221168878Y-60805550D03*
%TO.P,U1,47,VSS*%
%TO.N,GND*%
X221522431Y-61159103D03*
%TO.P,U1,48,VDD*%
%TO.N,VCC*%
X221875985Y-61512657D03*
%TD*%
D15*
%TO.P,Y1,1,1*%
%TO.N,/OSC_IN*%
X224204000Y-66802000D03*
%TO.P,Y1,2,2*%
%TO.N,GND*%
X224204000Y-69002000D03*
%TO.P,Y1,3,3*%
%TO.N,/OSC_OUT*%
X222504000Y-69002000D03*
%TO.P,Y1,4,4*%
%TO.N,GND*%
X222504000Y-66802000D03*
%TD*%
D16*
%TO.P,U3,1,TXD*%
%TO.N,/CAN_TX*%
X224790000Y-59436000D03*
%TO.P,U3,2,GND*%
%TO.N,GND*%
X224790000Y-58166000D03*
%TO.P,U3,3,VCC*%
%TO.N,VCC*%
X224790000Y-56896000D03*
%TO.P,U3,4,RXD*%
%TO.N,/CAN_RX*%
X224790000Y-55626000D03*
%TO.P,U3,5,SHDN*%
%TO.N,/CAN_SHDN*%
X229740000Y-55626000D03*
%TO.P,U3,6,CANL*%
%TO.N,/CAN_N*%
X229740000Y-56896000D03*
%TO.P,U3,7,CANH*%
%TO.N,/CAN_P*%
X229740000Y-58166000D03*
%TO.P,U3,8,S*%
%TO.N,/CAN_S*%
X229740000Y-59436000D03*
%TD*%
D17*
%TO.P,R4,1*%
%TO.N,VCC*%
X222504000Y-56286400D03*
%TO.P,R4,2*%
%TO.N,/BOOT0*%
X222504000Y-58036400D03*
%TD*%
D18*
%TO.P,R5,1*%
%TO.N,GND*%
X210312000Y-68072000D03*
%TO.P,R5,2*%
%TO.N,/BOOT1*%
X211549436Y-66834564D03*
%TD*%
D19*
%TO.P,R6,1*%
%TO.N,VCC*%
X199926000Y-66446400D03*
%TO.P,R6,2*%
%TO.N,/I2C_SCL*%
X201676000Y-66446400D03*
%TD*%
%TO.P,R7,1*%
%TO.N,VCC*%
X199937400Y-64922400D03*
%TO.P,R7,2*%
%TO.N,/I2C_SDA*%
X201687400Y-64922400D03*
%TD*%
D20*
%TO.P,R8,1*%
%TO.N,/CAN_P*%
X237998000Y-62710000D03*
%TO.P,R8,2*%
%TO.N,/CAN_N*%
X237998000Y-60960000D03*
%TD*%
D21*
%TO.P,C3,1*%
%TO.N,VCC*%
X210185000Y-64770000D03*
%TO.P,C3,2*%
%TO.N,GND*%
X208947564Y-66007436D03*
%TD*%
D19*
%TO.P,C5,1*%
%TO.N,VCC*%
X224409000Y-61087000D03*
%TO.P,C5,2*%
%TO.N,GND*%
X226159000Y-61087000D03*
%TD*%
D17*
%TO.P,C6,1*%
%TO.N,VCC*%
X220421200Y-68427600D03*
%TO.P,C6,2*%
%TO.N,GND*%
X220421200Y-70177600D03*
%TD*%
D20*
%TO.P,C7,1*%
%TO.N,/OSC_IN*%
X226060000Y-67564000D03*
%TO.P,C7,2*%
%TO.N,Net-(C7-Pad2)*%
X226060000Y-65814000D03*
%TD*%
%TO.P,C8,1*%
%TO.N,/OSC_OUT*%
X226060000Y-71092000D03*
%TO.P,C8,2*%
%TO.N,Net-(C7-Pad2)*%
X226060000Y-69342000D03*
%TD*%
D19*
%TO.P,R9,1*%
%TO.N,/OSC_OUT*%
X222532000Y-71120000D03*
%TO.P,R9,2*%
%TO.N,/OSC_IN*%
X224282000Y-71120000D03*
%TD*%
D22*
%TO.P,C4,1*%
%TO.N,VCC*%
X213868000Y-56489600D03*
%TO.P,C4,2*%
%TO.N,GND*%
X212118000Y-56489600D03*
%TD*%
D23*
%TO.P,C9,1*%
%TO.N,/OSC_IN2*%
X233274700Y-62636400D03*
%TO.P,C9,2*%
%TO.N,GND*%
X234999700Y-62636400D03*
%TD*%
D24*
%TO.P,Y2,1,1*%
%TO.N,/OSC_IN2*%
X230993950Y-62078200D03*
%TO.P,Y2,2,2*%
%TO.N,/OSC_OUT2*%
X230993950Y-65328200D03*
%TD*%
D23*
%TO.P,C10,1*%
%TO.N,/OSC_OUT2*%
X233274700Y-64820800D03*
%TO.P,C10,2*%
%TO.N,GND*%
X234999700Y-64820800D03*
%TD*%
D25*
%TO.N,/SPI2_MOSI*%
X214582609Y-61547033D03*
X228549200Y-61112400D03*
%TO.N,/SPI2_SCK*%
X227736400Y-62077600D03*
X213862716Y-62271533D03*
%TO.N,/SPI_NSS*%
X218176898Y-71275770D03*
X217554942Y-62558914D03*
%TO.N,/OSC_IN2*%
X223926400Y-64603469D03*
X230276400Y-63804800D03*
%TO.N,/OSC_OUT2*%
X231317808Y-63677808D03*
X224831342Y-65338258D03*
%TO.N,/CAN_SHDN*%
X227990400Y-52527200D03*
X219608400Y-56438800D03*
%TO.N,/CAN_S*%
X225704400Y-53594000D03*
X220343492Y-57617248D03*
%TO.N,/FLASH_WP*%
X222453200Y-59232800D03*
X227431600Y-60858400D03*
%TO.N,/FLASH_HR*%
X228549200Y-69291200D03*
X222961200Y-60147200D03*
%TO.N,GND*%
X223874508Y-72301899D03*
X231648000Y-59944000D03*
X209905340Y-66900067D03*
X223418400Y-63144400D03*
X226699310Y-57584114D03*
X216215829Y-61075500D03*
X203259568Y-63424233D03*
X202965109Y-57969203D03*
X219456000Y-61214000D03*
X207684157Y-62861398D03*
X211875998Y-71719462D03*
X227299379Y-59020643D03*
X215544400Y-56337200D03*
X210914757Y-57558174D03*
%TO.N,/RESET*%
X220726000Y-66954400D03*
%TO.N,VCC*%
X216533789Y-55756717D03*
X209539521Y-61117670D03*
X210592701Y-66090510D03*
X227652581Y-67134899D03*
X207826560Y-61320012D03*
X200050400Y-63093600D03*
X214158678Y-72875069D03*
%TO.N,/SPI_SCK*%
X216273572Y-62608328D03*
%TO.N,/SPI_MISO*%
X214376000Y-68072000D03*
%TO.N,/SPI_MOSI*%
X212852000Y-67818000D03*
X216408000Y-71882000D03*
%TO.N,/I2C_SCL*%
X221333733Y-57460547D03*
%TO.N,/I2C_SDA*%
X207877524Y-66895134D03*
X219405200Y-62331600D03*
%TO.N,/3V3_IMG_SENSOR*%
X219151200Y-69138800D03*
X208280000Y-68580000D03*
%TO.N,/SWCLK*%
X218096500Y-56353495D03*
%TO.N,/CAN_N*%
X231394000Y-56896000D03*
X236321600Y-61214000D03*
%TO.N,/CAN_P*%
X236524800Y-62484000D03*
X231394000Y-58166000D03*
%TO.N,/UART_TX*%
X207873600Y-57251600D03*
%TO.N,/UART_RX*%
X208940400Y-57099200D03*
%TO.N,/EN_SWITCH*%
X213050984Y-66523873D03*
%TO.N,/SPI_NSS_FLASH*%
X228319288Y-65247403D03*
X211466546Y-62223783D03*
%TO.N,/HEARTBEAT*%
X230845484Y-69227294D03*
%TD*%
D26*
%TO.N,/SPI2_MISO*%
X207102049Y-60012049D02*
X207102049Y-61620115D01*
X211882742Y-60202058D02*
X212203848Y-60202058D01*
X207102049Y-61620115D02*
X207526457Y-62044523D01*
X207526457Y-62044523D02*
X210040277Y-62044523D01*
X205790000Y-58700000D02*
X207102049Y-60012049D01*
X210040277Y-62044523D02*
X211882742Y-60202058D01*
X212203848Y-60202058D02*
X212807340Y-60805550D01*
%TO.N,/SPI2_MOSI*%
X214582609Y-61547033D02*
X214255931Y-61547033D01*
X214255931Y-61547033D02*
X213160894Y-60451996D01*
%TO.N,/SPI2_SCK*%
X213566217Y-62271533D02*
X213862716Y-62271533D01*
X212453787Y-61159103D02*
X213566217Y-62271533D01*
%TO.N,/SPI_NSS*%
X217554942Y-62558914D02*
X217554942Y-65126592D01*
X217554942Y-65126592D02*
X215635767Y-67045767D01*
%TO.N,/OSC_IN2*%
X233274700Y-62636400D02*
X231552150Y-62636400D01*
X230276400Y-63804800D02*
X230276400Y-62795750D01*
X223709069Y-64820800D02*
X221772338Y-64820800D01*
X231552150Y-62636400D02*
X230993950Y-62078200D01*
X223926400Y-64603469D02*
X223709069Y-64820800D01*
X221772338Y-64820800D02*
X221168878Y-64217340D01*
X230276400Y-62795750D02*
X230993950Y-62078200D01*
%TO.N,/OSC_OUT2*%
X230993950Y-64001666D02*
X230993950Y-65328200D01*
X224831342Y-65338258D02*
X224821053Y-65327969D01*
X231501350Y-64820800D02*
X230993950Y-65328200D01*
X231317808Y-63677808D02*
X230993950Y-64001666D01*
X224821053Y-65327969D02*
X221572399Y-65327969D01*
X233274700Y-64820800D02*
X231501350Y-64820800D01*
X221572399Y-65327969D02*
X220815324Y-64570894D01*
%TO.N,/CAN_SHDN*%
X227990400Y-53876400D02*
X227990400Y-52527200D01*
X219615014Y-56445414D02*
X219615014Y-58116774D01*
X219608400Y-56438800D02*
X219615014Y-56445414D01*
X229740000Y-55626000D02*
X227990400Y-53876400D01*
X219615014Y-58116774D02*
X219047558Y-58684230D01*
%TO.N,/CAN_S*%
X219401111Y-59037783D02*
X220343492Y-58095402D01*
X228440480Y-56330080D02*
X228440480Y-58819280D01*
X225704400Y-53594000D02*
X228440480Y-56330080D01*
X229057200Y-59436000D02*
X229740000Y-59436000D01*
X220343492Y-58095402D02*
X220343492Y-57617248D01*
X228440480Y-58819280D02*
X229057200Y-59436000D01*
%TO.N,/FLASH_WP*%
X222453200Y-59232800D02*
X222034520Y-59232800D01*
X222034520Y-59232800D02*
X220815324Y-60451996D01*
%TO.N,/FLASH_HR*%
X221827228Y-60147200D02*
X222961200Y-60147200D01*
X221168878Y-60805550D02*
X221827228Y-60147200D01*
%TO.N,GND*%
X210312000Y-68072000D02*
X210312000Y-67306727D01*
X224204000Y-69002000D02*
X224204000Y-68902000D01*
X224790000Y-58166000D02*
X226117424Y-58166000D01*
X220467440Y-62742560D02*
X220467440Y-61726560D01*
X215544400Y-56337200D02*
X215032276Y-56849324D01*
X216215829Y-61406171D02*
X214625956Y-62996044D01*
X213417860Y-70177600D02*
X211875998Y-71719462D01*
X227299379Y-59946621D02*
X226159000Y-61087000D01*
X226117424Y-58166000D02*
X226699310Y-57584114D01*
X222504000Y-67202000D02*
X222504000Y-66802000D01*
X224204000Y-69002000D02*
X223432480Y-69773520D01*
X221522431Y-61159103D02*
X220954974Y-61726560D01*
X215032276Y-56849324D02*
X215032276Y-57373632D01*
X212118000Y-56489600D02*
X211983331Y-56489600D01*
X213321530Y-62996044D02*
X212453787Y-63863787D01*
X209012709Y-66007436D02*
X209905340Y-66900067D01*
X216215829Y-61075500D02*
X216215829Y-61406171D01*
X220467440Y-61726560D02*
X219968560Y-61726560D01*
X218833173Y-64376827D02*
X220467440Y-62742560D01*
X210312000Y-67306727D02*
X209905340Y-66900067D01*
X223432480Y-69773520D02*
X223432480Y-71859871D01*
X220421200Y-70177600D02*
X213417860Y-70177600D01*
X227299379Y-59020643D02*
X227299379Y-59946621D01*
X218833173Y-65417169D02*
X218833173Y-64376827D01*
X223874508Y-72301899D02*
X223432480Y-71859871D01*
X224204000Y-68902000D02*
X222504000Y-67202000D01*
X215032276Y-57373632D02*
X215635767Y-57977123D01*
X208947564Y-66007436D02*
X209012709Y-66007436D01*
X234999700Y-62636400D02*
X234999700Y-64820800D01*
X220954974Y-61726560D02*
X220467440Y-61726560D01*
X219968560Y-61726560D02*
X219456000Y-61214000D01*
X211983331Y-56489600D02*
X210914757Y-57558174D01*
X214625956Y-62996044D02*
X213321530Y-62996044D01*
X219401111Y-65985107D02*
X218833173Y-65417169D01*
%TO.N,/RESET*%
X219754664Y-65631554D02*
X220726000Y-66602890D01*
X220726000Y-66602890D02*
X220726000Y-66954400D01*
%TO.N,VCC*%
X216533789Y-55756717D02*
X216258809Y-55481737D01*
X223520000Y-56896000D02*
X224790000Y-56896000D01*
X229043799Y-65721799D02*
X229043799Y-64947300D01*
X210592701Y-65177701D02*
X210185000Y-64770000D01*
X231569995Y-69527397D02*
X231569995Y-68247995D01*
X226089520Y-59205888D02*
X227074857Y-58220551D01*
X228230495Y-64522892D02*
X224794603Y-61087000D01*
X221220720Y-69227120D02*
X221220720Y-70697896D01*
X219043547Y-72875069D02*
X214158678Y-72875069D01*
X223012000Y-61722000D02*
X222085328Y-61722000D01*
X208028902Y-61117670D02*
X207826560Y-61320012D01*
X216923680Y-57379996D02*
X216680107Y-57623569D01*
X228619391Y-64522892D02*
X228230495Y-64522892D01*
X216923680Y-56887611D02*
X216923680Y-57379996D01*
X210592701Y-66090510D02*
X210592701Y-65177701D01*
X216808769Y-56031697D02*
X216808769Y-56772700D01*
X227753977Y-57283580D02*
X227330000Y-56859603D01*
X229043799Y-64947300D02*
X228619391Y-64522892D01*
X220421200Y-68427600D02*
X220421200Y-67712302D01*
X210693000Y-64262000D02*
X210185000Y-64770000D01*
X216808769Y-56772700D02*
X216923680Y-56887611D01*
X222910400Y-56286400D02*
X223520000Y-56896000D01*
X222504000Y-56286400D02*
X222910400Y-56286400D01*
X220421200Y-68427600D02*
X221220720Y-69227120D01*
X227074857Y-58220551D02*
X227275449Y-58220551D01*
X199926000Y-66446400D02*
X199926000Y-64933800D01*
X223647000Y-61087000D02*
X223012000Y-61722000D01*
X221220720Y-70697896D02*
X219043547Y-72875069D01*
X200050400Y-63093600D02*
X200050400Y-64809400D01*
X199926000Y-64933800D02*
X199937400Y-64922400D01*
X214875863Y-55481737D02*
X213868000Y-56489600D01*
X212100233Y-63510233D02*
X211348466Y-64262000D01*
X227275449Y-58220551D02*
X227753977Y-57742023D01*
X231569995Y-68247995D02*
X229043799Y-65721799D01*
X224785072Y-61087000D02*
X226089520Y-59782552D01*
X209539521Y-61117670D02*
X208028902Y-61117670D01*
X227753977Y-57742023D02*
X227753977Y-57283580D01*
X227330000Y-56859603D02*
X224826397Y-56859603D01*
X216533789Y-55756717D02*
X216808769Y-56031697D01*
X224409000Y-61087000D02*
X224785072Y-61087000D01*
X216680107Y-57623569D02*
X215989321Y-57623569D01*
X211348466Y-64262000D02*
X210693000Y-64262000D01*
X226089520Y-59782552D02*
X226089520Y-59205888D01*
X224826397Y-56859603D02*
X224790000Y-56896000D01*
X216258809Y-55481737D02*
X214875863Y-55481737D01*
X224409000Y-61087000D02*
X223647000Y-61087000D01*
X230469487Y-69951805D02*
X231145587Y-69951805D01*
X231145587Y-69951805D02*
X231569995Y-69527397D01*
X220421200Y-67712302D02*
X219047558Y-66338660D01*
X224794603Y-61087000D02*
X224409000Y-61087000D01*
X200050400Y-64809400D02*
X199937400Y-64922400D01*
X222085328Y-61722000D02*
X221875985Y-61512657D01*
X227652581Y-67134899D02*
X230469487Y-69951805D01*
%TO.N,/SPI_SCK*%
X216273572Y-62608328D02*
X216273572Y-65700856D01*
X216273572Y-65700856D02*
X215282214Y-66692214D01*
%TO.N,/SPI_MISO*%
X214376000Y-68072000D02*
X214122011Y-67818011D01*
X214122011Y-67818011D02*
X214122011Y-67145309D01*
X214122011Y-67145309D02*
X214928660Y-66338660D01*
%TO.N,/SPI_MOSI*%
X214575107Y-65985107D02*
X214575107Y-66020461D01*
X213775984Y-66824178D02*
X212852000Y-67748162D01*
X213775984Y-66819584D02*
X213775984Y-66824178D01*
X212852000Y-67748162D02*
X212852000Y-67818000D01*
X214575107Y-66020461D02*
X213775984Y-66819584D01*
%TO.N,/I2C_SCL*%
X205790000Y-70916000D02*
X205790000Y-71400000D01*
X221333733Y-57460547D02*
X221333733Y-57812267D01*
X201676000Y-66802000D02*
X205790000Y-70916000D01*
X221333733Y-57812267D02*
X219754664Y-59391336D01*
X201676000Y-66446400D02*
X201676000Y-66802000D01*
%TO.N,/I2C_SDA*%
X218731489Y-61657889D02*
X218731489Y-60617711D01*
X219540762Y-60312346D02*
X220108218Y-59744890D01*
X219405200Y-62331600D02*
X218731489Y-61657889D01*
X219036854Y-60312346D02*
X219540762Y-60312346D01*
X205790000Y-68860000D02*
X201852400Y-64922400D01*
X201852400Y-64922400D02*
X201687400Y-64922400D01*
X218731489Y-60617711D02*
X219036854Y-60312346D01*
%TO.N,/3V3_IMG_SENSOR*%
X209155261Y-69455261D02*
X208280000Y-68580000D01*
X218834739Y-69455261D02*
X209155261Y-69455261D01*
X219151200Y-69138800D02*
X218834739Y-69455261D01*
%TO.N,/SPI_NSS_IMG*%
X205790000Y-53620000D02*
X204470000Y-54940000D01*
X205415997Y-67684999D02*
X208722903Y-67684999D01*
X204470000Y-54940000D02*
X204470000Y-66739002D01*
X204470000Y-66739002D02*
X205415997Y-67684999D01*
X210043645Y-69005741D02*
X216380477Y-69005741D01*
X216380477Y-69005741D02*
X217986897Y-67399321D01*
X208722903Y-67684999D02*
X210043645Y-69005741D01*
%TO.N,/SWDIO*%
X217065887Y-58204481D02*
X217065887Y-57873507D01*
X217065887Y-57873507D02*
X217373200Y-57566194D01*
X215282214Y-58330676D02*
X215282214Y-58366018D01*
X217258289Y-56586503D02*
X217258289Y-55283711D01*
X217373200Y-56701414D02*
X217258289Y-56586503D01*
X216437376Y-58898624D02*
X217098703Y-58237297D01*
X215814820Y-58898624D02*
X216437376Y-58898624D01*
X217373200Y-57566194D02*
X217373200Y-56701414D01*
X215282214Y-58366018D02*
X215814820Y-58898624D01*
X217258289Y-55283711D02*
X218694000Y-53848000D01*
X217098703Y-58237297D02*
X217065887Y-58204481D01*
%TO.N,/SWCLK*%
X217986897Y-56463098D02*
X217986897Y-57623569D01*
X218096500Y-56353495D02*
X217986897Y-56463098D01*
D27*
%TO.N,/CAN_N*%
X236321600Y-61214000D02*
X236731600Y-61624000D01*
X237729462Y-61624000D02*
X237729462Y-61228538D01*
X230150000Y-57306000D02*
X230984000Y-57306000D01*
X230984000Y-57306000D02*
X231394000Y-56896000D01*
X229740000Y-56896000D02*
X230150000Y-57306000D01*
X237729462Y-61228538D02*
X237998000Y-60960000D01*
X236731600Y-61624000D02*
X237729462Y-61624000D01*
%TO.N,/CAN_P*%
X229740000Y-58166000D02*
X230150000Y-57756000D01*
X236524800Y-62484000D02*
X236934800Y-62074000D01*
X237729462Y-62074000D02*
X237729462Y-62441462D01*
X236934800Y-62074000D02*
X237729462Y-62074000D01*
X230984000Y-57756000D02*
X231394000Y-58166000D01*
X237729462Y-62441462D02*
X237998000Y-62710000D01*
X230150000Y-57756000D02*
X230984000Y-57756000D01*
D26*
%TO.N,/UART_TX*%
X213300543Y-59177433D02*
X213868000Y-59744890D01*
X210753237Y-60393159D02*
X208280000Y-60393159D01*
X207873600Y-59986759D02*
X207873600Y-57251600D01*
X208280000Y-60393159D02*
X207873600Y-59986759D01*
X211968963Y-59177433D02*
X210753237Y-60393159D01*
X213300543Y-59177433D02*
X211968963Y-59177433D01*
%TO.N,/UART_RX*%
X209296000Y-59690000D02*
X208940400Y-59334400D01*
X211783068Y-58726932D02*
X210820000Y-59690000D01*
X213557150Y-58726932D02*
X214221554Y-59391336D01*
X213557150Y-58726932D02*
X211783068Y-58726932D01*
X210820000Y-59690000D02*
X209296000Y-59690000D01*
X208940400Y-59334400D02*
X208940400Y-57099200D01*
%TO.N,/BOOT0*%
X220497111Y-60098443D02*
X220461771Y-60098443D01*
X222488474Y-58036400D02*
X221538800Y-58986074D01*
X221538800Y-58986074D02*
X221538800Y-59056754D01*
X222504000Y-58036400D02*
X222488474Y-58036400D01*
X221538800Y-59056754D02*
X220497111Y-60098443D01*
%TO.N,/BOOT1*%
X211604330Y-66834564D02*
X211549436Y-66834564D01*
X213514447Y-64924447D02*
X211604330Y-66834564D01*
%TO.N,/CAN_TX*%
X222084664Y-57186880D02*
X222974296Y-57186880D01*
X219180499Y-52673489D02*
X219868511Y-53361501D01*
X213347704Y-57289120D02*
X213018480Y-56959896D01*
X222974296Y-57186880D02*
X223490480Y-57703064D01*
X213533550Y-57289120D02*
X213347704Y-57289120D01*
X214928660Y-58684230D02*
X213533550Y-57289120D01*
X213018480Y-56959896D02*
X213018480Y-56019304D01*
X223490480Y-57703064D02*
X223490480Y-59152480D01*
X217519489Y-54386793D02*
X217519489Y-53361501D01*
X217519489Y-53361501D02*
X218207501Y-52673489D01*
X214005567Y-55032217D02*
X216874065Y-55032217D01*
X218207501Y-52673489D02*
X219180499Y-52673489D01*
X223490480Y-59152480D02*
X223774000Y-59436000D01*
X223774000Y-59436000D02*
X224790000Y-59436000D01*
X219868511Y-53361501D02*
X219868511Y-54970727D01*
X219868511Y-54970727D02*
X222084664Y-57186880D01*
X213018480Y-56019304D02*
X214005567Y-55032217D01*
X216874065Y-55032217D02*
X217519489Y-54386793D01*
%TO.N,/CAN_RX*%
X211220133Y-58277412D02*
X213814736Y-58277412D01*
X209804000Y-58166000D02*
X210312000Y-58674000D01*
X210823545Y-58674000D02*
X211220133Y-58277412D01*
X212439489Y-53361501D02*
X212439489Y-54737101D01*
X213577021Y-52223969D02*
X212439489Y-53361501D01*
X221387969Y-52223969D02*
X213577021Y-52223969D01*
X212439489Y-54737101D02*
X209804000Y-57372590D01*
X224790000Y-55626000D02*
X221387969Y-52223969D01*
X209804000Y-57372590D02*
X209804000Y-58166000D01*
X210312000Y-58674000D02*
X210823545Y-58674000D01*
X213814736Y-58277412D02*
X214575107Y-59037783D01*
%TO.N,/EN_SWITCH*%
X214221554Y-65631554D02*
X213329235Y-66523873D01*
X213329235Y-66523873D02*
X213050984Y-66523873D01*
%TO.N,/SPI_NSS_FLASH*%
X212100233Y-61512657D02*
X212100233Y-61590096D01*
X212100233Y-61590096D02*
X211466546Y-62223783D01*
%TO.N,Net-(C7-Pad2)*%
X226535000Y-65814000D02*
X226860010Y-66139010D01*
X226060000Y-65814000D02*
X226535000Y-65814000D01*
X226535000Y-69342000D02*
X226060000Y-69342000D01*
X226860010Y-66139010D02*
X226860010Y-69016990D01*
X226860010Y-69016990D02*
X226535000Y-69342000D01*
%TO.N,/OSC_IN*%
X226060000Y-67564000D02*
X224966000Y-67564000D01*
X224129489Y-65777489D02*
X221314813Y-65777489D01*
X221314813Y-65777489D02*
X220461771Y-64924447D01*
X224966000Y-67564000D02*
X224204000Y-66802000D01*
X224282000Y-71120000D02*
X225128511Y-70273489D01*
X224204000Y-66802000D02*
X224204000Y-65852000D01*
X224204000Y-65852000D02*
X224129489Y-65777489D01*
X225128511Y-70273489D02*
X225128511Y-68495489D01*
X225128511Y-68495489D02*
X226060000Y-67564000D01*
%TO.N,/OSC_OUT*%
X222532000Y-72164000D02*
X223450362Y-73082362D01*
X222532000Y-71120000D02*
X222532000Y-72164000D01*
X222504000Y-69002000D02*
X221654000Y-69002000D01*
X220108218Y-65312004D02*
X220108218Y-65278000D01*
X221488000Y-66691786D02*
X220108218Y-65312004D01*
X221654000Y-69002000D02*
X221488000Y-68836000D01*
X226060000Y-71922872D02*
X226060000Y-71092000D01*
X222532000Y-71120000D02*
X222532000Y-69030000D01*
X222532000Y-69030000D02*
X222504000Y-69002000D01*
X221488000Y-68836000D02*
X221488000Y-66691786D01*
X224900510Y-73082362D02*
X226060000Y-71922872D01*
X223450362Y-73082362D02*
X224900510Y-73082362D01*
%TO.N,/HEARTBEAT*%
X230845484Y-69199884D02*
X230845484Y-69227294D01*
X220954975Y-62929321D02*
X221328403Y-62555893D01*
X222982293Y-62555893D02*
X223118297Y-62419889D01*
X221328403Y-62555893D02*
X222982293Y-62555893D01*
X220954975Y-63296331D02*
X220954975Y-62929321D01*
X223118297Y-62419889D02*
X224065489Y-62419889D01*
X224065489Y-62419889D02*
X230845484Y-69199884D01*
X221522431Y-63863787D02*
X220954975Y-63296331D01*
%TD*%
%TA.AperFunction,Conductor*%
%TO.N,GND*%
G36*
X207352770Y-68743254D02*
G01*
X207398174Y-68805986D01*
X207403300Y-68821761D01*
X207445473Y-68951556D01*
X207540960Y-69116944D01*
X207545378Y-69121851D01*
X207545379Y-69121852D01*
X207597088Y-69179281D01*
X207668747Y-69258866D01*
X207823248Y-69371118D01*
X207829276Y-69373802D01*
X207829278Y-69373803D01*
X207991681Y-69446109D01*
X207997712Y-69448794D01*
X208091112Y-69468647D01*
X208178056Y-69487128D01*
X208178061Y-69487128D01*
X208184513Y-69488500D01*
X208240405Y-69488500D01*
X208308526Y-69508502D01*
X208329500Y-69525405D01*
X208651609Y-69847514D01*
X208659149Y-69855800D01*
X208663261Y-69862279D01*
X208669038Y-69867704D01*
X208712912Y-69908904D01*
X208715754Y-69911659D01*
X208735491Y-69931396D01*
X208738688Y-69933876D01*
X208747708Y-69941579D01*
X208779940Y-69971847D01*
X208786886Y-69975666D01*
X208786889Y-69975668D01*
X208797695Y-69981609D01*
X208814214Y-69992460D01*
X208830220Y-70004875D01*
X208837489Y-70008020D01*
X208837493Y-70008023D01*
X208870798Y-70022435D01*
X208881448Y-70027652D01*
X208920201Y-70048956D01*
X208927876Y-70050927D01*
X208927877Y-70050927D01*
X208939823Y-70053994D01*
X208958528Y-70060398D01*
X208977116Y-70068442D01*
X208984939Y-70069681D01*
X208984949Y-70069684D01*
X209020785Y-70075360D01*
X209032405Y-70077766D01*
X209064220Y-70085934D01*
X209075231Y-70088761D01*
X209095485Y-70088761D01*
X209115195Y-70090312D01*
X209135204Y-70093481D01*
X209143096Y-70092735D01*
X209161841Y-70090963D01*
X209179223Y-70089320D01*
X209191080Y-70088761D01*
X218755972Y-70088761D01*
X218767155Y-70089288D01*
X218774648Y-70090963D01*
X218782574Y-70090714D01*
X218782575Y-70090714D01*
X218842725Y-70088823D01*
X218846684Y-70088761D01*
X218874595Y-70088761D01*
X218878530Y-70088264D01*
X218878595Y-70088256D01*
X218890432Y-70087323D01*
X218922690Y-70086309D01*
X218926709Y-70086183D01*
X218934628Y-70085934D01*
X218954082Y-70080282D01*
X218973439Y-70076274D01*
X218985669Y-70074729D01*
X218985670Y-70074729D01*
X218993536Y-70073735D01*
X219000907Y-70070816D01*
X219000909Y-70070816D01*
X219034642Y-70057460D01*
X219045885Y-70053611D01*
X219050399Y-70052300D01*
X219085541Y-70047300D01*
X219246687Y-70047300D01*
X219253139Y-70045928D01*
X219253144Y-70045928D01*
X219340087Y-70027447D01*
X219433488Y-70007594D01*
X219513778Y-69971847D01*
X219555772Y-69953150D01*
X219597677Y-69934493D01*
X219648925Y-69923600D01*
X220461220Y-69923600D01*
X220529341Y-69943602D01*
X220575834Y-69997258D01*
X220587220Y-70049600D01*
X220587220Y-70305600D01*
X220567218Y-70373721D01*
X220513562Y-70420214D01*
X220461220Y-70431600D01*
X219456315Y-70431600D01*
X219441076Y-70436075D01*
X219439871Y-70437465D01*
X219438200Y-70445148D01*
X219438200Y-70511357D01*
X219438537Y-70517882D01*
X219448275Y-70611732D01*
X219451168Y-70625128D01*
X219501688Y-70776553D01*
X219507853Y-70789715D01*
X219591626Y-70925092D01*
X219600660Y-70936490D01*
X219713329Y-71048963D01*
X219724746Y-71057979D01*
X219737525Y-71065857D01*
X219785018Y-71118630D01*
X219796439Y-71188702D01*
X219768164Y-71253825D01*
X219760507Y-71262205D01*
X219190989Y-71831722D01*
X219128679Y-71865747D01*
X219057864Y-71860682D01*
X219001028Y-71818135D01*
X218976217Y-71751615D01*
X218992776Y-71679627D01*
X218994808Y-71676107D01*
X219011425Y-71647326D01*
X219070440Y-71465698D01*
X219076992Y-71403365D01*
X219089712Y-71282335D01*
X219090402Y-71275770D01*
X219080059Y-71177361D01*
X219071130Y-71092405D01*
X219071130Y-71092403D01*
X219070440Y-71085842D01*
X219011425Y-70904214D01*
X218915938Y-70738826D01*
X218851458Y-70667213D01*
X218792573Y-70601815D01*
X218792572Y-70601814D01*
X218788151Y-70596904D01*
X218666836Y-70508763D01*
X218638992Y-70488533D01*
X218638991Y-70488532D01*
X218633650Y-70484652D01*
X218627622Y-70481968D01*
X218627620Y-70481967D01*
X218465217Y-70409661D01*
X218465216Y-70409661D01*
X218459186Y-70406976D01*
X218365785Y-70387123D01*
X218278842Y-70368642D01*
X218278837Y-70368642D01*
X218272385Y-70367270D01*
X218081411Y-70367270D01*
X218074959Y-70368642D01*
X218074954Y-70368642D01*
X217988011Y-70387123D01*
X217894610Y-70406976D01*
X217888580Y-70409661D01*
X217888579Y-70409661D01*
X217726176Y-70481967D01*
X217726174Y-70481968D01*
X217720146Y-70484652D01*
X217714805Y-70488532D01*
X217714804Y-70488533D01*
X217686960Y-70508763D01*
X217565645Y-70596904D01*
X217561224Y-70601814D01*
X217561223Y-70601815D01*
X217502339Y-70667213D01*
X217437858Y-70738826D01*
X217342371Y-70904214D01*
X217283356Y-71085842D01*
X217282667Y-71092401D01*
X217282666Y-71092404D01*
X217274292Y-71172081D01*
X217247279Y-71237737D01*
X217189057Y-71278367D01*
X217118112Y-71281070D01*
X217055348Y-71243222D01*
X217019253Y-71203134D01*
X216864752Y-71090882D01*
X216858724Y-71088198D01*
X216858722Y-71088197D01*
X216696319Y-71015891D01*
X216696318Y-71015891D01*
X216690288Y-71013206D01*
X216596888Y-70993353D01*
X216509944Y-70974872D01*
X216509939Y-70974872D01*
X216503487Y-70973500D01*
X216312513Y-70973500D01*
X216306061Y-70974872D01*
X216306056Y-70974872D01*
X216219112Y-70993353D01*
X216125712Y-71013206D01*
X216119682Y-71015891D01*
X216119681Y-71015891D01*
X215957278Y-71088197D01*
X215957276Y-71088198D01*
X215951248Y-71090882D01*
X215796747Y-71203134D01*
X215668960Y-71345056D01*
X215637238Y-71400000D01*
X215579016Y-71500844D01*
X215573473Y-71510444D01*
X215514458Y-71692072D01*
X215513768Y-71698633D01*
X215513768Y-71698635D01*
X215508200Y-71751615D01*
X215494496Y-71882000D01*
X215495186Y-71888565D01*
X215510984Y-72038871D01*
X215514458Y-72071928D01*
X215516498Y-72078205D01*
X215517871Y-72084666D01*
X215516225Y-72085016D01*
X215518016Y-72147595D01*
X215481357Y-72208394D01*
X215417646Y-72239723D01*
X215396154Y-72241569D01*
X214866878Y-72241569D01*
X214798757Y-72221567D01*
X214779531Y-72205226D01*
X214779258Y-72205529D01*
X214774346Y-72201106D01*
X214769931Y-72196203D01*
X214685211Y-72134650D01*
X214620772Y-72087832D01*
X214620771Y-72087831D01*
X214615430Y-72083951D01*
X214609402Y-72081267D01*
X214609400Y-72081266D01*
X214446997Y-72008960D01*
X214446996Y-72008960D01*
X214440966Y-72006275D01*
X214343745Y-71985610D01*
X214260622Y-71967941D01*
X214260617Y-71967941D01*
X214254165Y-71966569D01*
X214063191Y-71966569D01*
X214056739Y-71967941D01*
X214056734Y-71967941D01*
X213973611Y-71985610D01*
X213876390Y-72006275D01*
X213870360Y-72008960D01*
X213870359Y-72008960D01*
X213707956Y-72081266D01*
X213707954Y-72081267D01*
X213701926Y-72083951D01*
X213547425Y-72196203D01*
X213543004Y-72201113D01*
X213543003Y-72201114D01*
X213449205Y-72305288D01*
X213419638Y-72338125D01*
X213324151Y-72503513D01*
X213265136Y-72685141D01*
X213245174Y-72875069D01*
X213245864Y-72881634D01*
X213260649Y-73022301D01*
X213265136Y-73064997D01*
X213324151Y-73246625D01*
X213419638Y-73412013D01*
X213424056Y-73416920D01*
X213424057Y-73416921D01*
X213525598Y-73529694D01*
X213547425Y-73553935D01*
X213632748Y-73615926D01*
X213690753Y-73658069D01*
X213701926Y-73666187D01*
X213707954Y-73668871D01*
X213707956Y-73668872D01*
X213870359Y-73741178D01*
X213876390Y-73743863D01*
X213969791Y-73763716D01*
X214056734Y-73782197D01*
X214056739Y-73782197D01*
X214063191Y-73783569D01*
X214254165Y-73783569D01*
X214260617Y-73782197D01*
X214260622Y-73782197D01*
X214347565Y-73763716D01*
X214440966Y-73743863D01*
X214446997Y-73741178D01*
X214609400Y-73668872D01*
X214609402Y-73668871D01*
X214615430Y-73666187D01*
X214626604Y-73658069D01*
X214763652Y-73558497D01*
X214769931Y-73553935D01*
X214774346Y-73549032D01*
X214779258Y-73544609D01*
X214780383Y-73545858D01*
X214833692Y-73513018D01*
X214866878Y-73508569D01*
X218964780Y-73508569D01*
X218975963Y-73509096D01*
X218983456Y-73510771D01*
X218991382Y-73510522D01*
X218991383Y-73510522D01*
X219051533Y-73508631D01*
X219055492Y-73508569D01*
X219083403Y-73508569D01*
X219087338Y-73508072D01*
X219087403Y-73508064D01*
X219099240Y-73507131D01*
X219131498Y-73506117D01*
X219135517Y-73505991D01*
X219143436Y-73505742D01*
X219162890Y-73500090D01*
X219182247Y-73496082D01*
X219194477Y-73494537D01*
X219194478Y-73494537D01*
X219202344Y-73493543D01*
X219209715Y-73490624D01*
X219209717Y-73490624D01*
X219243459Y-73477265D01*
X219254689Y-73473420D01*
X219289530Y-73463298D01*
X219289531Y-73463298D01*
X219297140Y-73461087D01*
X219303959Y-73457054D01*
X219303964Y-73457052D01*
X219314575Y-73450776D01*
X219332323Y-73442081D01*
X219351164Y-73434621D01*
X219386934Y-73408633D01*
X219396854Y-73402117D01*
X219428082Y-73383649D01*
X219428085Y-73383647D01*
X219434909Y-73379611D01*
X219449230Y-73365290D01*
X219464264Y-73352449D01*
X219474241Y-73345200D01*
X219480654Y-73340541D01*
X219508845Y-73306464D01*
X219516835Y-73297685D01*
X221313676Y-71500844D01*
X221375988Y-71466818D01*
X221446803Y-71471883D01*
X221503639Y-71514430D01*
X221522293Y-71550060D01*
X221564346Y-71676107D01*
X221655884Y-71824031D01*
X221661066Y-71829204D01*
X221773816Y-71941758D01*
X221773821Y-71941762D01*
X221778997Y-71946929D01*
X221785229Y-71950771D01*
X221785231Y-71950772D01*
X221838107Y-71983366D01*
X221885600Y-72036138D01*
X221897070Y-72100457D01*
X221896298Y-72103909D01*
X221896547Y-72111832D01*
X221896547Y-72111833D01*
X221898438Y-72171986D01*
X221898500Y-72175945D01*
X221898500Y-72203856D01*
X221898997Y-72207790D01*
X221898997Y-72207791D01*
X221899005Y-72207856D01*
X221899938Y-72219693D01*
X221901327Y-72263889D01*
X221906279Y-72280933D01*
X221906978Y-72283339D01*
X221910987Y-72302700D01*
X221913526Y-72322797D01*
X221916445Y-72330168D01*
X221916445Y-72330170D01*
X221929804Y-72363912D01*
X221933649Y-72375142D01*
X221945982Y-72417593D01*
X221950015Y-72424412D01*
X221950017Y-72424417D01*
X221956293Y-72435028D01*
X221964988Y-72452776D01*
X221972448Y-72471617D01*
X221977110Y-72478033D01*
X221977110Y-72478034D01*
X221998436Y-72507387D01*
X222004952Y-72517307D01*
X222027458Y-72555362D01*
X222041779Y-72569683D01*
X222054619Y-72584716D01*
X222066528Y-72601107D01*
X222072633Y-72606158D01*
X222072638Y-72606163D01*
X222100604Y-72629299D01*
X222109382Y-72637287D01*
X222946710Y-73474615D01*
X222954250Y-73482901D01*
X222958362Y-73489380D01*
X222964139Y-73494805D01*
X223008013Y-73536005D01*
X223010855Y-73538760D01*
X223030592Y-73558497D01*
X223033789Y-73560977D01*
X223042809Y-73568680D01*
X223075041Y-73598948D01*
X223081987Y-73602767D01*
X223081990Y-73602769D01*
X223092796Y-73608710D01*
X223109315Y-73619561D01*
X223125321Y-73631976D01*
X223132590Y-73635121D01*
X223132594Y-73635124D01*
X223165899Y-73649536D01*
X223176549Y-73654753D01*
X223215302Y-73676057D01*
X223222977Y-73678028D01*
X223222978Y-73678028D01*
X223234924Y-73681095D01*
X223253629Y-73687499D01*
X223272217Y-73695543D01*
X223280040Y-73696782D01*
X223280050Y-73696785D01*
X223315886Y-73702461D01*
X223327506Y-73704867D01*
X223359321Y-73713035D01*
X223370332Y-73715862D01*
X223390586Y-73715862D01*
X223410296Y-73717413D01*
X223430305Y-73720582D01*
X223438197Y-73719836D01*
X223456942Y-73718064D01*
X223474324Y-73716421D01*
X223486181Y-73715862D01*
X224821743Y-73715862D01*
X224832926Y-73716389D01*
X224840419Y-73718064D01*
X224848345Y-73717815D01*
X224848346Y-73717815D01*
X224908496Y-73715924D01*
X224912455Y-73715862D01*
X224940366Y-73715862D01*
X224944301Y-73715365D01*
X224944366Y-73715357D01*
X224956203Y-73714424D01*
X224988461Y-73713410D01*
X224992480Y-73713284D01*
X225000399Y-73713035D01*
X225019853Y-73707383D01*
X225039210Y-73703375D01*
X225051440Y-73701830D01*
X225051441Y-73701830D01*
X225059307Y-73700836D01*
X225066678Y-73697917D01*
X225066680Y-73697917D01*
X225100422Y-73684558D01*
X225111652Y-73680713D01*
X225146493Y-73670591D01*
X225146494Y-73670591D01*
X225154103Y-73668380D01*
X225160922Y-73664347D01*
X225160927Y-73664345D01*
X225171538Y-73658069D01*
X225189286Y-73649374D01*
X225208127Y-73641914D01*
X225243897Y-73615926D01*
X225253817Y-73609410D01*
X225285045Y-73590942D01*
X225285048Y-73590940D01*
X225291872Y-73586904D01*
X225306193Y-73572583D01*
X225321227Y-73559742D01*
X225323881Y-73557814D01*
X225337617Y-73547834D01*
X225365808Y-73513757D01*
X225373798Y-73504978D01*
X226452247Y-72426529D01*
X226460537Y-72418985D01*
X226467018Y-72414872D01*
X226513659Y-72365204D01*
X226516413Y-72362363D01*
X226536134Y-72342642D01*
X226538612Y-72339447D01*
X226546318Y-72330425D01*
X226571158Y-72303973D01*
X226576586Y-72298193D01*
X226586346Y-72280440D01*
X226597199Y-72263917D01*
X226604753Y-72254178D01*
X226609613Y-72247913D01*
X226627176Y-72207329D01*
X226632383Y-72196699D01*
X226653695Y-72157932D01*
X226655666Y-72150255D01*
X226655668Y-72150250D01*
X226658732Y-72138314D01*
X226665138Y-72119602D01*
X226670034Y-72108289D01*
X226673181Y-72101017D01*
X226677611Y-72073047D01*
X226708023Y-72008893D01*
X226735755Y-71985614D01*
X226764031Y-71968116D01*
X226773611Y-71958519D01*
X226881758Y-71850184D01*
X226881762Y-71850179D01*
X226886929Y-71845003D01*
X226896668Y-71829204D01*
X226974369Y-71703150D01*
X226974370Y-71703148D01*
X226978209Y-71696920D01*
X227032974Y-71531809D01*
X227035097Y-71511093D01*
X227043172Y-71432271D01*
X227043500Y-71429072D01*
X227043500Y-70754928D01*
X227043163Y-70751678D01*
X227033419Y-70657765D01*
X227033418Y-70657761D01*
X227032707Y-70650907D01*
X227024107Y-70625128D01*
X226979972Y-70492841D01*
X226977654Y-70485893D01*
X226927970Y-70405604D01*
X226889969Y-70344195D01*
X226889968Y-70344194D01*
X226886116Y-70337969D01*
X226854213Y-70306121D01*
X226820134Y-70243841D01*
X226825137Y-70173021D01*
X226854057Y-70127933D01*
X226881757Y-70100184D01*
X226886929Y-70095003D01*
X226896003Y-70080283D01*
X226974369Y-69953150D01*
X226974370Y-69953148D01*
X226978209Y-69946920D01*
X227032974Y-69781809D01*
X227033675Y-69774969D01*
X227035118Y-69768238D01*
X227037656Y-69768782D01*
X227060024Y-69713999D01*
X227069437Y-69703467D01*
X227252257Y-69520647D01*
X227260547Y-69513103D01*
X227267028Y-69508990D01*
X227313669Y-69459322D01*
X227316423Y-69456481D01*
X227336145Y-69436759D01*
X227338622Y-69433566D01*
X227346327Y-69424545D01*
X227371169Y-69398090D01*
X227376596Y-69392311D01*
X227380417Y-69385361D01*
X227386356Y-69374558D01*
X227397212Y-69358031D01*
X227403464Y-69349971D01*
X227409624Y-69342030D01*
X227412350Y-69335730D01*
X227463896Y-69287601D01*
X227533747Y-69274896D01*
X227599378Y-69301971D01*
X227639952Y-69360232D01*
X227645767Y-69387022D01*
X227653068Y-69456481D01*
X227655658Y-69481128D01*
X227714673Y-69662756D01*
X227717976Y-69668478D01*
X227717977Y-69668479D01*
X227744258Y-69713999D01*
X227810160Y-69828144D01*
X227814578Y-69833051D01*
X227814579Y-69833052D01*
X227903128Y-69931396D01*
X227937947Y-69970066D01*
X228013273Y-70024794D01*
X228086183Y-70077766D01*
X228092448Y-70082318D01*
X228098476Y-70085002D01*
X228098478Y-70085003D01*
X228203580Y-70131797D01*
X228266912Y-70159994D01*
X228360313Y-70179847D01*
X228447256Y-70198328D01*
X228447261Y-70198328D01*
X228453713Y-70199700D01*
X228644687Y-70199700D01*
X228651139Y-70198328D01*
X228651144Y-70198328D01*
X228738088Y-70179847D01*
X228831488Y-70159994D01*
X228894820Y-70131797D01*
X228999922Y-70085003D01*
X228999924Y-70085002D01*
X229005952Y-70082318D01*
X229012218Y-70077766D01*
X229085127Y-70024794D01*
X229160453Y-69970066D01*
X229215524Y-69908904D01*
X229276000Y-69841738D01*
X229336446Y-69804498D01*
X229407430Y-69805850D01*
X229458731Y-69836953D01*
X229965830Y-70344052D01*
X229973374Y-70352342D01*
X229977487Y-70358823D01*
X229983264Y-70364248D01*
X230027154Y-70405463D01*
X230029996Y-70408218D01*
X230049718Y-70427940D01*
X230052842Y-70430363D01*
X230052846Y-70430367D01*
X230052911Y-70430417D01*
X230061932Y-70438122D01*
X230094166Y-70468391D01*
X230101114Y-70472210D01*
X230101116Y-70472212D01*
X230111919Y-70478151D01*
X230128446Y-70489007D01*
X230138185Y-70496562D01*
X230138187Y-70496563D01*
X230144447Y-70501419D01*
X230185027Y-70518979D01*
X230195675Y-70524196D01*
X230220463Y-70537823D01*
X230234427Y-70545500D01*
X230242103Y-70547471D01*
X230242106Y-70547472D01*
X230254049Y-70550538D01*
X230272754Y-70556942D01*
X230291342Y-70564986D01*
X230299165Y-70566225D01*
X230299175Y-70566228D01*
X230335011Y-70571904D01*
X230346631Y-70574310D01*
X230378446Y-70582478D01*
X230389457Y-70585305D01*
X230409711Y-70585305D01*
X230429421Y-70586856D01*
X230449430Y-70590025D01*
X230457322Y-70589279D01*
X230476067Y-70587507D01*
X230493449Y-70585864D01*
X230505306Y-70585305D01*
X231066820Y-70585305D01*
X231078003Y-70585832D01*
X231085496Y-70587507D01*
X231093422Y-70587258D01*
X231093423Y-70587258D01*
X231153573Y-70585367D01*
X231157532Y-70585305D01*
X231185443Y-70585305D01*
X231189378Y-70584808D01*
X231189443Y-70584800D01*
X231201280Y-70583867D01*
X231233538Y-70582853D01*
X231237557Y-70582727D01*
X231245476Y-70582478D01*
X231264930Y-70576826D01*
X231284287Y-70572818D01*
X231296517Y-70571273D01*
X231296518Y-70571273D01*
X231304384Y-70570279D01*
X231311755Y-70567360D01*
X231311757Y-70567360D01*
X231345499Y-70554001D01*
X231356729Y-70550156D01*
X231391570Y-70540034D01*
X231391571Y-70540034D01*
X231399180Y-70537823D01*
X231405999Y-70533790D01*
X231406004Y-70533788D01*
X231416615Y-70527512D01*
X231434363Y-70518817D01*
X231453204Y-70511357D01*
X231478690Y-70492841D01*
X231488974Y-70485369D01*
X231498894Y-70478853D01*
X231530122Y-70460385D01*
X231530125Y-70460383D01*
X231536949Y-70456347D01*
X231551270Y-70442026D01*
X231566304Y-70429185D01*
X231582694Y-70417277D01*
X231583447Y-70418314D01*
X231639627Y-70389893D01*
X231710248Y-70397182D01*
X231765718Y-70441495D01*
X231788424Y-70508763D01*
X231784232Y-70546405D01*
X231727562Y-70757901D01*
X231716416Y-70828275D01*
X231670428Y-71118630D01*
X231666754Y-71141824D01*
X231646411Y-71530000D01*
X231666754Y-71918176D01*
X231667267Y-71921416D01*
X231667268Y-71921424D01*
X231685870Y-72038871D01*
X231727562Y-72302099D01*
X231828167Y-72677562D01*
X231829352Y-72680650D01*
X231829353Y-72680652D01*
X231860233Y-72761097D01*
X231967468Y-73040453D01*
X231968966Y-73043393D01*
X232142336Y-73383649D01*
X232143938Y-73386794D01*
X232145734Y-73389560D01*
X232145736Y-73389563D01*
X232333066Y-73678028D01*
X232355643Y-73712793D01*
X232600266Y-74014876D01*
X232875124Y-74289734D01*
X232877682Y-74291806D01*
X232877686Y-74291809D01*
X233074986Y-74451580D01*
X233115338Y-74509994D01*
X233117703Y-74580951D01*
X233081330Y-74641923D01*
X233017767Y-74673551D01*
X232995691Y-74675500D01*
X203278309Y-74675500D01*
X203210188Y-74655498D01*
X203163695Y-74601842D01*
X203153591Y-74531568D01*
X203183085Y-74466988D01*
X203199014Y-74451580D01*
X203396314Y-74291809D01*
X203396318Y-74291806D01*
X203398876Y-74289734D01*
X203673734Y-74014876D01*
X203918357Y-73712793D01*
X203940934Y-73678028D01*
X204128264Y-73389563D01*
X204128266Y-73389560D01*
X204130062Y-73386794D01*
X204131665Y-73383649D01*
X204305034Y-73043393D01*
X204306532Y-73040453D01*
X204413767Y-72761097D01*
X204444647Y-72680652D01*
X204444648Y-72680650D01*
X204445833Y-72677562D01*
X204538742Y-72330819D01*
X204575694Y-72270197D01*
X204639554Y-72239176D01*
X204710049Y-72247604D01*
X204755686Y-72280933D01*
X204832865Y-72370031D01*
X204832869Y-72370035D01*
X204836250Y-72373938D01*
X205008126Y-72516632D01*
X205201000Y-72629338D01*
X205409692Y-72709030D01*
X205414760Y-72710061D01*
X205414763Y-72710062D01*
X205522017Y-72731883D01*
X205628597Y-72753567D01*
X205633772Y-72753757D01*
X205633774Y-72753757D01*
X205846673Y-72761564D01*
X205846677Y-72761564D01*
X205851837Y-72761753D01*
X205856957Y-72761097D01*
X205856959Y-72761097D01*
X206068288Y-72734025D01*
X206068289Y-72734025D01*
X206073416Y-72733368D01*
X206078366Y-72731883D01*
X206282429Y-72670661D01*
X206282434Y-72670659D01*
X206287384Y-72669174D01*
X206487994Y-72570896D01*
X206669860Y-72441173D01*
X206828096Y-72283489D01*
X206858219Y-72241569D01*
X206955435Y-72106277D01*
X206958453Y-72102077D01*
X206965494Y-72087832D01*
X207055136Y-71906453D01*
X207055137Y-71906451D01*
X207057430Y-71901811D01*
X207122370Y-71688069D01*
X207151529Y-71466590D01*
X207153156Y-71400000D01*
X207134852Y-71177361D01*
X207080431Y-70960702D01*
X206991354Y-70755840D01*
X206934019Y-70667213D01*
X206872822Y-70572617D01*
X206872820Y-70572614D01*
X206870014Y-70568277D01*
X206719670Y-70403051D01*
X206715619Y-70399852D01*
X206715615Y-70399848D01*
X206548414Y-70267800D01*
X206548410Y-70267798D01*
X206544359Y-70264598D01*
X206503053Y-70241796D01*
X206453084Y-70191364D01*
X206438312Y-70121921D01*
X206463428Y-70055516D01*
X206490780Y-70028909D01*
X206573275Y-69970066D01*
X206669860Y-69901173D01*
X206738220Y-69833052D01*
X206824435Y-69747137D01*
X206828096Y-69743489D01*
X206876776Y-69675744D01*
X206955435Y-69566277D01*
X206958453Y-69562077D01*
X206976578Y-69525405D01*
X207055136Y-69366453D01*
X207055137Y-69366451D01*
X207057430Y-69361811D01*
X207122370Y-69148069D01*
X207151529Y-68926590D01*
X207153156Y-68860000D01*
X207152765Y-68855248D01*
X207152831Y-68854931D01*
X207152784Y-68853304D01*
X207153169Y-68853293D01*
X207167116Y-68785719D01*
X207216780Y-68734985D01*
X207285989Y-68719154D01*
X207352770Y-68743254D01*
G37*
%TD.AperFunction*%
%TA.AperFunction,Conductor*%
G36*
X223616078Y-72000606D02*
G01*
X223677080Y-72038209D01*
X223842191Y-72092974D01*
X223849027Y-72093674D01*
X223849030Y-72093675D01*
X223887703Y-72097637D01*
X223944928Y-72103500D01*
X224619072Y-72103500D01*
X224622316Y-72103163D01*
X224622324Y-72103163D01*
X224672489Y-72097958D01*
X224742310Y-72110823D01*
X224794092Y-72159394D01*
X224811394Y-72228250D01*
X224788723Y-72295530D01*
X224774587Y-72312380D01*
X224675010Y-72411957D01*
X224612698Y-72445983D01*
X224585915Y-72448862D01*
X223764957Y-72448862D01*
X223696836Y-72428860D01*
X223675861Y-72411957D01*
X223460867Y-72196962D01*
X223426842Y-72134650D01*
X223431907Y-72063834D01*
X223474454Y-72006999D01*
X223540975Y-71982188D01*
X223616078Y-72000606D01*
G37*
%TD.AperFunction*%
%TA.AperFunction,Conductor*%
G36*
X236068000Y-63275083D02*
G01*
X236068048Y-63275118D01*
X236074084Y-63277805D01*
X236074085Y-63277806D01*
X236236481Y-63350109D01*
X236242512Y-63352794D01*
X236335912Y-63372647D01*
X236422856Y-63391128D01*
X236422861Y-63391128D01*
X236429313Y-63392500D01*
X236620287Y-63392500D01*
X236626739Y-63391128D01*
X236626744Y-63391128D01*
X236713688Y-63372647D01*
X236807088Y-63352794D01*
X236822629Y-63345875D01*
X236887559Y-63316966D01*
X236938619Y-63294233D01*
X237008985Y-63284799D01*
X237073282Y-63314905D01*
X237097007Y-63343031D01*
X237171884Y-63464031D01*
X237177066Y-63469204D01*
X237289816Y-63581758D01*
X237289821Y-63581762D01*
X237294997Y-63586929D01*
X237301227Y-63590769D01*
X237301228Y-63590770D01*
X237434268Y-63672777D01*
X237443080Y-63678209D01*
X237608191Y-63732974D01*
X237615027Y-63733674D01*
X237615030Y-63733675D01*
X237666526Y-63738951D01*
X237710928Y-63743500D01*
X238285072Y-63743500D01*
X238288318Y-63743163D01*
X238288322Y-63743163D01*
X238382235Y-63733419D01*
X238382239Y-63733418D01*
X238389093Y-63732707D01*
X238395629Y-63730526D01*
X238395631Y-63730526D01*
X238533968Y-63684373D01*
X238554107Y-63677654D01*
X238567200Y-63669552D01*
X238635651Y-63650716D01*
X238703421Y-63671879D01*
X238748991Y-63726320D01*
X238759500Y-63776698D01*
X238759500Y-69530306D01*
X238739498Y-69598427D01*
X238685842Y-69644920D01*
X238615568Y-69655024D01*
X238550988Y-69625530D01*
X238527827Y-69598930D01*
X238366152Y-69349971D01*
X238366152Y-69349970D01*
X238364357Y-69347207D01*
X238198943Y-69142939D01*
X238121809Y-69047686D01*
X238121806Y-69047682D01*
X238119734Y-69045124D01*
X237844876Y-68770266D01*
X237841145Y-68767244D01*
X237680753Y-68637361D01*
X237542793Y-68525643D01*
X237345157Y-68397297D01*
X237219564Y-68315736D01*
X237219561Y-68315734D01*
X237216795Y-68313938D01*
X237213861Y-68312443D01*
X237213854Y-68312439D01*
X236873393Y-68138966D01*
X236870453Y-68137468D01*
X236645728Y-68051204D01*
X236510652Y-67999353D01*
X236510650Y-67999352D01*
X236507562Y-67998167D01*
X236132099Y-67897562D01*
X235916777Y-67863458D01*
X235751424Y-67837268D01*
X235751416Y-67837267D01*
X235748176Y-67836754D01*
X235360000Y-67816411D01*
X234971824Y-67836754D01*
X234968584Y-67837267D01*
X234968576Y-67837268D01*
X234803223Y-67863458D01*
X234587901Y-67897562D01*
X234212438Y-67998167D01*
X234209350Y-67999352D01*
X234209348Y-67999353D01*
X234074272Y-68051204D01*
X233849547Y-68137468D01*
X233846607Y-68138966D01*
X233506147Y-68312439D01*
X233506140Y-68312443D01*
X233503206Y-68313938D01*
X233500440Y-68315734D01*
X233500437Y-68315736D01*
X233228286Y-68492472D01*
X233177207Y-68525643D01*
X233039247Y-68637361D01*
X232878856Y-68767244D01*
X232875124Y-68770266D01*
X232600266Y-69045124D01*
X232598194Y-69047682D01*
X232598191Y-69047686D01*
X232427415Y-69258576D01*
X232369001Y-69298928D01*
X232298044Y-69301293D01*
X232237072Y-69264920D01*
X232205444Y-69201357D01*
X232203495Y-69179281D01*
X232203495Y-68326763D01*
X232204022Y-68315580D01*
X232205697Y-68308087D01*
X232203557Y-68239996D01*
X232203495Y-68236039D01*
X232203495Y-68208139D01*
X232202991Y-68204148D01*
X232202058Y-68192306D01*
X232202039Y-68191684D01*
X232200669Y-68148106D01*
X232198014Y-68138966D01*
X232195016Y-68128647D01*
X232191007Y-68109288D01*
X232190256Y-68103346D01*
X232188469Y-68089198D01*
X232185553Y-68081832D01*
X232185551Y-68081826D01*
X232172195Y-68048093D01*
X232168350Y-68036863D01*
X232158225Y-68002012D01*
X232158225Y-68002011D01*
X232156014Y-67994402D01*
X232145700Y-67976961D01*
X232137003Y-67959208D01*
X232132467Y-67947753D01*
X232129547Y-67940378D01*
X232103558Y-67904607D01*
X232097042Y-67894687D01*
X232074537Y-67856633D01*
X232060216Y-67842312D01*
X232047375Y-67827278D01*
X232040126Y-67817301D01*
X232035467Y-67810888D01*
X232001390Y-67782697D01*
X231992611Y-67774707D01*
X231144699Y-66926795D01*
X231110673Y-66864483D01*
X231115738Y-66793668D01*
X231158285Y-66736832D01*
X231224805Y-66712021D01*
X231233794Y-66711700D01*
X231942084Y-66711700D01*
X232004266Y-66704945D01*
X232140655Y-66653815D01*
X232257211Y-66566461D01*
X232344565Y-66449905D01*
X232395695Y-66313516D01*
X232402450Y-66251334D01*
X232402450Y-65807611D01*
X232422452Y-65739490D01*
X232476108Y-65692997D01*
X232546382Y-65682893D01*
X232594567Y-65700352D01*
X232651048Y-65735168D01*
X232651051Y-65735169D01*
X232657280Y-65739009D01*
X232822391Y-65793774D01*
X232829227Y-65794474D01*
X232829230Y-65794475D01*
X232876570Y-65799325D01*
X232925128Y-65804300D01*
X233624272Y-65804300D01*
X233627518Y-65803963D01*
X233627522Y-65803963D01*
X233721435Y-65794219D01*
X233721439Y-65794218D01*
X233728293Y-65793507D01*
X233734829Y-65791326D01*
X233734831Y-65791326D01*
X233884597Y-65741360D01*
X233893307Y-65738454D01*
X234041231Y-65646916D01*
X234048474Y-65639661D01*
X234050238Y-65638695D01*
X234052141Y-65637187D01*
X234052399Y-65637513D01*
X234110754Y-65605581D01*
X234181575Y-65610582D01*
X234226670Y-65639508D01*
X234229331Y-65642164D01*
X234240740Y-65651175D01*
X234376263Y-65734712D01*
X234389441Y-65740856D01*
X234540966Y-65791115D01*
X234554332Y-65793981D01*
X234646970Y-65803472D01*
X234653385Y-65803800D01*
X234727585Y-65803800D01*
X234742824Y-65799325D01*
X234744029Y-65797935D01*
X234745700Y-65790252D01*
X234745700Y-65785685D01*
X235253700Y-65785685D01*
X235258175Y-65800924D01*
X235259565Y-65802129D01*
X235267248Y-65803800D01*
X235345966Y-65803800D01*
X235352482Y-65803463D01*
X235446332Y-65793725D01*
X235459728Y-65790832D01*
X235611153Y-65740312D01*
X235624315Y-65734147D01*
X235759692Y-65650374D01*
X235771090Y-65641340D01*
X235883563Y-65528671D01*
X235892575Y-65517260D01*
X235976112Y-65381737D01*
X235982256Y-65368559D01*
X236032515Y-65217034D01*
X236035381Y-65203668D01*
X236044872Y-65111030D01*
X236045200Y-65104615D01*
X236045200Y-65092915D01*
X236040725Y-65077676D01*
X236039335Y-65076471D01*
X236031652Y-65074800D01*
X235271815Y-65074800D01*
X235256576Y-65079275D01*
X235255371Y-65080665D01*
X235253700Y-65088348D01*
X235253700Y-65785685D01*
X234745700Y-65785685D01*
X234745700Y-64692800D01*
X234765702Y-64624679D01*
X234819358Y-64578186D01*
X234871700Y-64566800D01*
X236027085Y-64566800D01*
X236042324Y-64562325D01*
X236043529Y-64560935D01*
X236045200Y-64553252D01*
X236045200Y-64537034D01*
X236044863Y-64530518D01*
X236035125Y-64436668D01*
X236032232Y-64423272D01*
X235981712Y-64271847D01*
X235975547Y-64258685D01*
X235891774Y-64123308D01*
X235882740Y-64111910D01*
X235770071Y-63999437D01*
X235758660Y-63990425D01*
X235623137Y-63906888D01*
X235609959Y-63900744D01*
X235451907Y-63848320D01*
X235452859Y-63845449D01*
X235402173Y-63818005D01*
X235367927Y-63755814D01*
X235372741Y-63684980D01*
X235415086Y-63627994D01*
X235453748Y-63610285D01*
X235453190Y-63608613D01*
X235611153Y-63555912D01*
X235624315Y-63549747D01*
X235759692Y-63465974D01*
X235771090Y-63456940D01*
X235883563Y-63344271D01*
X235892575Y-63332860D01*
X235901006Y-63319182D01*
X235953778Y-63271689D01*
X236023849Y-63260265D01*
X236068000Y-63275083D01*
G37*
%TD.AperFunction*%
%TA.AperFunction,Conductor*%
G36*
X197821012Y-55495377D02*
G01*
X197844172Y-55521976D01*
X197909643Y-55622793D01*
X197991500Y-55723878D01*
X198145331Y-55913842D01*
X198154266Y-55924876D01*
X198429124Y-56199734D01*
X198431682Y-56201806D01*
X198431686Y-56201809D01*
X198545114Y-56293661D01*
X198731207Y-56444357D01*
X198733970Y-56446152D01*
X198733971Y-56446152D01*
X199040310Y-56645090D01*
X199057205Y-56656062D01*
X199060139Y-56657557D01*
X199060146Y-56657561D01*
X199317512Y-56788695D01*
X199403547Y-56832532D01*
X199507899Y-56872589D01*
X199761283Y-56969854D01*
X199766438Y-56971833D01*
X200141901Y-57072438D01*
X200343194Y-57104320D01*
X200522576Y-57132732D01*
X200522584Y-57132733D01*
X200525824Y-57133246D01*
X200914000Y-57153589D01*
X201302176Y-57133246D01*
X201305416Y-57132733D01*
X201305424Y-57132732D01*
X201484806Y-57104320D01*
X201686099Y-57072438D01*
X202061562Y-56971833D01*
X202066718Y-56969854D01*
X202320101Y-56872589D01*
X202424453Y-56832532D01*
X202510488Y-56788695D01*
X202767854Y-56657561D01*
X202767861Y-56657557D01*
X202770795Y-56656062D01*
X202787691Y-56645090D01*
X203094029Y-56446152D01*
X203094030Y-56446152D01*
X203096793Y-56444357D01*
X203282886Y-56293661D01*
X203396314Y-56201809D01*
X203396318Y-56201806D01*
X203398876Y-56199734D01*
X203621405Y-55977205D01*
X203683717Y-55943179D01*
X203754532Y-55948244D01*
X203811368Y-55990791D01*
X203836179Y-56057311D01*
X203836500Y-56066300D01*
X203836500Y-65706405D01*
X203816498Y-65774526D01*
X203762842Y-65821019D01*
X203692568Y-65831123D01*
X203627988Y-65801629D01*
X203621405Y-65795500D01*
X202757805Y-64931900D01*
X202723779Y-64869588D01*
X202720900Y-64842805D01*
X202720900Y-64635328D01*
X202719795Y-64624679D01*
X202710819Y-64538165D01*
X202710818Y-64538161D01*
X202710107Y-64531307D01*
X202693090Y-64480299D01*
X202657372Y-64373241D01*
X202655054Y-64366293D01*
X202563516Y-64218369D01*
X202507315Y-64162266D01*
X202445584Y-64100642D01*
X202445579Y-64100638D01*
X202440403Y-64095471D01*
X202431430Y-64089940D01*
X202298550Y-64008031D01*
X202298548Y-64008030D01*
X202292320Y-64004191D01*
X202127209Y-63949426D01*
X202120373Y-63948726D01*
X202120370Y-63948725D01*
X202068874Y-63943449D01*
X202024472Y-63938900D01*
X201350328Y-63938900D01*
X201347082Y-63939237D01*
X201347078Y-63939237D01*
X201253165Y-63948981D01*
X201253161Y-63948982D01*
X201246307Y-63949693D01*
X201239771Y-63951874D01*
X201239769Y-63951874D01*
X201161059Y-63978134D01*
X201081293Y-64004746D01*
X201058606Y-64018785D01*
X200940890Y-64091630D01*
X200933369Y-64096284D01*
X200901521Y-64128187D01*
X200839241Y-64162266D01*
X200768421Y-64157263D01*
X200723346Y-64128355D01*
X200720896Y-64125910D01*
X200686807Y-64063633D01*
X200683900Y-64036724D01*
X200683900Y-63796124D01*
X200703902Y-63728003D01*
X200716258Y-63711821D01*
X200789440Y-63630544D01*
X200860943Y-63506697D01*
X200881623Y-63470879D01*
X200881624Y-63470878D01*
X200884927Y-63465156D01*
X200943942Y-63283528D01*
X200945187Y-63271689D01*
X200963214Y-63100165D01*
X200963904Y-63093600D01*
X200955633Y-63014901D01*
X200944632Y-62910235D01*
X200944632Y-62910233D01*
X200943942Y-62903672D01*
X200884927Y-62722044D01*
X200868887Y-62694261D01*
X200827236Y-62622120D01*
X200789440Y-62556656D01*
X200782639Y-62549102D01*
X200666075Y-62419645D01*
X200666074Y-62419644D01*
X200661653Y-62414734D01*
X200547229Y-62331600D01*
X200512494Y-62306363D01*
X200512493Y-62306362D01*
X200507152Y-62302482D01*
X200501124Y-62299798D01*
X200501122Y-62299797D01*
X200338719Y-62227491D01*
X200338718Y-62227491D01*
X200332688Y-62224806D01*
X200219411Y-62200728D01*
X200152344Y-62186472D01*
X200152339Y-62186472D01*
X200145887Y-62185100D01*
X199954913Y-62185100D01*
X199948461Y-62186472D01*
X199948456Y-62186472D01*
X199881389Y-62200728D01*
X199768112Y-62224806D01*
X199762082Y-62227491D01*
X199762081Y-62227491D01*
X199599678Y-62299797D01*
X199599676Y-62299798D01*
X199593648Y-62302482D01*
X199588307Y-62306362D01*
X199588306Y-62306363D01*
X199553571Y-62331600D01*
X199439147Y-62414734D01*
X199434726Y-62419644D01*
X199434725Y-62419645D01*
X199318162Y-62549102D01*
X199311360Y-62556656D01*
X199273564Y-62622120D01*
X199231914Y-62694261D01*
X199215873Y-62722044D01*
X199156858Y-62903672D01*
X199156168Y-62910233D01*
X199156168Y-62910235D01*
X199145167Y-63014901D01*
X199136896Y-63093600D01*
X199137586Y-63100165D01*
X199155614Y-63271689D01*
X199156858Y-63283528D01*
X199215873Y-63465156D01*
X199219176Y-63470878D01*
X199219177Y-63470879D01*
X199239857Y-63506697D01*
X199311360Y-63630544D01*
X199384537Y-63711815D01*
X199415253Y-63775821D01*
X199416900Y-63796124D01*
X199416900Y-63885465D01*
X199396898Y-63953586D01*
X199344349Y-63999567D01*
X199338243Y-64002427D01*
X199331293Y-64004746D01*
X199183369Y-64096284D01*
X199178196Y-64101466D01*
X199065642Y-64214216D01*
X199065638Y-64214221D01*
X199060471Y-64219397D01*
X199056631Y-64225627D01*
X199056630Y-64225628D01*
X198973764Y-64360062D01*
X198969191Y-64367480D01*
X198914426Y-64532591D01*
X198913726Y-64539427D01*
X198913725Y-64539430D01*
X198908449Y-64590926D01*
X198903900Y-64635328D01*
X198903900Y-65209472D01*
X198904237Y-65212718D01*
X198904237Y-65212722D01*
X198913095Y-65298090D01*
X198914693Y-65313493D01*
X198916874Y-65320029D01*
X198916874Y-65320031D01*
X198936057Y-65377529D01*
X198969746Y-65478507D01*
X199016194Y-65553566D01*
X199050506Y-65609014D01*
X199069344Y-65677466D01*
X199048808Y-65743235D01*
X199049071Y-65743397D01*
X199011732Y-65803972D01*
X198964435Y-65880702D01*
X198957791Y-65891480D01*
X198903026Y-66056591D01*
X198902326Y-66063427D01*
X198902325Y-66063430D01*
X198899551Y-66090510D01*
X198892500Y-66159328D01*
X198892500Y-66733472D01*
X198892837Y-66736718D01*
X198892837Y-66736722D01*
X198898746Y-66793668D01*
X198903293Y-66837493D01*
X198905474Y-66844029D01*
X198905474Y-66844031D01*
X198943932Y-66959304D01*
X198958346Y-67002507D01*
X199049884Y-67150431D01*
X199055066Y-67155604D01*
X199167816Y-67268158D01*
X199167821Y-67268162D01*
X199172997Y-67273329D01*
X199179227Y-67277169D01*
X199179228Y-67277170D01*
X199187517Y-67282279D01*
X199321080Y-67364609D01*
X199486191Y-67419374D01*
X199493027Y-67420074D01*
X199493030Y-67420075D01*
X199544526Y-67425351D01*
X199588928Y-67429900D01*
X200263072Y-67429900D01*
X200266318Y-67429563D01*
X200266322Y-67429563D01*
X200360235Y-67419819D01*
X200360239Y-67419818D01*
X200367093Y-67419107D01*
X200373629Y-67416926D01*
X200373631Y-67416926D01*
X200515933Y-67369450D01*
X200532107Y-67364054D01*
X200647340Y-67292746D01*
X200673805Y-67276369D01*
X200673806Y-67276368D01*
X200680031Y-67272516D01*
X200711879Y-67240613D01*
X200774159Y-67206534D01*
X200844979Y-67211537D01*
X200890067Y-67240457D01*
X200909679Y-67260034D01*
X200922997Y-67273329D01*
X200929227Y-67277169D01*
X200929228Y-67277170D01*
X200937517Y-67282279D01*
X201071080Y-67364609D01*
X201236191Y-67419374D01*
X201243027Y-67420074D01*
X201243030Y-67420075D01*
X201294526Y-67425351D01*
X201338928Y-67429900D01*
X201355806Y-67429900D01*
X201423927Y-67449902D01*
X201444901Y-67466805D01*
X201637124Y-67659028D01*
X201671150Y-67721340D01*
X201666085Y-67792155D01*
X201623538Y-67848991D01*
X201557018Y-67873802D01*
X201528321Y-67872572D01*
X201427686Y-67856633D01*
X201305424Y-67837268D01*
X201305416Y-67837267D01*
X201302176Y-67836754D01*
X200914000Y-67816411D01*
X200525824Y-67836754D01*
X200522584Y-67837267D01*
X200522576Y-67837268D01*
X200357223Y-67863458D01*
X200141901Y-67897562D01*
X199766438Y-67998167D01*
X199763350Y-67999352D01*
X199763348Y-67999353D01*
X199628272Y-68051204D01*
X199403547Y-68137468D01*
X199400607Y-68138966D01*
X199060147Y-68312439D01*
X199060140Y-68312443D01*
X199057206Y-68313938D01*
X199054440Y-68315734D01*
X199054437Y-68315736D01*
X198782286Y-68492472D01*
X198731207Y-68525643D01*
X198593247Y-68637361D01*
X198432856Y-68767244D01*
X198429124Y-68770266D01*
X198154266Y-69045124D01*
X198152194Y-69047682D01*
X198152191Y-69047686D01*
X198075057Y-69142939D01*
X197909643Y-69347207D01*
X197847619Y-69442717D01*
X197844173Y-69448023D01*
X197790297Y-69494260D01*
X197719975Y-69504030D01*
X197655536Y-69474230D01*
X197617436Y-69414322D01*
X197612500Y-69379399D01*
X197612500Y-55590601D01*
X197632502Y-55522480D01*
X197686158Y-55475987D01*
X197756432Y-55465883D01*
X197821012Y-55495377D01*
G37*
%TD.AperFunction*%
%TA.AperFunction,Conductor*%
G36*
X206812788Y-62242730D02*
G01*
X206857644Y-62271614D01*
X207022800Y-62436770D01*
X207030344Y-62445060D01*
X207034457Y-62451541D01*
X207040234Y-62456966D01*
X207084124Y-62498181D01*
X207086966Y-62500936D01*
X207106688Y-62520658D01*
X207109812Y-62523081D01*
X207109816Y-62523085D01*
X207109881Y-62523135D01*
X207118902Y-62530840D01*
X207151136Y-62561109D01*
X207158084Y-62564928D01*
X207158086Y-62564930D01*
X207168889Y-62570869D01*
X207185416Y-62581725D01*
X207195155Y-62589280D01*
X207195157Y-62589281D01*
X207201417Y-62594137D01*
X207241997Y-62611697D01*
X207252645Y-62616914D01*
X207277433Y-62630541D01*
X207291397Y-62638218D01*
X207299073Y-62640189D01*
X207299076Y-62640190D01*
X207311019Y-62643256D01*
X207329724Y-62649660D01*
X207348312Y-62657704D01*
X207356135Y-62658943D01*
X207356145Y-62658946D01*
X207391981Y-62664622D01*
X207403601Y-62667028D01*
X207430477Y-62673928D01*
X207446427Y-62678023D01*
X207466681Y-62678023D01*
X207486391Y-62679574D01*
X207506400Y-62682743D01*
X207514292Y-62681997D01*
X207533037Y-62680225D01*
X207550419Y-62678582D01*
X207562276Y-62678023D01*
X209961510Y-62678023D01*
X209972693Y-62678550D01*
X209980186Y-62680225D01*
X209988112Y-62679976D01*
X209988113Y-62679976D01*
X210048263Y-62678085D01*
X210052222Y-62678023D01*
X210080133Y-62678023D01*
X210084068Y-62677526D01*
X210084133Y-62677518D01*
X210095970Y-62676585D01*
X210128228Y-62675571D01*
X210132247Y-62675445D01*
X210140166Y-62675196D01*
X210159620Y-62669544D01*
X210178977Y-62665536D01*
X210191207Y-62663991D01*
X210191208Y-62663991D01*
X210199074Y-62662997D01*
X210206445Y-62660078D01*
X210206447Y-62660078D01*
X210240189Y-62646719D01*
X210251419Y-62642874D01*
X210286260Y-62632752D01*
X210286261Y-62632752D01*
X210293870Y-62630541D01*
X210300689Y-62626508D01*
X210300694Y-62626506D01*
X210311305Y-62620230D01*
X210329053Y-62611535D01*
X210347894Y-62604075D01*
X210383664Y-62578087D01*
X210393584Y-62571571D01*
X210409135Y-62562374D01*
X210431639Y-62549065D01*
X210437250Y-62543454D01*
X210438436Y-62542534D01*
X210504521Y-62516585D01*
X210574144Y-62530483D01*
X210625201Y-62579816D01*
X210630171Y-62589652D01*
X210632019Y-62595339D01*
X210635319Y-62601056D01*
X210635321Y-62601059D01*
X210680079Y-62678582D01*
X210727506Y-62760727D01*
X210731924Y-62765634D01*
X210731925Y-62765635D01*
X210834012Y-62879014D01*
X210855293Y-62902649D01*
X210933123Y-62959196D01*
X211003690Y-63010466D01*
X211009794Y-63014901D01*
X211015822Y-63017585D01*
X211015824Y-63017586D01*
X211135651Y-63070936D01*
X211184258Y-63092577D01*
X211190719Y-63093950D01*
X211190724Y-63093952D01*
X211289103Y-63114864D01*
X211351577Y-63148592D01*
X211385898Y-63210742D01*
X211381170Y-63281581D01*
X211352001Y-63327205D01*
X211139102Y-63540104D01*
X211136586Y-63543383D01*
X211109101Y-63579203D01*
X211051764Y-63621071D01*
X211009138Y-63628500D01*
X210771763Y-63628500D01*
X210760579Y-63627973D01*
X210753091Y-63626299D01*
X210745168Y-63626548D01*
X210685033Y-63628438D01*
X210681075Y-63628500D01*
X210653144Y-63628500D01*
X210649229Y-63628995D01*
X210649225Y-63628995D01*
X210649167Y-63629003D01*
X210649138Y-63629006D01*
X210637296Y-63629939D01*
X210593110Y-63631327D01*
X210578928Y-63635447D01*
X210573658Y-63636978D01*
X210554306Y-63640986D01*
X210542068Y-63642532D01*
X210542066Y-63642533D01*
X210534203Y-63643526D01*
X210493086Y-63659806D01*
X210481879Y-63663643D01*
X210456114Y-63671128D01*
X210392086Y-63672777D01*
X210306682Y-63652667D01*
X210299366Y-63652673D01*
X210299363Y-63652673D01*
X210219615Y-63652743D01*
X210132726Y-63652819D01*
X210125604Y-63654509D01*
X210125605Y-63654509D01*
X210016027Y-63680513D01*
X209963471Y-63692985D01*
X209956932Y-63696267D01*
X209956931Y-63696267D01*
X209882392Y-63733675D01*
X209807995Y-63771012D01*
X209802662Y-63775353D01*
X209802660Y-63775355D01*
X209730400Y-63834184D01*
X209730394Y-63834190D01*
X209727906Y-63836215D01*
X209251215Y-64312906D01*
X209249161Y-64315436D01*
X209249157Y-64315440D01*
X209212924Y-64360062D01*
X209185292Y-64394092D01*
X209107538Y-64549703D01*
X209067667Y-64719028D01*
X209067673Y-64726343D01*
X209067673Y-64726346D01*
X209067707Y-64764604D01*
X209047765Y-64832743D01*
X208994150Y-64879283D01*
X208941815Y-64890715D01*
X208902665Y-64890749D01*
X208888230Y-64892444D01*
X208733330Y-64929205D01*
X208719666Y-64934178D01*
X208576987Y-65005782D01*
X208565501Y-65013213D01*
X208493289Y-65072002D01*
X208488518Y-65076310D01*
X208444895Y-65119933D01*
X208437281Y-65133877D01*
X208437412Y-65135710D01*
X208441663Y-65142325D01*
X209742031Y-66442693D01*
X209762055Y-66468788D01*
X209853661Y-66627454D01*
X209858079Y-66632361D01*
X209858080Y-66632362D01*
X209896835Y-66675404D01*
X209981448Y-66769376D01*
X209986790Y-66773257D01*
X209986792Y-66773259D01*
X210042616Y-66813817D01*
X210085970Y-66870039D01*
X210092045Y-66940775D01*
X210058914Y-67003567D01*
X210025071Y-67028367D01*
X209941423Y-67070346D01*
X209929937Y-67077777D01*
X209857725Y-67136566D01*
X209852954Y-67140874D01*
X209809331Y-67184497D01*
X209801717Y-67198441D01*
X209801848Y-67200274D01*
X209806099Y-67206889D01*
X210582115Y-67982905D01*
X210616141Y-68045217D01*
X210611076Y-68116032D01*
X210582116Y-68161095D01*
X210427606Y-68315606D01*
X210365294Y-68349631D01*
X210294478Y-68344567D01*
X210249415Y-68315606D01*
X209226555Y-67292746D01*
X209219015Y-67284460D01*
X209214903Y-67277981D01*
X209195791Y-67260034D01*
X209159825Y-67198821D01*
X209162662Y-67127881D01*
X209203402Y-67069737D01*
X209225526Y-67055569D01*
X209318144Y-67009088D01*
X209329627Y-67001659D01*
X209401839Y-66942870D01*
X209406610Y-66938562D01*
X209450233Y-66894939D01*
X209457847Y-66880995D01*
X209457716Y-66879162D01*
X209453465Y-66872547D01*
X208085685Y-65504767D01*
X208071741Y-65497153D01*
X208069908Y-65497284D01*
X208063293Y-65501535D01*
X208016472Y-65548356D01*
X208012107Y-65553197D01*
X207952620Y-65626459D01*
X207945200Y-65637967D01*
X207873848Y-65780764D01*
X207868899Y-65794436D01*
X207844144Y-65899566D01*
X207809061Y-65961289D01*
X207747696Y-65993933D01*
X207595236Y-66026340D01*
X207589206Y-66029025D01*
X207589205Y-66029025D01*
X207426802Y-66101331D01*
X207426800Y-66101332D01*
X207420772Y-66104016D01*
X207415431Y-66107896D01*
X207415430Y-66107897D01*
X207331199Y-66169095D01*
X207264332Y-66192953D01*
X207195180Y-66176873D01*
X207145700Y-66125959D01*
X207135969Y-66097080D01*
X207134852Y-66097361D01*
X207100673Y-65961289D01*
X207080431Y-65880702D01*
X206991354Y-65675840D01*
X206915951Y-65559284D01*
X206872822Y-65492617D01*
X206872820Y-65492614D01*
X206870014Y-65488277D01*
X206719670Y-65323051D01*
X206715619Y-65319852D01*
X206715615Y-65319848D01*
X206548414Y-65187800D01*
X206548410Y-65187798D01*
X206544359Y-65184598D01*
X206502569Y-65161529D01*
X206452598Y-65111097D01*
X206437826Y-65041654D01*
X206462942Y-64975248D01*
X206490294Y-64948641D01*
X206665328Y-64823792D01*
X206673200Y-64817139D01*
X206824052Y-64666812D01*
X206830730Y-64658965D01*
X206955003Y-64486020D01*
X206960313Y-64477183D01*
X207054670Y-64286267D01*
X207058469Y-64276672D01*
X207120377Y-64072910D01*
X207122555Y-64062837D01*
X207123986Y-64051962D01*
X207121775Y-64037778D01*
X207108617Y-64034000D01*
X205662000Y-64034000D01*
X205593879Y-64013998D01*
X205547386Y-63960342D01*
X205536000Y-63908000D01*
X205536000Y-63652000D01*
X205556002Y-63583879D01*
X205609658Y-63537386D01*
X205662000Y-63526000D01*
X207108344Y-63526000D01*
X207121875Y-63522027D01*
X207123180Y-63512947D01*
X207081214Y-63345875D01*
X207077894Y-63336124D01*
X206992972Y-63140814D01*
X206988105Y-63131739D01*
X206872426Y-62952926D01*
X206866136Y-62944757D01*
X206722806Y-62787240D01*
X206715273Y-62780215D01*
X206548139Y-62648222D01*
X206539556Y-62642520D01*
X206502602Y-62622120D01*
X206452631Y-62571687D01*
X206437859Y-62502245D01*
X206462975Y-62435839D01*
X206490327Y-62409232D01*
X206546750Y-62368986D01*
X206669860Y-62281173D01*
X206679609Y-62271458D01*
X206741981Y-62237542D01*
X206812788Y-62242730D01*
G37*
%TD.AperFunction*%
%TA.AperFunction,Conductor*%
G36*
X218589961Y-62779197D02*
G01*
X218643484Y-62829268D01*
X218666160Y-62868544D01*
X218670578Y-62873451D01*
X218670579Y-62873452D01*
X218786955Y-63002701D01*
X218793947Y-63010466D01*
X218893043Y-63082464D01*
X218942453Y-63118362D01*
X218948448Y-63122718D01*
X218954476Y-63125402D01*
X218954478Y-63125403D01*
X219116881Y-63197709D01*
X219122912Y-63200394D01*
X219189393Y-63214525D01*
X219303256Y-63238728D01*
X219303261Y-63238728D01*
X219309713Y-63240100D01*
X219500687Y-63240100D01*
X219507139Y-63238728D01*
X219507144Y-63238728D01*
X219621007Y-63214525D01*
X219687488Y-63200394D01*
X219693519Y-63197709D01*
X219855922Y-63125403D01*
X219855924Y-63125402D01*
X219861952Y-63122718D01*
X219867948Y-63118362D01*
X219917357Y-63082464D01*
X220016453Y-63010466D01*
X220024676Y-63001334D01*
X220068262Y-62952926D01*
X220101839Y-62915635D01*
X220162285Y-62878395D01*
X220233268Y-62879747D01*
X220292253Y-62919260D01*
X220320511Y-62984391D01*
X220321475Y-62999945D01*
X220321475Y-63217564D01*
X220320948Y-63228747D01*
X220319273Y-63236240D01*
X220319522Y-63244167D01*
X220319522Y-63244170D01*
X220319650Y-63248251D01*
X220318842Y-63251361D01*
X220318776Y-63252059D01*
X220318663Y-63252048D01*
X220301796Y-63316966D01*
X220282807Y-63341301D01*
X220207747Y-63416361D01*
X220137701Y-63507647D01*
X220136464Y-63506697D01*
X220104681Y-63538480D01*
X220105631Y-63539717D01*
X220014345Y-63609763D01*
X219854193Y-63769915D01*
X219784147Y-63861201D01*
X219782911Y-63860252D01*
X219751129Y-63892034D01*
X219752078Y-63893270D01*
X219660792Y-63963316D01*
X219500640Y-64123468D01*
X219430594Y-64214754D01*
X219429358Y-64213805D01*
X219397576Y-64245587D01*
X219398525Y-64246823D01*
X219307239Y-64316869D01*
X219147087Y-64477021D01*
X219077041Y-64568307D01*
X219075804Y-64567357D01*
X219044021Y-64599140D01*
X219044971Y-64600377D01*
X218953685Y-64670423D01*
X218793533Y-64830575D01*
X218723487Y-64921861D01*
X218722458Y-64921072D01*
X218690583Y-64952948D01*
X218691671Y-64954366D01*
X218644273Y-64990735D01*
X218635808Y-65002328D01*
X218645567Y-65019951D01*
X218661071Y-65089234D01*
X218660263Y-65097440D01*
X218655802Y-65131324D01*
X218627079Y-65196251D01*
X218567814Y-65235342D01*
X218547329Y-65239799D01*
X218513331Y-65244275D01*
X218443184Y-65233336D01*
X218436497Y-65229939D01*
X218417979Y-65219827D01*
X218393453Y-65237961D01*
X218326787Y-65262376D01*
X218257504Y-65246873D01*
X218207601Y-65196373D01*
X218195831Y-65146397D01*
X218193162Y-65146649D01*
X218189001Y-65102631D01*
X218188442Y-65090773D01*
X218188442Y-63261438D01*
X218208444Y-63193317D01*
X218220800Y-63177135D01*
X218293982Y-63095858D01*
X218380798Y-62945488D01*
X218386165Y-62936193D01*
X218386166Y-62936192D01*
X218389469Y-62930470D01*
X218414533Y-62853332D01*
X218454607Y-62794727D01*
X218520004Y-62767090D01*
X218589961Y-62779197D01*
G37*
%TD.AperFunction*%
%TA.AperFunction,Conductor*%
G36*
X215330866Y-62200728D02*
G01*
X215385397Y-62246190D01*
X215406692Y-62313918D01*
X215400548Y-62355251D01*
X215380030Y-62418400D01*
X215379340Y-62424961D01*
X215379340Y-62424963D01*
X215368539Y-62527730D01*
X215360068Y-62608328D01*
X215360758Y-62614893D01*
X215376472Y-62764400D01*
X215380030Y-62798256D01*
X215439045Y-62979884D01*
X215442348Y-62985606D01*
X215442349Y-62985607D01*
X215457021Y-63011020D01*
X215534532Y-63145272D01*
X215607709Y-63226543D01*
X215638425Y-63290549D01*
X215640072Y-63310852D01*
X215640072Y-64983772D01*
X215620070Y-65051893D01*
X215566414Y-65098386D01*
X215496140Y-65108490D01*
X215431560Y-65078996D01*
X215424977Y-65072867D01*
X215376086Y-65023976D01*
X215284800Y-64953930D01*
X215285749Y-64952694D01*
X215253967Y-64920912D01*
X215252731Y-64921861D01*
X215232821Y-64895914D01*
X215182685Y-64830575D01*
X215022533Y-64670423D01*
X214931247Y-64600377D01*
X214932197Y-64599140D01*
X214900414Y-64567357D01*
X214899177Y-64568307D01*
X214870786Y-64531307D01*
X214829131Y-64477021D01*
X214668979Y-64316869D01*
X214577693Y-64246823D01*
X214578642Y-64245587D01*
X214546860Y-64213805D01*
X214545624Y-64214754D01*
X214516160Y-64176356D01*
X214475578Y-64123468D01*
X214315426Y-63963316D01*
X214224140Y-63893270D01*
X214225089Y-63892034D01*
X214193307Y-63860252D01*
X214192071Y-63861201D01*
X214154587Y-63812351D01*
X214122025Y-63769915D01*
X213961873Y-63609763D01*
X213870587Y-63539717D01*
X213871537Y-63538480D01*
X213839754Y-63506697D01*
X213838517Y-63507647D01*
X213806540Y-63465974D01*
X213768471Y-63416361D01*
X213747238Y-63395128D01*
X213713212Y-63332816D01*
X213718277Y-63262001D01*
X213760824Y-63205165D01*
X213827344Y-63180354D01*
X213836333Y-63180033D01*
X213958203Y-63180033D01*
X213964655Y-63178661D01*
X213964660Y-63178661D01*
X214071725Y-63155903D01*
X214145004Y-63140327D01*
X214151035Y-63137642D01*
X214313438Y-63065336D01*
X214313440Y-63065335D01*
X214319468Y-63062651D01*
X214329091Y-63055660D01*
X214391294Y-63010466D01*
X214473969Y-62950399D01*
X214491913Y-62930470D01*
X214597337Y-62813385D01*
X214597338Y-62813384D01*
X214601756Y-62808477D01*
X214675065Y-62681503D01*
X214693939Y-62648812D01*
X214693940Y-62648811D01*
X214697243Y-62643089D01*
X214740488Y-62509995D01*
X214741646Y-62506432D01*
X214781720Y-62447827D01*
X214835282Y-62422123D01*
X214858431Y-62417202D01*
X214858436Y-62417200D01*
X214864897Y-62415827D01*
X214873212Y-62412125D01*
X215033331Y-62340836D01*
X215033333Y-62340835D01*
X215039361Y-62338151D01*
X215072715Y-62313918D01*
X215188518Y-62229782D01*
X215188520Y-62229780D01*
X215193862Y-62225899D01*
X215197030Y-62222381D01*
X215260412Y-62191964D01*
X215330866Y-62200728D01*
G37*
%TD.AperFunction*%
%TA.AperFunction,Conductor*%
G36*
X223819016Y-63073391D02*
G01*
X223839990Y-63090294D01*
X224258006Y-63508310D01*
X224292032Y-63570622D01*
X224286967Y-63641437D01*
X224244420Y-63698273D01*
X224177900Y-63723084D01*
X224142716Y-63720652D01*
X224100412Y-63711660D01*
X224028344Y-63696341D01*
X224028339Y-63696341D01*
X224021887Y-63694969D01*
X223830913Y-63694969D01*
X223824461Y-63696341D01*
X223824456Y-63696341D01*
X223737512Y-63714822D01*
X223644112Y-63734675D01*
X223638082Y-63737360D01*
X223638081Y-63737360D01*
X223475678Y-63809666D01*
X223475676Y-63809667D01*
X223469648Y-63812351D01*
X223464307Y-63816231D01*
X223464306Y-63816232D01*
X223436802Y-63836215D01*
X223315147Y-63924603D01*
X223202637Y-64049558D01*
X223201331Y-64051009D01*
X223140885Y-64088248D01*
X223069901Y-64086896D01*
X223010917Y-64047382D01*
X222982659Y-63982252D01*
X222982773Y-63950251D01*
X222982847Y-63949693D01*
X222986011Y-63925658D01*
X222965957Y-63773334D01*
X222907162Y-63631391D01*
X222837116Y-63540104D01*
X222701500Y-63404488D01*
X222667474Y-63342176D01*
X222672539Y-63271361D01*
X222715086Y-63214525D01*
X222781606Y-63189714D01*
X222790595Y-63189393D01*
X222903526Y-63189393D01*
X222914709Y-63189920D01*
X222922202Y-63191595D01*
X222930128Y-63191346D01*
X222930129Y-63191346D01*
X222990279Y-63189455D01*
X222994238Y-63189393D01*
X223022149Y-63189393D01*
X223026084Y-63188896D01*
X223026149Y-63188888D01*
X223037986Y-63187955D01*
X223070244Y-63186941D01*
X223074263Y-63186815D01*
X223082182Y-63186566D01*
X223101636Y-63180914D01*
X223120993Y-63176906D01*
X223133223Y-63175361D01*
X223133224Y-63175361D01*
X223141090Y-63174367D01*
X223148461Y-63171448D01*
X223148463Y-63171448D01*
X223182205Y-63158089D01*
X223193435Y-63154244D01*
X223228276Y-63144122D01*
X223228277Y-63144122D01*
X223235886Y-63141911D01*
X223242705Y-63137878D01*
X223242710Y-63137876D01*
X223253321Y-63131600D01*
X223271069Y-63122905D01*
X223289910Y-63115445D01*
X223310942Y-63100165D01*
X223325680Y-63089457D01*
X223335600Y-63082941D01*
X223355899Y-63070936D01*
X223420039Y-63053389D01*
X223750895Y-63053389D01*
X223819016Y-63073391D01*
G37*
%TD.AperFunction*%
%TA.AperFunction,Conductor*%
G36*
X233066282Y-50312502D02*
G01*
X233112775Y-50366158D01*
X233122879Y-50436432D01*
X233093385Y-50501012D01*
X233077456Y-50516420D01*
X232875124Y-50680266D01*
X232600266Y-50955124D01*
X232355643Y-51257207D01*
X232353848Y-51259970D01*
X232353848Y-51259971D01*
X232253802Y-51414030D01*
X232143938Y-51583206D01*
X232142443Y-51586140D01*
X232142439Y-51586147D01*
X232010827Y-51844451D01*
X231967468Y-51929547D01*
X231828167Y-52292438D01*
X231727562Y-52667901D01*
X231706608Y-52800197D01*
X231667967Y-53044166D01*
X231666754Y-53051824D01*
X231646411Y-53440000D01*
X231666754Y-53828176D01*
X231667267Y-53831416D01*
X231667268Y-53831424D01*
X231690167Y-53976000D01*
X231727562Y-54212099D01*
X231828167Y-54587562D01*
X231967468Y-54950453D01*
X231968966Y-54953393D01*
X232137807Y-55284761D01*
X232143938Y-55296794D01*
X232145734Y-55299560D01*
X232145736Y-55299563D01*
X232345662Y-55607424D01*
X232355643Y-55622793D01*
X232437500Y-55723878D01*
X232591331Y-55913842D01*
X232600266Y-55924876D01*
X232875124Y-56199734D01*
X232877682Y-56201806D01*
X232877686Y-56201809D01*
X232991114Y-56293661D01*
X233177207Y-56444357D01*
X233179970Y-56446152D01*
X233179971Y-56446152D01*
X233486310Y-56645090D01*
X233503205Y-56656062D01*
X233506139Y-56657557D01*
X233506146Y-56657561D01*
X233763512Y-56788695D01*
X233849547Y-56832532D01*
X233953899Y-56872589D01*
X234207283Y-56969854D01*
X234212438Y-56971833D01*
X234587901Y-57072438D01*
X234789194Y-57104320D01*
X234968576Y-57132732D01*
X234968584Y-57132733D01*
X234971824Y-57133246D01*
X235360000Y-57153589D01*
X235748176Y-57133246D01*
X235751416Y-57132733D01*
X235751424Y-57132732D01*
X235930806Y-57104320D01*
X236132099Y-57072438D01*
X236507562Y-56971833D01*
X236512718Y-56969854D01*
X236766101Y-56872589D01*
X236870453Y-56832532D01*
X236956488Y-56788695D01*
X237213854Y-56657561D01*
X237213861Y-56657557D01*
X237216795Y-56656062D01*
X237233691Y-56645090D01*
X237540029Y-56446152D01*
X237540030Y-56446152D01*
X237542793Y-56444357D01*
X237728886Y-56293661D01*
X237842314Y-56201809D01*
X237842318Y-56201806D01*
X237844876Y-56199734D01*
X238119734Y-55924876D01*
X238128670Y-55913842D01*
X238282500Y-55723878D01*
X238364357Y-55622793D01*
X238374338Y-55607424D01*
X238527827Y-55371070D01*
X238581704Y-55324833D01*
X238652025Y-55315063D01*
X238716465Y-55344863D01*
X238754564Y-55404771D01*
X238759500Y-55439694D01*
X238759500Y-59893447D01*
X238739498Y-59961568D01*
X238685842Y-60008061D01*
X238615568Y-60018165D01*
X238567383Y-60000706D01*
X238559152Y-59995632D01*
X238559149Y-59995631D01*
X238552920Y-59991791D01*
X238387809Y-59937026D01*
X238380973Y-59936326D01*
X238380970Y-59936325D01*
X238329474Y-59931049D01*
X238285072Y-59926500D01*
X237710928Y-59926500D01*
X237707682Y-59926837D01*
X237707678Y-59926837D01*
X237613765Y-59936581D01*
X237613761Y-59936582D01*
X237606907Y-59937293D01*
X237600371Y-59939474D01*
X237600369Y-59939474D01*
X237534146Y-59961568D01*
X237441893Y-59992346D01*
X237293969Y-60083884D01*
X237288796Y-60089066D01*
X237176242Y-60201816D01*
X237176238Y-60201821D01*
X237171071Y-60206997D01*
X237167231Y-60213227D01*
X237167230Y-60213228D01*
X237101200Y-60320349D01*
X237079791Y-60355080D01*
X237057425Y-60422513D01*
X237057382Y-60422642D01*
X237016952Y-60481002D01*
X236951388Y-60508239D01*
X236881506Y-60495706D01*
X236863728Y-60484911D01*
X236783694Y-60426763D01*
X236783693Y-60426762D01*
X236778352Y-60422882D01*
X236772324Y-60420198D01*
X236772322Y-60420197D01*
X236609919Y-60347891D01*
X236609918Y-60347891D01*
X236603888Y-60345206D01*
X236492154Y-60321456D01*
X236423544Y-60306872D01*
X236423539Y-60306872D01*
X236417087Y-60305500D01*
X236226113Y-60305500D01*
X236219661Y-60306872D01*
X236219656Y-60306872D01*
X236151046Y-60321456D01*
X236039312Y-60345206D01*
X236033282Y-60347891D01*
X236033281Y-60347891D01*
X235870878Y-60420197D01*
X235870876Y-60420198D01*
X235864848Y-60422882D01*
X235859507Y-60426762D01*
X235859506Y-60426763D01*
X235831103Y-60447399D01*
X235710347Y-60535134D01*
X235582560Y-60677056D01*
X235487073Y-60842444D01*
X235428058Y-61024072D01*
X235427368Y-61030633D01*
X235427368Y-61030635D01*
X235416835Y-61130856D01*
X235408096Y-61214000D01*
X235408786Y-61220565D01*
X235427171Y-61395484D01*
X235428058Y-61403928D01*
X235455526Y-61488465D01*
X235457554Y-61559431D01*
X235420892Y-61620229D01*
X235357180Y-61651554D01*
X235335693Y-61653400D01*
X235271815Y-61653400D01*
X235256576Y-61657875D01*
X235255371Y-61659265D01*
X235253700Y-61666948D01*
X235253700Y-62764400D01*
X235233698Y-62832521D01*
X235180042Y-62879014D01*
X235127700Y-62890400D01*
X234871700Y-62890400D01*
X234803579Y-62870398D01*
X234757086Y-62816742D01*
X234745700Y-62764400D01*
X234745700Y-61671515D01*
X234741225Y-61656276D01*
X234739835Y-61655071D01*
X234732152Y-61653400D01*
X234653434Y-61653400D01*
X234646918Y-61653737D01*
X234553068Y-61663475D01*
X234539672Y-61666368D01*
X234388247Y-61716888D01*
X234375085Y-61723053D01*
X234239708Y-61806826D01*
X234228306Y-61815864D01*
X234226633Y-61817539D01*
X234225207Y-61818319D01*
X234222573Y-61820407D01*
X234222216Y-61819956D01*
X234164351Y-61851619D01*
X234093531Y-61846616D01*
X234048446Y-61817699D01*
X234045385Y-61814644D01*
X234040203Y-61809471D01*
X233954601Y-61756705D01*
X233898350Y-61722031D01*
X233898348Y-61722030D01*
X233892120Y-61718191D01*
X233727009Y-61663426D01*
X233720173Y-61662726D01*
X233720170Y-61662725D01*
X233668674Y-61657449D01*
X233624272Y-61652900D01*
X232925128Y-61652900D01*
X232921882Y-61653237D01*
X232921878Y-61653237D01*
X232827965Y-61662981D01*
X232827961Y-61662982D01*
X232821107Y-61663693D01*
X232814571Y-61665874D01*
X232814569Y-61665874D01*
X232689355Y-61707649D01*
X232656093Y-61718746D01*
X232594751Y-61756706D01*
X232526300Y-61775542D01*
X232458531Y-61754380D01*
X232412960Y-61699939D01*
X232402450Y-61649560D01*
X232402450Y-61155066D01*
X232395695Y-61092884D01*
X232344565Y-60956495D01*
X232257211Y-60839939D01*
X232140655Y-60752585D01*
X232004266Y-60701455D01*
X231942084Y-60694700D01*
X230045816Y-60694700D01*
X229983634Y-60701455D01*
X229847245Y-60752585D01*
X229730689Y-60839939D01*
X229725308Y-60847119D01*
X229656742Y-60938606D01*
X229599883Y-60981121D01*
X229529064Y-60986147D01*
X229466771Y-60952087D01*
X229436083Y-60901978D01*
X229423835Y-60864284D01*
X229383727Y-60740844D01*
X229288240Y-60575456D01*
X229225577Y-60505861D01*
X229179610Y-60454810D01*
X229148892Y-60390803D01*
X229157657Y-60320349D01*
X229203120Y-60265818D01*
X229273246Y-60244500D01*
X230631502Y-60244500D01*
X230633950Y-60244307D01*
X230633958Y-60244307D01*
X230662421Y-60242067D01*
X230662426Y-60242066D01*
X230668831Y-60241562D01*
X230787806Y-60206997D01*
X230820988Y-60197357D01*
X230820990Y-60197356D01*
X230828601Y-60195145D01*
X230859638Y-60176790D01*
X230964980Y-60114491D01*
X230964983Y-60114489D01*
X230971807Y-60110453D01*
X231089453Y-59992807D01*
X231093489Y-59985983D01*
X231093491Y-59985980D01*
X231170108Y-59856427D01*
X231174145Y-59849601D01*
X231178247Y-59835484D01*
X231191528Y-59789769D01*
X231220562Y-59689831D01*
X231223500Y-59652502D01*
X231223500Y-59219498D01*
X231222783Y-59210384D01*
X231237380Y-59140904D01*
X231287223Y-59090346D01*
X231348395Y-59074500D01*
X231489487Y-59074500D01*
X231495939Y-59073128D01*
X231495944Y-59073128D01*
X231605907Y-59049754D01*
X231676288Y-59034794D01*
X231781235Y-58988069D01*
X231844722Y-58959803D01*
X231844724Y-58959802D01*
X231850752Y-58957118D01*
X231873255Y-58940769D01*
X231913884Y-58911250D01*
X232005253Y-58844866D01*
X232017014Y-58831804D01*
X232128621Y-58707852D01*
X232128622Y-58707851D01*
X232133040Y-58702944D01*
X232228527Y-58537556D01*
X232287542Y-58355928D01*
X232307504Y-58166000D01*
X232299545Y-58090270D01*
X232288232Y-57982635D01*
X232288232Y-57982633D01*
X232287542Y-57976072D01*
X232228527Y-57794444D01*
X232216148Y-57773002D01*
X232182627Y-57714943D01*
X232133040Y-57629056D01*
X232120662Y-57615309D01*
X232089946Y-57551303D01*
X232098710Y-57480850D01*
X232120661Y-57446693D01*
X232133040Y-57432944D01*
X232228527Y-57267556D01*
X232287542Y-57085928D01*
X232290092Y-57061672D01*
X232306814Y-56902565D01*
X232307504Y-56896000D01*
X232296226Y-56788695D01*
X232288232Y-56712635D01*
X232288232Y-56712633D01*
X232287542Y-56706072D01*
X232228527Y-56524444D01*
X232133040Y-56359056D01*
X232126691Y-56352004D01*
X232009675Y-56222045D01*
X232009674Y-56222044D01*
X232005253Y-56217134D01*
X231868967Y-56118116D01*
X231856094Y-56108763D01*
X231856093Y-56108762D01*
X231850752Y-56104882D01*
X231844724Y-56102198D01*
X231844722Y-56102197D01*
X231682319Y-56029891D01*
X231682318Y-56029891D01*
X231676288Y-56027206D01*
X231582887Y-56007353D01*
X231495944Y-55988872D01*
X231495939Y-55988872D01*
X231489487Y-55987500D01*
X231348395Y-55987500D01*
X231280274Y-55967498D01*
X231233781Y-55913842D01*
X231222783Y-55851616D01*
X231223306Y-55844963D01*
X231223500Y-55842502D01*
X231223500Y-55409498D01*
X231220562Y-55372169D01*
X231186810Y-55255991D01*
X231176357Y-55220012D01*
X231176356Y-55220010D01*
X231174145Y-55212399D01*
X231136643Y-55148987D01*
X231093491Y-55076020D01*
X231093489Y-55076017D01*
X231089453Y-55069193D01*
X230971807Y-54951547D01*
X230964983Y-54947511D01*
X230964980Y-54947509D01*
X230835427Y-54870892D01*
X230835428Y-54870892D01*
X230828601Y-54866855D01*
X230820990Y-54864644D01*
X230820988Y-54864643D01*
X230731490Y-54838642D01*
X230668831Y-54820438D01*
X230662426Y-54819934D01*
X230662421Y-54819933D01*
X230633958Y-54817693D01*
X230633950Y-54817693D01*
X230631502Y-54817500D01*
X229879594Y-54817500D01*
X229811473Y-54797498D01*
X229790499Y-54780595D01*
X228660805Y-53650900D01*
X228626779Y-53588588D01*
X228623900Y-53561805D01*
X228623900Y-53229724D01*
X228643902Y-53161603D01*
X228656258Y-53145421D01*
X228729440Y-53064144D01*
X228824927Y-52898756D01*
X228883942Y-52717128D01*
X228903904Y-52527200D01*
X228883942Y-52337272D01*
X228824927Y-52155644D01*
X228729440Y-51990256D01*
X228674778Y-51929547D01*
X228606075Y-51853245D01*
X228606074Y-51853244D01*
X228601653Y-51848334D01*
X228486412Y-51764606D01*
X228452494Y-51739963D01*
X228452493Y-51739962D01*
X228447152Y-51736082D01*
X228441124Y-51733398D01*
X228441122Y-51733397D01*
X228278719Y-51661091D01*
X228278718Y-51661091D01*
X228272688Y-51658406D01*
X228176455Y-51637951D01*
X228092344Y-51620072D01*
X228092339Y-51620072D01*
X228085887Y-51618700D01*
X227894913Y-51618700D01*
X227888461Y-51620072D01*
X227888456Y-51620072D01*
X227804345Y-51637951D01*
X227708112Y-51658406D01*
X227702082Y-51661091D01*
X227702081Y-51661091D01*
X227539678Y-51733397D01*
X227539676Y-51733398D01*
X227533648Y-51736082D01*
X227528307Y-51739962D01*
X227528306Y-51739963D01*
X227494388Y-51764606D01*
X227379147Y-51848334D01*
X227374726Y-51853244D01*
X227374725Y-51853245D01*
X227306023Y-51929547D01*
X227251360Y-51990256D01*
X227155873Y-52155644D01*
X227096858Y-52337272D01*
X227076896Y-52527200D01*
X227096858Y-52717128D01*
X227155873Y-52898756D01*
X227251360Y-53064144D01*
X227324537Y-53145415D01*
X227355253Y-53209421D01*
X227356900Y-53229724D01*
X227356900Y-53797633D01*
X227356373Y-53808816D01*
X227354698Y-53816309D01*
X227354947Y-53824235D01*
X227354947Y-53824236D01*
X227356838Y-53884386D01*
X227356900Y-53888345D01*
X227356900Y-53916256D01*
X227357397Y-53920190D01*
X227357397Y-53920191D01*
X227357405Y-53920256D01*
X227358338Y-53932093D01*
X227359727Y-53976289D01*
X227365378Y-53995739D01*
X227369387Y-54015100D01*
X227371926Y-54035197D01*
X227372828Y-54037476D01*
X227370478Y-54105996D01*
X227330070Y-54164372D01*
X227264516Y-54191634D01*
X227194630Y-54179127D01*
X227161775Y-54155470D01*
X226651522Y-53645217D01*
X226617496Y-53582905D01*
X226615307Y-53569292D01*
X226598632Y-53410635D01*
X226598632Y-53410633D01*
X226597942Y-53404072D01*
X226538927Y-53222444D01*
X226516360Y-53183356D01*
X226494453Y-53145413D01*
X226443440Y-53057056D01*
X226406723Y-53016277D01*
X226320075Y-52920045D01*
X226320074Y-52920044D01*
X226315653Y-52915134D01*
X226161152Y-52802882D01*
X226155124Y-52800198D01*
X226155122Y-52800197D01*
X225992719Y-52727891D01*
X225992718Y-52727891D01*
X225986688Y-52725206D01*
X225893287Y-52705353D01*
X225806344Y-52686872D01*
X225806339Y-52686872D01*
X225799887Y-52685500D01*
X225608913Y-52685500D01*
X225602461Y-52686872D01*
X225602456Y-52686872D01*
X225515513Y-52705353D01*
X225422112Y-52725206D01*
X225416082Y-52727891D01*
X225416081Y-52727891D01*
X225253678Y-52800197D01*
X225253676Y-52800198D01*
X225247648Y-52802882D01*
X225093147Y-52915134D01*
X225088726Y-52920044D01*
X225088725Y-52920045D01*
X225002078Y-53016277D01*
X224965360Y-53057056D01*
X224914347Y-53145413D01*
X224892441Y-53183356D01*
X224869873Y-53222444D01*
X224810858Y-53404072D01*
X224810168Y-53410633D01*
X224810168Y-53410635D01*
X224808300Y-53428408D01*
X224790896Y-53594000D01*
X224810858Y-53783928D01*
X224869873Y-53965556D01*
X224965360Y-54130944D01*
X224969778Y-54135851D01*
X224969779Y-54135852D01*
X225049681Y-54224592D01*
X225093147Y-54272866D01*
X225247648Y-54385118D01*
X225253676Y-54387802D01*
X225253678Y-54387803D01*
X225416081Y-54460109D01*
X225422112Y-54462794D01*
X225515512Y-54482647D01*
X225602456Y-54501128D01*
X225602461Y-54501128D01*
X225608913Y-54502500D01*
X225664806Y-54502500D01*
X225732927Y-54522502D01*
X225753901Y-54539405D01*
X225820767Y-54606271D01*
X225854793Y-54668583D01*
X225849728Y-54739398D01*
X225807181Y-54796234D01*
X225740661Y-54821045D01*
X225718877Y-54819852D01*
X225718831Y-54820438D01*
X225683958Y-54817693D01*
X225683950Y-54817693D01*
X225681502Y-54817500D01*
X224929595Y-54817500D01*
X224861474Y-54797498D01*
X224840500Y-54780595D01*
X221891621Y-51831716D01*
X221884081Y-51823430D01*
X221879969Y-51816951D01*
X221830317Y-51770325D01*
X221827476Y-51767571D01*
X221807739Y-51747834D01*
X221804542Y-51745354D01*
X221795520Y-51737649D01*
X221782085Y-51725033D01*
X221763290Y-51707383D01*
X221756344Y-51703564D01*
X221756341Y-51703562D01*
X221745535Y-51697621D01*
X221729016Y-51686770D01*
X221728552Y-51686410D01*
X221713010Y-51674355D01*
X221705741Y-51671210D01*
X221705737Y-51671207D01*
X221672432Y-51656795D01*
X221661782Y-51651578D01*
X221623029Y-51630274D01*
X221603406Y-51625236D01*
X221584703Y-51618832D01*
X221573389Y-51613936D01*
X221573388Y-51613936D01*
X221566114Y-51610788D01*
X221558291Y-51609549D01*
X221558281Y-51609546D01*
X221522445Y-51603870D01*
X221510825Y-51601464D01*
X221475680Y-51592441D01*
X221475679Y-51592441D01*
X221467999Y-51590469D01*
X221447745Y-51590469D01*
X221428034Y-51588918D01*
X221415855Y-51586989D01*
X221408026Y-51585749D01*
X221378755Y-51588516D01*
X221364008Y-51589910D01*
X221352150Y-51590469D01*
X213655788Y-51590469D01*
X213644605Y-51589942D01*
X213637112Y-51588267D01*
X213629186Y-51588516D01*
X213629185Y-51588516D01*
X213569035Y-51590407D01*
X213565076Y-51590469D01*
X213537165Y-51590469D01*
X213533231Y-51590966D01*
X213533230Y-51590966D01*
X213533165Y-51590974D01*
X213521328Y-51591907D01*
X213489511Y-51592907D01*
X213485050Y-51593047D01*
X213477131Y-51593296D01*
X213459475Y-51598425D01*
X213457679Y-51598947D01*
X213438327Y-51602955D01*
X213431256Y-51603849D01*
X213418224Y-51605495D01*
X213410855Y-51608412D01*
X213410853Y-51608413D01*
X213377118Y-51621769D01*
X213365890Y-51625614D01*
X213323428Y-51637951D01*
X213316606Y-51641985D01*
X213316600Y-51641988D01*
X213305989Y-51648263D01*
X213288239Y-51656959D01*
X213276777Y-51661497D01*
X213276772Y-51661500D01*
X213269404Y-51664417D01*
X213251991Y-51677068D01*
X213233646Y-51690396D01*
X213223728Y-51696912D01*
X213212484Y-51703562D01*
X213185658Y-51719427D01*
X213171334Y-51733751D01*
X213156302Y-51746590D01*
X213139914Y-51758497D01*
X213111733Y-51792562D01*
X213103743Y-51801342D01*
X212354480Y-52550605D01*
X212292168Y-52584631D01*
X212221353Y-52579566D01*
X212189820Y-52562336D01*
X212177648Y-52553214D01*
X212162054Y-52544676D01*
X212041606Y-52499522D01*
X212026351Y-52495895D01*
X211975486Y-52490369D01*
X211968672Y-52490000D01*
X211346115Y-52490000D01*
X211330876Y-52494475D01*
X211329671Y-52495865D01*
X211328000Y-52503548D01*
X211328000Y-53976000D01*
X211307998Y-54044121D01*
X211254342Y-54090614D01*
X211202000Y-54102000D01*
X209734116Y-54102000D01*
X209718877Y-54106475D01*
X209717672Y-54107865D01*
X209716001Y-54115548D01*
X209716001Y-54742669D01*
X209716371Y-54749490D01*
X209721895Y-54800352D01*
X209725521Y-54815604D01*
X209770676Y-54936054D01*
X209779214Y-54951649D01*
X209855715Y-55053724D01*
X209868276Y-55066285D01*
X209970351Y-55142786D01*
X209985946Y-55151324D01*
X210106394Y-55196478D01*
X210121649Y-55200105D01*
X210172514Y-55205631D01*
X210179328Y-55206000D01*
X210770496Y-55205999D01*
X210838617Y-55226001D01*
X210885110Y-55279657D01*
X210895214Y-55349930D01*
X210865721Y-55414511D01*
X210859591Y-55421094D01*
X209791800Y-56488885D01*
X209729488Y-56522911D01*
X209658673Y-56517846D01*
X209609069Y-56484101D01*
X209607949Y-56482857D01*
X209551653Y-56420334D01*
X209397152Y-56308082D01*
X209391124Y-56305398D01*
X209391122Y-56305397D01*
X209228719Y-56233091D01*
X209228718Y-56233091D01*
X209222688Y-56230406D01*
X209108343Y-56206101D01*
X209042344Y-56192072D01*
X209042339Y-56192072D01*
X209035887Y-56190700D01*
X208844913Y-56190700D01*
X208838461Y-56192072D01*
X208838456Y-56192072D01*
X208772457Y-56206101D01*
X208658112Y-56230406D01*
X208652082Y-56233091D01*
X208652081Y-56233091D01*
X208489678Y-56305397D01*
X208489676Y-56305398D01*
X208483648Y-56308082D01*
X208478307Y-56311962D01*
X208478306Y-56311963D01*
X208354195Y-56402135D01*
X208287327Y-56425994D01*
X208228886Y-56415306D01*
X208161923Y-56385492D01*
X208161915Y-56385489D01*
X208155888Y-56382806D01*
X208044154Y-56359056D01*
X207975544Y-56344472D01*
X207975539Y-56344472D01*
X207969087Y-56343100D01*
X207778113Y-56343100D01*
X207771661Y-56344472D01*
X207771656Y-56344472D01*
X207703046Y-56359056D01*
X207591312Y-56382806D01*
X207585282Y-56385491D01*
X207585281Y-56385491D01*
X207422878Y-56457797D01*
X207422876Y-56457798D01*
X207416848Y-56460482D01*
X207411507Y-56464362D01*
X207411506Y-56464363D01*
X207326680Y-56525993D01*
X207259812Y-56549852D01*
X207190661Y-56533771D01*
X207141180Y-56482857D01*
X207127697Y-56407611D01*
X207151092Y-56229911D01*
X207151092Y-56229907D01*
X207151529Y-56226590D01*
X207152030Y-56206101D01*
X207153074Y-56163365D01*
X207153074Y-56163361D01*
X207153156Y-56160000D01*
X207134852Y-55937361D01*
X207080431Y-55720702D01*
X206991354Y-55515840D01*
X206942093Y-55439694D01*
X206872822Y-55332617D01*
X206872820Y-55332614D01*
X206870014Y-55328277D01*
X206861499Y-55318919D01*
X206722798Y-55166488D01*
X206691746Y-55102642D01*
X206700141Y-55032143D01*
X206745317Y-54977375D01*
X206771761Y-54963706D01*
X206878297Y-54923767D01*
X206886705Y-54920615D01*
X207003261Y-54833261D01*
X207090615Y-54716705D01*
X207141745Y-54580316D01*
X207147815Y-54524440D01*
X207148131Y-54521531D01*
X207148500Y-54518134D01*
X207148500Y-53575885D01*
X209716000Y-53575885D01*
X209720475Y-53591124D01*
X209721865Y-53592329D01*
X209729548Y-53594000D01*
X210801885Y-53594000D01*
X210817124Y-53589525D01*
X210818329Y-53588135D01*
X210820000Y-53580452D01*
X210820000Y-52508116D01*
X210815525Y-52492877D01*
X210814135Y-52491672D01*
X210806452Y-52490001D01*
X210179331Y-52490001D01*
X210172510Y-52490371D01*
X210121648Y-52495895D01*
X210106396Y-52499521D01*
X209985946Y-52544676D01*
X209970351Y-52553214D01*
X209868276Y-52629715D01*
X209855715Y-52642276D01*
X209779214Y-52744351D01*
X209770676Y-52759946D01*
X209725522Y-52880394D01*
X209721895Y-52895649D01*
X209716369Y-52946514D01*
X209716000Y-52953328D01*
X209716000Y-53575885D01*
X207148500Y-53575885D01*
X207148500Y-52721866D01*
X207141745Y-52659684D01*
X207090615Y-52523295D01*
X207003261Y-52406739D01*
X206886705Y-52319385D01*
X206750316Y-52268255D01*
X206688134Y-52261500D01*
X204891866Y-52261500D01*
X204829684Y-52268255D01*
X204693295Y-52319385D01*
X204651620Y-52350619D01*
X204642150Y-52357716D01*
X204575644Y-52382564D01*
X204506261Y-52367511D01*
X204456031Y-52317337D01*
X204446751Y-52295824D01*
X204446688Y-52295630D01*
X204445833Y-52292438D01*
X204306532Y-51929547D01*
X204263173Y-51844451D01*
X204131561Y-51586147D01*
X204131557Y-51586140D01*
X204130062Y-51583206D01*
X204020199Y-51414030D01*
X203920152Y-51259971D01*
X203920152Y-51259970D01*
X203918357Y-51257207D01*
X203673734Y-50955124D01*
X203398876Y-50680266D01*
X203196544Y-50516420D01*
X203156192Y-50458006D01*
X203153827Y-50387049D01*
X203190200Y-50326077D01*
X203253763Y-50294449D01*
X203275839Y-50292500D01*
X232998161Y-50292500D01*
X233066282Y-50312502D01*
G37*
%TD.AperFunction*%
%TA.AperFunction,Conductor*%
G36*
X220394872Y-61797514D02*
G01*
X220434910Y-61818100D01*
X220459187Y-61836729D01*
X220458398Y-61837758D01*
X220490272Y-61869631D01*
X220491690Y-61868543D01*
X220528059Y-61915941D01*
X220539652Y-61924406D01*
X220557275Y-61914647D01*
X220626558Y-61899143D01*
X220634763Y-61899951D01*
X220668648Y-61904412D01*
X220733575Y-61933134D01*
X220772667Y-61992399D01*
X220777124Y-62012889D01*
X220781599Y-62046882D01*
X220770659Y-62117030D01*
X220767264Y-62123713D01*
X220756418Y-62143576D01*
X220758213Y-62168677D01*
X220743122Y-62238052D01*
X220721630Y-62266761D01*
X220562717Y-62425674D01*
X220554438Y-62433208D01*
X220547957Y-62437321D01*
X220533596Y-62452614D01*
X220472386Y-62488580D01*
X220401446Y-62485745D01*
X220343301Y-62445006D01*
X220316411Y-62379299D01*
X220316435Y-62353195D01*
X220318014Y-62338168D01*
X220318014Y-62338165D01*
X220318704Y-62331600D01*
X220311970Y-62267528D01*
X220299432Y-62148235D01*
X220299432Y-62148233D01*
X220298742Y-62141672D01*
X220239727Y-61960044D01*
X220241762Y-61959383D01*
X220233666Y-61898922D01*
X220263783Y-61834630D01*
X220323879Y-61796827D01*
X220394872Y-61797514D01*
G37*
%TD.AperFunction*%
%TA.AperFunction,Conductor*%
G36*
X217460593Y-58875477D02*
G01*
X217505656Y-58904438D01*
X217539472Y-58938254D01*
X217581118Y-58970210D01*
X217630758Y-59008300D01*
X217629809Y-59009536D01*
X217661591Y-59041318D01*
X217662827Y-59040369D01*
X217732873Y-59131655D01*
X217893025Y-59291807D01*
X217896303Y-59294322D01*
X217984311Y-59361853D01*
X217983361Y-59363090D01*
X218015144Y-59394873D01*
X218016381Y-59393923D01*
X218086427Y-59485209D01*
X218246579Y-59645361D01*
X218259086Y-59654958D01*
X218337865Y-59715407D01*
X218336916Y-59716643D01*
X218368698Y-59748425D01*
X218369934Y-59747476D01*
X218439980Y-59838762D01*
X218442899Y-59841681D01*
X218443912Y-59842836D01*
X218473793Y-59907239D01*
X218464111Y-59977572D01*
X218438280Y-60015014D01*
X218339231Y-60114063D01*
X218330951Y-60121598D01*
X218324471Y-60125711D01*
X218304477Y-60147003D01*
X218277846Y-60175362D01*
X218275091Y-60178204D01*
X218255354Y-60197941D01*
X218252874Y-60201138D01*
X218245171Y-60210158D01*
X218214903Y-60242390D01*
X218211084Y-60249336D01*
X218211082Y-60249339D01*
X218205141Y-60260145D01*
X218194290Y-60276664D01*
X218181875Y-60292670D01*
X218178730Y-60299939D01*
X218178727Y-60299943D01*
X218164315Y-60333248D01*
X218159098Y-60343898D01*
X218137794Y-60382651D01*
X218135823Y-60390326D01*
X218135823Y-60390327D01*
X218132756Y-60402273D01*
X218126352Y-60420977D01*
X218125632Y-60422642D01*
X218118308Y-60439566D01*
X218117069Y-60447389D01*
X218117066Y-60447399D01*
X218111390Y-60483235D01*
X218108984Y-60494855D01*
X218105548Y-60508239D01*
X218097989Y-60537681D01*
X218097989Y-60557935D01*
X218096438Y-60577645D01*
X218093269Y-60597654D01*
X218094015Y-60605546D01*
X218097430Y-60641672D01*
X218097989Y-60653530D01*
X218097989Y-61579122D01*
X218097462Y-61590305D01*
X218095787Y-61597798D01*
X218096036Y-61605726D01*
X218096036Y-61605728D01*
X218096089Y-61607422D01*
X218095754Y-61608712D01*
X218095290Y-61613617D01*
X218094499Y-61613542D01*
X218078234Y-61676137D01*
X218026064Y-61724291D01*
X217956142Y-61736595D01*
X217918905Y-61726484D01*
X217837230Y-61690120D01*
X217743830Y-61670267D01*
X217656886Y-61651786D01*
X217656881Y-61651786D01*
X217650429Y-61650414D01*
X217459455Y-61650414D01*
X217453003Y-61651786D01*
X217452998Y-61651786D01*
X217366054Y-61670267D01*
X217272654Y-61690120D01*
X217266624Y-61692805D01*
X217266623Y-61692805D01*
X217104220Y-61765111D01*
X217104218Y-61765112D01*
X217098190Y-61767796D01*
X217092849Y-61771676D01*
X217092848Y-61771677D01*
X216954312Y-61872330D01*
X216887444Y-61896188D01*
X216818293Y-61880108D01*
X216806190Y-61872330D01*
X216735666Y-61821091D01*
X216735665Y-61821090D01*
X216730324Y-61817210D01*
X216724296Y-61814526D01*
X216724294Y-61814525D01*
X216561891Y-61742219D01*
X216561890Y-61742219D01*
X216555860Y-61739534D01*
X216449320Y-61716888D01*
X216375516Y-61701200D01*
X216375511Y-61701200D01*
X216369059Y-61699828D01*
X216178085Y-61699828D01*
X216171633Y-61701200D01*
X216171628Y-61701200D01*
X216097824Y-61716888D01*
X215991284Y-61739534D01*
X215985254Y-61742219D01*
X215985253Y-61742219D01*
X215822850Y-61814525D01*
X215822848Y-61814526D01*
X215816820Y-61817210D01*
X215811479Y-61821090D01*
X215811478Y-61821091D01*
X215669278Y-61924406D01*
X215662319Y-61929462D01*
X215659151Y-61932980D01*
X215595769Y-61963397D01*
X215525315Y-61954633D01*
X215470784Y-61909171D01*
X215449489Y-61841443D01*
X215455633Y-61800107D01*
X215457405Y-61794656D01*
X215476151Y-61736961D01*
X215477661Y-61722599D01*
X215495423Y-61553598D01*
X215496113Y-61547033D01*
X215487543Y-61465492D01*
X215476841Y-61363668D01*
X215476841Y-61363666D01*
X215476151Y-61357105D01*
X215417136Y-61175477D01*
X215409724Y-61162638D01*
X215363302Y-61082234D01*
X215321649Y-61010089D01*
X215280964Y-60964903D01*
X215198284Y-60873078D01*
X215198283Y-60873077D01*
X215193862Y-60868167D01*
X215039361Y-60755915D01*
X215033335Y-60753232D01*
X215033328Y-60753228D01*
X214908545Y-60697672D01*
X214854449Y-60651692D01*
X214833799Y-60583765D01*
X214853151Y-60515457D01*
X214859830Y-60505861D01*
X214899177Y-60454583D01*
X214900414Y-60455533D01*
X214932197Y-60423750D01*
X214931247Y-60422513D01*
X215010074Y-60362027D01*
X215022533Y-60352467D01*
X215182685Y-60192315D01*
X215252731Y-60101029D01*
X215253967Y-60101978D01*
X215285749Y-60070196D01*
X215284800Y-60068960D01*
X215294440Y-60061563D01*
X215376086Y-59998914D01*
X215536238Y-59838762D01*
X215606284Y-59747476D01*
X215607520Y-59748425D01*
X215639302Y-59716643D01*
X215638353Y-59715407D01*
X215717132Y-59654958D01*
X215729639Y-59645361D01*
X215805971Y-59569029D01*
X215868283Y-59535003D01*
X215895066Y-59532124D01*
X216358609Y-59532124D01*
X216369792Y-59532651D01*
X216377285Y-59534326D01*
X216385211Y-59534077D01*
X216385212Y-59534077D01*
X216445362Y-59532186D01*
X216449321Y-59532124D01*
X216477232Y-59532124D01*
X216481167Y-59531627D01*
X216481232Y-59531619D01*
X216493069Y-59530686D01*
X216525327Y-59529672D01*
X216529346Y-59529546D01*
X216537265Y-59529297D01*
X216556719Y-59523645D01*
X216576076Y-59519637D01*
X216588306Y-59518092D01*
X216588307Y-59518092D01*
X216596173Y-59517098D01*
X216603544Y-59514179D01*
X216603546Y-59514179D01*
X216637288Y-59500820D01*
X216648518Y-59496975D01*
X216683359Y-59486853D01*
X216683360Y-59486853D01*
X216690969Y-59484642D01*
X216697788Y-59480609D01*
X216697793Y-59480607D01*
X216708404Y-59474331D01*
X216726152Y-59465636D01*
X216744993Y-59458176D01*
X216752996Y-59452362D01*
X216780763Y-59432188D01*
X216790683Y-59425672D01*
X216821911Y-59407204D01*
X216821914Y-59407202D01*
X216828738Y-59403166D01*
X216843059Y-59388845D01*
X216858093Y-59376004D01*
X216868070Y-59368755D01*
X216874483Y-59364096D01*
X216902674Y-59330019D01*
X216910664Y-59321240D01*
X217327466Y-58904438D01*
X217389778Y-58870412D01*
X217460593Y-58875477D01*
G37*
%TD.AperFunction*%
%TA.AperFunction,Conductor*%
G36*
X219561404Y-60965529D02*
G01*
X219585732Y-60984514D01*
X219660792Y-61059574D01*
X219690323Y-61082234D01*
X219752078Y-61129620D01*
X219751129Y-61130856D01*
X219782911Y-61162638D01*
X219784147Y-61161689D01*
X219854193Y-61252975D01*
X219885495Y-61284277D01*
X219919521Y-61346589D01*
X219914456Y-61417404D01*
X219871909Y-61474240D01*
X219805389Y-61499051D01*
X219745152Y-61488479D01*
X219693523Y-61465492D01*
X219693515Y-61465489D01*
X219687488Y-61462806D01*
X219594087Y-61442953D01*
X219507144Y-61424472D01*
X219507139Y-61424472D01*
X219500687Y-61423100D01*
X219490989Y-61423100D01*
X219489264Y-61422593D01*
X219487518Y-61422410D01*
X219487552Y-61422091D01*
X219422868Y-61403098D01*
X219376375Y-61349442D01*
X219364989Y-61297100D01*
X219364989Y-61073786D01*
X219384991Y-61005665D01*
X219438647Y-60959172D01*
X219487042Y-60947848D01*
X219492690Y-60947671D01*
X219561404Y-60965529D01*
G37*
%TD.AperFunction*%
%TA.AperFunction,Conductor*%
G36*
X227743274Y-58754753D02*
G01*
X227792754Y-58805667D01*
X227806980Y-58856249D01*
X227806980Y-58859136D01*
X227807475Y-58863053D01*
X227807475Y-58863057D01*
X227807485Y-58863136D01*
X227808418Y-58874973D01*
X227809807Y-58919169D01*
X227815352Y-58938254D01*
X227815458Y-58938619D01*
X227819467Y-58957980D01*
X227822006Y-58978077D01*
X227824925Y-58985448D01*
X227824925Y-58985450D01*
X227838284Y-59019192D01*
X227842129Y-59030422D01*
X227854462Y-59072873D01*
X227858495Y-59079692D01*
X227858497Y-59079697D01*
X227864773Y-59090308D01*
X227873468Y-59108056D01*
X227880928Y-59126897D01*
X227885590Y-59133313D01*
X227885590Y-59133314D01*
X227906916Y-59162667D01*
X227913432Y-59172587D01*
X227935938Y-59210642D01*
X227950259Y-59224963D01*
X227963099Y-59239996D01*
X227975008Y-59256387D01*
X227981116Y-59261440D01*
X228009078Y-59284572D01*
X228017858Y-59292562D01*
X228219595Y-59494299D01*
X228253621Y-59556611D01*
X228256500Y-59583394D01*
X228256500Y-59652502D01*
X228259438Y-59689831D01*
X228288472Y-59789769D01*
X228301754Y-59835484D01*
X228305855Y-59849601D01*
X228309892Y-59856427D01*
X228386509Y-59985980D01*
X228386511Y-59985983D01*
X228390547Y-59992807D01*
X228411616Y-60013876D01*
X228445642Y-60076188D01*
X228440577Y-60147003D01*
X228398030Y-60203839D01*
X228348718Y-60226217D01*
X228316409Y-60233085D01*
X228273370Y-60242233D01*
X228273367Y-60242234D01*
X228266912Y-60243606D01*
X228260882Y-60246291D01*
X228260881Y-60246291D01*
X228231782Y-60259247D01*
X228161415Y-60268681D01*
X228097118Y-60238575D01*
X228086897Y-60228450D01*
X228047275Y-60184445D01*
X228047274Y-60184444D01*
X228042853Y-60179534D01*
X227934801Y-60101029D01*
X227893694Y-60071163D01*
X227893693Y-60071162D01*
X227888352Y-60067282D01*
X227882324Y-60064598D01*
X227882322Y-60064597D01*
X227719919Y-59992291D01*
X227719918Y-59992291D01*
X227713888Y-59989606D01*
X227612109Y-59967972D01*
X227533544Y-59951272D01*
X227533539Y-59951272D01*
X227527087Y-59949900D01*
X227336113Y-59949900D01*
X227329661Y-59951272D01*
X227329656Y-59951272D01*
X227251091Y-59967972D01*
X227149312Y-59989606D01*
X227143282Y-59992291D01*
X227143281Y-59992291D01*
X226980878Y-60064597D01*
X226980876Y-60064598D01*
X226974848Y-60067282D01*
X226886550Y-60131435D01*
X226883797Y-60133435D01*
X226816930Y-60157293D01*
X226747778Y-60141213D01*
X226698298Y-60090300D01*
X226684198Y-60020717D01*
X226687693Y-60000171D01*
X226688256Y-59997977D01*
X226694657Y-59979286D01*
X226699553Y-59967972D01*
X226699553Y-59967971D01*
X226702701Y-59960697D01*
X226703940Y-59952874D01*
X226703943Y-59952864D01*
X226709619Y-59917028D01*
X226712025Y-59905408D01*
X226721048Y-59870263D01*
X226721048Y-59870262D01*
X226723020Y-59862582D01*
X226723020Y-59842328D01*
X226724571Y-59822617D01*
X226726500Y-59810438D01*
X226727740Y-59802609D01*
X226723579Y-59758590D01*
X226723020Y-59746733D01*
X226723020Y-59520483D01*
X226743022Y-59452362D01*
X226759925Y-59431387D01*
X227305702Y-58885611D01*
X227373048Y-58851296D01*
X227375338Y-58851224D01*
X227394792Y-58845572D01*
X227414149Y-58841564D01*
X227426379Y-58840019D01*
X227426380Y-58840019D01*
X227434246Y-58839025D01*
X227441617Y-58836106D01*
X227441619Y-58836106D01*
X227475361Y-58822747D01*
X227486591Y-58818902D01*
X227521432Y-58808780D01*
X227521433Y-58808780D01*
X227529042Y-58806569D01*
X227535861Y-58802536D01*
X227535866Y-58802534D01*
X227546477Y-58796258D01*
X227564225Y-58787563D01*
X227583066Y-58780103D01*
X227607255Y-58762529D01*
X227674123Y-58738671D01*
X227743274Y-58754753D01*
G37*
%TD.AperFunction*%
%TA.AperFunction,Conductor*%
G36*
X211124093Y-57052567D02*
G01*
X211180929Y-57095114D01*
X211187205Y-57104320D01*
X211238425Y-57187090D01*
X211247460Y-57198490D01*
X211360129Y-57310963D01*
X211371540Y-57319975D01*
X211507063Y-57403512D01*
X211507503Y-57403717D01*
X211507753Y-57403937D01*
X211513293Y-57407352D01*
X211512708Y-57408300D01*
X211560789Y-57450634D01*
X211580250Y-57518911D01*
X211559709Y-57586871D01*
X211505686Y-57632937D01*
X211454254Y-57643912D01*
X211298900Y-57643912D01*
X211287717Y-57643385D01*
X211280224Y-57641710D01*
X211272298Y-57641959D01*
X211272297Y-57641959D01*
X211212147Y-57643850D01*
X211208188Y-57643912D01*
X211180277Y-57643912D01*
X211176343Y-57644409D01*
X211176342Y-57644409D01*
X211176277Y-57644417D01*
X211164440Y-57645350D01*
X211132623Y-57646350D01*
X211128162Y-57646490D01*
X211120243Y-57646739D01*
X211109390Y-57649892D01*
X211100791Y-57652390D01*
X211081439Y-57656398D01*
X211074368Y-57657292D01*
X211061336Y-57658938D01*
X211053967Y-57661855D01*
X211053965Y-57661856D01*
X211020230Y-57675212D01*
X211009002Y-57679057D01*
X210966540Y-57691394D01*
X210959717Y-57695429D01*
X210959715Y-57695430D01*
X210949105Y-57701705D01*
X210931357Y-57710400D01*
X210912516Y-57717860D01*
X210906100Y-57722522D01*
X210906099Y-57722522D01*
X210876746Y-57743848D01*
X210866825Y-57750364D01*
X210828771Y-57772870D01*
X210823164Y-57778476D01*
X210814448Y-57787192D01*
X210799415Y-57800032D01*
X210783026Y-57811940D01*
X210777974Y-57818047D01*
X210754841Y-57846010D01*
X210746851Y-57854790D01*
X210656868Y-57944773D01*
X210594556Y-57978799D01*
X210523741Y-57973734D01*
X210478678Y-57944773D01*
X210474405Y-57940500D01*
X210440379Y-57878188D01*
X210437500Y-57851405D01*
X210437500Y-57687184D01*
X210457502Y-57619063D01*
X210474405Y-57598089D01*
X210990966Y-57081528D01*
X211053278Y-57047502D01*
X211124093Y-57052567D01*
G37*
%TD.AperFunction*%
%TA.AperFunction,Conductor*%
G36*
X226672590Y-57513105D02*
G01*
X226719083Y-57566761D01*
X226729187Y-57637035D01*
X226699693Y-57701615D01*
X226686164Y-57714431D01*
X226683495Y-57716009D01*
X226669174Y-57730330D01*
X226654141Y-57743170D01*
X226637750Y-57755079D01*
X226632700Y-57761183D01*
X226632695Y-57761188D01*
X226609564Y-57789149D01*
X226601574Y-57797930D01*
X226469611Y-57929892D01*
X226407299Y-57963917D01*
X226336483Y-57958851D01*
X226279648Y-57916305D01*
X226259519Y-57875949D01*
X226225894Y-57760212D01*
X226219648Y-57745779D01*
X226182664Y-57683242D01*
X226165205Y-57614426D01*
X226187722Y-57547094D01*
X226243066Y-57502625D01*
X226291118Y-57493103D01*
X226604469Y-57493103D01*
X226672590Y-57513105D01*
G37*
%TD.AperFunction*%
%TA.AperFunction,Conductor*%
G36*
X215687111Y-56135239D02*
G01*
X215728108Y-56178236D01*
X215794749Y-56293661D01*
X215820525Y-56322288D01*
X215851241Y-56386294D01*
X215842477Y-56456748D01*
X215797015Y-56511279D01*
X215729287Y-56532574D01*
X215710442Y-56531519D01*
X215582085Y-56514621D01*
X215573896Y-56513543D01*
X215421572Y-56533597D01*
X215413945Y-56536756D01*
X215413942Y-56536757D01*
X215352383Y-56562256D01*
X215279628Y-56592392D01*
X215188342Y-56662438D01*
X215116595Y-56734185D01*
X215054283Y-56768211D01*
X214983468Y-56763146D01*
X214926632Y-56720599D01*
X214901821Y-56654079D01*
X214901500Y-56645090D01*
X214901500Y-56404194D01*
X214921502Y-56336073D01*
X214938405Y-56315099D01*
X215101362Y-56152142D01*
X215163674Y-56118116D01*
X215190457Y-56115237D01*
X215618990Y-56115237D01*
X215687111Y-56135239D01*
G37*
%TD.AperFunction*%
%TD*%
M02*
